<svg width="23" height="24" viewBox="0 0 23 24" fill="none" xmlns="http://www.w3.org/2000/svg">
<path d="M4.38262 24H18.6174C19.7797 24 20.8945 23.5335 21.7164 22.703C22.5383 21.8725 23 20.7462 23 19.5717V9.31877C22.9995 8.59746 22.8246 7.88719 22.4906 7.24972C22.1566 6.61224 21.6735 6.06687 21.0833 5.66101L13.9689 0.775137C13.2425 0.270284 12.3816 0 11.5 0C10.6184 0 9.75749 0.270284 9.03112 0.775137L1.91667 5.66101C1.32652 6.06687 0.843424 6.61224 0.509389 7.24972C0.175353 7.88719 0.000488311 8.59746 0 9.31877V19.5717C0 20.7462 0.461739 21.8725 1.28364 22.703C2.10554 23.5335 3.22028 24 4.38262 24ZM1.75305 9.31877C1.75366 8.88608 1.85885 8.46008 2.05947 8.07781C2.26009 7.69554 2.55008 7.36856 2.90422 7.12529L10.0187 2.22466C10.4553 1.92385 10.9715 1.76296 11.5 1.76296C12.0285 1.76296 12.5447 1.92385 12.9813 2.22466L20.0958 7.12529C20.4499 7.36856 20.7399 7.69554 20.9405 8.07781C21.1411 8.46008 21.2463 8.88608 21.247 9.31877V19.5717C21.247 20.2764 20.9699 20.9522 20.4768 21.4505C19.9836 21.9488 19.3148 22.2287 18.6174 22.2287H4.38262C3.68522 22.2287 3.01637 21.9488 2.52323 21.4505C2.03009 20.9522 1.75305 20.2764 1.75305 19.5717V9.31877ZM6.15612 18.7835C6.15612 17.3514 6.71914 15.978 7.72131 14.9654C8.72348 13.9528 10.0827 13.3839 11.5 13.3839C12.9173 13.3839 14.2765 13.9528 15.2787 14.9654C16.2809 15.978 16.8439 17.3514 16.8439 18.7835C16.8439 19.0184 16.7515 19.2436 16.5871 19.4097C16.4228 19.5758 16.1998 19.6691 15.9674 19.6691C15.7349 19.6691 15.5119 19.5758 15.3476 19.4097C15.1832 19.2436 15.0908 19.0184 15.0908 18.7835C15.0908 17.8212 14.7125 16.8984 14.0391 16.2179C13.3657 15.5375 12.4523 15.1552 11.5 15.1552C10.5477 15.1552 9.63431 15.5375 8.9609 16.2179C8.28749 16.8984 7.90917 17.8212 7.90917 18.7835C7.90917 19.0184 7.81682 19.2436 7.65244 19.4097C7.48806 19.5758 7.26512 19.6691 7.03265 19.6691C6.80018 19.6691 6.57723 19.5758 6.41285 19.4097C6.24847 19.2436 6.15612 19.0184 6.15612 18.7835Z" fill="#343434"/>
</svg>
