<svg width="27" height="28" viewBox="0 0 27 28" fill="none" xmlns="http://www.w3.org/2000/svg">
<path d="M26 11.3188V11.3181C25.9994 10.4357 25.7855 9.56639 25.3764 8.78558C24.9672 8.00472 24.3749 7.33557 23.65 6.83705L23.6494 6.83668L16.5396 1.95399C16.5388 1.95343 16.538 1.95286 16.5371 1.95229C15.6444 1.33251 14.5854 1 13.5 1C12.4146 1 11.3556 1.33251 10.4628 1.95229L3.35056 6.83668L3.35001 6.83705C2.62514 7.33557 2.0328 8.00472 1.62363 8.78558C1.21448 9.56639 1.0006 10.4357 1 11.3181V11.3188V21.5717C1 23.0081 1.5646 24.3876 2.57288 25.4064C3.5815 26.4255 4.9517 27 6.38262 27H20.6174C22.0483 27 23.4185 26.4255 24.4271 25.4064C25.4354 24.3876 26 23.0081 26 21.5717V11.3188Z" fill="#93D56F" stroke="#93D56F" stroke-width="2"/>
</svg>
