<svg width="25" height="24" viewBox="0 0 25 24" fill="none" xmlns="http://www.w3.org/2000/svg">
<path d="M16.1617 10.8847C17.1765 10.1195 17.9245 9.05559 18.3003 7.84338C18.676 6.63117 18.6604 5.33187 18.2558 4.12897C17.8511 2.92606 17.0778 1.88033 16.045 1.13945C15.0122 0.39858 13.7722 0 12.5 0C11.2278 0 9.98779 0.39858 8.95502 1.13945C7.92225 1.88033 7.14892 2.92606 6.74425 4.12897C6.33958 5.33187 6.32401 6.63117 6.69975 7.84338C7.07548 9.05559 7.82354 10.1195 8.83826 10.8847C6.28192 11.6698 4.04475 13.2505 2.45434 15.3954C0.863925 17.5403 0.00383064 20.1367 1.04313e-07 22.8045C-7.20371e-05 22.9535 0.0372758 23.1001 0.108635 23.231C0.179994 23.3619 0.283091 23.4729 0.408516 23.5539C0.53388 23.635 0.677606 23.6834 0.826575 23.6949C0.975544 23.7063 1.12501 23.6803 1.26133 23.6193C1.3329 23.5866 8.64742 20.3747 14.6619 22.513C17.9688 23.6848 20.3453 24 21.9317 24C23.518 24 24.3172 23.7026 24.4573 23.6312C24.6184 23.5625 24.7558 23.448 24.8522 23.3021C24.9487 23.1562 25.0001 22.9852 25 22.8104C24.9974 20.1417 24.1379 17.5439 22.5474 15.3978C20.9569 13.2517 18.7191 11.6701 16.1617 10.8847ZM8.21803 6.05498C8.22039 5.21083 8.47353 4.38632 8.94547 3.68558C9.41741 2.98485 10.087 2.43932 10.8696 2.11791C11.6522 1.7965 12.5128 1.71362 13.3427 1.87974C14.1725 2.04587 14.9343 2.45354 15.532 3.05127C16.1297 3.649 16.5363 4.40998 16.7005 5.23808C16.8648 6.06617 16.7793 6.92425 16.4549 7.70391C16.1304 8.48358 15.5816 9.14986 14.8777 9.6186C14.1738 10.0873 13.3464 10.3375 12.5 10.3375C11.9368 10.3371 11.3792 10.226 10.8591 10.0105C10.339 9.795 9.86654 9.47934 9.46885 9.0816C9.07115 8.68385 8.75598 8.21181 8.54135 7.69247C8.32673 7.17314 8.21686 6.61669 8.21803 6.05498ZM15.2642 20.8297C13.5756 20.2535 11.8007 19.9689 10.0161 19.9881C7.23824 20.0353 4.48705 20.5376 1.87261 21.4751C2.20279 18.8361 3.50807 16.4148 5.53322 14.6847C7.55836 12.9546 10.1577 12.0402 12.823 12.1201C15.4883 12.2001 18.0279 13.2687 19.9452 15.117C21.8624 16.9654 23.0194 19.4605 23.19 22.1145C22.1374 22.2781 19.6028 22.3732 15.2642 20.8297Z" fill="#343434"/>
</svg>
