<svg width="23" height="24" viewBox="0 0 23 24" fill="none" xmlns="http://www.w3.org/2000/svg">
<path d="M5.96941 21.0895V19.1198H20.7171C21.1091 19.1197 21.4945 19.018 21.8361 18.8247C22.1777 18.6314 22.4641 18.3529 22.6677 18.016C22.8713 17.6791 22.9853 17.2951 22.9987 16.9011C23.012 16.5071 22.9243 16.1163 22.744 15.7662L20.4602 11.3129C20.4182 11.2312 20.3962 11.1406 20.3962 11.0487C20.3962 10.9568 20.4182 10.8662 20.4602 10.7845L22.744 6.33122C22.9243 5.98116 23.012 5.59031 22.9987 5.19629C22.9853 4.80227 22.8713 4.41834 22.6677 4.08145C22.4641 3.74456 22.1777 3.46605 21.8361 3.27272C21.4945 3.07939 21.1091 2.97775 20.7171 2.97759H5.96655C5.9605 2.18181 5.64038 1.42105 5.07664 0.862663C4.51289 0.304273 3.75168 -0.00600401 2.96048 8.80429e-05C2.16928 0.00618009 1.41289 0.328143 0.857707 0.895148C0.302526 1.46215 -0.00596952 2.22775 8.75372e-05 3.02353V21.0895C0.0240775 21.8696 0.349047 22.6096 0.90616 23.1529C1.46327 23.6962 2.20877 24 2.98475 24C3.76072 24 4.50622 23.6962 5.06334 23.1529C5.62045 22.6096 5.94542 21.8696 5.96941 21.0895ZM21.2082 4.97886C21.2583 5.06295 21.2862 5.15855 21.2892 5.25656C21.2922 5.35457 21.2702 5.45172 21.2253 5.53875L18.9243 9.99208C18.7562 10.3186 18.6684 10.681 18.6684 11.0487C18.6684 11.4164 18.7562 11.7788 18.9243 12.1053L21.2082 16.5587C21.2532 16.6461 21.2751 16.7436 21.2718 16.842C21.2686 16.9404 21.2402 17.0363 21.1895 17.1205C21.1387 17.2047 21.0673 17.2743 20.9821 17.3228C20.8969 17.3712 20.8007 17.3968 20.7029 17.3971H5.96941V4.70034H20.7171C20.816 4.70007 20.9131 4.72558 20.9992 4.7744C21.0853 4.82322 21.1573 4.89367 21.2082 4.97886ZM4.25655 21.0895C4.24106 21.4183 4.1003 21.7284 3.86349 21.9556C3.62668 22.1827 3.31199 22.3095 2.98475 22.3095C2.6575 22.3095 2.34282 22.1827 2.10601 21.9556C1.8692 21.7284 1.72844 21.4183 1.71295 21.0895V3.02353C1.72844 2.69476 1.8692 2.38461 2.10601 2.15745C2.34282 1.93029 2.6575 1.80356 2.98475 1.80356C3.31199 1.80356 3.62668 1.93029 3.86349 2.15745C4.1003 2.38461 4.24106 2.69476 4.25655 3.02353V21.0895Z" fill="#343434"/>
</svg>
