<svg width="27" height="28" viewBox="0 0 27 28" fill="none" xmlns="http://www.w3.org/2000/svg">
<path d="M8.96894 23.1203L8.96941 23.1049V23.0895V22.1198H22.7171H22.7176C23.2823 22.1196 23.8371 21.9731 24.3286 21.695C24.8201 21.4169 25.2314 21.0166 25.5236 20.5332C25.8157 20.0499 25.979 19.4995 25.9981 18.935C26.0172 18.3707 25.8917 17.8107 25.6333 17.3088C25.6332 17.3086 25.6331 17.3084 25.633 17.3083L23.4486 13.0487L25.633 8.78914C25.6331 8.78901 25.6332 8.78889 25.6332 8.78877C25.8917 8.28679 26.0172 7.72673 25.9981 7.16239C25.979 6.59792 25.8157 6.04753 25.5236 5.56419C25.2314 5.08082 24.8201 4.68054 24.3286 4.40241C23.8371 4.12427 23.2823 3.97783 22.7176 3.97759H22.7171H8.83422C8.65352 3.2915 8.29256 2.65952 7.78036 2.15219C7.02807 1.40705 6.01106 0.991969 4.95278 1.00012C3.89451 1.00827 2.88399 1.43895 2.14319 2.19553C1.40353 2.95094 0.993109 3.96939 1.00009 5.02706V23.0895V23.1049L1.00056 23.1203C1.03248 24.1583 1.4649 25.1442 2.20801 25.8689C2.95129 26.5937 3.9471 27 4.98475 27C6.0224 27 7.0182 26.5937 7.76149 25.8689C8.5046 25.1442 8.93701 24.1583 8.96894 23.1203Z" fill="#93D56F" stroke="#93D56F" stroke-width="2"/>
</svg>
