<svg width="24" height="24" viewBox="0 0 24 24" fill="none" xmlns="http://www.w3.org/2000/svg">
<path d="M17.4389 6.94959C17.4389 7.18834 17.3485 7.41731 17.1874 7.58613C17.0264 7.75495 16.8079 7.84979 16.5802 7.84979H7.41985C7.19209 7.84979 6.97365 7.75495 6.8126 7.58613C6.65155 7.41731 6.56107 7.18834 6.56107 6.94959C6.56107 6.71084 6.65155 6.48187 6.8126 6.31305C6.97365 6.14422 7.19209 6.04938 7.41985 6.04938H16.5802C16.8079 6.04938 17.0264 6.14422 17.1874 6.31305C17.3485 6.48187 17.4389 6.71084 17.4389 6.94959ZM16.5802 11.5136H7.41985C7.19209 11.5136 6.97365 11.6085 6.8126 11.7773C6.65155 11.9461 6.56107 12.1751 6.56107 12.4138C6.56107 12.6526 6.65155 12.8816 6.8126 13.0504C6.97365 13.2192 7.19209 13.314 7.41985 13.314H16.5802C16.8079 13.314 17.0264 13.2192 17.1874 13.0504C17.3485 12.8816 17.4389 12.6526 17.4389 12.4138C17.4389 12.1751 17.3485 11.9461 17.1874 11.7773C17.0264 11.6085 16.8079 11.5136 16.5802 11.5136ZM24 4.8011V14.5473C24 15.8207 23.5175 17.0418 22.6585 17.9422C21.7996 18.8426 20.6346 19.3484 19.4198 19.3484H15.8416L10.2824 23.5344C9.93152 23.8 9.51737 23.9587 9.08577 23.993C8.65418 24.0272 8.22194 23.9358 7.83684 23.7287C7.45174 23.5215 7.12877 23.2068 6.90362 22.8193C6.67847 22.4318 6.55992 21.9866 6.56107 21.5329V19.3514H4.58015C3.36542 19.3514 2.20044 18.8456 1.3415 17.9452C0.482551 17.0448 0 15.8237 0 14.5503V4.8011C0 3.52777 0.482551 2.30659 1.3415 1.40621C2.20044 0.505828 3.36542 0 4.58015 0H19.4198C20.6346 0 21.7996 0.505828 22.6585 1.40621C23.5175 2.30659 24 3.52777 24 4.8011ZM22.2824 4.8011C22.2824 4.40704 22.2084 4.01684 22.0645 3.65278C21.9207 3.28872 21.7098 2.95793 21.444 2.67929C21.1782 2.40065 20.8626 2.17962 20.5153 2.02883C20.168 1.87803 19.7958 1.80041 19.4198 1.80041H4.58015C3.82095 1.80041 3.09283 2.11655 2.55599 2.67929C2.01915 3.24203 1.71756 4.00527 1.71756 4.8011V14.5473C1.71756 15.3432 2.01915 16.1064 2.55599 16.6691C3.09283 17.2319 3.82095 17.548 4.58015 17.548H7.41985C7.64761 17.548 7.86604 17.6429 8.0271 17.8117C8.18815 17.9805 8.27863 18.2095 8.27863 18.4482V21.5329C8.27859 21.6543 8.31046 21.7733 8.37075 21.8769C8.43103 21.9805 8.51739 22.0647 8.62034 22.1202C8.72328 22.1757 8.83883 22.2004 8.95429 22.1915C9.06975 22.1827 9.18065 22.1406 9.27481 22.07L15.0744 17.719C15.2205 17.6095 15.3957 17.5507 15.5754 17.551H19.4198C19.7958 17.551 20.168 17.4734 20.5153 17.3226C20.8626 17.1718 21.1782 16.9508 21.444 16.6721C21.7098 16.3935 21.9207 16.0627 22.0645 15.6986C22.2084 15.3346 22.2824 14.9444 22.2824 14.5503V4.8011Z" fill="#343434"/>
</svg>
