<svg width="28" height="28" viewBox="0 0 28 28" fill="none" xmlns="http://www.w3.org/2000/svg">
<path d="M7.56107 22.3514H6.58015C5.0846 22.3514 3.66039 21.7282 2.61794 20.6355C1.57701 19.5443 1 18.0741 1 16.5503V6.8011C1 5.27735 1.57701 3.80709 2.61794 2.71595C3.66039 1.6232 5.0846 1 6.58015 1H21.4198C22.9154 1 24.3396 1.6232 25.3821 2.71595C26.423 3.80709 27 5.27736 27 6.8011V16.5473C27 18.0711 26.423 19.5413 25.3821 20.6325C24.3396 21.7252 22.9154 22.3484 21.4198 22.3484H18.176L12.8859 26.3318C12.8854 26.3321 12.885 26.3325 12.8845 26.3328C12.3844 26.7109 11.7895 26.9402 11.165 26.9898C10.5397 27.0395 9.91577 26.9066 9.36317 26.6094C8.81107 26.3124 8.35454 25.8648 8.03897 25.3217C7.72383 24.7793 7.55973 24.1601 7.56107 23.5318M7.56107 22.3514L7.56107 23.5304C7.56107 23.5309 7.56107 23.5314 7.56107 23.5318M7.56107 22.3514V23.5318M7.56107 22.3514V23.5318" fill="#93D56F" stroke="#93D56F" stroke-width="2"/>
</svg>
