<svg width="112" height="112" viewBox="0 0 112 112" fill="none" xmlns="http://www.w3.org/2000/svg">
<rect width="112" height="112" rx="56" fill="url(#paint0_linear_1251_2381)"/>
<path d="M56 82C52.4033 82 49.0233 81.3175 45.86 79.9525C42.6967 78.5875 39.945 76.735 37.605 74.395C35.265 72.055 33.4125 69.3033 32.0475 66.14C30.6825 62.9767 30 59.5967 30 56C30 52.4033 30.6825 49.0233 32.0475 45.86C33.4125 42.6967 35.265 39.945 37.605 37.605C39.945 35.265 42.6967 33.4125 45.86 32.0475C49.0233 30.6825 52.4033 30 56 30C59.5967 30 62.9767 30.6825 66.14 32.0475C69.3033 33.4125 72.055 35.265 74.395 37.605C76.735 39.945 78.5875 42.6967 79.9525 45.86C81.3175 49.0233 82 52.4033 82 56V59.77C82 62.3267 81.1225 64.5042 79.3675 66.3025C77.6125 68.1008 75.4567 69 72.9 69C71.3833 69 69.9533 68.675 68.61 68.025C67.2667 67.375 66.14 66.4433 65.23 65.23C63.9733 66.4867 62.5542 67.4292 60.9725 68.0575C59.3908 68.6858 57.7333 69 56 69C52.4033 69 49.3375 67.7325 46.8025 65.1975C44.2675 62.6625 43 59.5967 43 56C43 52.4033 44.2675 49.3375 46.8025 46.8025C49.3375 44.2675 52.4033 43 56 43C59.5967 43 62.6625 44.2675 65.1975 46.8025C67.7325 49.3375 69 52.4033 69 56V59.77C69 60.8967 69.3683 61.85 70.105 62.63C70.8417 63.41 71.7733 63.8 72.9 63.8C74.0267 63.8 74.9583 63.41 75.695 62.63C76.4317 61.85 76.8 60.8967 76.8 59.77V56C76.8 50.1933 74.785 45.275 70.755 41.245C66.725 37.215 61.8067 35.2 56 35.2C50.1933 35.2 45.275 37.215 41.245 41.245C37.215 45.275 35.2 50.1933 35.2 56C35.2 61.8067 37.215 66.725 41.245 70.755C45.275 74.785 50.1933 76.8 56 76.8H69V82H56ZM56 63.8C58.1667 63.8 60.0083 63.0417 61.525 61.525C63.0417 60.0083 63.8 58.1667 63.8 56C63.8 53.8333 63.0417 51.9917 61.525 50.475C60.0083 48.9583 58.1667 48.2 56 48.2C53.8333 48.2 51.9917 48.9583 50.475 50.475C48.9583 51.9917 48.2 53.8333 48.2 56C48.2 58.1667 48.9583 60.0083 50.475 61.525C51.9917 63.0417 53.8333 63.8 56 63.8Z" fill="white"/>
<defs>
<linearGradient id="paint0_linear_1251_2381" x1="56" y1="0" x2="56" y2="112" gradientUnits="userSpaceOnUse">
<stop stop-color="#93D56F"/>
<stop offset="1" stop-color="#659A57"/>
</linearGradient>
</defs>
</svg>
