<svg width="112" height="112" viewBox="0 0 112 112" fill="none" xmlns="http://www.w3.org/2000/svg">
<rect width="112" height="112" rx="56" fill="url(#paint0_linear_1251_2383)"/>
<path d="M74.55 77C69.6889 77 64.8861 75.9403 60.1417 73.8208C55.3972 71.7014 51.0806 68.6972 47.1917 64.8083C43.3028 60.9194 40.2986 56.6028 38.1792 51.8583C36.0597 47.1139 35 42.3111 35 37.45C35 36.75 35.2333 36.1667 35.7 35.7C36.1667 35.2333 36.75 35 37.45 35H46.9C47.4444 35 47.9306 35.1847 48.3583 35.5542C48.7861 35.9236 49.0389 36.3611 49.1167 36.8667L50.6333 45.0333C50.7111 45.6556 50.6917 46.1806 50.575 46.6083C50.4583 47.0361 50.2444 47.4056 49.9333 47.7167L44.275 53.4333C45.0528 54.8722 45.9764 56.2625 47.0458 57.6042C48.1153 58.9458 49.2917 60.2389 50.575 61.4833C51.7806 62.6889 53.0444 63.8069 54.3667 64.8375C55.6889 65.8681 57.0889 66.8111 58.5667 67.6667L64.05 62.1833C64.4 61.8333 64.8569 61.5708 65.4208 61.3958C65.9847 61.2208 66.5389 61.1722 67.0833 61.25L75.1333 62.8833C75.6778 63.0389 76.125 63.3208 76.475 63.7292C76.825 64.1375 77 64.5944 77 65.1V74.55C77 75.25 76.7667 75.8333 76.3 76.3C75.8333 76.7667 75.25 77 74.55 77ZM42.0583 49L45.9083 45.15L44.9167 39.6667H39.725C39.9194 41.2611 40.1917 42.8361 40.5417 44.3917C40.8917 45.9472 41.3972 47.4833 42.0583 49ZM62.9417 69.8833C64.4583 70.5444 66.0042 71.0694 67.5792 71.4583C69.1542 71.8472 70.7389 72.1 72.3333 72.2167V67.0833L66.85 65.975L62.9417 69.8833Z" fill="white"/>
<defs>
<linearGradient id="paint0_linear_1251_2383" x1="56" y1="0" x2="56" y2="112" gradientUnits="userSpaceOnUse">
<stop stop-color="#93D56F"/>
<stop offset="1" stop-color="#659A57"/>
</linearGradient>
</defs>
</svg>
