<svg width="112" height="112" viewBox="0 0 112 112" fill="none" xmlns="http://www.w3.org/2000/svg">
<path fill-rule="evenodd" clip-rule="evenodd" d="M56 112C25.0721 112 0 86.9279 0 56C0 25.0721 25.0721 0 56 0C86.9279 0 112 25.0721 112 56C112 86.9279 86.9279 112 56 112ZM58.4215 42.0258C53.406 44.1119 43.3821 48.4297 28.3497 54.979C25.9087 55.9497 24.63 56.8994 24.5136 57.8279C24.3168 59.3972 26.282 60.0152 28.9581 60.8566C29.3221 60.9711 29.6993 61.0897 30.0859 61.2154C32.7188 62.0712 36.2604 63.0725 38.1016 63.1122C39.7717 63.1483 41.6357 62.4598 43.6936 61.0466C57.7388 51.5657 64.989 46.7736 65.4442 46.6703C65.7653 46.5974 66.2103 46.5058 66.5118 46.7738C66.8133 47.0418 66.7837 47.5493 66.7518 47.6855C66.5571 48.5154 58.843 55.6871 54.851 59.3984C53.6065 60.5554 52.7237 61.3761 52.5433 61.5636C52.139 61.9834 51.727 62.3806 51.331 62.7623C48.8851 65.1203 47.0508 66.8885 51.4326 69.776C53.5383 71.1636 55.2233 72.3111 56.9043 73.4559C58.7401 74.7061 60.5712 75.953 62.9403 77.506C63.5439 77.9017 64.1203 78.3126 64.6818 78.7129C66.8182 80.236 68.7377 81.6044 71.109 81.3862C72.4869 81.2594 73.9102 79.9637 74.633 76.0995C76.3413 66.9672 79.6991 47.1803 80.4751 39.0266C80.5431 38.3123 80.4576 37.398 80.3889 36.9967C80.3202 36.5953 80.1767 36.0235 79.655 35.6002C79.0372 35.0989 78.0834 34.9932 77.6568 35.0003C75.7174 35.0349 72.7417 36.0695 58.4215 42.0258Z" fill="url(#paint0_linear_781_827)"/>
<defs>
<linearGradient id="paint0_linear_781_827" x1="56" y1="0" x2="56" y2="112" gradientUnits="userSpaceOnUse">
<stop stop-color="#2AABEE"/>
<stop offset="1" stop-color="#229ED9"/>
</linearGradient>
</defs>
</svg>
