<svg width="112" height="112" viewBox="0 0 112 112" fill="none" xmlns="http://www.w3.org/2000/svg">
<rect width="112" height="112" rx="56" fill="#0077FF"/>
<path fill-rule="evenodd" clip-rule="evenodd" d="M30 40.0256C30.4156 60.0096 40.5455 72 58.3117 72H59.3507V60.5733C65.8701 61.2138 70.8052 65.9279 72.7792 72H82C81.0543 68.5496 79.3777 65.3362 77.0809 62.5716C74.7841 59.8071 71.9193 57.5542 68.6753 55.9616C71.5822 54.2154 74.0928 51.8968 76.0503 49.1504C78.0077 46.4041 79.37 43.2891 80.0519 40H71.6883C69.8701 46.3539 64.4675 52.1185 59.3507 52.6565V40.0256H50.961V62.1617C45.7662 60.8807 39.2208 54.6805 38.9351 40.0256H30Z" fill="white"/>
</svg>
