<svg width="112" height="112" viewBox="0 0 112 112" fill="none" xmlns="http://www.w3.org/2000/svg">
<rect width="112" height="112" rx="56" fill="#25D366"/>
<path fill-rule="evenodd" clip-rule="evenodd" d="M74.2 37.475C69.325 32.6 62.825 30 56 30C41.7 30 30 41.7 30 56C30 60.55 31.3 65.1 33.575 69L30 82L43.65 78.425C47.55 80.375 51.775 81.675 56 81.675C70.3 81.675 82 69.975 82 55.675C82 48.85 79.075 42.35 74.2 37.475ZM56 77.45C52.1 77.45 48.2 76.475 44.95 74.525L44.3 74.2L36.175 76.475L38.45 68.675L37.8 67.7C35.525 64.125 34.55 60.225 34.55 56.325C34.55 44.625 44.3 34.875 56 34.875C61.85 34.875 67.05 37.15 71.275 41.05C75.5 45.275 77.45 50.475 77.45 56.325C77.45 67.7 68.025 77.45 56 77.45ZM67.7 61.2C67.05 60.875 63.8 59.25 63.15 59.25C62.5 58.925 62.175 58.925 61.85 59.575C61.525 60.225 60.225 61.525 59.9 62.175C59.575 62.5 59.25 62.5 58.6 62.5C57.95 62.175 56 61.525 53.4 59.25C51.45 57.625 50.15 55.35 49.825 54.7C49.5 54.05 49.825 53.725 50.15 53.4C50.475 53.075 50.8 52.75 51.125 52.425C51.45 52.1 51.45 51.775 51.775 51.45C52.1 51.125 51.775 50.8 51.775 50.475C51.775 50.15 50.475 46.9 49.825 45.6C49.5 44.625 48.85 44.625 48.525 44.625C48.2 44.625 47.875 44.625 47.225 44.625C46.9 44.625 46.25 44.625 45.6 45.275C44.95 45.925 43.325 47.55 43.325 50.8C43.325 54.05 45.6 56.975 45.925 57.625C46.25 57.95 50.475 64.775 56.975 67.375C62.5 69.65 63.475 69 64.775 69C66.075 69 68.675 67.375 69 66.075C69.65 64.45 69.65 63.15 69.325 63.15C69 61.525 68.35 61.525 67.7 61.2Z" fill="white"/>
</svg>
