<svg width="220" height="224" viewBox="0 0 220 224" fill="none" xmlns="http://www.w3.org/2000/svg">
<mask id="mask0_777_872" style="mask-type:luminance" maskUnits="userSpaceOnUse" x="19" y="0" width="182" height="181">
<path d="M200.885 7.62939e-06H19.1149V180.247H200.885V7.62939e-06Z" fill="white"/>
</mask>
<g mask="url(#mask0_777_872)">
<path d="M110 168.557C153.51 168.557 188.781 133.441 188.781 90.1254C188.781 46.809 153.51 11.6942 110 11.6942C66.4903 11.6942 31.2188 46.809 31.2188 90.1254C31.2188 133.441 66.4903 168.557 110 168.557Z" fill="#FBFBFC"/>
<path d="M95.2862 98.176C95.2862 98.176 114.762 130.56 162.351 109.77C183.837 100.875 176.205 74.6875 158.836 76.6853C158.836 76.6853 167.169 67.089 163.256 56.2955C159.339 45.5019 152.213 47.6999 148.095 40.3016C143.977 32.9032 139.863 5.01869 119.483 2.22024C119.483 2.22024 99.203 -6.17516 92.8774 12.5171C92.8774 12.5171 86.1497 11.2161 83.6403 16.5165C83.6403 16.5165 67.9771 21.0126 71.6928 40.005C75.4085 58.9975 83.5398 52.4999 77.5158 70.5917C71.4918 88.6835 89.8654 87.9829 89.8654 87.9829C89.8654 87.9829 96.2915 87.9829 95.2862 98.1797V98.176Z" fill="url(#paint0_linear_777_872)"/>
<path d="M73.7703 108.751C73.7703 108.751 77.0467 104.822 79.005 103.046C80.9634 101.271 83.4467 97.6979 98.8083 97.2494C114.17 96.8009 133.396 92.5013 133.396 92.5013L139.018 96.3005C139.018 96.3005 148.505 94.2026 155.057 99.1731C161.61 104.147 160.932 108.696 166.07 127.921L145.094 136.628L146.513 142.552C146.513 142.552 146.624 148.274 141.278 154.271L97.5573 158.556L73.7703 158.945V108.751Z" fill="url(#paint1_radial_777_872)"/>
<path d="M139.193 105.644C139.193 105.644 139.469 107.395 138.966 109.793C138.463 112.19 138.013 117.339 140.373 124.834C142.734 132.328 144.037 136.876 144.037 136.876L145.09 136.628C145.09 136.628 146.703 140.364 146.695 144.123C146.688 147.678 139.517 158.315 139.517 158.315L96.8463 158.589C96.8463 158.589 105.633 154.668 116.676 153.916C127.718 153.163 135.299 149.816 135.399 138.374C135.5 126.931 133.314 116.208 133.314 116.208C133.314 116.208 130.302 106.764 139.189 105.637L139.193 105.644Z" fill="url(#paint2_linear_777_872)"/>
<path d="M145.102 136.632L144.074 137.132C144.074 137.132 138.329 121.405 138.631 115.96C138.631 115.96 139.807 122.64 145.102 136.632Z" fill="url(#paint3_linear_777_872)"/>
<path d="M145.102 130.59C145.102 130.59 151.479 133.444 161.591 122.491C161.591 122.491 153.207 134.89 145.102 130.59Z" fill="url(#paint4_linear_777_872)"/>
<path d="M138.962 97.2271C138.962 97.2271 147.942 94.9402 154.529 99.7397C161.118 104.536 162.224 112.654 162.906 115.204C160.765 106.197 159.827 102.798 155.053 99.1768C154.089 98.4429 153.058 97.8684 152.004 97.4124C151.896 97.368 151.788 97.3198 151.68 97.2753C151.557 97.2235 151.435 97.179 151.312 97.1308C151.237 97.1048 151.167 97.0751 151.092 97.0492C145.243 94.9253 139.014 96.3042 139.014 96.3042L133.392 92.5049C133.392 92.5049 132.897 93.0091 133.43 93.3797L138.958 97.2271H138.962Z" fill="#D4E8E1"/>
<path d="M139.193 105.644C139.193 105.644 139.599 107.906 139.066 110.693C138.616 113.046 138.43 118.6 140.087 123.547C141.743 128.495 144.417 136.966 144.417 136.966L143.638 137.347L139.446 123.659C139.446 123.659 137.812 115.978 138.713 111.439C139.569 107.143 139.193 105.644 139.193 105.644Z" fill="url(#paint5_linear_777_872)"/>
<path d="M138.616 97.4496C138.616 97.4496 136.445 107.194 122.845 117.765C109.244 128.336 104.832 133.285 105.484 138.229C106.135 143.174 108.883 147.151 117.927 146.624C126.97 146.099 132.395 141.75 133.407 136.206L138.616 97.4496Z" fill="url(#paint6_linear_777_872)"/>
<path d="M138.653 97.4606C138.154 99.3324 137.331 101.082 136.416 102.765C135.961 103.609 135.448 104.418 134.941 105.229C134.398 106.016 133.873 106.816 133.284 107.569C130.984 110.619 128.336 113.381 125.47 115.86L123.28 117.669C122.547 118.269 121.802 118.843 121.065 119.433C119.591 120.609 118.128 121.801 116.683 123.018C115.957 123.622 115.253 124.248 114.538 124.864C113.842 125.497 113.127 126.116 112.45 126.772C111.072 128.058 109.758 129.422 108.574 130.883L108.135 131.435L107.733 132.014C107.599 132.206 107.461 132.395 107.334 132.591L106.981 133.195C106.727 133.589 106.56 134.026 106.359 134.445C106.258 134.656 106.206 134.882 106.128 135.097C106.053 135.316 105.975 135.535 105.942 135.761C105.704 136.658 105.744 137.581 105.875 138.5C106.013 139.431 106.251 140.342 106.612 141.191C106.973 142.036 107.431 142.84 108.06 143.488C108.682 144.138 109.408 144.682 110.216 145.082C111.828 145.891 113.667 146.187 115.492 146.273C119.151 146.417 122.908 145.91 126.281 144.393C127.968 143.645 129.524 142.566 130.786 141.184C132.078 139.827 132.964 138.074 133.377 136.198C133.381 136.179 133.4 136.165 133.418 136.168C133.437 136.172 133.448 136.191 133.448 136.213C133.117 138.118 132.294 139.953 131.028 141.41C129.773 142.877 128.199 144.034 126.49 144.86C124.781 145.706 122.949 146.239 121.095 146.584C119.237 146.921 117.353 147.058 115.462 147.01C115.224 146.999 114.989 146.999 114.751 146.981L114.043 146.902C113.809 146.873 113.57 146.858 113.336 146.818L112.632 146.68C112.159 146.61 111.701 146.447 111.24 146.317C111.005 146.261 110.786 146.147 110.562 146.061C110.339 145.961 110.108 145.895 109.896 145.768C109.017 145.338 108.22 144.727 107.539 144.004C106.85 143.281 106.348 142.388 105.964 141.472C105.584 140.55 105.346 139.579 105.212 138.6C105.078 137.622 105.048 136.568 105.32 135.598C105.361 135.346 105.447 135.112 105.529 134.879C105.614 134.645 105.677 134.4 105.785 134.178C106.001 133.737 106.191 133.274 106.459 132.866L106.835 132.236C106.969 132.032 107.115 131.839 107.256 131.642L107.68 131.053L108.138 130.493C109.363 129.011 110.704 127.647 112.104 126.365C112.796 125.712 113.515 125.097 114.222 124.463C114.948 123.855 115.659 123.229 116.393 122.632C117.852 121.427 119.33 120.248 120.816 119.084C121.56 118.503 122.312 117.933 123.046 117.343L125.242 115.563C128.124 113.132 130.79 110.422 133.117 107.42C133.713 106.683 134.245 105.893 134.796 105.115C135.314 104.314 135.835 103.517 136.296 102.68C137.227 101.019 138.072 99.2806 138.59 97.431C138.594 97.4087 138.616 97.3976 138.635 97.4014C138.653 97.4087 138.664 97.4273 138.661 97.4458L138.653 97.4606Z" fill="url(#paint7_linear_777_872)"/>
<path d="M107.182 84.5581L126.91 72.3375C126.91 72.3375 126.307 85.9814 133.385 92.5012C133.385 92.5012 133.459 105.022 121.188 113.34C121.188 113.34 104.095 117.462 100.893 119.073C100.893 119.073 93.6257 114.162 90.2377 112.665C90.2377 112.665 93.0747 101.32 98.6445 97.672C98.6445 97.672 105.071 95.7223 106.199 92.6495C107.327 89.5768 107.178 84.5543 107.178 84.5543L107.182 84.5581Z" fill="url(#paint8_linear_777_872)"/>
<path d="M100.901 119.077C100.901 119.077 101.891 114.522 105.32 113.399L104.583 117.754C102.345 118.406 100.901 119.077 100.901 119.077Z" fill="url(#paint9_linear_777_872)"/>
<path d="M99.7838 98.1649C101.5 99.7139 104.14 99.6621 105.83 101.308C106.392 101.819 106.887 102.553 106.824 103.34C106.731 102.572 106.21 101.983 105.64 101.527C103.916 100.055 101.206 100.029 99.7838 98.1649Z" fill="#D2773F"/>
<path d="M117.1 102.772C119.617 100.541 123.429 100.333 126.639 100.559C127.111 100.623 127.584 100.675 128.053 100.748C127.577 100.756 127.104 100.744 126.627 100.741C123.396 100.804 119.874 100.956 117.096 102.772H117.1Z" fill="#D2773F"/>
<path opacity="0.8" d="M105.852 93.313C120.227 87.5344 125.399 81.0072 127.178 77.7565C126.81 74.6059 126.91 72.3116 126.91 72.3116L107.182 84.5321C107.182 84.5321 107.331 89.5545 106.202 92.6273C106.117 92.8608 105.994 93.0906 105.852 93.313Z" fill="#B74E18"/>
<path d="M99.1323 27.5584C99.1323 27.5584 91.0493 22.1616 81.9649 30.2567C81.9649 30.2567 78.8263 43.8487 85.3045 53.8194C85.3045 53.8194 83.8005 61.24 86.6599 66.0401C89.5192 70.84 99.46 84.4061 107.971 84.4061C116.482 84.4061 130.559 72.3375 132.517 59.8167C132.517 59.8167 139.897 58.916 138.992 47.7481C138.992 47.7481 126.944 45.4241 120.168 32.0063C117.081 26.6095 117.305 19.8635 108.872 19.8635C100.439 19.8635 99.1323 27.5584 99.1323 27.5584Z" fill="url(#paint10_radial_777_872)"/>
<path d="M92.7917 25.8015C89.7834 25.7422 85.971 26.6874 81.9612 30.2567C81.9612 30.2567 80.3007 37.4697 81.8979 45.2424C82.0356 31.7319 91.1833 26.5984 92.7917 25.7977V25.8015Z" fill="url(#paint11_linear_777_872)"/>
<path d="M82.8808 47.1736C82.8249 47.0067 82.8249 46.8325 82.8845 46.6658C83.3089 45.5278 85.2189 41.0022 88.9197 41.0022C92.6205 41.0022 94.214 42.9369 94.698 43.5893C94.7948 43.719 94.8432 43.8747 94.8432 44.0341V44.1527C94.8432 44.7791 94.1172 45.1349 93.622 44.7494C92.5758 43.9303 90.9116 42.9777 88.8192 42.9777C85.1556 42.9777 82.9962 47.4997 82.9962 47.4997L82.8808 47.1736Z" fill="url(#paint12_linear_777_872)"/>
<path d="M107.491 42.1771C107.491 42.1771 107.215 40.5017 108.418 39.6789C109.624 38.856 116.173 33.1331 122.424 40.4053C122.424 40.4053 116.966 37.555 112.975 39.6937C108.984 41.8323 107.841 43.5411 107.491 42.1808V42.1771Z" fill="url(#paint13_linear_777_872)"/>
<path d="M98.5328 72.4969C98.5328 72.4969 109.613 74.0277 113.742 69.9505C113.742 69.9505 109.479 75.881 105.972 75.7327C102.468 75.5845 98.5328 72.4969 98.5328 72.4969Z" fill="url(#paint14_linear_777_872)"/>
<path d="M95.4539 70.8141C95.4539 70.8141 98.2164 72.2634 99.5456 72.0373C100.875 71.8112 102.45 70.4806 103.645 71.1662C103.645 71.1662 104.512 70.3879 108.555 70.4138C112.595 70.4397 115.157 68.4642 115.157 68.4642C115.157 68.4642 112.182 73.1122 104.765 73.3383C97.3489 73.5644 95.4539 70.8141 95.4539 70.8141Z" fill="url(#paint15_radial_777_872)"/>
<path d="M115.16 68.4642C115.16 68.4642 113.202 70.6658 111.809 73.3495C110.417 76.0367 109.326 77.6861 106.727 77.9085C104.129 78.1346 103.775 76.6594 101.232 74.6838C98.5589 72.6081 97.5463 72.2522 97.5463 72.2522C97.5463 72.2522 98.9536 72.5377 101.009 73.1974C101.791 73.4458 103.213 74.9988 105.469 75.0544C107.96 75.1175 111.113 72.938 115.164 68.4642H115.16Z" fill="url(#paint16_radial_777_872)"/>
<path d="M99.2216 65.0652C99.2216 65.0652 100.971 67.115 103.54 65.2431C105.633 66.3477 107.867 64.7946 107.867 64.7946C107.867 64.7946 106.251 67.9193 103.54 67.9193C100.83 67.9193 99.2216 65.0689 99.2216 65.0689V65.0652Z" fill="url(#paint17_linear_777_872)"/>
<path d="M101.898 65.169C100.878 66.3699 99.2625 63.7976 100.54 60.2948C101.817 56.7922 99.8508 53.1857 99.8508 53.1857L101.519 53.2746C101.519 53.2746 104.237 62.4224 101.898 65.169Z" fill="url(#paint18_linear_777_872)"/>
<path d="M83.4691 17.0131C83.4691 17.0131 84.7238 9.99289 95.5432 13.0917L97.375 25.3122L83.4691 17.0168V17.0131Z" fill="url(#paint19_linear_777_872)"/>
<path d="M99.1322 27.4953C99.1322 27.4953 107.893 22.573 113.541 29.5451C119.189 36.5172 123.027 40.7019 123.027 40.7019C123.027 40.7019 119.617 32.7921 117.51 27.9216C115.402 23.0512 106.314 19.3743 99.1359 27.4953H99.1322Z" fill="url(#paint20_linear_777_872)"/>
<path d="M118.157 2.17205C118.157 2.17205 112.454 -2.02378 103.406 1.24912C94.3629 4.52202 88.633 12.3689 95.7032 25.8608C95.7032 25.8608 94.2363 5.47091 118.157 2.17205Z" fill="url(#paint21_linear_777_872)"/>
<path d="M99.8508 53.1857C99.8508 53.1857 101.132 55.5467 100.379 58.8826C99.6274 62.2185 98.1568 64.6538 99.8508 65.8177C101.437 66.9074 102.498 66.5478 103.056 65.6953C103.127 65.5915 103.257 65.5471 103.38 65.5767C104.17 65.7769 106.858 66.3477 107.755 65.1059C108.809 63.6456 106.288 61.1696 106.288 61.1696C106.288 61.1696 108.809 64.7501 106.135 64.6352C103.462 64.524 103.73 63.9495 102.997 64.1089C102.263 64.2683 101.925 65.6471 100.741 64.791C99.5566 63.9347 102.561 56.2955 99.8508 53.1857Z" fill="url(#paint22_linear_777_872)"/>
<path d="M96.8202 26.528C96.8202 26.528 91.7753 15.5157 83.6403 16.5165C75.5053 17.5173 67.091 26.7281 70.3525 39.716C73.6139 52.7 80.632 57.8041 77.0318 66.4996C71.8604 78.9908 74.8873 94.7808 102.844 86.4373C102.844 86.4373 97.2223 86.7376 94.0092 83.9873C94.0092 83.9873 97.0249 85.1882 98.5291 84.4136C98.5291 84.4136 91.1982 82.8902 88.6367 79.8396C86.0752 76.7928 86.8645 71.9668 85.2897 66.0475C83.7148 60.1244 82.9627 56.5289 78.2194 49.5569C73.4762 42.5848 74.1501 36.8582 83.227 26.8801C87.7804 23.6664 96.8127 26.5353 96.8127 26.5353L96.8202 26.528Z" fill="url(#paint23_linear_777_872)"/>
<path d="M96.8202 26.528C96.8202 26.528 80.9373 23.1253 75.3713 40.5388C75.3713 40.5388 76.4472 19.6041 96.8202 26.528Z" fill="url(#paint24_linear_777_872)"/>
<path d="M109.389 53.7601C109.389 53.7601 109.512 47.1773 114.743 46.1246C119.974 45.0719 121.933 48.8601 123.292 49.3123C123.292 49.3123 121.054 55.695 109.389 53.7601Z" fill="url(#paint25_linear_777_872)"/>
<path d="M123.344 49.3123C123.344 49.3123 121.948 52.4369 118.083 53.5007C118.083 53.5007 115.372 52.4962 115.425 49.8386C115.477 47.181 117.688 46.2098 117.688 46.2098C117.688 46.2098 119.602 46.1134 123.347 49.3123H123.344Z" fill="url(#paint26_linear_777_872)"/>
<path d="M110.413 52.5111C110.413 52.5111 114.401 54.9722 118.362 53.3673C122.324 51.7623 123.269 49.3641 123.269 49.3641C123.269 49.3641 123.835 50.6318 121.374 52.4295C118.913 54.2272 112.617 54.4718 111.809 54.1271C111.002 53.7824 110.41 52.5073 110.41 52.5073L110.413 52.5111Z" fill="#2E1308"/>
<path d="M110.276 52.4554C110.276 52.4554 109.49 47.6999 114.427 46.384C118.746 45.2313 122.089 48.3449 122.089 48.3449C122.089 48.3449 123.485 48.6043 123.761 48.0038C123.761 48.0038 123.21 48.1298 122.454 47.7555C121.698 47.3811 119.297 44.212 114.151 45.7131C109.006 47.2106 110.276 52.4591 110.276 52.4591V52.4554Z" fill="#2E1308"/>
<path d="M109.002 51.1766C109.654 46.8993 112.524 42.4329 117.461 44.0563C119.036 44.5864 120.447 45.5093 121.691 46.5657C120.786 45.9578 119.863 45.387 118.883 44.9163C113.399 42.2772 110.305 46.2099 109.002 51.1766Z" fill="#75291F"/>
<path d="M119.07 52.7705C120.517 52.7705 121.691 51.501 121.691 49.935C121.691 48.369 120.517 47.0994 119.07 47.0994C117.622 47.0994 116.448 48.369 116.448 49.935C116.448 51.501 117.622 52.7705 119.07 52.7705Z" fill="#76CEA0"/>
<path d="M119.49 52.322C120.86 52.322 121.97 51.1222 121.97 49.6422C121.97 48.1621 120.86 46.9623 119.49 46.9623C118.121 46.9623 117.011 48.1621 117.011 49.6422C117.011 51.1222 118.121 52.322 119.49 52.322Z" fill="#050706"/>
<path d="M118.262 48.9453C118.49 48.9453 118.675 48.7129 118.675 48.4264C118.675 48.1398 118.49 47.9074 118.262 47.9074C118.033 47.9074 117.848 48.1398 117.848 48.4264C117.848 48.7129 118.033 48.9453 118.262 48.9453Z" fill="#76CEA0"/>
<path d="M119.07 48.7674C119.22 48.7674 119.341 48.6147 119.341 48.4264C119.341 48.238 119.22 48.0853 119.07 48.0853C118.919 48.0853 118.798 48.238 118.798 48.4264C118.798 48.6147 118.919 48.7674 119.07 48.7674Z" fill="#76CEA0"/>
<path d="M109.389 53.7601C109.389 53.7601 109.229 51.5806 110.257 49.7533C110.257 49.7533 109.464 52.4294 111.809 54.1271L109.386 53.7601H109.389Z" fill="#F4ECE9"/>
<path d="M86.7156 53.0745C86.7156 53.0745 88.3724 47.5443 93.9459 48.8007C99.0689 50.0017 98.9535 55.9025 98.9535 55.9025C98.9535 55.9025 94.8692 57.5335 91.1796 57.159C87.49 56.7847 86.455 54.52 86.7193 53.0745H86.7156Z" fill="url(#paint27_linear_777_872)"/>
<path d="M98.9498 55.9025C98.9498 55.9025 98.9498 50.6986 95.1001 49.1862C95.1001 49.1862 90.9786 49.542 91.3509 53.3969C91.7232 57.2517 94.3368 57.6187 98.9498 55.9025Z" fill="url(#paint28_linear_777_872)"/>
<path d="M94.832 56.0879C96.2796 56.0879 97.4531 54.8184 97.4531 53.2524C97.4531 51.6864 96.2796 50.4168 94.832 50.4168C93.3844 50.4168 92.2109 51.6864 92.2109 53.2524C92.2109 54.8184 93.3844 56.0879 94.832 56.0879Z" fill="#76CEA0"/>
<path d="M95.2527 55.6394C96.6222 55.6394 97.7323 54.4396 97.7323 52.9595C97.7323 51.4795 96.6222 50.2796 95.2527 50.2796C93.8833 50.2796 92.7731 51.4795 92.7731 52.9595C92.7731 54.4396 93.8833 55.6394 95.2527 55.6394Z" fill="#050706"/>
<path d="M94.0241 52.2627C94.2523 52.2627 94.4374 52.0303 94.4374 51.7438C94.4374 51.4572 94.2523 51.2248 94.0241 51.2248C93.7959 51.2248 93.6108 51.4572 93.6108 51.7438C93.6108 52.0303 93.7959 52.2627 94.0241 52.2627Z" fill="#76CEA0"/>
<path d="M94.832 52.0848C94.9821 52.0848 95.1038 51.9321 95.1038 51.7438C95.1038 51.5554 94.9821 51.4027 94.832 51.4027C94.6819 51.4027 94.5602 51.5554 94.5602 51.7438C94.5602 51.9321 94.6819 52.0848 94.832 52.0848Z" fill="#76CEA0"/>
<path d="M98.9498 55.9025C98.9498 55.9025 99.0726 48.2447 89.1133 50.2204C89.1133 50.2204 91.0754 47.4516 95.6697 49.3604C98.9535 50.869 98.9535 55.8988 98.9535 55.8988L98.9498 55.9025Z" fill="url(#paint29_linear_777_872)"/>
<path d="M84.9843 53.3191C84.9843 53.3191 85.7662 53.8603 85.9226 53.4859C85.9226 53.4859 87.5086 46.84 94.2065 48.6303C99.0652 50.024 98.9498 55.6579 98.9498 55.6579C98.9498 55.6579 98.7189 50.0981 94.5267 49.0417C90.3345 47.9853 88.3128 50.4687 86.6188 53.8751C86.6188 53.8751 85.9077 54.987 84.9843 53.3154V53.3191Z" fill="#2E1308"/>
<path d="M98.9498 55.9025C98.9498 55.9025 89.5191 59.1458 87.3523 54.8721C87.3523 54.8721 86.9613 54.3866 87.0358 53.0745C87.0358 53.0745 86.5741 53.9973 86.239 54.1122C86.239 54.1122 87.423 57.5705 92.3747 57.3444C96.5149 57.1553 98.9498 55.9025 98.9498 55.9025Z" fill="#2E1308"/>
<path opacity="0.4" d="M79.4592 68.6384C79.4592 68.6384 75.4941 75.3361 77.8025 80.6328C80.1108 85.9295 85.7327 86.4818 85.7327 86.4818C85.7327 86.4818 75.4904 85.3809 79.4592 68.6421V68.6384Z" fill="#F28760"/>
<path opacity="0.4" d="M82.3224 69.9504C82.3224 69.9504 78.171 85.0103 91.753 82.9827C91.753 82.9827 81.6188 85.2586 82.3224 69.9504Z" fill="#F28760"/>
<path d="M134.018 46.751L134.144 55.2724C134.144 55.2724 137.358 53.4228 136.929 47.9519L134.018 46.751Z" fill="url(#paint30_linear_777_872)"/>
<path d="M134.141 55.4577C134.111 55.4577 134.077 55.4504 134.048 55.4355C133.992 55.4022 133.955 55.3428 133.955 55.2761L133.828 46.7548C133.828 46.6918 133.858 46.6324 133.91 46.5991C133.962 46.562 134.029 46.5583 134.085 46.5806L136.996 47.7815C137.06 47.8074 137.104 47.8704 137.112 47.9371C137.544 53.4599 134.368 55.354 134.234 55.4318C134.204 55.4467 134.174 55.4577 134.141 55.4577ZM134.204 47.0291L134.319 54.9129C135.064 54.3198 137.041 52.3294 136.747 48.078L134.204 47.0291Z" fill="url(#paint31_linear_777_872)"/>
<path d="M19.1149 159.324H200.885C200.885 159.324 200.885 169.787 189.716 169.787H30.2843C19.1149 169.787 19.1149 159.324 19.1149 159.324Z" fill="url(#paint32_linear_777_872)"/>
<path d="M41.4536 180.247H178.546C178.546 169.783 189.716 169.783 189.716 169.783H30.2843C30.2843 169.783 41.5541 169.783 41.4536 180.247Z" fill="url(#paint33_linear_777_872)"/>
<path d="M99.1546 27.5769L96.8202 26.528C96.8202 26.528 86.1274 13.0101 107.312 3.91414C128.496 -5.1818 138.944 14.2258 142.555 23.5294C146.166 32.8328 144.16 37.5179 152.995 43.7153C161.83 49.9127 165.039 54.2902 162.63 64.6871C162.63 64.6871 160.824 54.4903 147.671 50.7949C134.517 47.0958 122.547 43.0222 118.757 29.4042C113.924 12.039 99.4301 22.3581 99.1546 27.5806V27.5769Z" fill="#A12B16"/>
<path d="M99.1286 27.5028C99.1286 27.5028 99.6014 14.5446 112.39 16.8761C125.179 19.2075 126.065 31.4355 126.065 31.4355L129.397 25.4011C129.397 25.4011 121.769 6.01206 105.201 14.0072C96.8686 18.6032 99.1286 27.499 99.1286 27.499V27.5028Z" fill="url(#paint34_linear_777_872)"/>
<path d="M99.1285 27.5028C99.1285 27.5028 101.913 18.507 111.177 20.8309C120.44 23.1549 115.771 39.1711 131.132 47.4701C131.132 47.4701 132.011 45.6946 130.73 44.4196C130.73 44.4196 135.92 47.433 140.511 48.634C140.511 48.634 140.016 46.9957 134.971 43.1705C129.926 39.349 127.063 36.2726 125.559 29.4524C124.055 22.6324 119.159 15.7345 110.197 15.7345C101.236 15.7345 99.5045 22.6324 99.1285 27.5028Z" fill="url(#paint35_linear_777_872)"/>
<path d="M102.937 18.0992C102.937 18.0992 111.903 12.3836 121.073 20.4566C121.073 20.4566 112.986 10.5192 102.937 18.0992Z" fill="url(#paint36_radial_777_872)"/>
<path d="M78.7296 30.6052C78.7296 30.6052 85.111 22.1208 96.541 26.4761C96.541 26.4761 85.4685 19.9932 78.7296 30.6052Z" fill="url(#paint37_radial_777_872)"/>
<path d="M73.6698 22.5248C73.6698 22.5248 79.8613 14.2888 90.852 18.8071C90.852 18.8071 82.8175 11.6942 73.6698 22.5248Z" fill="url(#paint38_radial_777_872)"/>
<path d="M112.625 18.0622C112.625 18.0622 120.343 20.4714 120.097 29.7305C120.097 29.7305 121.966 20.1898 112.625 18.0622Z" fill="url(#paint39_radial_777_872)"/>
<path d="M122.651 28.3182C122.651 28.3182 121.333 33.9893 127.219 37.2251C127.219 37.2251 120.562 34.8937 122.651 28.3182Z" fill="url(#paint40_radial_777_872)"/>
<path d="M116.482 12.6432C116.482 12.6432 121.512 13.2436 124.49 16.5758C127.465 19.908 132.398 23.4849 132.398 23.4849C132.398 23.4849 128.802 22.6286 124.446 17.7434C120.09 12.8581 116.486 12.6468 116.486 12.6468L116.482 12.6432Z" fill="url(#paint41_radial_777_872)"/>
<path d="M136.434 24.5671C136.434 24.5671 139.647 32.6809 145.775 34.586L146.498 36.5468C146.498 36.5468 143.058 35.8908 140.448 32.7291C137.838 29.5673 136.43 24.5671 136.43 24.5671H136.434Z" fill="url(#paint42_radial_777_872)"/>
<path d="M96.9914 15.6788C96.943 15.8048 99.1359 7.76899 112.465 5.44496C112.465 5.44496 99.7018 8.7957 96.9914 15.6788Z" fill="url(#paint43_radial_777_872)"/>
<path d="M99.9327 97.2235L95.3495 97.4162C95.3495 97.4162 87.9926 103.476 85.0179 110.26C85.0179 110.26 87.5384 109.718 90.0515 113.67C90.0515 113.67 92.8402 100.055 99.9327 97.2197V97.2235Z" fill="url(#paint44_linear_777_872)"/>
<path d="M95.3495 97.4162C95.3495 97.4162 87.7395 105.207 85.1817 109.555C85.1817 109.555 84.6716 108.937 84.0908 109.088C84.0908 109.088 89.5787 101.827 95.3495 97.4162Z" fill="url(#paint45_linear_777_872)"/>
<path d="M99.1285 27.5028C99.1285 27.5028 109.404 15.8382 117.848 29.0188C117.848 29.0188 117.04 20.8754 109.021 20.1638C101.001 19.4521 99.1285 27.5028 99.1285 27.5028Z" fill="#5D150B"/>
<path d="M97.3749 18.8035C97.3637 18.885 97.5387 13.8626 105.045 10.6675C105.045 10.6675 98.0115 14.389 97.3749 18.8035Z" fill="url(#paint46_radial_777_872)"/>
<path d="M98.2796 160.202L127.38 159.913V157.003L96.7345 158.601C96.7345 158.601 96.9095 159.524 98.2796 160.198V160.202Z" fill="url(#paint47_linear_777_872)"/>
<path d="M95.3644 165.672C95.3644 165.672 98.0599 164.661 98.2796 160.202L127.38 159.913L127.115 164.846L95.3644 165.669V165.672Z" fill="url(#paint48_linear_777_872)"/>
<path d="M36.7588 154.153C36.7588 154.153 35.1615 153.953 35.0014 152.852L29.279 113.169C29.279 113.169 27.6483 106.541 37.3098 107.172C44.9831 107.672 81.3357 109.221 81.3357 109.221C81.3357 109.221 86.0529 109.27 87.2108 116.12C88.3687 122.969 95.4947 155.001 95.4947 155.001C95.4947 155.001 96.2468 158.949 98.3578 160.198L36.7625 154.153H36.7588Z" fill="url(#paint49_linear_777_872)"/>
<path d="M37.3135 107.176C44.9943 107.524 81.3394 109.225 81.3394 109.225C81.3394 109.225 86.0566 109.273 87.2145 116.124C88.3687 122.969 95.4984 155.005 95.4984 155.005C95.4984 155.005 89.3181 122.083 88.1639 115.238C87.0097 108.391 82.2888 108.339 82.2888 108.339C82.2888 108.339 45.9437 106.642 38.2629 106.289C34.8897 106.138 32.3431 106.939 31.2076 108.266C33.233 107.186 34.7334 107.061 37.3135 107.18V107.176Z" fill="url(#paint50_linear_777_872)"/>
<path d="M36.7587 154.153V158.1C36.7587 158.1 36.0811 160.836 43.1588 161.585C50.2364 162.333 95.4761 165.669 95.4761 165.669C95.4761 165.669 98.3503 164.057 98.3503 160.198C98.3503 160.198 87.8995 157.748 65.5608 155.951C43.2221 154.153 36.755 154.153 36.755 154.153H36.7587Z" fill="url(#paint51_radial_777_872)"/>
<path d="M97.9148 162.659C98.2089 162.052 98.395 160.591 98.395 160.202C98.395 160.202 87.9442 157.752 65.6055 155.954C43.2668 154.157 36.7997 154.157 36.7997 154.157V156.607C36.7997 156.607 43.1179 156.61 65.4603 158.412C86.6672 160.12 96.9058 162.437 97.9148 162.663V162.659Z" fill="url(#paint52_linear_777_872)"/>
<path d="M90.2563 112.558C90.2563 112.558 89.05 116.757 91.4626 121.442C93.8715 126.127 96.6601 131.302 97.2595 134.038C97.2595 134.038 102.23 127.439 106.444 124.218C110.663 120.994 121.184 113.347 121.184 113.347C121.184 113.347 104.091 116.983 100.89 119.081C100.89 119.081 93.0002 113.721 90.2526 112.558H90.2563Z" fill="url(#paint53_linear_777_872)"/>
<path d="M97.2596 134.034C104.959 125.111 113.25 119.155 113.25 119.155C104.002 122.695 96.9357 129.526 96.9357 129.526C96.1836 125.879 90.8372 120.041 90.8372 120.041C92.2781 122.992 97.2633 134.038 97.2633 134.038L97.2596 134.034Z" fill="url(#paint54_linear_777_872)"/>
<path d="M124.155 57.4148C124.42 59.0346 122.391 60.71 119.624 61.1548C116.858 61.5996 114.404 60.6433 114.144 59.0235L113.973 57.956C113.842 57.1591 114.55 56.4808 115.346 56.6401C116.266 56.8255 117.51 56.9404 118.906 56.7143C120.179 56.5104 121.229 56.0434 122.018 55.5801C122.808 55.1167 123.857 55.5875 124.006 56.5104L124.152 57.4148H124.155Z" fill="url(#paint55_radial_777_872)"/>
<path d="M98.3057 61.3475C98.57 62.9673 96.5409 64.6426 93.7746 65.0874C91.0084 65.5322 88.5548 64.5759 88.2942 62.9561L88.1229 61.8887C87.9926 61.0918 88.7 60.4134 89.4968 60.5728C90.4164 60.7582 91.6599 60.873 93.0561 60.647C94.3294 60.4431 95.3793 59.976 96.1686 59.5127C96.9579 59.0494 98.0078 59.5202 98.1568 60.4431L98.302 61.3475H98.3057Z" fill="url(#paint56_radial_777_872)"/>
<path d="M145.779 136.339C145.779 136.339 159.179 129.404 165.151 128.307C165.151 128.307 168.796 137.414 169.849 147.158C170.903 156.903 170.225 165.751 170.225 165.751C170.225 165.751 169.849 168.523 168.192 170.024C166.536 171.521 164.276 172.797 160.586 173.097C156.896 173.397 147.183 170.921 137.395 168.301C127.607 165.676 119.926 163.327 119.926 163.327C119.926 163.327 115.708 162.377 112.096 159.127C108.481 155.88 102.531 154.249 96.459 157.87C96.459 157.87 95.9676 157.418 95.5766 155.357L94.4858 149.593C94.4858 149.593 98.9461 145.583 107.431 147.332C115.916 149.082 117.119 153.53 121.136 154.927C125.153 156.325 133.284 153.778 150.351 153.43C150.351 153.43 148.996 144.086 145.783 136.339H145.779Z" fill="url(#paint57_linear_777_872)"/>
<path opacity="0.8" d="M166.897 133.414C165.899 130.156 165.151 128.303 165.151 128.303C159.179 129.404 145.779 136.335 145.779 136.335C145.977 136.813 146.17 137.299 146.353 137.788C146.844 137.677 150.463 137.903 155.895 135.471C161.327 133.044 165.434 133.352 166.893 133.41L166.897 133.414Z" fill="#B74E18"/>
<path opacity="0.8" d="M145.779 136.339L150.347 153.445C150.347 153.445 156.498 153.445 163.926 157.793C163.926 157.793 160.262 154.093 150.973 152.496L146.248 136.086L145.775 136.339H145.779Z" fill="#B74E18"/>
<path opacity="0.8" d="M124.088 164.053C114.524 161.877 111.891 158.43 111.891 158.43C111.891 158.43 111.657 158.464 111.415 158.56C111.638 158.741 111.862 158.934 112.078 159.127C115.693 162.374 119.907 163.327 119.907 163.327C119.907 163.327 127.588 165.676 137.376 168.301C147.164 170.925 156.878 173.397 160.567 173.097C163.39 172.867 165.374 172.067 166.893 171.032V171.025C164.034 170.125 160.005 169.75 153.266 169.75C146.528 169.75 133.649 166.225 124.088 164.053Z" fill="url(#paint58_linear_777_872)"/>
<path d="M95.2119 152.907C98.3616 150.995 102.23 150.606 105.849 150.758C106.37 150.802 106.891 150.847 107.409 150.909C103.284 150.972 99.0281 151.225 95.2119 152.907Z" fill="#B94313"/>
<path d="M94.832 150.843C97.051 148.856 100.32 148.496 103.19 148.652C102.826 148.708 102.461 148.741 102.1 148.786C99.6125 149.123 96.9951 149.498 94.832 150.847V150.843Z" fill="#B94313"/>
<path d="M95.8521 155.394C98.5886 153.082 102.431 152.6 105.905 152.718C106.407 152.763 106.91 152.804 107.412 152.863C106.906 152.888 106.407 152.885 105.905 152.899C102.461 153.063 98.8195 153.501 95.8559 155.394H95.8521Z" fill="#B94313"/>
<path d="M130.697 44.4196C130.697 44.4196 137.037 49.6274 138.903 51.8142C138.903 51.8142 139.186 49.5643 139.007 48.1298L130.697 44.4196Z" fill="url(#paint59_linear_777_872)"/>
<path d="M90.2563 112.558C90.2563 112.558 92.7247 100.411 99.9327 97.2271C99.9327 97.2271 94.5267 98.9544 90.2563 112.558Z" fill="url(#paint60_linear_777_872)"/>
<path d="M133.385 92.5049C133.385 92.5049 136.241 102.25 121.188 113.343C121.188 113.343 133.385 104.422 133.385 92.5049Z" fill="url(#paint61_linear_777_872)"/>
<path d="M122.726 155.269C122.726 155.269 155.88 162.363 163.926 157.797C163.926 157.797 157.861 153.863 150.347 153.448C150.347 153.448 136.237 153.979 122.726 155.269Z" fill="url(#paint62_linear_777_872)"/>
<path d="M143.605 51.0469C143.605 51.0469 146.468 59.7426 143.605 67.6894C140.742 75.6363 139.766 82.6826 146.617 84.8546C153.467 87.0304 161.226 82.7567 164.536 90.4033C167.846 98.05 164.912 103.299 164.912 103.299C164.912 103.299 172.217 101.049 171.916 94.9031C171.614 88.7577 168.453 81.9338 158.512 80.1361C148.572 78.3385 147.745 71.8149 149.327 65.3692C150.91 58.9235 149.402 54.2754 143.605 51.0506V51.0469Z" fill="url(#paint63_radial_777_872)"/>
<path d="M137.395 85.7109C137.395 85.7109 136.814 81.9042 134.405 79.291C131.996 76.6779 130.395 74.1166 132.357 72.1929C134.316 70.2692 137.745 70.6918 137.51 67.2187C137.272 63.7456 135.325 62.1852 135.325 62.1852C135.325 62.1852 138.232 61.8961 139.234 64.3165C140.235 66.7369 140.373 69.8689 137.287 72.1337C134.2 74.3984 135.086 77.0485 136.788 79.2837C138.489 81.5187 138.806 83.5499 137.395 85.7109Z" fill="url(#paint64_radial_777_872)"/>
<path d="M152.585 56.4474C152.585 56.4474 156.502 63.7197 151.606 71.9668C151.606 71.9668 158.684 66.4959 152.585 56.4474Z" fill="url(#paint65_radial_777_872)"/>
<path d="M154.718 88.2535C154.718 88.2535 162.567 91.6191 161.13 101.52C161.13 101.52 166.327 92.4531 154.718 88.2535Z" fill="url(#paint66_radial_777_872)"/>
</g>
<defs>
<linearGradient id="paint0_linear_777_872" x1="123.292" y1="116.735" x2="123.292" y2="0.341003" gradientUnits="userSpaceOnUse">
<stop offset="0.17" stop-color="#560A05"/>
<stop offset="1" stop-color="#250401"/>
</linearGradient>
<radialGradient id="paint1_radial_777_872" cx="0" cy="0" r="1" gradientUnits="userSpaceOnUse" gradientTransform="translate(120.57 124.475) rotate(-86.2132) scale(40.1023 50.7524)">
<stop stop-color="#62B496"/>
<stop offset="1" stop-color="#153E34"/>
</radialGradient>
<linearGradient id="paint2_linear_777_872" x1="121.773" y1="158.597" x2="121.773" y2="105.644" gradientUnits="userSpaceOnUse">
<stop stop-color="#052623"/>
<stop offset="1" stop-color="#052623" stop-opacity="0"/>
</linearGradient>
<linearGradient id="paint3_linear_777_872" x1="144.632" y1="136.191" x2="137.84" y2="116.127" gradientUnits="userSpaceOnUse">
<stop stop-color="#DFF1F1" stop-opacity="0.7"/>
<stop offset="1" stop-color="#DFF1F1" stop-opacity="0"/>
</linearGradient>
<linearGradient id="paint4_linear_777_872" x1="147.138" y1="131.443" x2="161.427" y2="124.247" gradientUnits="userSpaceOnUse">
<stop stop-color="#276A56"/>
<stop offset="1" stop-color="#285645"/>
</linearGradient>
<linearGradient id="paint5_linear_777_872" x1="141.431" y1="137.351" x2="141.431" y2="105.644" gradientUnits="userSpaceOnUse">
<stop offset="0.57" stop-color="#184339"/>
<stop offset="1" stop-color="#184339" stop-opacity="0.15"/>
</linearGradient>
<linearGradient id="paint6_linear_777_872" x1="131.765" y1="134.886" x2="123.487" y2="121.106" gradientUnits="userSpaceOnUse">
<stop stop-color="#378C6F" stop-opacity="0.5"/>
<stop offset="1" stop-color="#295D4D" stop-opacity="0"/>
</linearGradient>
<linearGradient id="paint7_linear_777_872" x1="121.88" y1="147.025" x2="121.88" y2="97.0603" gradientUnits="userSpaceOnUse">
<stop stop-color="#184237" stop-opacity="0.5"/>
<stop offset="1" stop-color="#498E76" stop-opacity="0.6"/>
</linearGradient>
<linearGradient id="paint8_linear_777_872" x1="111.813" y1="119.077" x2="111.813" y2="72.3375" gradientUnits="userSpaceOnUse">
<stop stop-color="#E47535"/>
<stop offset="1" stop-color="#FEC989"/>
</linearGradient>
<linearGradient id="paint9_linear_777_872" x1="100.901" y1="116.238" x2="105.316" y2="116.238" gradientUnits="userSpaceOnUse">
<stop stop-color="#D9530B"/>
<stop offset="1" stop-color="#D9530B" stop-opacity="0"/>
</linearGradient>
<radialGradient id="paint10_radial_777_872" cx="0" cy="0" r="1" gradientUnits="userSpaceOnUse" gradientTransform="translate(110.138 52.1366) scale(30.7232 30.5866)">
<stop stop-color="#FFD79C"/>
<stop offset="1" stop-color="#FCAD6B"/>
</radialGradient>
<linearGradient id="paint11_linear_777_872" x1="81.6075" y1="31.8395" x2="85.5437" y2="34.3907" gradientUnits="userSpaceOnUse">
<stop stop-color="#57110B"/>
<stop offset="1" stop-color="#57110B" stop-opacity="0.1"/>
</linearGradient>
<linearGradient id="paint12_linear_777_872" x1="82.8361" y1="44.2527" x2="94.8394" y2="44.2527" gradientUnits="userSpaceOnUse">
<stop stop-color="#75291F"/>
<stop offset="0.51" stop-color="#2F0E09"/>
<stop offset="1" stop-color="#3F1607"/>
</linearGradient>
<linearGradient id="paint13_linear_777_872" x1="114.944" y1="36.7618" x2="114.944" y2="42.6626" gradientUnits="userSpaceOnUse">
<stop stop-color="#2F0E09"/>
<stop offset="1" stop-color="#75291F"/>
</linearGradient>
<linearGradient id="paint14_linear_777_872" x1="106.478" y1="72.5303" x2="107.301" y2="75.7197" gradientUnits="userSpaceOnUse">
<stop stop-color="#D6B585"/>
<stop offset="0.37" stop-color="#F9DEB1"/>
</linearGradient>
<radialGradient id="paint15_radial_777_872" cx="0" cy="0" r="1" gradientUnits="userSpaceOnUse" gradientTransform="translate(106.549 71.4331) scale(8.17225 8.13594)">
<stop stop-color="#D95E33"/>
<stop offset="1" stop-color="#D33520"/>
</radialGradient>
<radialGradient id="paint16_radial_777_872" cx="0" cy="0" r="1" gradientUnits="userSpaceOnUse" gradientTransform="translate(107.077 74.7838) scale(9.40461 9.3628)">
<stop stop-color="#D33520"/>
<stop offset="0.33" stop-color="#D43C23"/>
<stop offset="0.72" stop-color="#D7522D"/>
<stop offset="1" stop-color="#D95E33"/>
</radialGradient>
<linearGradient id="paint17_linear_777_872" x1="103.548" y1="64.7465" x2="103.496" y2="67.923" gradientUnits="userSpaceOnUse">
<stop stop-color="#E56D29"/>
<stop offset="1" stop-color="#FEC688"/>
</linearGradient>
<linearGradient id="paint18_linear_777_872" x1="101.534" y1="65.0652" x2="101.235" y2="53.2375" gradientUnits="userSpaceOnUse">
<stop stop-color="white" stop-opacity="0.3"/>
<stop offset="0.99" stop-color="white" stop-opacity="0"/>
</linearGradient>
<linearGradient id="paint19_linear_777_872" x1="83.4691" y1="18.8071" x2="97.375" y2="18.8071" gradientUnits="userSpaceOnUse">
<stop stop-color="#631601"/>
<stop offset="1" stop-color="#631601" stop-opacity="0"/>
</linearGradient>
<linearGradient id="paint20_linear_777_872" x1="99.1322" y1="31.7134" x2="123.027" y2="31.7134" gradientUnits="userSpaceOnUse">
<stop stop-color="#8E3017"/>
<stop offset="1" stop-color="#9B4B24" stop-opacity="0.1"/>
</linearGradient>
<linearGradient id="paint21_linear_777_872" x1="92.5386" y1="12.9286" x2="118.157" y2="12.9286" gradientUnits="userSpaceOnUse">
<stop stop-color="#5C110B"/>
<stop offset="1" stop-color="#670F0B"/>
</linearGradient>
<linearGradient id="paint22_linear_777_872" x1="102.297" y1="53.5007" x2="103.799" y2="66.6309" gradientUnits="userSpaceOnUse">
<stop stop-color="#FFBA81"/>
<stop offset="0.49" stop-color="#FFBA81"/>
<stop offset="0.8" stop-color="#FFBA81"/>
<stop offset="0.99" stop-color="#CE571B"/>
</linearGradient>
<linearGradient id="paint23_linear_777_872" x1="86.239" y1="88.765" x2="86.239" y2="16.4498" gradientUnits="userSpaceOnUse">
<stop stop-color="#952A18"/>
<stop offset="0.59" stop-color="#6B1711"/>
<stop offset="1" stop-color="#A42A1C"/>
</linearGradient>
<linearGradient id="paint24_linear_777_872" x1="73.7889" y1="38.4186" x2="93.6705" y2="23.5854" gradientUnits="userSpaceOnUse">
<stop stop-color="#741A13"/>
<stop offset="1" stop-color="#E05B2A"/>
</linearGradient>
<linearGradient id="paint25_linear_777_872" x1="116.34" y1="54.1271" x2="116.34" y2="45.943" gradientUnits="userSpaceOnUse">
<stop stop-color="#E3CCBB"/>
<stop offset="0.99" stop-color="#FCFAEC"/>
</linearGradient>
<linearGradient id="paint26_linear_777_872" x1="115.421" y1="49.8534" x2="123.344" y2="49.8534" gradientUnits="userSpaceOnUse">
<stop stop-color="#3E724C"/>
<stop offset="1" stop-color="#283F21"/>
</linearGradient>
<linearGradient id="paint27_linear_777_872" x1="86.6746" y1="52.9151" x2="98.9498" y2="52.9151" gradientUnits="userSpaceOnUse">
<stop stop-color="#FCFAEC"/>
<stop offset="1" stop-color="#E3CCBB"/>
</linearGradient>
<linearGradient id="paint28_linear_777_872" x1="91.3286" y1="53.0114" x2="98.9498" y2="53.0114" gradientUnits="userSpaceOnUse">
<stop stop-color="#3E724C"/>
<stop offset="1" stop-color="#283F21"/>
</linearGradient>
<linearGradient id="paint29_linear_777_872" x1="89.1133" y1="52.296" x2="98.9498" y2="52.296" gradientUnits="userSpaceOnUse">
<stop stop-color="#E1824C" stop-opacity="0.7"/>
<stop offset="1" stop-color="#A84E1C"/>
</linearGradient>
<linearGradient id="paint30_linear_777_872" x1="135.492" y1="55.2724" x2="135.492" y2="46.751" gradientUnits="userSpaceOnUse">
<stop stop-color="#FCB473"/>
<stop offset="1" stop-color="#B23A0F" stop-opacity="0.8"/>
</linearGradient>
<linearGradient id="paint31_linear_777_872" x1="135.492" y1="55.4577" x2="135.492" y2="46.5657" gradientUnits="userSpaceOnUse">
<stop stop-color="#FDB473"/>
<stop offset="1" stop-color="#B23A0F"/>
</linearGradient>
<linearGradient id="paint32_linear_777_872" x1="110" y1="159.95" x2="110" y2="169.468" gradientUnits="userSpaceOnUse">
<stop offset="0.5" stop-color="#522412"/>
<stop offset="1" stop-color="#87452D"/>
</linearGradient>
<linearGradient id="paint33_linear_777_872" x1="110" y1="179.62" x2="110" y2="170.106" gradientUnits="userSpaceOnUse">
<stop offset="0.3" stop-color="#87452D"/>
<stop offset="1" stop-color="#522412"/>
</linearGradient>
<linearGradient id="paint34_linear_777_872" x1="98.8494" y1="21.7539" x2="129.397" y2="21.7539" gradientUnits="userSpaceOnUse">
<stop stop-color="#631601"/>
<stop offset="1" stop-color="#631601" stop-opacity="0"/>
</linearGradient>
<linearGradient id="paint35_linear_777_872" x1="105.078" y1="20.2268" x2="138.672" y2="44.0603" gradientUnits="userSpaceOnUse">
<stop stop-color="#E05B2A"/>
<stop offset="1" stop-color="#E05B2A" stop-opacity="0.2"/>
</linearGradient>
<radialGradient id="paint36_radial_777_872" cx="0" cy="0" r="1" gradientUnits="userSpaceOnUse" gradientTransform="translate(112.007 17.8509) scale(6.67183 6.64218)">
<stop stop-color="#F9CDA6"/>
<stop offset="1" stop-color="#E05B2A" stop-opacity="0.7"/>
</radialGradient>
<radialGradient id="paint37_radial_777_872" cx="0" cy="0" r="1" gradientUnits="userSpaceOnUse" gradientTransform="translate(87.1336 27.2024) rotate(-20.4563) scale(6.66819 6.64581)">
<stop stop-color="#F9CDA6"/>
<stop offset="1" stop-color="#E05B2A" stop-opacity="0.7"/>
</radialGradient>
<radialGradient id="paint38_radial_777_872" cx="0" cy="0" r="1" gradientUnits="userSpaceOnUse" gradientTransform="translate(81.5902 19.5527) rotate(-20.4563) scale(6.39134 6.70514)">
<stop stop-color="#F9CDA6"/>
<stop offset="1" stop-color="#E05B2A" stop-opacity="0.7"/>
</radialGradient>
<radialGradient id="paint39_radial_777_872" cx="0" cy="0" r="1" gradientUnits="userSpaceOnUse" gradientTransform="translate(117.206 23.178) rotate(49.9143) scale(5.05766 5.06156)">
<stop stop-color="#F9CDA6"/>
<stop offset="1" stop-color="#E05B2A" stop-opacity="0.7"/>
</radialGradient>
<radialGradient id="paint40_radial_777_872" cx="0" cy="0" r="1" gradientUnits="userSpaceOnUse" gradientTransform="translate(124.25 33.0615) rotate(70.2991) scale(3.64911 3.6617)">
<stop stop-color="#F9CDA6"/>
<stop offset="1" stop-color="#E05B2A" stop-opacity="0.7"/>
</radialGradient>
<radialGradient id="paint41_radial_777_872" cx="0" cy="0" r="1" gradientUnits="userSpaceOnUse" gradientTransform="translate(124.437 18.0565) rotate(0.617245) scale(6.81702 6.78674)">
<stop stop-color="#F9CDA6" stop-opacity="0.7"/>
<stop offset="1" stop-color="#F9CDA6" stop-opacity="0.2"/>
</radialGradient>
<radialGradient id="paint42_radial_777_872" cx="0" cy="0" r="1" gradientUnits="userSpaceOnUse" gradientTransform="translate(141.468 30.557) scale(5.54745 5.52279)">
<stop stop-color="#F9CDA6" stop-opacity="0.7"/>
<stop offset="1" stop-color="#F9CDA6" stop-opacity="0.2"/>
</radialGradient>
<radialGradient id="paint43_radial_777_872" cx="0" cy="0" r="1" gradientUnits="userSpaceOnUse" gradientTransform="translate(104.728 10.5637) scale(6.56758 6.5384)">
<stop stop-color="#F9CDA6" stop-opacity="0.7"/>
<stop offset="1" stop-color="#F9CDA6" stop-opacity="0.2"/>
</radialGradient>
<linearGradient id="paint44_linear_777_872" x1="88.0113" y1="111.561" x2="96.2356" y2="96.8289" gradientUnits="userSpaceOnUse">
<stop stop-color="#459B87" stop-opacity="0"/>
<stop offset="1" stop-color="#459B87"/>
</linearGradient>
<linearGradient id="paint45_linear_777_872" x1="86.213" y1="109.481" x2="92.9358" y2="97.4351" gradientUnits="userSpaceOnUse">
<stop stop-color="#16372B"/>
<stop offset="1" stop-color="#184338"/>
</linearGradient>
<radialGradient id="paint46_radial_777_872" cx="0" cy="0" r="1" gradientUnits="userSpaceOnUse" gradientTransform="translate(101.212 14.7358) rotate(-13.1633) scale(3.96421 3.94842)">
<stop stop-color="#F9CDA6" stop-opacity="0.7"/>
<stop offset="1" stop-color="#F9CDA6" stop-opacity="0.2"/>
</radialGradient>
<linearGradient id="paint47_linear_777_872" x1="97.468" y1="158.601" x2="110.41" y2="158.601" gradientUnits="userSpaceOnUse">
<stop stop-color="#C7CBD1"/>
<stop offset="1" stop-color="#626770"/>
</linearGradient>
<linearGradient id="paint48_linear_777_872" x1="111.37" y1="165.536" x2="111.37" y2="160.731" gradientUnits="userSpaceOnUse">
<stop stop-color="#545860"/>
<stop offset="1" stop-color="#2A2B34"/>
</linearGradient>
<linearGradient id="paint49_linear_777_872" x1="37.6709" y1="121.831" x2="100.84" y2="150.926" gradientUnits="userSpaceOnUse">
<stop stop-color="#747271"/>
<stop offset="0.81" stop-color="#D7D9D7"/>
</linearGradient>
<linearGradient id="paint50_linear_777_872" x1="32.7415" y1="109.392" x2="92.4065" y2="133.148" gradientUnits="userSpaceOnUse">
<stop stop-color="#D3D3D3"/>
<stop offset="1" stop-color="#EDF1F2"/>
</linearGradient>
<radialGradient id="paint51_radial_777_872" cx="0" cy="0" r="1" gradientUnits="userSpaceOnUse" gradientTransform="translate(67.549 159.913) scale(22.1637 22.0652)">
<stop stop-color="#939393"/>
<stop offset="1" stop-color="#727272"/>
</radialGradient>
<linearGradient id="paint52_linear_777_872" x1="67.508" y1="158.267" x2="67.652" y2="156.61" gradientUnits="userSpaceOnUse">
<stop stop-color="#61575A" stop-opacity="0"/>
<stop offset="0.59" stop-color="#625A5B" stop-opacity="0.7"/>
</linearGradient>
<linearGradient id="paint53_linear_777_872" x1="102.736" y1="134.567" x2="105.452" y2="114.559" gradientUnits="userSpaceOnUse">
<stop stop-color="#EAE7E8"/>
<stop offset="1" stop-color="#FCFDF9"/>
</linearGradient>
<linearGradient id="paint54_linear_777_872" x1="100.033" y1="134.264" x2="101.967" y2="120.009" gradientUnits="userSpaceOnUse">
<stop stop-color="#C6C0C0"/>
<stop offset="1" stop-color="#E0E0DE"/>
</linearGradient>
<radialGradient id="paint55_radial_777_872" cx="0" cy="0" r="1" gradientUnits="userSpaceOnUse" gradientTransform="translate(119.203 58.5808) rotate(-9.11997) scale(4.03541 4.01837)">
<stop stop-color="#EAE7E8" stop-opacity="0.5"/>
<stop offset="1" stop-color="#FCFDF9" stop-opacity="0"/>
</radialGradient>
<radialGradient id="paint56_radial_777_872" cx="0" cy="0" r="1" gradientUnits="userSpaceOnUse" gradientTransform="translate(93.3512 62.513) rotate(-9.11998) scale(4.03541 4.01838)">
<stop stop-color="#EAE7E8" stop-opacity="0.5"/>
<stop offset="1" stop-color="#FCFDF9" stop-opacity="0"/>
</radialGradient>
<linearGradient id="paint57_linear_777_872" x1="132.462" y1="130.986" x2="132.462" y2="171.755" gradientUnits="userSpaceOnUse">
<stop stop-color="#E47535"/>
<stop offset="1" stop-color="#F4A671"/>
</linearGradient>
<linearGradient id="paint58_linear_777_872" x1="138.366" y1="172.7" x2="138.972" y2="166.577" gradientUnits="userSpaceOnUse">
<stop stop-color="#B74E18"/>
<stop offset="1" stop-color="#B74E18" stop-opacity="0.1"/>
</linearGradient>
<linearGradient id="paint59_linear_777_872" x1="135.511" y1="46.8733" x2="134.93" y2="47.8986" gradientUnits="userSpaceOnUse">
<stop stop-color="#57110B"/>
<stop offset="1" stop-color="#57110B" stop-opacity="0.1"/>
</linearGradient>
<linearGradient id="paint60_linear_777_872" x1="90.4127" y1="111.727" x2="98.1747" y2="97.8166" gradientUnits="userSpaceOnUse">
<stop stop-color="#16372B"/>
<stop offset="1" stop-color="#D2773F"/>
</linearGradient>
<linearGradient id="paint61_linear_777_872" x1="125.827" y1="108.866" x2="132.44" y2="94.9729" gradientUnits="userSpaceOnUse">
<stop stop-color="#E88242"/>
<stop offset="1" stop-color="#AD5A2B"/>
</linearGradient>
<linearGradient id="paint62_linear_777_872" x1="143.326" y1="159.327" x2="143.326" y2="153.445" gradientUnits="userSpaceOnUse">
<stop stop-color="#EF975F"/>
<stop offset="1" stop-color="#FFB48A"/>
</linearGradient>
<radialGradient id="paint63_radial_777_872" cx="0" cy="0" r="1" gradientUnits="userSpaceOnUse" gradientTransform="translate(150.504 72.6748) scale(21.4601 21.3647)">
<stop stop-color="#A02916" stop-opacity="0.9"/>
<stop offset="1" stop-color="#A02916" stop-opacity="0.1"/>
</radialGradient>
<radialGradient id="paint64_radial_777_872" cx="0" cy="0" r="1" gradientUnits="userSpaceOnUse" gradientTransform="translate(135.699 76.3442) rotate(-24.7628) scale(8.11521 9.09194)">
<stop stop-color="#A02916" stop-opacity="0.7"/>
<stop offset="1" stop-color="#A02916" stop-opacity="0.1"/>
</radialGradient>
<radialGradient id="paint65_radial_777_872" cx="0" cy="0" r="1" gradientUnits="userSpaceOnUse" gradientTransform="translate(153.333 64.2053) scale(5.64426 5.61916)">
<stop stop-color="#A02916" stop-opacity="0.7"/>
<stop offset="1" stop-color="#A02916" stop-opacity="0.1"/>
</radialGradient>
<radialGradient id="paint66_radial_777_872" cx="0" cy="0" r="1" gradientUnits="userSpaceOnUse" gradientTransform="translate(158.85 93.3179) rotate(-30.4683) scale(7.25547 5.28508)">
<stop stop-color="#A02916" stop-opacity="0.7"/>
<stop offset="1" stop-color="#A02916" stop-opacity="0.1"/>
</radialGradient>
</defs>
</svg>
