<svg width="160" height="160" viewBox="0 0 160 160" fill="none" xmlns="http://www.w3.org/2000/svg">
<rect x="8" y="8" width="144" height="144" rx="72" fill="white"/>
<rect x="8" y="8" width="144" height="144" rx="72" stroke="white" stroke-width="16"/>
<path d="M71.04 109.44L116.16 64.32L107.2 55.36L71.04 91.52L52.8 73.28L43.84 82.24L71.04 109.44ZM80 144C71.1467 144 62.8267 142.32 55.04 138.96C47.2533 135.6 40.48 131.04 34.72 125.28C28.96 119.52 24.4 112.747 21.04 104.96C17.68 97.1733 16 88.8533 16 80C16 71.1467 17.68 62.8267 21.04 55.04C24.4 47.2533 28.96 40.48 34.72 34.72C40.48 28.96 47.2533 24.4 55.04 21.04C62.8267 17.68 71.1467 16 80 16C88.8533 16 97.1733 17.68 104.96 21.04C112.747 24.4 119.52 28.96 125.28 34.72C131.04 40.48 135.6 47.2533 138.96 55.04C142.32 62.8267 144 71.1467 144 80C144 88.8533 142.32 97.1733 138.96 104.96C135.6 112.747 131.04 119.52 125.28 125.28C119.52 131.04 112.747 135.6 104.96 138.96C97.1733 142.32 88.8533 144 80 144ZM80 131.2C94.2933 131.2 106.4 126.24 116.32 116.32C126.24 106.4 131.2 94.2933 131.2 80C131.2 65.7067 126.24 53.6 116.32 43.68C106.4 33.76 94.2933 28.8 80 28.8C65.7067 28.8 53.6 33.76 43.68 43.68C33.76 53.6 28.8 65.7067 28.8 80C28.8 94.2933 33.76 106.4 43.68 116.32C53.6 126.24 65.7067 131.2 80 131.2Z" fill="url(#paint0_linear_777_695)"/>
<defs>
<linearGradient id="paint0_linear_777_695" x1="80" y1="16" x2="80" y2="144" gradientUnits="userSpaceOnUse">
<stop stop-color="#93D56F"/>
<stop offset="1" stop-color="#659A57"/>
</linearGradient>
</defs>
</svg>
