<svg width="296" height="92" viewBox="0 0 296 92" fill="none" xmlns="http://www.w3.org/2000/svg">
<path d="M88.5415 16.4489H81.4393C81.3446 15.7197 81.1505 15.0616 80.8569 14.4744C80.5633 13.8873 80.1751 13.3854 79.6921 12.9688C79.2092 12.5521 78.6362 12.2348 77.9734 12.017C77.32 11.7898 76.5955 11.6761 75.8001 11.6761C74.3891 11.6761 73.1722 12.0218 72.1495 12.7131C71.1362 13.4044 70.355 14.4034 69.8058 15.7102C69.266 17.017 68.9961 18.5985 68.9961 20.4545C68.9961 22.3864 69.2707 24.0057 69.82 25.3125C70.3787 26.6098 71.1599 27.59 72.1637 28.2528C73.177 28.9062 74.3749 29.233 75.7575 29.233C76.534 29.233 77.2395 29.1335 77.8739 28.9347C78.5179 28.7358 79.0813 28.447 79.5643 28.0682C80.0567 27.6799 80.4592 27.2112 80.7717 26.6619C81.0936 26.1032 81.3162 25.4735 81.4393 24.7727L88.5415 24.8153C88.4184 26.1032 88.0444 27.3722 87.4194 28.6222C86.8039 29.8722 85.9563 31.0133 84.8768 32.0455C83.7972 33.0682 82.4809 33.8826 80.9279 34.4886C79.3844 35.0947 77.6135 35.3977 75.6154 35.3977C72.9828 35.3977 70.6249 34.8201 68.5415 33.6648C66.4677 32.5 64.8294 30.8049 63.6268 28.5795C62.4241 26.3542 61.8228 23.6458 61.8228 20.4545C61.8228 17.2538 62.4336 14.5407 63.6552 12.3153C64.8768 10.09 66.5292 8.39962 68.6126 7.24432C70.6959 6.08901 73.0302 5.51136 75.6154 5.51136C77.3768 5.51136 79.0056 5.75758 80.5018 6.25C81.998 6.73295 83.3143 7.44318 84.4506 8.38068C85.587 9.30871 86.5103 10.4498 87.2205 11.804C87.9308 13.1581 88.3711 14.7064 88.5415 16.4489ZM92.565 35V13.1818H112.267V35H105.69V18.4943H99.0565V35H92.565ZM122.817 35.3693C121.425 35.3693 120.189 35.1373 119.11 34.6733C118.04 34.1998 117.192 33.4896 116.567 32.5426C115.952 31.5862 115.644 30.3883 115.644 28.9489C115.644 27.7367 115.857 26.714 116.283 25.8807C116.709 25.0473 117.296 24.3703 118.044 23.8494C118.792 23.3286 119.654 22.9356 120.63 22.6705C121.605 22.3958 122.647 22.2112 123.755 22.1165C124.995 22.0028 125.994 21.8845 126.752 21.7614C127.509 21.6288 128.059 21.4441 128.4 21.2074C128.75 20.9612 128.925 20.6155 128.925 20.1705V20.0994C128.925 19.3703 128.674 18.8068 128.172 18.4091C127.67 18.0114 126.993 17.8125 126.141 17.8125C125.222 17.8125 124.484 18.0114 123.925 18.4091C123.366 18.8068 123.011 19.3561 122.86 20.0568L116.453 19.8295C116.643 18.5038 117.131 17.3201 117.917 16.2784C118.712 15.2273 119.801 14.4034 121.184 13.8068C122.576 13.2008 124.247 12.8977 126.198 12.8977C127.59 12.8977 128.873 13.0634 130.047 13.3949C131.221 13.7169 132.244 14.1903 133.115 14.8153C133.987 15.4309 134.659 16.1884 135.132 17.0881C135.615 17.9877 135.857 19.0152 135.857 20.1705V35H129.323V31.9602H129.152C128.764 32.6989 128.267 33.3239 127.661 33.8352C127.064 34.3466 126.359 34.7301 125.544 34.9858C124.739 35.2415 123.83 35.3693 122.817 35.3693ZM124.962 30.8239C125.71 30.8239 126.382 30.6723 126.979 30.3693C127.585 30.0663 128.068 29.6496 128.428 29.1193C128.788 28.5795 128.968 27.9545 128.968 27.2443V25.1705C128.769 25.2746 128.527 25.3693 128.243 25.4545C127.969 25.5398 127.666 25.6203 127.334 25.696C127.003 25.7718 126.662 25.8381 126.311 25.8949C125.961 25.9517 125.625 26.0038 125.303 26.0511C124.65 26.1553 124.091 26.3163 123.627 26.5341C123.172 26.7519 122.822 27.036 122.576 27.3864C122.339 27.7273 122.221 28.1345 122.221 28.608C122.221 29.3277 122.476 29.8769 122.988 30.2557C123.508 30.6345 124.167 30.8239 124.962 30.8239ZM150.289 35.4119C147.988 35.4119 146.013 34.9384 144.365 33.9915C142.727 33.0445 141.468 31.7282 140.587 30.0426C139.706 28.3475 139.266 26.3873 139.266 24.1619C139.266 21.9271 139.706 19.9669 140.587 18.2812C141.477 16.5862 142.741 15.2652 144.38 14.3182C146.027 13.3712 147.992 12.8977 150.275 12.8977C152.292 12.8977 154.048 13.2623 155.544 13.9915C157.05 14.7206 158.224 15.7528 159.067 17.0881C159.919 18.4138 160.369 19.9716 160.417 21.7614H153.925C153.792 20.6439 153.414 19.768 152.789 19.1335C152.173 18.4991 151.368 18.1818 150.374 18.1818C149.569 18.1818 148.864 18.4091 148.257 18.8636C147.651 19.3087 147.178 19.9716 146.837 20.8523C146.506 21.7235 146.34 22.803 146.34 24.0909C146.34 25.3788 146.506 26.4678 146.837 27.358C147.178 28.2386 147.651 28.9062 148.257 29.3608C148.864 29.8059 149.569 30.0284 150.374 30.0284C151.018 30.0284 151.586 29.8911 152.078 29.6165C152.58 29.3419 152.992 28.9394 153.314 28.4091C153.636 27.8693 153.84 27.2159 153.925 26.4489H160.417C160.35 28.2481 159.9 29.8201 159.067 31.1648C158.243 32.5095 157.083 33.5559 155.587 34.304C154.1 35.0426 152.334 35.4119 150.289 35.4119ZM170.548 26.0085L177.522 13.1818H184.199V35H177.622V22.1307L170.662 35H163.971V13.1818H170.548V26.0085ZM207.412 5.22727L209.287 9.81534C208.691 10.2794 208.037 10.6297 207.327 10.8665C206.626 11.1032 205.769 11.2642 204.756 11.3494C203.743 11.4347 202.464 11.482 200.921 11.4915C199.178 11.5009 197.767 11.7424 196.688 12.2159C195.608 12.6799 194.789 13.4422 194.23 14.5028C193.681 15.554 193.317 16.9555 193.137 18.7074H193.321C193.946 17.3911 194.837 16.3542 195.992 15.5966C197.147 14.839 198.639 14.4602 200.466 14.4602C202.37 14.4602 204.027 14.8722 205.438 15.696C206.849 16.5104 207.938 17.6752 208.705 19.1903C209.472 20.696 209.855 22.4858 209.855 24.5597C209.855 26.7566 209.415 28.6695 208.534 30.2983C207.654 31.9271 206.394 33.1866 204.756 34.0767C203.118 34.9669 201.158 35.4119 198.875 35.4119C196.593 35.4119 194.628 34.9479 192.98 34.0199C191.342 33.0919 190.078 31.7282 189.188 29.929C188.307 28.1203 187.867 25.8996 187.867 23.267V21.6761C187.867 16.2784 188.956 12.3059 191.134 9.75852C193.312 7.21117 196.494 5.92803 200.679 5.90909C201.73 5.89962 202.682 5.89962 203.534 5.90909C204.396 5.90909 205.149 5.86648 205.793 5.78125C206.437 5.68655 206.977 5.50189 207.412 5.22727ZM198.918 30.1705C199.713 30.1705 200.4 29.9574 200.978 29.5312C201.555 29.1051 202 28.4943 202.313 27.6989C202.625 26.9034 202.782 25.947 202.782 24.8295C202.782 23.7121 202.621 22.7604 202.299 21.9744C201.986 21.1884 201.541 20.5919 200.963 20.1847C200.386 19.768 199.699 19.5597 198.904 19.5597C198.298 19.5597 197.748 19.678 197.256 19.9148C196.764 20.142 196.347 20.483 196.006 20.9375C195.665 21.3826 195.405 21.9318 195.225 22.5852C195.045 23.2386 194.955 23.9867 194.955 24.8295C194.955 26.4962 195.305 27.803 196.006 28.75C196.707 29.697 197.677 30.1705 198.918 30.1705ZM223.687 35.4119C221.395 35.4119 219.426 34.9432 217.778 34.0057C216.14 33.0587 214.876 31.7424 213.985 30.0568C213.105 28.3617 212.664 26.3968 212.664 24.1619C212.664 21.9176 213.105 19.9527 213.985 18.267C214.876 16.572 216.14 15.2557 217.778 14.3182C219.426 13.3712 221.395 12.8977 223.687 12.8977C225.979 12.8977 227.944 13.3712 229.582 14.3182C231.23 15.2557 232.494 16.572 233.375 18.267C234.265 19.9527 234.71 21.9176 234.71 24.1619C234.71 26.3968 234.265 28.3617 233.375 30.0568C232.494 31.7424 231.23 33.0587 229.582 34.0057C227.944 34.9432 225.979 35.4119 223.687 35.4119ZM223.73 30.1705C224.563 30.1705 225.269 29.9148 225.846 29.4034C226.424 28.892 226.864 28.1818 227.167 27.2727C227.48 26.3636 227.636 25.3125 227.636 24.1193C227.636 22.9072 227.48 21.8466 227.167 20.9375C226.864 20.0284 226.424 19.3182 225.846 18.8068C225.269 18.2955 224.563 18.0398 223.73 18.0398C222.868 18.0398 222.139 18.2955 221.542 18.8068C220.955 19.3182 220.505 20.0284 220.193 20.9375C219.89 21.8466 219.738 22.9072 219.738 24.1193C219.738 25.3125 219.89 26.3636 220.193 27.2727C220.505 28.1818 220.955 28.892 221.542 29.4034C222.139 29.9148 222.868 30.1705 223.73 30.1705Z" fill="#343434"/>
<path d="M27.2237 65V53.3636H31.4851C32.3108 53.3636 32.9946 53.5 33.5362 53.7727C34.0779 54.0417 34.4832 54.4072 34.7521 54.8693C35.0211 55.3277 35.1555 55.8447 35.1555 56.4205C35.1555 56.9053 35.0665 57.3144 34.8885 57.6477C34.7105 57.9773 34.4718 58.2424 34.1726 58.4432C33.8771 58.6402 33.5514 58.7841 33.1953 58.875V58.9886C33.5817 59.0076 33.9586 59.1326 34.326 59.3636C34.6972 59.5909 35.004 59.9148 35.2464 60.3352C35.4889 60.7557 35.6101 61.267 35.6101 61.8693C35.6101 62.464 35.4699 62.9981 35.1896 63.4716C34.9131 63.9413 34.4851 64.3144 33.9055 64.5909C33.326 64.8636 32.5855 65 31.6839 65H27.2237ZM28.9794 63.4943H31.5135C32.3544 63.4943 32.9567 63.3314 33.3203 63.0057C33.6839 62.6799 33.8658 62.2727 33.8658 61.7841C33.8658 61.4167 33.773 61.0795 33.5874 60.7727C33.4018 60.4659 33.1366 60.2216 32.7919 60.0398C32.451 59.858 32.0457 59.767 31.576 59.767H28.9794V63.4943ZM28.9794 58.3977H31.3317C31.7256 58.3977 32.0798 58.322 32.3942 58.1705C32.7124 58.0189 32.9643 57.8068 33.1499 57.5341C33.3393 57.2576 33.4339 56.9318 33.4339 56.5568C33.4339 56.0758 33.2654 55.6723 32.9283 55.3466C32.5911 55.0208 32.0741 54.858 31.3771 54.858H28.9794V58.3977ZM48.5234 53.0227L49.228 54.0966C48.9666 54.3352 48.6693 54.5057 48.3359 54.608C48.0064 54.7064 47.6257 54.7689 47.1939 54.7955C46.7621 54.8182 46.2678 54.839 45.7109 54.858C45.0821 54.8769 44.5651 55.0133 44.1598 55.267C43.7545 55.517 43.442 55.8883 43.2223 56.3807C43.0064 56.8693 42.8662 57.483 42.8018 58.2216H42.9098C43.1939 57.6799 43.5878 57.2746 44.0916 57.0057C44.5992 56.7367 45.1693 56.6023 45.8018 56.6023C46.5064 56.6023 47.1333 56.7633 47.6825 57.0852C48.2318 57.4072 48.6636 57.8788 48.978 58.5C49.2962 59.1174 49.4553 59.8731 49.4553 60.767C49.4553 61.6723 49.2886 62.4545 48.9553 63.1136C48.6257 63.7727 48.1598 64.2822 47.5575 64.642C46.959 64.9981 46.2526 65.1761 45.4382 65.1761C44.6238 65.1761 43.9136 64.9924 43.3075 64.625C42.7053 64.2538 42.2375 63.7045 41.9041 62.9773C41.5746 62.25 41.4098 61.3523 41.4098 60.2841V59.4205C41.4098 57.4242 41.7659 55.9223 42.478 54.9148C43.1901 53.9072 44.2545 53.3902 45.6712 53.3636C46.1295 53.3523 46.5386 53.3504 46.8984 53.358C47.2583 53.3617 47.5727 53.3447 47.8416 53.3068C48.1143 53.2652 48.3416 53.1705 48.5234 53.0227ZM45.4439 63.75C45.9174 63.75 46.3246 63.6307 46.6655 63.392C47.0102 63.1496 47.2753 62.8068 47.4609 62.3636C47.6465 61.9205 47.7393 61.3977 47.7393 60.7955C47.7393 60.2045 47.6465 59.7027 47.4609 59.2898C47.2753 58.8769 47.0102 58.5625 46.6655 58.3466C46.3208 58.1269 45.9079 58.017 45.4268 58.017C45.0708 58.017 44.7526 58.0795 44.4723 58.2045C44.192 58.3258 43.9515 58.5057 43.7507 58.7443C43.5537 58.983 43.4003 59.2746 43.2905 59.6193C43.1844 59.9602 43.1276 60.3523 43.12 60.7955C43.12 61.697 43.3265 62.4148 43.7393 62.9489C44.156 63.483 44.7242 63.75 45.4439 63.75ZM50.6655 65L50.6598 63.5284H50.9723C51.2147 63.5284 51.4174 63.4773 51.5803 63.375C51.7469 63.2689 51.8833 63.0909 51.9893 62.8409C52.0954 62.5909 52.1768 62.2462 52.2337 61.8068C52.2905 61.3636 52.3321 60.8068 52.3587 60.1364L52.5121 56.2727H58.603V65H56.9382V57.7386H54.0859L53.9496 60.7045C53.9155 61.4242 53.8416 62.053 53.728 62.5909C53.6181 63.1288 53.4571 63.5777 53.245 63.9375C53.0329 64.2936 52.7602 64.5606 52.4268 64.7386C52.0935 64.9129 51.6882 65 51.2109 65H50.6655ZM62.5334 62.6193L66.38 56.2727H68.2095V65H66.5447V58.6477L62.7152 65H60.8686V56.2727H62.5334V62.6193ZM69.9368 65L73.3175 60.5341L69.9766 56.2727H71.9538L74.6527 59.8977H75.2607V56.2727H76.9595V59.8977H77.5504L80.2493 56.2727H82.2266L78.9027 60.5341L82.2663 65H80.2493L77.5277 61.3636H76.9595V65H75.2607V61.3636H74.6925L71.9538 65H69.9368ZM86.5178 65.1932C85.9647 65.1932 85.4647 65.0909 85.0178 64.8864C84.5708 64.678 84.2166 64.3769 83.9553 63.983C83.6977 63.589 83.5689 63.1061 83.5689 62.5341C83.5689 62.0417 83.6636 61.6364 83.853 61.3182C84.0424 61 84.2981 60.7481 84.62 60.5625C84.942 60.3769 85.3018 60.2367 85.6996 60.142C86.0973 60.0473 86.5026 59.9754 86.9155 59.9261C87.4382 59.8655 87.8625 59.8163 88.1882 59.7784C88.514 59.7367 88.7507 59.6705 88.8984 59.5795C89.0462 59.4886 89.12 59.3409 89.12 59.1364V59.0966C89.12 58.6004 88.9799 58.2159 88.6996 57.9432C88.4231 57.6705 88.0102 57.5341 87.4609 57.5341C86.889 57.5341 86.4382 57.661 86.1087 57.9148C85.7829 58.1648 85.5575 58.4432 85.4325 58.75L83.8359 58.3864C84.0253 57.8561 84.3018 57.428 84.6655 57.1023C85.0329 56.7727 85.4553 56.5341 85.9325 56.3864C86.4098 56.2348 86.9117 56.1591 87.4382 56.1591C87.7867 56.1591 88.156 56.2008 88.5462 56.2841C88.9401 56.3636 89.3075 56.5114 89.6484 56.7273C89.9931 56.9432 90.2753 57.2519 90.495 57.6534C90.7147 58.0511 90.8246 58.5682 90.8246 59.2045V65H89.1655V63.8068H89.0973C88.9875 64.0265 88.8227 64.2424 88.603 64.4545C88.3833 64.6667 88.1011 64.8428 87.7564 64.983C87.4117 65.1231 86.9988 65.1932 86.5178 65.1932ZM86.8871 63.8295C87.3568 63.8295 87.7583 63.7367 88.0916 63.5511C88.4287 63.3655 88.6844 63.1231 88.8587 62.8239C89.0367 62.5208 89.1257 62.197 89.1257 61.8523V60.7273C89.0651 60.7879 88.9477 60.8447 88.7734 60.8977C88.603 60.947 88.4079 60.9905 88.1882 61.0284C87.9685 61.0625 87.7545 61.0947 87.5462 61.125C87.3378 61.1515 87.1636 61.1742 87.0234 61.1932C86.6939 61.2348 86.3928 61.3049 86.12 61.4034C85.8511 61.5019 85.6352 61.6439 85.4723 61.8295C85.3132 62.0114 85.2337 62.2538 85.2337 62.5568C85.2337 62.9773 85.389 63.2955 85.6996 63.5114C86.0102 63.7235 86.406 63.8295 86.8871 63.8295ZM94.7521 62.6193L98.5987 56.2727H100.428V65H98.7635V58.6477L94.9339 65H93.0874V56.2727H94.7521V62.6193ZM97.8714 53.3182H99.2692C99.2692 53.9583 99.0419 54.4792 98.5874 54.8807C98.1366 55.2784 97.5268 55.4773 96.7578 55.4773C95.9927 55.4773 95.3847 55.2784 94.9339 54.8807C94.4832 54.4792 94.2578 53.9583 94.2578 53.3182H95.6499C95.6499 53.6023 95.7332 53.8542 95.8999 54.0739C96.0665 54.2898 96.3525 54.3977 96.7578 54.3977C97.1555 54.3977 97.4396 54.2898 97.6101 54.0739C97.7843 53.858 97.8714 53.6061 97.8714 53.3182ZM102.712 56.2727H104.377V63.5284H107.394V56.2727H109.059V63.5284H112.076V56.2727H113.741V65H102.712V56.2727ZM119.771 65.1761C118.911 65.1761 118.17 64.9924 117.549 64.625C116.932 64.2538 116.454 63.733 116.117 63.0625C115.784 62.3883 115.617 61.5985 115.617 60.6932C115.617 59.7992 115.784 59.0114 116.117 58.3295C116.454 57.6477 116.924 57.1155 117.526 56.733C118.132 56.3504 118.841 56.1591 119.651 56.1591C120.144 56.1591 120.621 56.2405 121.083 56.4034C121.545 56.5663 121.96 56.822 122.327 57.1705C122.695 57.5189 122.985 57.9716 123.197 58.5284C123.409 59.0814 123.515 59.7538 123.515 60.5455V61.1477H116.577V59.875H121.85C121.85 59.428 121.759 59.0322 121.577 58.6875C121.396 58.339 121.14 58.0644 120.81 57.8636C120.485 57.6629 120.102 57.5625 119.663 57.5625C119.185 57.5625 118.769 57.6799 118.413 57.9148C118.06 58.1458 117.788 58.4489 117.594 58.8239C117.405 59.1951 117.31 59.5985 117.31 60.0341V61.0284C117.31 61.6117 117.413 62.108 117.617 62.517C117.826 62.9261 118.115 63.2386 118.487 63.4545C118.858 63.6667 119.291 63.7727 119.788 63.7727C120.11 63.7727 120.403 63.7273 120.668 63.6364C120.933 63.5417 121.163 63.4015 121.356 63.2159C121.549 63.0303 121.697 62.8011 121.799 62.5284L123.407 62.8182C123.278 63.2917 123.047 63.7064 122.714 64.0625C122.384 64.4148 121.969 64.6894 121.469 64.8864C120.973 65.0795 120.407 65.1761 119.771 65.1761ZM129.161 65.1761C128.301 65.1761 127.561 64.9924 126.94 64.625C126.322 64.2538 125.845 63.733 125.508 63.0625C125.174 62.3883 125.008 61.5985 125.008 60.6932C125.008 59.7992 125.174 59.0114 125.508 58.3295C125.845 57.6477 126.315 57.1155 126.917 56.733C127.523 56.3504 128.231 56.1591 129.042 56.1591C129.534 56.1591 130.012 56.2405 130.474 56.4034C130.936 56.5663 131.351 56.822 131.718 57.1705C132.085 57.5189 132.375 57.9716 132.587 58.5284C132.799 59.0814 132.906 59.7538 132.906 60.5455V61.1477H125.968V59.875H131.241C131.241 59.428 131.15 59.0322 130.968 58.6875C130.786 58.339 130.531 58.0644 130.201 57.8636C129.875 57.6629 129.493 57.5625 129.053 57.5625C128.576 57.5625 128.159 57.6799 127.803 57.9148C127.451 58.1458 127.178 58.4489 126.985 58.8239C126.796 59.1951 126.701 59.5985 126.701 60.0341V61.0284C126.701 61.6117 126.803 62.108 127.008 62.517C127.216 62.9261 127.506 63.2386 127.877 63.4545C128.248 63.6667 128.682 63.7727 129.178 63.7727C129.5 63.7727 129.794 63.7273 130.059 63.6364C130.324 63.5417 130.553 63.4015 130.746 63.2159C130.94 63.0303 131.087 62.8011 131.19 62.5284L132.798 62.8182C132.669 63.2917 132.438 63.7064 132.104 64.0625C131.775 64.4148 131.36 64.6894 130.86 64.8864C130.364 65.0795 129.798 65.1761 129.161 65.1761ZM139.025 65V56.2727H142.644C143.629 56.2727 144.409 56.483 144.985 56.9034C145.561 57.3201 145.849 57.8864 145.849 58.6023C145.849 59.1136 145.686 59.5189 145.36 59.8182C145.034 60.1174 144.603 60.3182 144.065 60.4205C144.455 60.4659 144.813 60.5833 145.138 60.7727C145.464 60.9583 145.726 61.2083 145.923 61.5227C146.123 61.8371 146.224 62.2121 146.224 62.6477C146.224 63.1098 146.104 63.5189 145.866 63.875C145.627 64.2273 145.281 64.5038 144.826 64.7045C144.375 64.9015 143.832 65 143.195 65H139.025ZM140.621 63.5795H143.195C143.616 63.5795 143.945 63.4792 144.184 63.2784C144.423 63.0777 144.542 62.8049 144.542 62.4602C144.542 62.0549 144.423 61.7367 144.184 61.5057C143.945 61.2708 143.616 61.1534 143.195 61.1534H140.621V63.5795ZM140.621 59.9091H142.661C142.979 59.9091 143.252 59.8636 143.479 59.7727C143.71 59.6818 143.887 59.553 144.008 59.3864C144.133 59.2159 144.195 59.0152 144.195 58.7841C144.195 58.447 144.057 58.1837 143.781 57.9943C143.504 57.8049 143.125 57.7102 142.644 57.7102H140.621V59.9091ZM148.087 68.2727V56.2727H149.746V57.6875H149.888C149.987 57.5057 150.129 57.2955 150.315 57.0568C150.5 56.8182 150.758 56.6098 151.087 56.4318C151.417 56.25 151.853 56.1591 152.394 56.1591C153.099 56.1591 153.728 56.3371 154.281 56.6932C154.834 57.0492 155.267 57.5625 155.582 58.233C155.9 58.9034 156.059 59.7102 156.059 60.6534C156.059 61.5966 155.902 62.4053 155.587 63.0795C155.273 63.75 154.841 64.267 154.292 64.6307C153.743 64.9905 153.116 65.1705 152.411 65.1705C151.881 65.1705 151.447 65.0814 151.11 64.9034C150.777 64.7254 150.515 64.517 150.326 64.2784C150.137 64.0398 149.991 63.8277 149.888 63.642H149.786V68.2727H148.087ZM149.752 60.6364C149.752 61.25 149.841 61.7879 150.019 62.25C150.197 62.7121 150.455 63.0739 150.792 63.3352C151.129 63.5928 151.542 63.7216 152.031 63.7216C152.538 63.7216 152.962 63.5871 153.303 63.3182C153.644 63.0455 153.902 62.6761 154.076 62.2102C154.254 61.7443 154.343 61.2197 154.343 60.6364C154.343 60.0606 154.256 59.5436 154.082 59.0852C153.911 58.6269 153.654 58.2652 153.309 58C152.968 57.7348 152.542 57.6023 152.031 57.6023C151.538 57.6023 151.121 57.7292 150.781 57.983C150.443 58.2367 150.188 58.5909 150.013 59.0455C149.839 59.5 149.752 60.0303 149.752 60.6364ZM161.724 65.1761C160.864 65.1761 160.123 64.9924 159.502 64.625C158.885 64.2538 158.407 63.733 158.07 63.0625C157.737 62.3883 157.57 61.5985 157.57 60.6932C157.57 59.7992 157.737 59.0114 158.07 58.3295C158.407 57.6477 158.877 57.1155 159.479 56.733C160.085 56.3504 160.794 56.1591 161.604 56.1591C162.097 56.1591 162.574 56.2405 163.036 56.4034C163.498 56.5663 163.913 56.822 164.281 57.1705C164.648 57.5189 164.938 57.9716 165.15 58.5284C165.362 59.0814 165.468 59.7538 165.468 60.5455V61.1477H158.531V59.875H163.803C163.803 59.428 163.712 59.0322 163.531 58.6875C163.349 58.339 163.093 58.0644 162.763 57.8636C162.438 57.6629 162.055 57.5625 161.616 57.5625C161.138 57.5625 160.722 57.6799 160.366 57.9148C160.013 58.1458 159.741 58.4489 159.548 58.8239C159.358 59.1951 159.263 59.5985 159.263 60.0341V61.0284C159.263 61.6117 159.366 62.108 159.57 62.517C159.779 62.9261 160.068 63.2386 160.44 63.4545C160.811 63.6667 161.245 63.7727 161.741 63.7727C162.063 63.7727 162.356 63.7273 162.621 63.6364C162.887 63.5417 163.116 63.4015 163.309 63.2159C163.502 63.0303 163.65 62.8011 163.752 62.5284L165.36 62.8182C165.231 63.2917 165 63.7064 164.667 64.0625C164.337 64.4148 163.923 64.6894 163.423 64.8864C162.926 65.0795 162.36 65.1761 161.724 65.1761ZM172.251 62.8977L175.069 56.2727H176.535L172.881 65H171.62L168.04 56.2727H169.489L172.251 62.8977ZM169.018 56.2727V65H167.353V56.2727H169.018ZM175.529 65V56.2727H177.183V65H175.529ZM184.651 65V57.7216H182.56C182.064 57.7216 181.678 57.8371 181.401 58.0682C181.125 58.2992 180.987 58.6023 180.987 58.9773C180.987 59.3485 181.113 59.6477 181.367 59.875C181.625 60.0985 181.985 60.2102 182.447 60.2102H185.146V61.5852H182.447C181.803 61.5852 181.246 61.4792 180.776 61.267C180.31 61.0511 179.951 60.7462 179.697 60.3523C179.447 59.9583 179.322 59.4924 179.322 58.9545C179.322 58.4053 179.451 57.9318 179.708 57.5341C179.969 57.1326 180.343 56.822 180.827 56.6023C181.316 56.3826 181.894 56.2727 182.56 56.2727H186.248V65H184.651ZM178.924 65L181.384 60.5909H183.123L180.663 65H178.924ZM196.42 65.1761C195.602 65.1761 194.888 64.9886 194.278 64.6136C193.668 64.2386 193.194 63.714 192.857 63.0398C192.52 62.3655 192.352 61.5777 192.352 60.6761C192.352 59.7708 192.52 58.9792 192.857 58.3011C193.194 57.6231 193.668 57.0966 194.278 56.7216C194.888 56.3466 195.602 56.1591 196.42 56.1591C197.238 56.1591 197.952 56.3466 198.562 56.7216C199.172 57.0966 199.645 57.6231 199.982 58.3011C200.319 58.9792 200.488 59.7708 200.488 60.6761C200.488 61.5777 200.319 62.3655 199.982 63.0398C199.645 63.714 199.172 64.2386 198.562 64.6136C197.952 64.9886 197.238 65.1761 196.42 65.1761ZM196.425 63.75C196.956 63.75 197.395 63.6098 197.744 63.3295C198.092 63.0492 198.35 62.6761 198.516 62.2102C198.687 61.7443 198.772 61.2311 198.772 60.6705C198.772 60.1136 198.687 59.6023 198.516 59.1364C198.35 58.6667 198.092 58.2898 197.744 58.0057C197.395 57.7216 196.956 57.5795 196.425 57.5795C195.891 57.5795 195.448 57.7216 195.096 58.0057C194.747 58.2898 194.488 58.6667 194.317 59.1364C194.151 59.6023 194.067 60.1136 194.067 60.6705C194.067 61.2311 194.151 61.7443 194.317 62.2102C194.488 62.6761 194.747 63.0492 195.096 63.3295C195.448 63.6098 195.891 63.75 196.425 63.75ZM201.484 65L204.864 60.5341L201.523 56.2727H203.501L206.2 59.8977H206.808V56.2727H208.506V59.8977H209.097L211.796 56.2727H213.773L210.45 60.5341L213.813 65H211.796L209.075 61.3636H208.506V65H206.808V61.3636H206.239L203.501 65H201.484ZM217.205 62.6193L221.052 56.2727H222.881V65H221.217V58.6477L217.387 65H215.54V56.2727H217.205V62.6193ZM224.313 67.517V63.5284H225.023C225.205 63.3617 225.359 63.1629 225.484 62.9318C225.612 62.7008 225.72 62.4261 225.808 62.108C225.898 61.7898 225.974 61.4186 226.035 60.9943C226.095 60.5663 226.148 60.0777 226.194 59.5284L226.467 56.2727H232.398V63.5284H233.739V67.517H232.08V65H225.995V67.517H224.313ZM226.842 63.5284H230.739V57.7273H227.989L227.808 59.5284C227.72 60.4451 227.611 61.2405 227.478 61.9148C227.345 62.5852 227.133 63.1231 226.842 63.5284ZM237.94 65.1932C237.387 65.1932 236.887 65.0909 236.44 64.8864C235.993 64.678 235.638 64.3769 235.377 63.983C235.12 63.589 234.991 63.1061 234.991 62.5341C234.991 62.0417 235.085 61.6364 235.275 61.3182C235.464 61 235.72 60.7481 236.042 60.5625C236.364 60.3769 236.724 60.2367 237.121 60.142C237.519 60.0473 237.924 59.9754 238.337 59.9261C238.86 59.8655 239.284 59.8163 239.61 59.7784C239.936 59.7367 240.173 59.6705 240.32 59.5795C240.468 59.4886 240.542 59.3409 240.542 59.1364V59.0966C240.542 58.6004 240.402 58.2159 240.121 57.9432C239.845 57.6705 239.432 57.5341 238.883 57.5341C238.311 57.5341 237.86 57.661 237.531 57.9148C237.205 58.1648 236.979 58.4432 236.854 58.75L235.258 58.3864C235.447 57.8561 235.724 57.428 236.087 57.1023C236.455 56.7727 236.877 56.5341 237.354 56.3864C237.832 56.2348 238.334 56.1591 238.86 56.1591C239.209 56.1591 239.578 56.2008 239.968 56.2841C240.362 56.3636 240.729 56.5114 241.07 56.7273C241.415 56.9432 241.697 57.2519 241.917 57.6534C242.137 58.0511 242.246 58.5682 242.246 59.2045V65H240.587V63.8068H240.519C240.409 64.0265 240.245 64.2424 240.025 64.4545C239.805 64.6667 239.523 64.8428 239.178 64.983C238.834 65.1231 238.421 65.1932 237.94 65.1932ZM238.309 63.8295C238.779 63.8295 239.18 63.7367 239.513 63.5511C239.851 63.3655 240.106 63.1231 240.281 62.8239C240.459 62.5208 240.548 62.197 240.548 61.8523V60.7273C240.487 60.7879 240.37 60.8447 240.195 60.8977C240.025 60.947 239.83 60.9905 239.61 61.0284C239.39 61.0625 239.176 61.0947 238.968 61.125C238.76 61.1515 238.585 61.1742 238.445 61.1932C238.116 61.2348 237.815 61.3049 237.542 61.4034C237.273 61.5019 237.057 61.6439 236.894 61.8295C236.735 62.0114 236.656 62.2538 236.656 62.5568C236.656 62.9773 236.811 63.2955 237.121 63.5114C237.432 63.7235 237.828 63.8295 238.309 63.8295ZM246.174 62.6193L250.021 56.2727H251.85V65H250.185V58.6477L246.356 65H244.509V56.2727H246.174V62.6193ZM249.293 53.3182H250.691C250.691 53.9583 250.464 54.4792 250.009 54.8807C249.558 55.2784 248.949 55.4773 248.18 55.4773C247.415 55.4773 246.807 55.2784 246.356 54.8807C245.905 54.4792 245.68 53.9583 245.68 53.3182H247.072C247.072 53.6023 247.155 53.8542 247.322 54.0739C247.488 54.2898 247.774 54.3977 248.18 54.3977C248.577 54.3977 248.862 54.2898 249.032 54.0739C249.206 53.858 249.293 53.6061 249.293 53.3182ZM253.052 57.7386V56.2727H260.415V57.7386H257.569V65H255.91V57.7386H253.052ZM265.567 65.1761C264.708 65.1761 263.967 64.9924 263.346 64.625C262.728 64.2538 262.251 63.733 261.914 63.0625C261.581 62.3883 261.414 61.5985 261.414 60.6932C261.414 59.7992 261.581 59.0114 261.914 58.3295C262.251 57.6477 262.721 57.1155 263.323 56.733C263.929 56.3504 264.638 56.1591 265.448 56.1591C265.941 56.1591 266.418 56.2405 266.88 56.4034C267.342 56.5663 267.757 56.822 268.124 57.1705C268.492 57.5189 268.781 57.9716 268.994 58.5284C269.206 59.0814 269.312 59.7538 269.312 60.5455V61.1477H262.374V59.875H267.647C267.647 59.428 267.556 59.0322 267.374 58.6875C267.192 58.339 266.937 58.0644 266.607 57.8636C266.281 57.6629 265.899 57.5625 265.46 57.5625C264.982 57.5625 264.566 57.6799 264.21 57.9148C263.857 58.1458 263.585 58.4489 263.391 58.8239C263.202 59.1951 263.107 59.5985 263.107 60.0341V61.0284C263.107 61.6117 263.21 62.108 263.414 62.517C263.622 62.9261 263.912 63.2386 264.283 63.4545C264.655 63.6667 265.088 63.7727 265.585 63.7727C265.906 63.7727 266.2 63.7273 266.465 63.6364C266.73 63.5417 266.96 63.4015 267.153 63.2159C267.346 63.0303 267.494 62.8011 267.596 62.5284L269.204 62.8182C269.075 63.2917 268.844 63.7064 268.511 64.0625C268.181 64.4148 267.766 64.6894 267.266 64.8864C266.77 65.0795 266.204 65.1761 265.567 65.1761ZM63.6463 87.1761C62.8281 87.1761 62.1141 86.9886 61.5043 86.6136C60.8944 86.2386 60.4209 85.714 60.0838 85.0398C59.7467 84.3655 59.5781 83.5777 59.5781 82.6761C59.5781 81.7708 59.7467 80.9792 60.0838 80.3011C60.4209 79.6231 60.8944 79.0966 61.5043 78.7216C62.1141 78.3466 62.8281 78.1591 63.6463 78.1591C64.4645 78.1591 65.1785 78.3466 65.7884 78.7216C66.3982 79.0966 66.8717 79.6231 67.2088 80.3011C67.5459 80.9792 67.7145 81.7708 67.7145 82.6761C67.7145 83.5777 67.5459 84.3655 67.2088 85.0398C66.8717 85.714 66.3982 86.2386 65.7884 86.6136C65.1785 86.9886 64.4645 87.1761 63.6463 87.1761ZM63.652 85.75C64.1823 85.75 64.6217 85.6098 64.9702 85.3295C65.3187 85.0492 65.5762 84.6761 65.7429 84.2102C65.9134 83.7443 65.9986 83.2311 65.9986 82.6705C65.9986 82.1136 65.9134 81.6023 65.7429 81.1364C65.5762 80.6667 65.3187 80.2898 64.9702 80.0057C64.6217 79.7216 64.1823 79.5795 63.652 79.5795C63.1179 79.5795 62.6747 79.7216 62.3224 80.0057C61.974 80.2898 61.7145 80.6667 61.544 81.1364C61.3774 81.6023 61.294 82.1136 61.294 82.6705C61.294 83.2311 61.3774 83.7443 61.544 84.2102C61.7145 84.6761 61.974 85.0492 62.3224 85.3295C62.6747 85.6098 63.1179 85.75 63.652 85.75ZM76.3438 75.0227L77.0483 76.0966C76.7869 76.3352 76.4896 76.5057 76.1562 76.608C75.8267 76.7064 75.446 76.7689 75.0142 76.7955C74.5824 76.8182 74.0881 76.839 73.5312 76.858C72.9025 76.8769 72.3854 77.0133 71.9801 77.267C71.5748 77.517 71.2623 77.8883 71.0426 78.3807C70.8267 78.8693 70.6866 79.483 70.6222 80.2216H70.7301C71.0142 79.6799 71.4081 79.2746 71.9119 79.0057C72.4195 78.7367 72.9896 78.6023 73.6222 78.6023C74.3267 78.6023 74.9536 78.7633 75.5028 79.0852C76.0521 79.4072 76.4839 79.8788 76.7983 80.5C77.1165 81.1174 77.2756 81.8731 77.2756 82.767C77.2756 83.6723 77.1089 84.4545 76.7756 85.1136C76.446 85.7727 75.9801 86.2822 75.3778 86.642C74.7794 86.9981 74.0729 87.1761 73.2585 87.1761C72.4441 87.1761 71.7339 86.9924 71.1278 86.625C70.5256 86.2538 70.0578 85.7045 69.7244 84.9773C69.3949 84.25 69.2301 83.3523 69.2301 82.2841V81.4205C69.2301 79.4242 69.5862 77.9223 70.2983 76.9148C71.0104 75.9072 72.0748 75.3902 73.4915 75.3636C73.9498 75.3523 74.3589 75.3504 74.7188 75.358C75.0786 75.3617 75.393 75.3447 75.6619 75.3068C75.9347 75.2652 76.1619 75.1705 76.3438 75.0227ZM73.2642 85.75C73.7377 85.75 74.1449 85.6307 74.4858 85.392C74.8305 85.1496 75.0956 84.8068 75.2812 84.3636C75.4669 83.9205 75.5597 83.3977 75.5597 82.7955C75.5597 82.2045 75.4669 81.7027 75.2812 81.2898C75.0956 80.8769 74.8305 80.5625 74.4858 80.3466C74.1411 80.1269 73.7282 80.017 73.2472 80.017C72.8911 80.017 72.5729 80.0795 72.2926 80.2045C72.0123 80.3258 71.7718 80.5057 71.571 80.7443C71.3741 80.983 71.2206 81.2746 71.1108 81.6193C71.0047 81.9602 70.9479 82.3523 70.9403 82.7955C70.9403 83.697 71.1468 84.4148 71.5597 84.9489C71.9763 85.483 72.5445 85.75 73.2642 85.75ZM79.1733 90.2727V78.2727H80.8324V79.6875H80.9744C81.0729 79.5057 81.215 79.2955 81.4006 79.0568C81.5862 78.8182 81.8438 78.6098 82.1733 78.4318C82.5028 78.25 82.9384 78.1591 83.4801 78.1591C84.1847 78.1591 84.8134 78.3371 85.3665 78.6932C85.9195 79.0492 86.3532 79.5625 86.6676 80.233C86.9858 80.9034 87.1449 81.7102 87.1449 82.6534C87.1449 83.5966 86.9877 84.4053 86.6733 85.0795C86.3589 85.75 85.9271 86.267 85.3778 86.6307C84.8286 86.9905 84.2017 87.1705 83.4972 87.1705C82.9669 87.1705 82.5331 87.0814 82.196 86.9034C81.8627 86.7254 81.6013 86.517 81.4119 86.2784C81.2225 86.0398 81.0767 85.8277 80.9744 85.642H80.8722V90.2727H79.1733ZM80.8381 82.6364C80.8381 83.25 80.9271 83.7879 81.1051 84.25C81.2831 84.7121 81.5407 85.0739 81.8778 85.3352C82.215 85.5928 82.6278 85.7216 83.1165 85.7216C83.6241 85.7216 84.0483 85.5871 84.3892 85.3182C84.7301 85.0455 84.9877 84.6761 85.1619 84.2102C85.34 83.7443 85.429 83.2197 85.429 82.6364C85.429 82.0606 85.3419 81.5436 85.1676 81.0852C84.9972 80.6269 84.7396 80.2652 84.3949 80C84.054 79.7348 83.6278 79.6023 83.1165 79.6023C82.6241 79.6023 82.2074 79.7292 81.8665 79.983C81.5294 80.2367 81.2737 80.5909 81.0994 81.0455C80.9252 81.5 80.8381 82.0303 80.8381 82.6364ZM91.5881 87.1932C91.035 87.1932 90.535 87.0909 90.0881 86.8864C89.6411 86.678 89.2869 86.3769 89.0256 85.983C88.768 85.589 88.6392 85.1061 88.6392 84.5341C88.6392 84.0417 88.7339 83.6364 88.9233 83.3182C89.1127 83 89.3684 82.7481 89.6903 82.5625C90.0123 82.3769 90.3722 82.2367 90.7699 82.142C91.1676 82.0473 91.5729 81.9754 91.9858 81.9261C92.5085 81.8655 92.9328 81.8163 93.2585 81.7784C93.5843 81.7367 93.821 81.6705 93.9688 81.5795C94.1165 81.4886 94.1903 81.3409 94.1903 81.1364V81.0966C94.1903 80.6004 94.0502 80.2159 93.7699 79.9432C93.4934 79.6705 93.0805 79.5341 92.5312 79.5341C91.9593 79.5341 91.5085 79.661 91.179 79.9148C90.8532 80.1648 90.6278 80.4432 90.5028 80.75L88.9062 80.3864C89.0956 79.8561 89.3722 79.428 89.7358 79.1023C90.1032 78.7727 90.5256 78.5341 91.0028 78.3864C91.4801 78.2348 91.982 78.1591 92.5085 78.1591C92.857 78.1591 93.2263 78.2008 93.6165 78.2841C94.0104 78.3636 94.3778 78.5114 94.7188 78.7273C95.0634 78.9432 95.3456 79.2519 95.5653 79.6534C95.785 80.0511 95.8949 80.5682 95.8949 81.2045V87H94.2358V85.8068H94.1676C94.0578 86.0265 93.893 86.2424 93.6733 86.4545C93.4536 86.6667 93.1714 86.8428 92.8267 86.983C92.482 87.1231 92.0691 87.1932 91.5881 87.1932ZM91.9574 85.8295C92.4271 85.8295 92.8286 85.7367 93.1619 85.5511C93.4991 85.3655 93.7547 85.1231 93.929 84.8239C94.107 84.5208 94.196 84.197 94.196 83.8523V82.7273C94.1354 82.7879 94.018 82.8447 93.8438 82.8977C93.6733 82.947 93.4782 82.9905 93.2585 83.0284C93.0388 83.0625 92.8248 83.0947 92.6165 83.125C92.4081 83.1515 92.2339 83.1742 92.0938 83.1932C91.7642 83.2348 91.4631 83.3049 91.1903 83.4034C90.9214 83.5019 90.7055 83.6439 90.5426 83.8295C90.3835 84.0114 90.304 84.2538 90.304 84.5568C90.304 84.9773 90.4593 85.2955 90.7699 85.5114C91.0805 85.7235 91.4763 85.8295 91.9574 85.8295ZM110.663 85.5341L110.504 89.5H108.839V87H107.754V85.5341H110.663ZM98.1577 78.2727H99.8224V85.5284H102.839V78.2727H104.504V85.5284H107.521V78.2727H109.186V87H98.1577V78.2727ZM116.122 87.1761C115.262 87.1761 114.522 86.9924 113.901 86.625C113.283 86.2538 112.806 85.733 112.469 85.0625C112.135 84.3883 111.969 83.5985 111.969 82.6932C111.969 81.7992 112.135 81.0114 112.469 80.3295C112.806 79.6477 113.276 79.1155 113.878 78.733C114.484 78.3504 115.192 78.1591 116.003 78.1591C116.495 78.1591 116.973 78.2405 117.435 78.4034C117.897 78.5663 118.312 78.822 118.679 79.1705C119.046 79.5189 119.336 79.9716 119.548 80.5284C119.76 81.0814 119.866 81.7538 119.866 82.5455V83.1477H112.929V81.875H118.202C118.202 81.428 118.111 81.0322 117.929 80.6875C117.747 80.339 117.491 80.0644 117.162 79.8636C116.836 79.6629 116.454 79.5625 116.014 79.5625C115.537 79.5625 115.12 79.6799 114.764 79.9148C114.412 80.1458 114.139 80.4489 113.946 80.8239C113.757 81.1951 113.662 81.5985 113.662 82.0341V83.0284C113.662 83.6117 113.764 84.108 113.969 84.517C114.177 84.9261 114.467 85.2386 114.838 85.4545C115.209 85.6667 115.643 85.7727 116.139 85.7727C116.461 85.7727 116.755 85.7273 117.02 85.6364C117.285 85.5417 117.514 85.4015 117.707 85.2159C117.901 85.0303 118.048 84.8011 118.151 84.5284L119.759 84.8182C119.63 85.2917 119.399 85.7064 119.065 86.0625C118.736 86.4148 118.321 86.6894 117.821 86.8864C117.325 87.0795 116.759 87.1761 116.122 87.1761ZM127.666 81.9034V83.375H122.939V81.9034H127.666ZM123.416 78.2727V87H121.751V78.2727H123.416ZM128.854 78.2727V87H127.195V78.2727H128.854ZM132.791 84.6193L136.638 78.2727H138.467V87H136.803V80.6477L132.973 87H131.126V78.2727H132.791V84.6193ZM145.956 87V79.7216H143.865C143.369 79.7216 142.982 79.8371 142.706 80.0682C142.429 80.2992 142.291 80.6023 142.291 80.9773C142.291 81.3485 142.418 81.6477 142.672 81.875C142.929 82.0985 143.289 82.2102 143.751 82.2102H146.45V83.5852H143.751C143.107 83.5852 142.551 83.4792 142.081 83.267C141.615 83.0511 141.255 82.7462 141.001 82.3523C140.751 81.9583 140.626 81.4924 140.626 80.9545C140.626 80.4053 140.755 79.9318 141.013 79.5341C141.274 79.1326 141.647 78.822 142.132 78.6023C142.621 78.3826 143.198 78.2727 143.865 78.2727H147.553V87H145.956ZM140.229 87L142.689 82.5909H144.428L141.967 87H140.229ZM157.724 87.1761C156.88 87.1761 156.152 86.9848 155.543 86.6023C154.937 86.2159 154.471 85.6837 154.145 85.0057C153.819 84.3277 153.656 83.5511 153.656 82.6761C153.656 81.7898 153.823 81.0076 154.156 80.3295C154.49 79.6477 154.959 79.1155 155.565 78.733C156.171 78.3504 156.885 78.1591 157.707 78.1591C158.37 78.1591 158.961 78.2822 159.48 78.5284C159.999 78.7708 160.418 79.1117 160.736 79.5511C161.058 79.9905 161.249 80.5038 161.31 81.0909H159.656C159.565 80.6818 159.357 80.3295 159.031 80.0341C158.709 79.7386 158.277 79.5909 157.736 79.5909C157.262 79.5909 156.848 79.7159 156.491 79.9659C156.139 80.2121 155.865 80.5644 155.668 81.0227C155.471 81.4773 155.372 82.0152 155.372 82.6364C155.372 83.2727 155.469 83.822 155.662 84.2841C155.855 84.7462 156.128 85.1042 156.48 85.358C156.836 85.6117 157.255 85.7386 157.736 85.7386C158.058 85.7386 158.349 85.6799 158.611 85.5625C158.876 85.4413 159.098 85.2689 159.276 85.0455C159.457 84.822 159.584 84.553 159.656 84.2386H161.31C161.249 84.803 161.065 85.3068 160.759 85.75C160.452 86.1932 160.041 86.5417 159.526 86.7955C159.014 87.0492 158.414 87.1761 157.724 87.1761ZM166.803 87.1761C165.984 87.1761 165.27 86.9886 164.661 86.6136C164.051 86.2386 163.577 85.714 163.24 85.0398C162.903 84.3655 162.734 83.5777 162.734 82.6761C162.734 81.7708 162.903 80.9792 163.24 80.3011C163.577 79.6231 164.051 79.0966 164.661 78.7216C165.27 78.3466 165.984 78.1591 166.803 78.1591C167.621 78.1591 168.335 78.3466 168.945 78.7216C169.554 79.0966 170.028 79.6231 170.365 80.3011C170.702 80.9792 170.871 81.7708 170.871 82.6761C170.871 83.5777 170.702 84.3655 170.365 85.0398C170.028 85.714 169.554 86.2386 168.945 86.6136C168.335 86.9886 167.621 87.1761 166.803 87.1761ZM166.808 85.75C167.339 85.75 167.778 85.6098 168.126 85.3295C168.475 85.0492 168.732 84.6761 168.899 84.2102C169.07 83.7443 169.155 83.2311 169.155 82.6705C169.155 82.1136 169.07 81.6023 168.899 81.1364C168.732 80.6667 168.475 80.2898 168.126 80.0057C167.778 79.7216 167.339 79.5795 166.808 79.5795C166.274 79.5795 165.831 79.7216 165.479 80.0057C165.13 80.2898 164.871 80.6667 164.7 81.1364C164.534 81.6023 164.45 82.1136 164.45 82.6705C164.45 83.2311 164.534 83.7443 164.7 84.2102C164.871 84.6761 165.13 85.0492 165.479 85.3295C165.831 85.6098 166.274 85.75 166.808 85.75ZM171.716 79.7386V78.2727H179.08V79.7386H176.233V87H174.574V79.7386H171.716ZM180.876 90.2727V78.2727H182.536V79.6875H182.678C182.776 79.5057 182.918 79.2955 183.104 79.0568C183.289 78.8182 183.547 78.6098 183.876 78.4318C184.206 78.25 184.642 78.1591 185.183 78.1591C185.888 78.1591 186.517 78.3371 187.07 78.6932C187.623 79.0492 188.056 79.5625 188.371 80.233C188.689 80.9034 188.848 81.7102 188.848 82.6534C188.848 83.5966 188.691 84.4053 188.376 85.0795C188.062 85.75 187.63 86.267 187.081 86.6307C186.532 86.9905 185.905 87.1705 185.2 87.1705C184.67 87.1705 184.236 87.0814 183.899 86.9034C183.566 86.7254 183.304 86.517 183.115 86.2784C182.926 86.0398 182.78 85.8277 182.678 85.642H182.575V90.2727H180.876ZM182.541 82.6364C182.541 83.25 182.63 83.7879 182.808 84.25C182.986 84.7121 183.244 85.0739 183.581 85.3352C183.918 85.5928 184.331 85.7216 184.82 85.7216C185.327 85.7216 185.751 85.5871 186.092 85.3182C186.433 85.0455 186.691 84.6761 186.865 84.2102C187.043 83.7443 187.132 83.2197 187.132 82.6364C187.132 82.0606 187.045 81.5436 186.871 81.0852C186.7 80.6269 186.443 80.2652 186.098 80C185.757 79.7348 185.331 79.6023 184.82 79.6023C184.327 79.6023 183.911 79.7292 183.57 79.983C183.232 80.2367 182.977 80.5909 182.803 81.0455C182.628 81.5 182.541 82.0303 182.541 82.6364ZM191.528 90.2727C191.275 90.2727 191.044 90.2519 190.835 90.2102C190.627 90.1723 190.472 90.1307 190.369 90.0852L190.778 88.6932C191.089 88.7765 191.366 88.8125 191.608 88.8011C191.85 88.7898 192.064 88.6989 192.25 88.5284C192.439 88.358 192.606 88.0795 192.75 87.6932L192.96 87.1136L189.767 78.2727H191.585L193.795 85.0455H193.886L196.097 78.2727H197.92L194.324 88.1648C194.157 88.6193 193.945 89.0038 193.688 89.3182C193.43 89.6364 193.123 89.875 192.767 90.0341C192.411 90.1932 191.998 90.2727 191.528 90.2727ZM197.946 89.517V85.5284H198.656C198.838 85.3617 198.991 85.1629 199.116 84.9318C199.245 84.7008 199.353 84.4261 199.44 84.108C199.531 83.7898 199.607 83.4186 199.668 82.9943C199.728 82.5663 199.781 82.0777 199.827 81.5284L200.099 78.2727H206.031V85.5284H207.372V89.517H205.713V87H199.628V89.517H197.946ZM200.474 85.5284H204.372V79.7273H201.622L201.44 81.5284C201.353 82.4451 201.243 83.2405 201.111 83.9148C200.978 84.5852 200.766 85.1231 200.474 85.5284ZM214.947 81.9034V83.375H210.22V81.9034H214.947ZM210.697 78.2727V87H209.033V78.2727H210.697ZM216.135 78.2727V87H214.476V78.2727H216.135ZM220.072 84.6193L223.919 78.2727H225.749V87H224.084V80.6477L220.254 87H218.408V78.2727H220.072V84.6193ZM235.152 78.2727V85.608H236.43V89.8125H234.754V87H228.033V78.2727H229.697V85.5341H233.493V78.2727H235.152Z" fill="#343434"/>
</svg>
