<svg width="296" height="136" viewBox="0 0 296 136" fill="none" xmlns="http://www.w3.org/2000/svg">
<path d="M88.5415 16.4489H81.4393C81.3446 15.7197 81.1505 15.0616 80.8569 14.4744C80.5633 13.8873 80.1751 13.3854 79.6921 12.9688C79.2092 12.5521 78.6362 12.2348 77.9734 12.017C77.32 11.7898 76.5955 11.6761 75.8001 11.6761C74.3891 11.6761 73.1722 12.0218 72.1495 12.7131C71.1362 13.4044 70.355 14.4034 69.8058 15.7102C69.266 17.017 68.9961 18.5985 68.9961 20.4545C68.9961 22.3864 69.2707 24.0057 69.82 25.3125C70.3787 26.6098 71.1599 27.59 72.1637 28.2528C73.177 28.9062 74.3749 29.233 75.7575 29.233C76.534 29.233 77.2395 29.1335 77.8739 28.9347C78.5179 28.7358 79.0813 28.447 79.5643 28.0682C80.0567 27.6799 80.4592 27.2112 80.7717 26.6619C81.0936 26.1032 81.3162 25.4735 81.4393 24.7727L88.5415 24.8153C88.4184 26.1032 88.0444 27.3722 87.4194 28.6222C86.8039 29.8722 85.9563 31.0133 84.8768 32.0455C83.7972 33.0682 82.4809 33.8826 80.9279 34.4886C79.3844 35.0947 77.6135 35.3977 75.6154 35.3977C72.9828 35.3977 70.6249 34.8201 68.5415 33.6648C66.4677 32.5 64.8294 30.8049 63.6268 28.5795C62.4241 26.3542 61.8228 23.6458 61.8228 20.4545C61.8228 17.2538 62.4336 14.5407 63.6552 12.3153C64.8768 10.09 66.5292 8.39962 68.6126 7.24432C70.6959 6.08901 73.0302 5.51136 75.6154 5.51136C77.3768 5.51136 79.0056 5.75758 80.5018 6.25C81.998 6.73295 83.3143 7.44318 84.4506 8.38068C85.587 9.30871 86.5103 10.4498 87.2205 11.804C87.9308 13.1581 88.3711 14.7064 88.5415 16.4489ZM92.565 35V13.1818H112.267V35H105.69V18.4943H99.0565V35H92.565ZM122.817 35.3693C121.425 35.3693 120.189 35.1373 119.11 34.6733C118.04 34.1998 117.192 33.4896 116.567 32.5426C115.952 31.5862 115.644 30.3883 115.644 28.9489C115.644 27.7367 115.857 26.714 116.283 25.8807C116.709 25.0473 117.296 24.3703 118.044 23.8494C118.792 23.3286 119.654 22.9356 120.63 22.6705C121.605 22.3958 122.647 22.2112 123.755 22.1165C124.995 22.0028 125.994 21.8845 126.752 21.7614C127.509 21.6288 128.059 21.4441 128.4 21.2074C128.75 20.9612 128.925 20.6155 128.925 20.1705V20.0994C128.925 19.3703 128.674 18.8068 128.172 18.4091C127.67 18.0114 126.993 17.8125 126.141 17.8125C125.222 17.8125 124.484 18.0114 123.925 18.4091C123.366 18.8068 123.011 19.3561 122.86 20.0568L116.453 19.8295C116.643 18.5038 117.131 17.3201 117.917 16.2784C118.712 15.2273 119.801 14.4034 121.184 13.8068C122.576 13.2008 124.247 12.8977 126.198 12.8977C127.59 12.8977 128.873 13.0634 130.047 13.3949C131.221 13.7169 132.244 14.1903 133.115 14.8153C133.987 15.4309 134.659 16.1884 135.132 17.0881C135.615 17.9877 135.857 19.0152 135.857 20.1705V35H129.323V31.9602H129.152C128.764 32.6989 128.267 33.3239 127.661 33.8352C127.064 34.3466 126.359 34.7301 125.544 34.9858C124.739 35.2415 123.83 35.3693 122.817 35.3693ZM124.962 30.8239C125.71 30.8239 126.382 30.6723 126.979 30.3693C127.585 30.0663 128.068 29.6496 128.428 29.1193C128.788 28.5795 128.968 27.9545 128.968 27.2443V25.1705C128.769 25.2746 128.527 25.3693 128.243 25.4545C127.969 25.5398 127.666 25.6203 127.334 25.696C127.003 25.7718 126.662 25.8381 126.311 25.8949C125.961 25.9517 125.625 26.0038 125.303 26.0511C124.65 26.1553 124.091 26.3163 123.627 26.5341C123.172 26.7519 122.822 27.036 122.576 27.3864C122.339 27.7273 122.221 28.1345 122.221 28.608C122.221 29.3277 122.476 29.8769 122.988 30.2557C123.508 30.6345 124.167 30.8239 124.962 30.8239ZM150.289 35.4119C147.988 35.4119 146.013 34.9384 144.365 33.9915C142.727 33.0445 141.468 31.7282 140.587 30.0426C139.706 28.3475 139.266 26.3873 139.266 24.1619C139.266 21.9271 139.706 19.9669 140.587 18.2812C141.477 16.5862 142.741 15.2652 144.38 14.3182C146.027 13.3712 147.992 12.8977 150.275 12.8977C152.292 12.8977 154.048 13.2623 155.544 13.9915C157.05 14.7206 158.224 15.7528 159.067 17.0881C159.919 18.4138 160.369 19.9716 160.417 21.7614H153.925C153.792 20.6439 153.414 19.768 152.789 19.1335C152.173 18.4991 151.368 18.1818 150.374 18.1818C149.569 18.1818 148.864 18.4091 148.257 18.8636C147.651 19.3087 147.178 19.9716 146.837 20.8523C146.506 21.7235 146.34 22.803 146.34 24.0909C146.34 25.3788 146.506 26.4678 146.837 27.358C147.178 28.2386 147.651 28.9062 148.257 29.3608C148.864 29.8059 149.569 30.0284 150.374 30.0284C151.018 30.0284 151.586 29.8911 152.078 29.6165C152.58 29.3419 152.992 28.9394 153.314 28.4091C153.636 27.8693 153.84 27.2159 153.925 26.4489H160.417C160.35 28.2481 159.9 29.8201 159.067 31.1648C158.243 32.5095 157.083 33.5559 155.587 34.304C154.1 35.0426 152.334 35.4119 150.289 35.4119ZM170.548 26.0085L177.522 13.1818H184.199V35H177.622V22.1307L170.662 35H163.971V13.1818H170.548V26.0085ZM207.412 5.22727L209.287 9.81534C208.691 10.2794 208.037 10.6297 207.327 10.8665C206.626 11.1032 205.769 11.2642 204.756 11.3494C203.743 11.4347 202.464 11.482 200.921 11.4915C199.178 11.5009 197.767 11.7424 196.688 12.2159C195.608 12.6799 194.789 13.4422 194.23 14.5028C193.681 15.554 193.317 16.9555 193.137 18.7074H193.321C193.946 17.3911 194.837 16.3542 195.992 15.5966C197.147 14.839 198.639 14.4602 200.466 14.4602C202.37 14.4602 204.027 14.8722 205.438 15.696C206.849 16.5104 207.938 17.6752 208.705 19.1903C209.472 20.696 209.855 22.4858 209.855 24.5597C209.855 26.7566 209.415 28.6695 208.534 30.2983C207.654 31.9271 206.394 33.1866 204.756 34.0767C203.118 34.9669 201.158 35.4119 198.875 35.4119C196.593 35.4119 194.628 34.9479 192.98 34.0199C191.342 33.0919 190.078 31.7282 189.188 29.929C188.307 28.1203 187.867 25.8996 187.867 23.267V21.6761C187.867 16.2784 188.956 12.3059 191.134 9.75852C193.312 7.21117 196.494 5.92803 200.679 5.90909C201.73 5.89962 202.682 5.89962 203.534 5.90909C204.396 5.90909 205.149 5.86648 205.793 5.78125C206.437 5.68655 206.977 5.50189 207.412 5.22727ZM198.918 30.1705C199.713 30.1705 200.4 29.9574 200.978 29.5312C201.555 29.1051 202 28.4943 202.313 27.6989C202.625 26.9034 202.782 25.947 202.782 24.8295C202.782 23.7121 202.621 22.7604 202.299 21.9744C201.986 21.1884 201.541 20.5919 200.963 20.1847C200.386 19.768 199.699 19.5597 198.904 19.5597C198.298 19.5597 197.748 19.678 197.256 19.9148C196.764 20.142 196.347 20.483 196.006 20.9375C195.665 21.3826 195.405 21.9318 195.225 22.5852C195.045 23.2386 194.955 23.9867 194.955 24.8295C194.955 26.4962 195.305 27.803 196.006 28.75C196.707 29.697 197.677 30.1705 198.918 30.1705ZM223.687 35.4119C221.395 35.4119 219.426 34.9432 217.778 34.0057C216.14 33.0587 214.876 31.7424 213.985 30.0568C213.105 28.3617 212.664 26.3968 212.664 24.1619C212.664 21.9176 213.105 19.9527 213.985 18.267C214.876 16.572 216.14 15.2557 217.778 14.3182C219.426 13.3712 221.395 12.8977 223.687 12.8977C225.979 12.8977 227.944 13.3712 229.582 14.3182C231.23 15.2557 232.494 16.572 233.375 18.267C234.265 19.9527 234.71 21.9176 234.71 24.1619C234.71 26.3968 234.265 28.3617 233.375 30.0568C232.494 31.7424 231.23 33.0587 229.582 34.0057C227.944 34.9432 225.979 35.4119 223.687 35.4119ZM223.73 30.1705C224.563 30.1705 225.269 29.9148 225.846 29.4034C226.424 28.892 226.864 28.1818 227.167 27.2727C227.48 26.3636 227.636 25.3125 227.636 24.1193C227.636 22.9072 227.48 21.8466 227.167 20.9375C226.864 20.0284 226.424 19.3182 225.846 18.8068C225.269 18.2955 224.563 18.0398 223.73 18.0398C222.868 18.0398 222.139 18.2955 221.542 18.8068C220.955 19.3182 220.505 20.0284 220.193 20.9375C219.89 21.8466 219.738 22.9072 219.738 24.1193C219.738 25.3125 219.89 26.3636 220.193 27.2727C220.505 28.1818 220.955 28.892 221.542 29.4034C222.139 29.9148 222.868 30.1705 223.73 30.1705Z" fill="#343434"/>
<path d="M12.772 65.1591C11.9917 65.1591 11.2947 65.0246 10.6811 64.7557C10.0713 64.4867 9.5883 64.1136 9.23224 63.6364C8.87997 63.1553 8.69058 62.5985 8.66406 61.9659H10.4482C10.4709 62.3106 10.5864 62.6098 10.7947 62.8636C11.0069 63.1136 11.2834 63.3068 11.6243 63.4432C11.9652 63.5795 12.344 63.6477 12.7607 63.6477C13.219 63.6477 13.6243 63.5682 13.9766 63.4091C14.3326 63.25 14.611 63.0284 14.8118 62.7443C15.0125 62.4564 15.1129 62.125 15.1129 61.75C15.1129 61.3598 15.0125 61.017 14.8118 60.7216C14.6148 60.4223 14.325 60.1875 13.9425 60.017C13.5637 59.8466 13.1054 59.7614 12.5675 59.7614H11.5845V58.3295H12.5675C12.9993 58.3295 13.3781 58.2519 13.7038 58.0966C14.0334 57.9413 14.291 57.7254 14.4766 57.4489C14.6622 57.1686 14.755 56.8409 14.755 56.4659C14.755 56.1061 14.6735 55.7936 14.5107 55.5284C14.3516 55.2595 14.1243 55.0492 13.8288 54.8977C13.5372 54.7462 13.1925 54.6705 12.7947 54.6705C12.416 54.6705 12.0618 54.7405 11.7322 54.8807C11.4065 55.017 11.1413 55.214 10.9368 55.4716C10.7322 55.7254 10.6224 56.0303 10.6072 56.3864H8.90838C8.92732 55.7576 9.11293 55.2045 9.4652 54.7273C9.82126 54.25 10.291 53.8769 10.8743 53.608C11.4576 53.339 12.1054 53.2045 12.8175 53.2045C13.5637 53.2045 14.2076 53.3504 14.7493 53.642C15.2947 53.9299 15.7152 54.3144 16.0107 54.7955C16.3099 55.2765 16.4576 55.803 16.4538 56.375C16.4576 57.0265 16.2758 57.5795 15.9084 58.0341C15.5447 58.4886 15.0599 58.7936 14.4538 58.9489V59.0398C15.2266 59.1572 15.825 59.464 16.2493 59.9602C16.6773 60.4564 16.8894 61.072 16.8857 61.8068C16.8894 62.447 16.7114 63.0208 16.3516 63.5284C15.9955 64.036 15.5088 64.4356 14.8913 64.7273C14.2739 65.0152 13.5675 65.1591 12.772 65.1591ZM21.5959 65.1932C21.0429 65.1932 20.5429 65.0909 20.0959 64.8864C19.6489 64.678 19.2947 64.3769 19.0334 63.983C18.7758 63.589 18.647 63.1061 18.647 62.5341C18.647 62.0417 18.7417 61.6364 18.9311 61.3182C19.1205 61 19.3762 60.7481 19.6982 60.5625C20.0201 60.3769 20.38 60.2367 20.7777 60.142C21.1754 60.0473 21.5807 59.9754 21.9936 59.9261C22.5163 59.8655 22.9406 59.8163 23.2663 59.7784C23.5921 59.7367 23.8288 59.6705 23.9766 59.5795C24.1243 59.4886 24.1982 59.3409 24.1982 59.1364V59.0966C24.1982 58.6004 24.058 58.2159 23.7777 57.9432C23.5012 57.6705 23.0883 57.5341 22.5391 57.5341C21.9671 57.5341 21.5163 57.661 21.1868 57.9148C20.861 58.1648 20.6357 58.4432 20.5107 58.75L18.9141 58.3864C19.1035 57.8561 19.38 57.428 19.7436 57.1023C20.111 56.7727 20.5334 56.5341 21.0107 56.3864C21.4879 56.2348 21.9898 56.1591 22.5163 56.1591C22.8648 56.1591 23.2341 56.2008 23.6243 56.2841C24.0182 56.3636 24.3857 56.5114 24.7266 56.7273C25.0713 56.9432 25.3535 57.2519 25.5732 57.6534C25.7929 58.0511 25.9027 58.5682 25.9027 59.2045V65H24.2436V63.8068H24.1754C24.0656 64.0265 23.9008 64.2424 23.6811 64.4545C23.4614 64.6667 23.1792 64.8428 22.8345 64.983C22.4898 65.1231 22.0769 65.1932 21.5959 65.1932ZM21.9652 63.8295C22.4349 63.8295 22.8364 63.7367 23.1697 63.5511C23.5069 63.3655 23.7625 63.1231 23.9368 62.8239C24.1148 62.5208 24.2038 62.197 24.2038 61.8523V60.7273C24.1432 60.7879 24.0258 60.8447 23.8516 60.8977C23.6811 60.947 23.486 60.9905 23.2663 61.0284C23.0466 61.0625 22.8326 61.0947 22.6243 61.125C22.416 61.1515 22.2417 61.1742 22.1016 61.1932C21.772 61.2348 21.4709 61.3049 21.1982 61.4034C20.9292 61.5019 20.7133 61.6439 20.5504 61.8295C20.3913 62.0114 20.3118 62.2538 20.3118 62.5568C20.3118 62.9773 20.4671 63.2955 20.7777 63.5114C21.0883 63.7235 21.4841 63.8295 21.9652 63.8295ZM33.37 65V57.7216H31.2791C30.7829 57.7216 30.3965 57.8371 30.12 58.0682C29.8435 58.2992 29.7053 58.6023 29.7053 58.9773C29.7053 59.3485 29.8321 59.6477 30.0859 59.875C30.3435 60.0985 30.7034 60.2102 31.1655 60.2102H33.8643V61.5852H31.1655C30.5215 61.5852 29.9647 61.4792 29.495 61.267C29.0291 61.0511 28.6693 60.7462 28.4155 60.3523C28.1655 59.9583 28.0405 59.4924 28.0405 58.9545C28.0405 58.4053 28.1693 57.9318 28.4268 57.5341C28.6882 57.1326 29.0613 56.822 29.5462 56.6023C30.0348 56.3826 30.6125 56.2727 31.2791 56.2727H34.9666V65H33.37ZM27.6428 65L30.103 60.5909H31.8416L29.3814 65H27.6428ZM37.228 65V56.2727H40.8473C41.8321 56.2727 42.6125 56.483 43.1882 56.9034C43.764 57.3201 44.0518 57.8864 44.0518 58.6023C44.0518 59.1136 43.889 59.5189 43.5632 59.8182C43.2375 60.1174 42.8056 60.3182 42.2678 60.4205C42.6579 60.4659 43.0159 60.5833 43.3416 60.7727C43.6674 60.9583 43.9287 61.2083 44.1257 61.5227C44.3265 61.8371 44.4268 62.2121 44.4268 62.6477C44.4268 63.1098 44.3075 63.5189 44.0689 63.875C43.8303 64.2273 43.4837 64.5038 43.0291 64.7045C42.5784 64.9015 42.0348 65 41.3984 65H37.228ZM38.8246 63.5795H41.3984C41.8189 63.5795 42.1484 63.4792 42.3871 63.2784C42.6257 63.0777 42.745 62.8049 42.745 62.4602C42.745 62.0549 42.6257 61.7367 42.3871 61.5057C42.1484 61.2708 41.8189 61.1534 41.3984 61.1534H38.8246V63.5795ZM38.8246 59.9091H40.8643C41.1825 59.9091 41.4553 59.8636 41.6825 59.7727C41.9136 59.6818 42.0897 59.553 42.2109 59.3864C42.3359 59.2159 42.3984 59.0152 42.3984 58.7841C42.3984 58.447 42.2602 58.1837 41.9837 57.9943C41.7071 57.8049 41.3284 57.7102 40.8473 57.7102H38.8246V59.9091ZM46.2905 65V56.2727H47.9893V59.9318H48.8075L51.6882 56.2727H53.7905L50.4098 60.517L53.8303 65H51.7223L49.0916 61.5114H47.9893V65H46.2905ZM57.6896 65.1932C57.1366 65.1932 56.6366 65.0909 56.1896 64.8864C55.7427 64.678 55.3885 64.3769 55.1271 63.983C54.8696 63.589 54.7408 63.1061 54.7408 62.5341C54.7408 62.0417 54.8355 61.6364 55.0249 61.3182C55.2143 61 55.4699 60.7481 55.7919 60.5625C56.1139 60.3769 56.4737 60.2367 56.8714 60.142C57.2692 60.0473 57.6745 59.9754 58.0874 59.9261C58.6101 59.8655 59.0343 59.8163 59.3601 59.7784C59.6858 59.7367 59.9226 59.6705 60.0703 59.5795C60.218 59.4886 60.2919 59.3409 60.2919 59.1364V59.0966C60.2919 58.6004 60.1518 58.2159 59.8714 57.9432C59.5949 57.6705 59.1821 57.5341 58.6328 57.5341C58.0608 57.5341 57.6101 57.661 57.2805 57.9148C56.9548 58.1648 56.7294 58.4432 56.6044 58.75L55.0078 58.3864C55.1972 57.8561 55.4737 57.428 55.8374 57.1023C56.2048 56.7727 56.6271 56.5341 57.1044 56.3864C57.5817 56.2348 58.0836 56.1591 58.6101 56.1591C58.9586 56.1591 59.3279 56.2008 59.718 56.2841C60.112 56.3636 60.4794 56.5114 60.8203 56.7273C61.165 56.9432 61.4472 57.2519 61.6669 57.6534C61.8866 58.0511 61.9964 58.5682 61.9964 59.2045V65H60.3374V63.8068H60.2692C60.1593 64.0265 59.9946 64.2424 59.7749 64.4545C59.5552 64.6667 59.273 64.8428 58.9283 64.983C58.5836 65.1231 58.1707 65.1932 57.6896 65.1932ZM58.0589 63.8295C58.5286 63.8295 58.9302 63.7367 59.2635 63.5511C59.6006 63.3655 59.8563 63.1231 60.0305 62.8239C60.2086 62.5208 60.2976 62.197 60.2976 61.8523V60.7273C60.237 60.7879 60.1196 60.8447 59.9453 60.8977C59.7749 60.947 59.5798 60.9905 59.3601 61.0284C59.1404 61.0625 58.9264 61.0947 58.718 61.125C58.5097 61.1515 58.3355 61.1742 58.1953 61.1932C57.8658 61.2348 57.5646 61.3049 57.2919 61.4034C57.023 61.5019 56.8071 61.6439 56.6442 61.8295C56.4851 62.0114 56.4055 62.2538 56.4055 62.5568C56.4055 62.9773 56.5608 63.2955 56.8714 63.5114C57.1821 63.7235 57.5779 63.8295 58.0589 63.8295ZM74.4084 59.9034V61.375H69.6811V59.9034H74.4084ZM70.1584 56.2727V65H68.4936V56.2727H70.1584ZM75.5959 56.2727V65H73.9368V56.2727H75.5959ZM80.4084 65.1932C79.8554 65.1932 79.3554 65.0909 78.9084 64.8864C78.4614 64.678 78.1072 64.3769 77.8459 63.983C77.5883 63.589 77.4595 63.1061 77.4595 62.5341C77.4595 62.0417 77.5542 61.6364 77.7436 61.3182C77.933 61 78.1887 60.7481 78.5107 60.5625C78.8326 60.3769 79.1925 60.2367 79.5902 60.142C79.9879 60.0473 80.3932 59.9754 80.8061 59.9261C81.3288 59.8655 81.7531 59.8163 82.0788 59.7784C82.4046 59.7367 82.6413 59.6705 82.7891 59.5795C82.9368 59.4886 83.0107 59.3409 83.0107 59.1364V59.0966C83.0107 58.6004 82.8705 58.2159 82.5902 57.9432C82.3137 57.6705 81.9008 57.5341 81.3516 57.5341C80.7796 57.5341 80.3288 57.661 79.9993 57.9148C79.6735 58.1648 79.4482 58.4432 79.3232 58.75L77.7266 58.3864C77.916 57.8561 78.1925 57.428 78.5561 57.1023C78.9235 56.7727 79.3459 56.5341 79.8232 56.3864C80.3004 56.2348 80.8023 56.1591 81.3288 56.1591C81.6773 56.1591 82.0466 56.2008 82.4368 56.2841C82.8307 56.3636 83.1982 56.5114 83.5391 56.7273C83.8838 56.9432 84.166 57.2519 84.3857 57.6534C84.6054 58.0511 84.7152 58.5682 84.7152 59.2045V65H83.0561V63.8068H82.9879C82.8781 64.0265 82.7133 64.2424 82.4936 64.4545C82.2739 64.6667 81.9917 64.8428 81.647 64.983C81.3023 65.1231 80.8894 65.1932 80.4084 65.1932ZM80.7777 63.8295C81.2474 63.8295 81.6489 63.7367 81.9822 63.5511C82.3194 63.3655 82.575 63.1231 82.7493 62.8239C82.9273 62.5208 83.0163 62.197 83.0163 61.8523V60.7273C82.9557 60.7879 82.8383 60.8447 82.6641 60.8977C82.4936 60.947 82.2985 60.9905 82.0788 61.0284C81.8591 61.0625 81.6451 61.0947 81.4368 61.125C81.2285 61.1515 81.0542 61.1742 80.9141 61.1932C80.5845 61.2348 80.2834 61.3049 80.0107 61.4034C79.7417 61.5019 79.5258 61.6439 79.3629 61.8295C79.2038 62.0114 79.1243 62.2538 79.1243 62.5568C79.1243 62.9773 79.2796 63.2955 79.5902 63.5114C79.9008 63.7235 80.2966 63.8295 80.7777 63.8295ZM91.2124 65V56.2727H98.3317V65H96.6669V57.7386H92.8658V65H91.2124ZM104.279 65.1761C103.461 65.1761 102.747 64.9886 102.137 64.6136C101.527 64.2386 101.054 63.714 100.717 63.0398C100.379 62.3655 100.211 61.5777 100.211 60.6761C100.211 59.7708 100.379 58.9792 100.717 58.3011C101.054 57.6231 101.527 57.0966 102.137 56.7216C102.747 56.3466 103.461 56.1591 104.279 56.1591C105.097 56.1591 105.811 56.3466 106.421 56.7216C107.031 57.0966 107.504 57.6231 107.842 58.3011C108.179 58.9792 108.347 59.7708 108.347 60.6761C108.347 61.5777 108.179 62.3655 107.842 63.0398C107.504 63.714 107.031 64.2386 106.421 64.6136C105.811 64.9886 105.097 65.1761 104.279 65.1761ZM104.285 63.75C104.815 63.75 105.254 63.6098 105.603 63.3295C105.951 63.0492 106.209 62.6761 106.376 62.2102C106.546 61.7443 106.631 61.2311 106.631 60.6705C106.631 60.1136 106.546 59.6023 106.376 59.1364C106.209 58.6667 105.951 58.2898 105.603 58.0057C105.254 57.7216 104.815 57.5795 104.285 57.5795C103.751 57.5795 103.308 57.7216 102.955 58.0057C102.607 58.2898 102.347 58.6667 102.177 59.1364C102.01 59.6023 101.927 60.1136 101.927 60.6705C101.927 61.2311 102.01 61.7443 102.177 62.2102C102.347 62.6761 102.607 63.0492 102.955 63.3295C103.308 63.6098 103.751 63.75 104.285 63.75ZM111.908 62.6193L115.755 56.2727H117.585V65H115.92V58.6477L112.09 65H110.244V56.2727H111.908V62.6193ZM123.545 65.1761C122.7 65.1761 121.973 64.9848 121.363 64.6023C120.757 64.2159 120.291 63.6837 119.965 63.0057C119.639 62.3277 119.477 61.5511 119.477 60.6761C119.477 59.7898 119.643 59.0076 119.977 58.3295C120.31 57.6477 120.78 57.1155 121.386 56.733C121.992 56.3504 122.706 56.1591 123.528 56.1591C124.191 56.1591 124.781 56.2822 125.3 56.5284C125.819 56.7708 126.238 57.1117 126.556 57.5511C126.878 57.9905 127.069 58.5038 127.13 59.0909H125.477C125.386 58.6818 125.177 58.3295 124.852 58.0341C124.53 57.7386 124.098 57.5909 123.556 57.5909C123.083 57.5909 122.668 57.7159 122.312 57.9659C121.96 58.2121 121.685 58.5644 121.488 59.0227C121.291 59.4773 121.192 60.0152 121.192 60.6364C121.192 61.2727 121.289 61.822 121.482 62.2841C121.675 62.7462 121.948 63.1042 122.3 63.358C122.656 63.6117 123.075 63.7386 123.556 63.7386C123.878 63.7386 124.17 63.6799 124.431 63.5625C124.696 63.4413 124.918 63.2689 125.096 63.0455C125.278 62.822 125.405 62.553 125.477 62.2386H127.13C127.069 62.803 126.886 63.3068 126.579 63.75C126.272 64.1932 125.861 64.5417 125.346 64.7955C124.835 65.0492 124.234 65.1761 123.545 65.1761ZM128.947 65V56.2727H130.646V59.9318H131.464L134.344 56.2727H136.447L133.066 60.517L136.487 65H134.379L131.748 61.5114H130.646V65H128.947ZM143.114 68.2727C142.861 68.2727 142.629 68.2519 142.421 68.2102C142.213 68.1723 142.058 68.1307 141.955 68.0852L142.364 66.6932C142.675 66.7765 142.951 66.8125 143.194 66.8011C143.436 66.7898 143.65 66.6989 143.836 66.5284C144.025 66.358 144.192 66.0795 144.336 65.6932L144.546 65.1136L141.353 56.2727H143.171L145.381 63.0455H145.472L147.683 56.2727H149.506L145.91 66.1648C145.743 66.6193 145.531 67.0038 145.273 67.3182C145.016 67.6364 144.709 67.875 144.353 68.0341C143.997 68.1932 143.584 68.2727 143.114 68.2727ZM149.532 67.517V63.5284H150.242C150.424 63.3617 150.577 63.1629 150.702 62.9318C150.831 62.7008 150.939 62.4261 151.026 62.108C151.117 61.7898 151.193 61.4186 151.254 60.9943C151.314 60.5663 151.367 60.0777 151.413 59.5284L151.685 56.2727H157.617V63.5284H158.958V67.517H157.299V65H151.214V67.517H149.532ZM152.06 63.5284H155.958V57.7273H153.208L153.026 59.5284C152.939 60.4451 152.829 61.2405 152.697 61.9148C152.564 62.5852 152.352 63.1231 152.06 63.5284ZM163.158 65.1932C162.605 65.1932 162.105 65.0909 161.658 64.8864C161.211 64.678 160.857 64.3769 160.596 63.983C160.338 63.589 160.21 63.1061 160.21 62.5341C160.21 62.0417 160.304 61.6364 160.494 61.3182C160.683 61 160.939 60.7481 161.261 60.5625C161.583 60.3769 161.942 60.2367 162.34 60.142C162.738 60.0473 163.143 59.9754 163.556 59.9261C164.079 59.8655 164.503 59.8163 164.829 59.7784C165.155 59.7367 165.391 59.6705 165.539 59.5795C165.687 59.4886 165.761 59.3409 165.761 59.1364V59.0966C165.761 58.6004 165.621 58.2159 165.34 57.9432C165.064 57.6705 164.651 57.5341 164.102 57.5341C163.53 57.5341 163.079 57.661 162.749 57.9148C162.424 58.1648 162.198 58.4432 162.073 58.75L160.477 58.3864C160.666 57.8561 160.942 57.428 161.306 57.1023C161.674 56.7727 162.096 56.5341 162.573 56.3864C163.05 56.2348 163.552 56.1591 164.079 56.1591C164.427 56.1591 164.797 56.2008 165.187 56.2841C165.581 56.3636 165.948 56.5114 166.289 56.7273C166.634 56.9432 166.916 57.2519 167.136 57.6534C167.355 58.0511 167.465 58.5682 167.465 59.2045V65H165.806V63.8068H165.738C165.628 64.0265 165.463 64.2424 165.244 64.4545C165.024 64.6667 164.742 64.8428 164.397 64.983C164.052 65.1231 163.639 65.1932 163.158 65.1932ZM163.528 63.8295C163.997 63.8295 164.399 63.7367 164.732 63.5511C165.069 63.3655 165.325 63.1231 165.499 62.8239C165.677 62.5208 165.766 62.197 165.766 61.8523V60.7273C165.706 60.7879 165.588 60.8447 165.414 60.8977C165.244 60.947 165.049 60.9905 164.829 61.0284C164.609 61.0625 164.395 61.0947 164.187 61.125C163.978 61.1515 163.804 61.1742 163.664 61.1932C163.335 61.2348 163.033 61.3049 162.761 61.4034C162.492 61.5019 162.276 61.6439 162.113 61.8295C161.954 62.0114 161.874 62.2538 161.874 62.5568C161.874 62.9773 162.03 63.2955 162.34 63.5114C162.651 63.7235 163.047 63.8295 163.528 63.8295ZM169.04 65L169.035 63.5284H169.347C169.59 63.5284 169.792 63.4773 169.955 63.375C170.122 63.2689 170.258 63.0909 170.364 62.8409C170.47 62.5909 170.552 62.2462 170.609 61.8068C170.665 61.3636 170.707 60.8068 170.734 60.1364L170.887 56.2727H176.978V65H175.313V57.7386H172.461L172.325 60.7045C172.29 61.4242 172.217 62.053 172.103 62.5909C171.993 63.1288 171.832 63.5777 171.62 63.9375C171.408 64.2936 171.135 64.5606 170.802 64.7386C170.469 64.9129 170.063 65 169.586 65H169.04ZM183.005 65.1761C182.145 65.1761 181.405 64.9924 180.783 64.625C180.166 64.2538 179.689 63.733 179.352 63.0625C179.018 62.3883 178.852 61.5985 178.852 60.6932C178.852 59.7992 179.018 59.0114 179.352 58.3295C179.689 57.6477 180.158 57.1155 180.761 56.733C181.367 56.3504 182.075 56.1591 182.886 56.1591C183.378 56.1591 183.855 56.2405 184.317 56.4034C184.78 56.5663 185.194 56.822 185.562 57.1705C185.929 57.5189 186.219 57.9716 186.431 58.5284C186.643 59.0814 186.749 59.7538 186.749 60.5455V61.1477H179.812V59.875H185.085C185.085 59.428 184.994 59.0322 184.812 58.6875C184.63 58.339 184.374 58.0644 184.045 57.8636C183.719 57.6629 183.336 57.5625 182.897 57.5625C182.42 57.5625 182.003 57.6799 181.647 57.9148C181.295 58.1458 181.022 58.4489 180.829 58.8239C180.639 59.1951 180.545 59.5985 180.545 60.0341V61.0284C180.545 61.6117 180.647 62.108 180.852 62.517C181.06 62.9261 181.35 63.2386 181.721 63.4545C182.092 63.6667 182.526 63.7727 183.022 63.7727C183.344 63.7727 183.638 63.7273 183.903 63.6364C184.168 63.5417 184.397 63.4015 184.59 63.2159C184.783 63.0303 184.931 62.8011 185.033 62.5284L186.641 62.8182C186.513 63.2917 186.281 63.7064 185.948 64.0625C185.619 64.4148 185.204 64.6894 184.704 64.8864C184.208 65.0795 183.641 65.1761 183.005 65.1761ZM194.549 59.9034V61.375H189.822V59.9034H194.549ZM190.299 56.2727V65H188.634V56.2727H190.299ZM195.737 56.2727V65H194.077V56.2727H195.737ZM203.924 59.9034V61.375H199.197V59.9034H203.924ZM199.674 56.2727V65H198.009V56.2727H199.674ZM205.112 56.2727V65H203.452V56.2727H205.112ZM211.06 65.1761C210.242 65.1761 209.528 64.9886 208.918 64.6136C208.308 64.2386 207.835 63.714 207.498 63.0398C207.161 62.3655 206.992 61.5777 206.992 60.6761C206.992 59.7708 207.161 58.9792 207.498 58.3011C207.835 57.6231 208.308 57.0966 208.918 56.7216C209.528 56.3466 210.242 56.1591 211.06 56.1591C211.879 56.1591 212.593 56.3466 213.202 56.7216C213.812 57.0966 214.286 57.6231 214.623 58.3011C214.96 58.9792 215.129 59.7708 215.129 60.6761C215.129 61.5777 214.96 62.3655 214.623 63.0398C214.286 63.714 213.812 64.2386 213.202 64.6136C212.593 64.9886 211.879 65.1761 211.06 65.1761ZM211.066 63.75C211.596 63.75 212.036 63.6098 212.384 63.3295C212.733 63.0492 212.99 62.6761 213.157 62.2102C213.327 61.7443 213.413 61.2311 213.413 60.6705C213.413 60.1136 213.327 59.6023 213.157 59.1364C212.99 58.6667 212.733 58.2898 212.384 58.0057C212.036 57.7216 211.596 57.5795 211.066 57.5795C210.532 57.5795 210.089 57.7216 209.737 58.0057C209.388 58.2898 209.129 58.6667 208.958 59.1364C208.791 59.6023 208.708 60.1136 208.708 60.6705C208.708 61.2311 208.791 61.7443 208.958 62.2102C209.129 62.6761 209.388 63.0492 209.737 63.3295C210.089 63.6098 210.532 63.75 211.066 63.75ZM218.69 62.6193L222.536 56.2727H224.366V65H222.701V58.6477L218.871 65H217.025V56.2727H218.69V62.6193ZM221.809 53.3182H223.207C223.207 53.9583 222.979 54.4792 222.525 54.8807C222.074 55.2784 221.464 55.4773 220.695 55.4773C219.93 55.4773 219.322 55.2784 218.871 54.8807C218.421 54.4792 218.195 53.9583 218.195 53.3182H219.587C219.587 53.6023 219.671 53.8542 219.837 54.0739C220.004 54.2898 220.29 54.3977 220.695 54.3977C221.093 54.3977 221.377 54.2898 221.548 54.0739C221.722 53.858 221.809 53.6061 221.809 53.3182ZM230.884 68.2727V56.2727H232.543V57.6875H232.685C232.784 57.5057 232.926 57.2955 233.112 57.0568C233.297 56.8182 233.555 56.6098 233.884 56.4318C234.214 56.25 234.649 56.1591 235.191 56.1591C235.896 56.1591 236.524 56.3371 237.077 56.6932C237.63 57.0492 238.064 57.5625 238.379 58.233C238.697 58.9034 238.856 59.7102 238.856 60.6534C238.856 61.5966 238.699 62.4053 238.384 63.0795C238.07 63.75 237.638 64.267 237.089 64.6307C236.54 64.9905 235.913 65.1705 235.208 65.1705C234.678 65.1705 234.244 65.0814 233.907 64.9034C233.574 64.7254 233.312 64.517 233.123 64.2784C232.933 64.0398 232.788 63.8277 232.685 63.642H232.583V68.2727H230.884ZM232.549 60.6364C232.549 61.25 232.638 61.7879 232.816 62.25C232.994 62.7121 233.252 63.0739 233.589 63.3352C233.926 63.5928 234.339 63.7216 234.827 63.7216C235.335 63.7216 235.759 63.5871 236.1 63.3182C236.441 63.0455 236.699 62.6761 236.873 62.2102C237.051 61.7443 237.14 61.2197 237.14 60.6364C237.14 60.0606 237.053 59.5436 236.879 59.0852C236.708 58.6269 236.451 58.2652 236.106 58C235.765 57.7348 235.339 57.6023 234.827 57.6023C234.335 57.6023 233.918 57.7292 233.577 57.983C233.24 58.2367 232.985 58.5909 232.81 59.0455C232.636 59.5 232.549 60.0303 232.549 60.6364ZM243.299 65.1932C242.746 65.1932 242.246 65.0909 241.799 64.8864C241.352 64.678 240.998 64.3769 240.737 63.983C240.479 63.589 240.35 63.1061 240.35 62.5341C240.35 62.0417 240.445 61.6364 240.634 61.3182C240.824 61 241.079 60.7481 241.401 60.5625C241.723 60.3769 242.083 60.2367 242.481 60.142C242.879 60.0473 243.284 59.9754 243.697 59.9261C244.219 59.8655 244.644 59.8163 244.969 59.7784C245.295 59.7367 245.532 59.6705 245.68 59.5795C245.827 59.4886 245.901 59.3409 245.901 59.1364V59.0966C245.901 58.6004 245.761 58.2159 245.481 57.9432C245.204 57.6705 244.791 57.5341 244.242 57.5341C243.67 57.5341 243.219 57.661 242.89 57.9148C242.564 58.1648 242.339 58.4432 242.214 58.75L240.617 58.3864C240.807 57.8561 241.083 57.428 241.447 57.1023C241.814 56.7727 242.237 56.5341 242.714 56.3864C243.191 56.2348 243.693 56.1591 244.219 56.1591C244.568 56.1591 244.937 56.2008 245.327 56.2841C245.721 56.3636 246.089 56.5114 246.43 56.7273C246.774 56.9432 247.057 57.2519 247.276 57.6534C247.496 58.0511 247.606 58.5682 247.606 59.2045V65H245.947V63.8068H245.879C245.769 64.0265 245.604 64.2424 245.384 64.4545C245.165 64.6667 244.882 64.8428 244.538 64.983C244.193 65.1231 243.78 65.1932 243.299 65.1932ZM243.668 63.8295C244.138 63.8295 244.54 63.7367 244.873 63.5511C245.21 63.3655 245.466 63.1231 245.64 62.8239C245.818 62.5208 245.907 62.197 245.907 61.8523V60.7273C245.846 60.7879 245.729 60.8447 245.555 60.8977C245.384 60.947 245.189 60.9905 244.969 61.0284C244.75 61.0625 244.536 61.0947 244.327 61.125C244.119 61.1515 243.945 61.1742 243.805 61.1932C243.475 61.2348 243.174 61.3049 242.901 61.4034C242.632 61.5019 242.416 61.6439 242.254 61.8295C242.094 62.0114 242.015 62.2538 242.015 62.5568C242.015 62.9773 242.17 63.2955 242.481 63.5114C242.791 63.7235 243.187 63.8295 243.668 63.8295ZM256.602 53.0227L257.306 54.0966C257.045 54.3352 256.747 54.5057 256.414 54.608C256.085 54.7064 255.704 54.7689 255.272 54.7955C254.84 54.8182 254.346 54.839 253.789 54.858C253.16 54.8769 252.643 55.0133 252.238 55.267C251.833 55.517 251.52 55.8883 251.3 56.3807C251.085 56.8693 250.944 57.483 250.88 58.2216H250.988C251.272 57.6799 251.666 57.2746 252.17 57.0057C252.677 56.7367 253.247 56.6023 253.88 56.6023C254.585 56.6023 255.211 56.7633 255.761 57.0852C256.31 57.4072 256.742 57.8788 257.056 58.5C257.374 59.1174 257.533 59.8731 257.533 60.767C257.533 61.6723 257.367 62.4545 257.033 63.1136C256.704 63.7727 256.238 64.2822 255.636 64.642C255.037 64.9981 254.331 65.1761 253.516 65.1761C252.702 65.1761 251.992 64.9924 251.386 64.625C250.783 64.2538 250.316 63.7045 249.982 62.9773C249.653 62.25 249.488 61.3523 249.488 60.2841V59.4205C249.488 57.4242 249.844 55.9223 250.556 54.9148C251.268 53.9072 252.333 53.3902 253.749 53.3636C254.208 53.3523 254.617 53.3504 254.977 53.358C255.336 53.3617 255.651 53.3447 255.92 53.3068C256.192 53.2652 256.42 53.1705 256.602 53.0227ZM253.522 63.75C253.996 63.75 254.403 63.6307 254.744 63.392C255.088 63.1496 255.353 62.8068 255.539 62.3636C255.725 61.9205 255.817 61.3977 255.817 60.7955C255.817 60.2045 255.725 59.7027 255.539 59.2898C255.353 58.8769 255.088 58.5625 254.744 58.3466C254.399 58.1269 253.986 58.017 253.505 58.017C253.149 58.017 252.831 58.0795 252.55 58.2045C252.27 58.3258 252.03 58.5057 251.829 58.7443C251.632 58.983 251.478 59.2746 251.369 59.6193C251.263 59.9602 251.206 60.3523 251.198 60.7955C251.198 61.697 251.405 62.4148 251.817 62.9489C252.234 63.483 252.802 63.75 253.522 63.75ZM263.107 65.1761C262.289 65.1761 261.575 64.9886 260.965 64.6136C260.355 64.2386 259.882 63.714 259.545 63.0398C259.208 62.3655 259.039 61.5777 259.039 60.6761C259.039 59.7708 259.208 58.9792 259.545 58.3011C259.882 57.6231 260.355 57.0966 260.965 56.7216C261.575 56.3466 262.289 56.1591 263.107 56.1591C263.925 56.1591 264.639 56.3466 265.249 56.7216C265.859 57.0966 266.333 57.6231 266.67 58.3011C267.007 58.9792 267.175 59.7708 267.175 60.6761C267.175 61.5777 267.007 62.3655 266.67 63.0398C266.333 63.714 265.859 64.2386 265.249 64.6136C264.639 64.9886 263.925 65.1761 263.107 65.1761ZM263.113 63.75C263.643 63.75 264.083 63.6098 264.431 63.3295C264.78 63.0492 265.037 62.6761 265.204 62.2102C265.374 61.7443 265.46 61.2311 265.46 60.6705C265.46 60.1136 265.374 59.6023 265.204 59.1364C265.037 58.6667 264.78 58.2898 264.431 58.0057C264.083 57.7216 263.643 57.5795 263.113 57.5795C262.579 57.5795 262.136 57.7216 261.783 58.0057C261.435 58.2898 261.175 58.6667 261.005 59.1364C260.838 59.6023 260.755 60.1136 260.755 60.6705C260.755 61.2311 260.838 61.7443 261.005 62.2102C261.175 62.6761 261.435 63.0492 261.783 63.3295C262.136 63.6098 262.579 63.75 263.113 63.75ZM268.021 57.7386V56.2727H275.384V57.7386H272.538V65H270.879V57.7386H268.021ZM278.46 59.2727H280.994C282.062 59.2727 282.884 59.5379 283.46 60.0682C284.035 60.5985 284.323 61.2822 284.323 62.1193C284.323 62.6648 284.194 63.1553 283.937 63.5909C283.679 64.0265 283.302 64.3712 282.806 64.625C282.31 64.875 281.706 65 280.994 65H277.181V56.2727H278.846V63.5341H280.994C281.482 63.5341 281.884 63.4072 282.198 63.1534C282.513 62.8958 282.67 62.5682 282.67 62.1705C282.67 61.75 282.513 61.4072 282.198 61.142C281.884 60.8731 281.482 60.7386 280.994 60.7386H278.46V59.2727ZM285.562 65V56.2727H287.261V65H285.562ZM5.25497 90.2727C5.00118 90.2727 4.77012 90.2519 4.56179 90.2102C4.35346 90.1723 4.19815 90.1307 4.09588 90.0852L4.50497 88.6932C4.81558 88.7765 5.09209 88.8125 5.33452 88.8011C5.57694 88.7898 5.79096 88.6989 5.97656 88.5284C6.16596 88.358 6.33262 88.0795 6.47656 87.6932L6.68679 87.1136L3.49361 78.2727H5.31179L7.52202 85.0455H7.61293L9.82315 78.2727H11.647L8.05043 88.1648C7.88376 88.6193 7.67164 89.0038 7.41406 89.3182C7.15649 89.6364 6.84967 89.875 6.49361 90.0341C6.13755 90.1932 5.72467 90.2727 5.25497 90.2727ZM16.6229 87.1761C15.7782 87.1761 15.0509 86.9848 14.4411 86.6023C13.835 86.2159 13.3691 85.6837 13.0433 85.0057C12.7176 84.3277 12.5547 83.5511 12.5547 82.6761C12.5547 81.7898 12.7214 81.0076 13.0547 80.3295C13.388 79.6477 13.8577 79.1155 14.4638 78.733C15.0698 78.3504 15.7839 78.1591 16.6058 78.1591C17.2687 78.1591 17.8596 78.2822 18.3786 78.5284C18.8975 78.7708 19.3161 79.1117 19.6342 79.5511C19.9562 79.9905 20.1475 80.5038 20.2081 81.0909H18.5547C18.4638 80.6818 18.2554 80.3295 17.9297 80.0341C17.6077 79.7386 17.1759 79.5909 16.6342 79.5909C16.1607 79.5909 15.746 79.7159 15.3899 79.9659C15.0376 80.2121 14.763 80.5644 14.5661 81.0227C14.3691 81.4773 14.2706 82.0152 14.2706 82.6364C14.2706 83.2727 14.3672 83.822 14.5604 84.2841C14.7536 84.7462 15.0263 85.1042 15.3786 85.358C15.7346 85.6117 16.1532 85.7386 16.6342 85.7386C16.9562 85.7386 17.2479 85.6799 17.5092 85.5625C17.7744 85.4413 17.996 85.2689 18.174 85.0455C18.3558 84.822 18.4827 84.553 18.5547 84.2386H20.2081C20.1475 84.803 19.9638 85.3068 19.657 85.75C19.3501 86.1932 18.9392 86.5417 18.424 86.7955C17.9126 87.0492 17.3123 87.1761 16.6229 87.1761ZM22.0249 87V78.2727H29.1442V87H27.4794V79.7386H23.6783V87H22.0249ZM35.1768 87.1761C34.317 87.1761 33.5765 86.9924 32.9553 86.625C32.3378 86.2538 31.8606 85.733 31.5234 85.0625C31.1901 84.3883 31.0234 83.5985 31.0234 82.6932C31.0234 81.7992 31.1901 81.0114 31.5234 80.3295C31.8606 79.6477 32.3303 79.1155 32.9325 78.733C33.5386 78.3504 34.2469 78.1591 35.0575 78.1591C35.55 78.1591 36.0272 78.2405 36.4893 78.4034C36.9515 78.5663 37.3662 78.822 37.7337 79.1705C38.1011 79.5189 38.3909 79.9716 38.603 80.5284C38.8151 81.0814 38.9212 81.7538 38.9212 82.5455V83.1477H31.9837V81.875H37.2564C37.2564 81.428 37.1655 81.0322 36.9837 80.6875C36.8018 80.339 36.5462 80.0644 36.2166 79.8636C35.8909 79.6629 35.5083 79.5625 35.0689 79.5625C34.5916 79.5625 34.175 79.6799 33.8189 79.9148C33.4666 80.1458 33.1939 80.4489 33.0007 80.8239C32.8113 81.1951 32.7166 81.5985 32.7166 82.0341V83.0284C32.7166 83.6117 32.8189 84.108 33.0234 84.517C33.2318 84.9261 33.5215 85.2386 33.8928 85.4545C34.264 85.6667 34.6977 85.7727 35.1939 85.7727C35.5159 85.7727 35.8094 85.7273 36.0746 85.6364C36.3397 85.5417 36.5689 85.4015 36.7621 85.2159C36.9553 85.0303 37.103 84.8011 37.2053 84.5284L38.8132 84.8182C38.6844 85.2917 38.4534 85.7064 38.12 86.0625C37.7905 86.4148 37.3757 86.6894 36.8757 86.8864C36.3795 87.0795 35.8132 87.1761 35.1768 87.1761ZM40.8061 78.2727H42.4709V85.5284H45.4879V78.2727H47.1527V85.5284H50.1697V78.2727H51.8345V87H40.8061V78.2727ZM60.0178 81.9034V83.375H55.2905V81.9034H60.0178ZM55.7678 78.2727V87H54.103V78.2727H55.7678ZM61.2053 78.2727V87H59.5462V78.2727H61.2053ZM67.1541 87.1761C66.3359 87.1761 65.6219 86.9886 65.0121 86.6136C64.4022 86.2386 63.9287 85.714 63.5916 85.0398C63.2545 84.3655 63.0859 83.5777 63.0859 82.6761C63.0859 81.7708 63.2545 80.9792 63.5916 80.3011C63.9287 79.6231 64.4022 79.0966 65.0121 78.7216C65.6219 78.3466 66.3359 78.1591 67.1541 78.1591C67.9723 78.1591 68.6863 78.3466 69.2962 78.7216C69.906 79.0966 70.3795 79.6231 70.7166 80.3011C71.0537 80.9792 71.2223 81.7708 71.2223 82.6761C71.2223 83.5777 71.0537 84.3655 70.7166 85.0398C70.3795 85.714 69.906 86.2386 69.2962 86.6136C68.6863 86.9886 67.9723 87.1761 67.1541 87.1761ZM67.1598 85.75C67.6901 85.75 68.1295 85.6098 68.478 85.3295C68.8265 85.0492 69.084 84.6761 69.2507 84.2102C69.4212 83.7443 69.5064 83.2311 69.5064 82.6705C69.5064 82.1136 69.4212 81.6023 69.2507 81.1364C69.084 80.6667 68.8265 80.2898 68.478 80.0057C68.1295 79.7216 67.6901 79.5795 67.1598 79.5795C66.6257 79.5795 66.1825 79.7216 65.8303 80.0057C65.4818 80.2898 65.2223 80.6667 65.0518 81.1364C64.8852 81.6023 64.8018 82.1136 64.8018 82.6705C64.8018 83.2311 64.8852 83.7443 65.0518 84.2102C65.2223 84.6761 65.4818 85.0492 65.8303 85.3295C66.1825 85.6098 66.6257 85.75 67.1598 85.75ZM77.353 90.2727V78.2727H79.0121V79.6875H79.1541C79.2526 79.5057 79.3946 79.2955 79.5803 79.0568C79.7659 78.8182 80.0234 78.6098 80.353 78.4318C80.6825 78.25 81.1181 78.1591 81.6598 78.1591C82.3643 78.1591 82.9931 78.3371 83.5462 78.6932C84.0992 79.0492 84.5329 79.5625 84.8473 80.233C85.1655 80.9034 85.3246 81.7102 85.3246 82.6534C85.3246 83.5966 85.1674 84.4053 84.853 85.0795C84.5386 85.75 84.1068 86.267 83.5575 86.6307C83.0083 86.9905 82.3814 87.1705 81.6768 87.1705C81.1465 87.1705 80.7128 87.0814 80.3757 86.9034C80.0424 86.7254 79.781 86.517 79.5916 86.2784C79.4022 86.0398 79.2564 85.8277 79.1541 85.642H79.0518V90.2727H77.353ZM79.0178 82.6364C79.0178 83.25 79.1068 83.7879 79.2848 84.25C79.4628 84.7121 79.7204 85.0739 80.0575 85.3352C80.3946 85.5928 80.8075 85.7216 81.2962 85.7216C81.8037 85.7216 82.228 85.5871 82.5689 85.3182C82.9098 85.0455 83.1674 84.6761 83.3416 84.2102C83.5196 83.7443 83.6087 83.2197 83.6087 82.6364C83.6087 82.0606 83.5215 81.5436 83.3473 81.0852C83.1768 80.6269 82.9193 80.2652 82.5746 80C82.2337 79.7348 81.8075 79.6023 81.2962 79.6023C80.8037 79.6023 80.3871 79.7292 80.0462 79.983C79.709 80.2367 79.4534 80.5909 79.2791 81.0455C79.1049 81.5 79.0178 82.0303 79.0178 82.6364ZM89.7678 87.1932C89.2147 87.1932 88.7147 87.0909 88.2678 86.8864C87.8208 86.678 87.4666 86.3769 87.2053 85.983C86.9477 85.589 86.8189 85.1061 86.8189 84.5341C86.8189 84.0417 86.9136 83.6364 87.103 83.3182C87.2924 83 87.5481 82.7481 87.87 82.5625C88.192 82.3769 88.5518 82.2367 88.9496 82.142C89.3473 82.0473 89.7526 81.9754 90.1655 81.9261C90.6882 81.8655 91.1125 81.8163 91.4382 81.7784C91.764 81.7367 92.0007 81.6705 92.1484 81.5795C92.2962 81.4886 92.37 81.3409 92.37 81.1364V81.0966C92.37 80.6004 92.2299 80.2159 91.9496 79.9432C91.6731 79.6705 91.2602 79.5341 90.7109 79.5341C90.139 79.5341 89.6882 79.661 89.3587 79.9148C89.0329 80.1648 88.8075 80.4432 88.6825 80.75L87.0859 80.3864C87.2753 79.8561 87.5518 79.428 87.9155 79.1023C88.2829 78.7727 88.7053 78.5341 89.1825 78.3864C89.6598 78.2348 90.1617 78.1591 90.6882 78.1591C91.0367 78.1591 91.406 78.2008 91.7962 78.2841C92.1901 78.3636 92.5575 78.5114 92.8984 78.7273C93.2431 78.9432 93.5253 79.2519 93.745 79.6534C93.9647 80.0511 94.0746 80.5682 94.0746 81.2045V87H92.4155V85.8068H92.3473C92.2375 86.0265 92.0727 86.2424 91.853 86.4545C91.6333 86.6667 91.3511 86.8428 91.0064 86.983C90.6617 87.1231 90.2488 87.1932 89.7678 87.1932ZM90.1371 85.8295C90.6068 85.8295 91.0083 85.7367 91.3416 85.5511C91.6787 85.3655 91.9344 85.1231 92.1087 84.8239C92.2867 84.5208 92.3757 84.197 92.3757 83.8523V82.7273C92.3151 82.7879 92.1977 82.8447 92.0234 82.8977C91.853 82.947 91.6579 82.9905 91.4382 83.0284C91.2185 83.0625 91.0045 83.0947 90.7962 83.125C90.5878 83.1515 90.4136 83.1742 90.2734 83.1932C89.9439 83.2348 89.6428 83.3049 89.37 83.4034C89.1011 83.5019 88.8852 83.6439 88.7223 83.8295C88.5632 84.0114 88.4837 84.2538 88.4837 84.5568C88.4837 84.9773 88.639 85.2955 88.9496 85.5114C89.2602 85.7235 89.656 85.8295 90.1371 85.8295ZM95.8203 84.6932H97.5589C97.5817 85.0492 97.7427 85.3239 98.0419 85.517C98.3449 85.7102 98.737 85.8068 99.218 85.8068C99.7067 85.8068 100.123 85.7027 100.468 85.4943C100.813 85.2822 100.985 84.9545 100.985 84.5114C100.985 84.2462 100.919 84.0152 100.786 83.8182C100.657 83.6174 100.474 83.4621 100.235 83.3523C100 83.2424 99.7218 83.1875 99.3999 83.1875H97.9794V81.8523H99.3999C99.8809 81.8523 100.241 81.7424 100.479 81.5227C100.718 81.303 100.837 81.0284 100.837 80.6989C100.837 80.3428 100.709 80.0568 100.451 79.8409C100.197 79.6212 99.843 79.5114 99.3885 79.5114C98.9264 79.5114 98.5419 79.6155 98.2351 79.8239C97.9283 80.0284 97.7673 80.2936 97.7521 80.6193H96.0362C96.0476 80.1307 96.1953 79.7027 96.4794 79.3352C96.7673 78.964 97.1536 78.6761 97.6385 78.4716C98.1271 78.2633 98.6821 78.1591 99.3033 78.1591C99.951 78.1591 100.512 78.2633 100.985 78.4716C101.459 78.6799 101.824 78.9678 102.082 79.3352C102.343 79.7027 102.474 80.125 102.474 80.6023C102.474 81.0833 102.33 81.4773 102.042 81.7841C101.758 82.0871 101.387 82.3049 100.928 82.4375V82.5284C101.265 82.5511 101.565 82.6534 101.826 82.8352C102.087 83.017 102.292 83.2576 102.44 83.5568C102.587 83.8561 102.661 84.1951 102.661 84.5739C102.661 85.108 102.513 85.5701 102.218 85.9602C101.926 86.3504 101.521 86.6515 101.002 86.8636C100.487 87.072 99.898 87.1761 99.2351 87.1761C98.5911 87.1761 98.0135 87.0758 97.5021 86.875C96.9946 86.6705 96.5911 86.3826 96.2919 86.0114C95.9964 85.6402 95.8393 85.2008 95.8203 84.6932ZM109.313 84.8977L112.131 78.2727H113.597L109.944 87H108.683L105.103 78.2727H106.552L109.313 84.8977ZM106.08 78.2727V87H104.415V78.2727H106.08ZM112.592 87V78.2727H114.245V87H112.592ZM120.271 87.1761C119.411 87.1761 118.67 86.9924 118.049 86.625C117.432 86.2538 116.954 85.733 116.617 85.0625C116.284 84.3883 116.117 83.5985 116.117 82.6932C116.117 81.7992 116.284 81.0114 116.617 80.3295C116.954 79.6477 117.424 79.1155 118.026 78.733C118.632 78.3504 119.341 78.1591 120.151 78.1591C120.644 78.1591 121.121 78.2405 121.583 78.4034C122.045 78.5663 122.46 78.822 122.827 79.1705C123.195 79.5189 123.485 79.9716 123.697 80.5284C123.909 81.0814 124.015 81.7538 124.015 82.5455V83.1477H117.077V81.875H122.35C122.35 81.428 122.259 81.0322 122.077 80.6875C121.896 80.339 121.64 80.0644 121.31 79.8636C120.985 79.6629 120.602 79.5625 120.163 79.5625C119.685 79.5625 119.269 79.6799 118.913 79.9148C118.56 80.1458 118.288 80.4489 118.094 80.8239C117.905 81.1951 117.81 81.5985 117.81 82.0341V83.0284C117.81 83.6117 117.913 84.108 118.117 84.517C118.326 84.9261 118.615 85.2386 118.987 85.4545C119.358 85.6667 119.791 85.7727 120.288 85.7727C120.61 85.7727 120.903 85.7273 121.168 85.6364C121.433 85.5417 121.663 85.4015 121.856 85.2159C122.049 85.0303 122.197 84.8011 122.299 84.5284L123.907 84.8182C123.778 85.2917 123.547 85.7064 123.214 86.0625C122.884 86.4148 122.469 86.6894 121.969 86.8864C121.473 87.0795 120.907 87.1761 120.271 87.1761ZM138.406 85.5341L138.246 89.5H136.582V87H135.496V85.5341H138.406ZM125.9 78.2727H127.565V85.5284H130.582V78.2727H132.246V85.5284H135.263V78.2727H136.928V87H125.9V78.2727ZM143.864 87.1761C143.004 87.1761 142.264 86.9924 141.643 86.625C141.025 86.2538 140.548 85.733 140.211 85.0625C139.878 84.3883 139.711 83.5985 139.711 82.6932C139.711 81.7992 139.878 81.0114 140.211 80.3295C140.548 79.6477 141.018 79.1155 141.62 78.733C142.226 78.3504 142.934 78.1591 143.745 78.1591C144.237 78.1591 144.715 78.2405 145.177 78.4034C145.639 78.5663 146.054 78.822 146.421 79.1705C146.789 79.5189 147.078 79.9716 147.29 80.5284C147.503 81.0814 147.609 81.7538 147.609 82.5455V83.1477H140.671V81.875H145.944C145.944 81.428 145.853 81.0322 145.671 80.6875C145.489 80.339 145.234 80.0644 144.904 79.8636C144.578 79.6629 144.196 79.5625 143.756 79.5625C143.279 79.5625 142.862 79.6799 142.506 79.9148C142.154 80.1458 141.881 80.4489 141.688 80.8239C141.499 81.1951 141.404 81.5985 141.404 82.0341V83.0284C141.404 83.6117 141.506 84.108 141.711 84.517C141.919 84.9261 142.209 85.2386 142.58 85.4545C142.951 85.6667 143.385 85.7727 143.881 85.7727C144.203 85.7727 144.497 85.7273 144.762 85.6364C145.027 85.5417 145.256 85.4015 145.45 85.2159C145.643 85.0303 145.79 84.8011 145.893 84.5284L147.501 84.8182C147.372 85.2917 147.141 85.7064 146.808 86.0625C146.478 86.4148 146.063 86.6894 145.563 86.8864C145.067 87.0795 144.501 87.1761 143.864 87.1761ZM155.408 81.9034V83.375H150.681V81.9034H155.408ZM151.158 78.2727V87H149.494V78.2727H151.158ZM156.596 78.2727V87H154.937V78.2727H156.596ZM161.408 87.1932C160.855 87.1932 160.355 87.0909 159.908 86.8864C159.461 86.678 159.107 86.3769 158.846 85.983C158.588 85.589 158.46 85.1061 158.46 84.5341C158.46 84.0417 158.554 83.6364 158.744 83.3182C158.933 83 159.189 82.7481 159.511 82.5625C159.833 82.3769 160.192 82.2367 160.59 82.142C160.988 82.0473 161.393 81.9754 161.806 81.9261C162.329 81.8655 162.753 81.8163 163.079 81.7784C163.405 81.7367 163.641 81.6705 163.789 81.5795C163.937 81.4886 164.011 81.3409 164.011 81.1364V81.0966C164.011 80.6004 163.871 80.2159 163.59 79.9432C163.314 79.6705 162.901 79.5341 162.352 79.5341C161.78 79.5341 161.329 79.661 160.999 79.9148C160.674 80.1648 160.448 80.4432 160.323 80.75L158.727 80.3864C158.916 79.8561 159.192 79.428 159.556 79.1023C159.924 78.7727 160.346 78.5341 160.823 78.3864C161.3 78.2348 161.802 78.1591 162.329 78.1591C162.677 78.1591 163.047 78.2008 163.437 78.2841C163.831 78.3636 164.198 78.5114 164.539 78.7273C164.884 78.9432 165.166 79.2519 165.386 79.6534C165.605 80.0511 165.715 80.5682 165.715 81.2045V87H164.056V85.8068H163.988C163.878 86.0265 163.713 86.2424 163.494 86.4545C163.274 86.6667 162.992 86.8428 162.647 86.983C162.302 87.1231 161.889 87.1932 161.408 87.1932ZM161.778 85.8295C162.247 85.8295 162.649 85.7367 162.982 85.5511C163.319 85.3655 163.575 85.1231 163.749 84.8239C163.927 84.5208 164.016 84.197 164.016 83.8523V82.7273C163.956 82.7879 163.838 82.8447 163.664 82.8977C163.494 82.947 163.299 82.9905 163.079 83.0284C162.859 83.0625 162.645 83.0947 162.437 83.125C162.228 83.1515 162.054 83.1742 161.914 83.1932C161.585 83.2348 161.283 83.3049 161.011 83.4034C160.742 83.5019 160.526 83.6439 160.363 83.8295C160.204 84.0114 160.124 84.2538 160.124 84.5568C160.124 84.9773 160.28 85.2955 160.59 85.5114C160.901 85.7235 161.297 85.8295 161.778 85.8295ZM169.097 87.108C168.787 87.108 168.52 86.9981 168.296 86.7784C168.073 86.5549 167.961 86.286 167.961 85.9716C167.961 85.661 168.073 85.3958 168.296 85.1761C168.52 84.9527 168.787 84.8409 169.097 84.8409C169.408 84.8409 169.675 84.9527 169.898 85.1761C170.122 85.3958 170.234 85.661 170.234 85.9716C170.234 86.1799 170.181 86.3712 170.075 86.5455C169.972 86.7159 169.836 86.8523 169.665 86.9545C169.495 87.0568 169.306 87.108 169.097 87.108ZM176.692 75.3636H178.823L182.528 84.4091H182.664L186.369 75.3636H188.499V87H186.829V78.5795H186.721L183.289 86.983H181.903L178.471 78.5739H178.363V87H176.692V75.3636ZM192.194 81.2727H194.728C195.796 81.2727 196.618 81.5379 197.194 82.0682C197.77 82.5985 198.058 83.2822 198.058 84.1193C198.058 84.6648 197.929 85.1553 197.671 85.5909C197.414 86.0265 197.037 86.3712 196.54 86.625C196.044 86.875 195.44 87 194.728 87H190.915V78.2727H192.58V85.5341H194.728C195.217 85.5341 195.618 85.4072 195.933 85.1534C196.247 84.8958 196.404 84.5682 196.404 84.1705C196.404 83.75 196.247 83.4072 195.933 83.142C195.618 82.8731 195.217 82.7386 194.728 82.7386H192.194V81.2727ZM199.296 87V78.2727H200.995V87H199.296ZM207.509 87V78.2727H214.629V87H212.964V79.7386H209.163V87H207.509ZM220.576 87.1761C219.758 87.1761 219.044 86.9886 218.434 86.6136C217.824 86.2386 217.351 85.714 217.013 85.0398C216.676 84.3655 216.508 83.5777 216.508 82.6761C216.508 81.7708 216.676 80.9792 217.013 80.3011C217.351 79.6231 217.824 79.0966 218.434 78.7216C219.044 78.3466 219.758 78.1591 220.576 78.1591C221.394 78.1591 222.108 78.3466 222.718 78.7216C223.328 79.0966 223.801 79.6231 224.138 80.3011C224.476 80.9792 224.644 81.7708 224.644 82.6761C224.644 83.5777 224.476 84.3655 224.138 85.0398C223.801 85.714 223.328 86.2386 222.718 86.6136C222.108 86.9886 221.394 87.1761 220.576 87.1761ZM220.582 85.75C221.112 85.75 221.551 85.6098 221.9 85.3295C222.248 85.0492 222.506 84.6761 222.673 84.2102C222.843 83.7443 222.928 83.2311 222.928 82.6705C222.928 82.1136 222.843 81.6023 222.673 81.1364C222.506 80.6667 222.248 80.2898 221.9 80.0057C221.551 79.7216 221.112 79.5795 220.582 79.5795C220.048 79.5795 219.604 79.7216 219.252 80.0057C218.904 80.2898 218.644 80.6667 218.474 81.1364C218.307 81.6023 218.224 82.1136 218.224 82.6705C218.224 83.2311 218.307 83.7443 218.474 84.2102C218.644 84.6761 218.904 85.0492 219.252 85.3295C219.604 85.6098 220.048 85.75 220.582 85.75ZM225.688 89.517V85.5284H226.398C226.58 85.3617 226.734 85.1629 226.859 84.9318C226.987 84.7008 227.095 84.4261 227.183 84.108C227.273 83.7898 227.349 83.4186 227.41 82.9943C227.47 82.5663 227.523 82.0777 227.569 81.5284L227.842 78.2727H233.773V85.5284H235.114V89.517H233.455V87H227.37V89.517H225.688ZM228.217 85.5284H232.114V79.7273H229.364L229.183 81.5284C229.095 82.4451 228.986 83.2405 228.853 83.9148C228.72 84.5852 228.508 85.1231 228.217 85.5284ZM240.451 87.1761C239.633 87.1761 238.919 86.9886 238.309 86.6136C237.699 86.2386 237.226 85.714 236.888 85.0398C236.551 84.3655 236.383 83.5777 236.383 82.6761C236.383 81.7708 236.551 80.9792 236.888 80.3011C237.226 79.6231 237.699 79.0966 238.309 78.7216C238.919 78.3466 239.633 78.1591 240.451 78.1591C241.269 78.1591 241.983 78.3466 242.593 78.7216C243.203 79.0966 243.676 79.6231 244.013 80.3011C244.351 80.9792 244.519 81.7708 244.519 82.6761C244.519 83.5777 244.351 84.3655 244.013 85.0398C243.676 85.714 243.203 86.2386 242.593 86.6136C241.983 86.9886 241.269 87.1761 240.451 87.1761ZM240.457 85.75C240.987 85.75 241.426 85.6098 241.775 85.3295C242.123 85.0492 242.381 84.6761 242.548 84.2102C242.718 83.7443 242.803 83.2311 242.803 82.6705C242.803 82.1136 242.718 81.6023 242.548 81.1364C242.381 80.6667 242.123 80.2898 241.775 80.0057C241.426 79.7216 240.987 79.5795 240.457 79.5795C239.923 79.5795 239.479 79.7216 239.127 80.0057C238.779 80.2898 238.519 80.6667 238.349 81.1364C238.182 81.6023 238.099 82.1136 238.099 82.6705C238.099 83.2311 238.182 83.7443 238.349 84.2102C238.519 84.6761 238.779 85.0492 239.127 85.3295C239.479 85.6098 239.923 85.75 240.457 85.75ZM253.148 75.0227L253.853 76.0966C253.592 76.3352 253.294 76.5057 252.961 76.608C252.631 76.7064 252.251 76.7689 251.819 76.7955C251.387 76.8182 250.893 76.839 250.336 76.858C249.707 76.8769 249.19 77.0133 248.785 77.267C248.379 77.517 248.067 77.8883 247.847 78.3807C247.631 78.8693 247.491 79.483 247.427 80.2216H247.535C247.819 79.6799 248.213 79.2746 248.717 79.0057C249.224 78.7367 249.794 78.6023 250.427 78.6023C251.131 78.6023 251.758 78.7633 252.308 79.0852C252.857 79.4072 253.289 79.8788 253.603 80.5C253.921 81.1174 254.08 81.8731 254.08 82.767C254.08 83.6723 253.914 84.4545 253.58 85.1136C253.251 85.7727 252.785 86.2822 252.183 86.642C251.584 86.9981 250.878 87.1761 250.063 87.1761C249.249 87.1761 248.539 86.9924 247.933 86.625C247.33 86.2538 246.862 85.7045 246.529 84.9773C246.2 84.25 246.035 83.3523 246.035 82.2841V81.4205C246.035 79.4242 246.391 77.9223 247.103 76.9148C247.815 75.9072 248.879 75.3902 250.296 75.3636C250.754 75.3523 251.164 75.3504 251.523 75.358C251.883 75.3617 252.198 75.3447 252.467 75.3068C252.739 75.2652 252.967 75.1705 253.148 75.0227ZM250.069 85.75C250.542 85.75 250.95 85.6307 251.29 85.392C251.635 85.1496 251.9 84.8068 252.086 84.3636C252.272 83.9205 252.364 83.3977 252.364 82.7955C252.364 82.2045 252.272 81.7027 252.086 81.2898C251.9 80.8769 251.635 80.5625 251.29 80.3466C250.946 80.1269 250.533 80.017 250.052 80.017C249.696 80.017 249.378 80.0795 249.097 80.2045C248.817 80.3258 248.576 80.5057 248.376 80.7443C248.179 80.983 248.025 81.2746 247.915 81.6193C247.809 81.9602 247.753 82.3523 247.745 82.7955C247.745 83.697 247.951 84.4148 248.364 84.9489C248.781 85.483 249.349 85.75 250.069 85.75ZM255.978 90.2727V78.2727H257.637V79.6875H257.779C257.878 79.5057 258.02 79.2955 258.205 79.0568C258.391 78.8182 258.648 78.6098 258.978 78.4318C259.308 78.25 259.743 78.1591 260.285 78.1591C260.989 78.1591 261.618 78.3371 262.171 78.6932C262.724 79.0492 263.158 79.5625 263.472 80.233C263.79 80.9034 263.95 81.7102 263.95 82.6534C263.95 83.5966 263.792 84.4053 263.478 85.0795C263.164 85.75 262.732 86.267 262.183 86.6307C261.633 86.9905 261.006 87.1705 260.302 87.1705C259.772 87.1705 259.338 87.0814 259.001 86.9034C258.667 86.7254 258.406 86.517 258.217 86.2784C258.027 86.0398 257.881 85.8277 257.779 85.642H257.677V90.2727H255.978ZM257.643 82.6364C257.643 83.25 257.732 83.7879 257.91 84.25C258.088 84.7121 258.345 85.0739 258.683 85.3352C259.02 85.5928 259.433 85.7216 259.921 85.7216C260.429 85.7216 260.853 85.5871 261.194 85.3182C261.535 85.0455 261.792 84.6761 261.967 84.2102C262.145 83.7443 262.234 83.2197 262.234 82.6364C262.234 82.0606 262.147 81.5436 261.972 81.0852C261.802 80.6269 261.544 80.2652 261.2 80C260.859 79.7348 260.433 79.6023 259.921 79.6023C259.429 79.6023 259.012 79.7292 258.671 79.983C258.334 80.2367 258.078 80.5909 257.904 81.0455C257.73 81.5 257.643 82.0303 257.643 82.6364ZM268.393 87.1932C267.84 87.1932 267.34 87.0909 266.893 86.8864C266.446 86.678 266.092 86.3769 265.83 85.983C265.573 85.589 265.444 85.1061 265.444 84.5341C265.444 84.0417 265.539 83.6364 265.728 83.3182C265.917 83 266.173 82.7481 266.495 82.5625C266.817 82.3769 267.177 82.2367 267.575 82.142C267.972 82.0473 268.378 81.9754 268.79 81.9261C269.313 81.8655 269.737 81.8163 270.063 81.7784C270.389 81.7367 270.626 81.6705 270.773 81.5795C270.921 81.4886 270.995 81.3409 270.995 81.1364V81.0966C270.995 80.6004 270.855 80.2159 270.575 79.9432C270.298 79.6705 269.885 79.5341 269.336 79.5341C268.764 79.5341 268.313 79.661 267.984 79.9148C267.658 80.1648 267.433 80.4432 267.308 80.75L265.711 80.3864C265.9 79.8561 266.177 79.428 266.54 79.1023C266.908 78.7727 267.33 78.5341 267.808 78.3864C268.285 78.2348 268.787 78.1591 269.313 78.1591C269.662 78.1591 270.031 78.2008 270.421 78.2841C270.815 78.3636 271.183 78.5114 271.523 78.7273C271.868 78.9432 272.15 79.2519 272.37 79.6534C272.59 80.0511 272.7 80.5682 272.7 81.2045V87H271.04V85.8068H270.972C270.862 86.0265 270.698 86.2424 270.478 86.4545C270.258 86.6667 269.976 86.8428 269.631 86.983C269.287 87.1231 268.874 87.1932 268.393 87.1932ZM268.762 85.8295C269.232 85.8295 269.633 85.7367 269.967 85.5511C270.304 85.3655 270.559 85.1231 270.734 84.8239C270.912 84.5208 271.001 84.197 271.001 83.8523V82.7273C270.94 82.7879 270.823 82.8447 270.648 82.8977C270.478 82.947 270.283 82.9905 270.063 83.0284C269.844 83.0625 269.629 83.0947 269.421 83.125C269.213 83.1515 269.039 83.1742 268.898 83.1932C268.569 83.2348 268.268 83.3049 267.995 83.4034C267.726 83.5019 267.51 83.6439 267.347 83.8295C267.188 84.0114 267.109 84.2538 267.109 84.5568C267.109 84.9773 267.264 85.2955 267.575 85.5114C267.885 85.7235 268.281 85.8295 268.762 85.8295ZM274.275 87L274.269 85.5284H274.582C274.824 85.5284 275.027 85.4773 275.19 85.375C275.356 85.2689 275.493 85.0909 275.599 84.8409C275.705 84.5909 275.786 84.2462 275.843 83.8068C275.9 83.3636 275.942 82.8068 275.968 82.1364L276.121 78.2727H282.212V87H280.548V79.7386H277.695L277.559 82.7045C277.525 83.4242 277.451 84.053 277.337 84.5909C277.228 85.1288 277.067 85.5777 276.854 85.9375C276.642 86.2936 276.37 86.5606 276.036 86.7386C275.703 86.9129 275.298 87 274.82 87H274.275ZM286.143 84.6193L289.989 78.2727H291.819V87H290.154V80.6477L286.325 87H284.478V78.2727H286.143V84.6193ZM37.196 111.517V107.528H37.9062C38.0881 107.362 38.2415 107.163 38.3665 106.932C38.4953 106.701 38.6032 106.426 38.6903 106.108C38.7813 105.79 38.857 105.419 38.9176 104.994C38.9782 104.566 39.0312 104.078 39.0767 103.528L39.3494 100.273H45.2812V107.528H46.6222V111.517H44.9631V109H38.8778V111.517H37.196ZM39.7244 107.528H43.6222V101.727H40.8722L40.6903 103.528C40.6032 104.445 40.4934 105.241 40.3608 105.915C40.2282 106.585 40.0161 107.123 39.7244 107.528ZM47.5952 109L47.5895 107.528H47.902C48.1444 107.528 48.3471 107.477 48.5099 107.375C48.6766 107.269 48.813 107.091 48.919 106.841C49.0251 106.591 49.1065 106.246 49.1634 105.807C49.2202 105.364 49.2618 104.807 49.2884 104.136L49.4418 100.273H55.5327V109H53.8679V101.739H51.0156L50.8793 104.705C50.8452 105.424 50.7713 106.053 50.6577 106.591C50.5478 107.129 50.3868 107.578 50.1747 107.938C49.9626 108.294 49.6899 108.561 49.3565 108.739C49.0232 108.913 48.6179 109 48.1406 109H47.5952ZM63.0028 109V101.722H60.9119C60.4157 101.722 60.0294 101.837 59.7528 102.068C59.4763 102.299 59.3381 102.602 59.3381 102.977C59.3381 103.348 59.465 103.648 59.7188 103.875C59.9763 104.098 60.3362 104.21 60.7983 104.21H63.4972V105.585H60.7983C60.1544 105.585 59.5975 105.479 59.1278 105.267C58.6619 105.051 58.3021 104.746 58.0483 104.352C57.7983 103.958 57.6733 103.492 57.6733 102.955C57.6733 102.405 57.8021 101.932 58.0597 101.534C58.321 101.133 58.6941 100.822 59.179 100.602C59.6676 100.383 60.2453 100.273 60.9119 100.273H64.5994V109H63.0028ZM57.2756 109L59.7358 104.591H61.4744L59.0142 109H57.2756ZM71.2315 109V97.3636H75.4929C76.3187 97.3636 77.0024 97.5 77.544 97.7727C78.0857 98.0417 78.491 98.4072 78.7599 98.8693C79.0289 99.3277 79.1634 99.8447 79.1634 100.42C79.1634 100.905 79.0743 101.314 78.8963 101.648C78.7183 101.977 78.4796 102.242 78.1804 102.443C77.8849 102.64 77.5592 102.784 77.2031 102.875V102.989C77.5895 103.008 77.9664 103.133 78.3338 103.364C78.705 103.591 79.0118 103.915 79.2543 104.335C79.4967 104.756 79.6179 105.267 79.6179 105.869C79.6179 106.464 79.4777 106.998 79.1974 107.472C78.9209 107.941 78.4929 108.314 77.9134 108.591C77.3338 108.864 76.5933 109 75.6918 109H71.2315ZM72.9872 107.494H75.5213C76.3622 107.494 76.9645 107.331 77.3281 107.006C77.6918 106.68 77.8736 106.273 77.8736 105.784C77.8736 105.417 77.7808 105.08 77.5952 104.773C77.4096 104.466 77.1444 104.222 76.7997 104.04C76.4588 103.858 76.0535 103.767 75.5838 103.767H72.9872V107.494ZM72.9872 102.398H75.3395C75.7334 102.398 76.0876 102.322 76.402 102.17C76.7202 102.019 76.9721 101.807 77.1577 101.534C77.3471 101.258 77.4418 100.932 77.4418 100.557C77.4418 100.076 77.2732 99.6723 76.9361 99.3466C76.599 99.0208 76.0819 98.858 75.3849 98.858H72.9872V102.398ZM84.1037 109.193C83.5507 109.193 83.0507 109.091 82.6037 108.886C82.1567 108.678 81.8026 108.377 81.5412 107.983C81.2836 107.589 81.1548 107.106 81.1548 106.534C81.1548 106.042 81.2495 105.636 81.4389 105.318C81.6283 105 81.884 104.748 82.206 104.562C82.5279 104.377 82.8878 104.237 83.2855 104.142C83.6832 104.047 84.0885 103.975 84.5014 103.926C85.0241 103.866 85.4484 103.816 85.7741 103.778C86.0999 103.737 86.3366 103.67 86.4844 103.58C86.6321 103.489 86.706 103.341 86.706 103.136V103.097C86.706 102.6 86.5658 102.216 86.2855 101.943C86.009 101.67 85.5961 101.534 85.0469 101.534C84.4749 101.534 84.0241 101.661 83.6946 101.915C83.3688 102.165 83.1435 102.443 83.0185 102.75L81.4219 102.386C81.6113 101.856 81.8878 101.428 82.2514 101.102C82.6188 100.773 83.0412 100.534 83.5185 100.386C83.9957 100.235 84.4976 100.159 85.0241 100.159C85.3726 100.159 85.742 100.201 86.1321 100.284C86.526 100.364 86.8935 100.511 87.2344 100.727C87.5791 100.943 87.8613 101.252 88.081 101.653C88.3007 102.051 88.4105 102.568 88.4105 103.205V109H86.7514V107.807H86.6832C86.5734 108.027 86.4086 108.242 86.1889 108.455C85.9692 108.667 85.687 108.843 85.3423 108.983C84.9976 109.123 84.5848 109.193 84.1037 109.193ZM84.473 107.83C84.9427 107.83 85.3442 107.737 85.6776 107.551C86.0147 107.366 86.2704 107.123 86.4446 106.824C86.6226 106.521 86.7116 106.197 86.7116 105.852V104.727C86.651 104.788 86.5336 104.845 86.3594 104.898C86.1889 104.947 85.9938 104.991 85.7741 105.028C85.5545 105.062 85.3404 105.095 85.1321 105.125C84.9238 105.152 84.7495 105.174 84.6094 105.193C84.2798 105.235 83.9787 105.305 83.706 105.403C83.437 105.502 83.2211 105.644 83.0582 105.83C82.8991 106.011 82.8196 106.254 82.8196 106.557C82.8196 106.977 82.9749 107.295 83.2855 107.511C83.5961 107.723 83.992 107.83 84.473 107.83ZM94.3494 109.176C93.5047 109.176 92.7775 108.985 92.1676 108.602C91.5616 108.216 91.0956 107.684 90.7699 107.006C90.4441 106.328 90.2812 105.551 90.2812 104.676C90.2812 103.79 90.4479 103.008 90.7812 102.33C91.1146 101.648 91.5843 101.116 92.1903 100.733C92.7964 100.35 93.5104 100.159 94.3324 100.159C94.9953 100.159 95.5862 100.282 96.1051 100.528C96.6241 100.771 97.0426 101.112 97.3608 101.551C97.6828 101.991 97.8741 102.504 97.9347 103.091H96.2812C96.1903 102.682 95.982 102.33 95.6562 102.034C95.3343 101.739 94.9025 101.591 94.3608 101.591C93.8873 101.591 93.4725 101.716 93.1165 101.966C92.7642 102.212 92.4896 102.564 92.2926 103.023C92.0956 103.477 91.9972 104.015 91.9972 104.636C91.9972 105.273 92.0938 105.822 92.2869 106.284C92.4801 106.746 92.7528 107.104 93.1051 107.358C93.4612 107.612 93.8797 107.739 94.3608 107.739C94.6828 107.739 94.9744 107.68 95.2358 107.562C95.5009 107.441 95.7225 107.269 95.9006 107.045C96.0824 106.822 96.2093 106.553 96.2812 106.239H97.9347C97.8741 106.803 97.6903 107.307 97.3835 107.75C97.0767 108.193 96.6657 108.542 96.1506 108.795C95.6392 109.049 95.0388 109.176 94.3494 109.176ZM107.662 109.176C106.817 109.176 106.09 108.985 105.48 108.602C104.874 108.216 104.408 107.684 104.082 107.006C103.757 106.328 103.594 105.551 103.594 104.676C103.594 103.79 103.76 103.008 104.094 102.33C104.427 101.648 104.897 101.116 105.503 100.733C106.109 100.35 106.823 100.159 107.645 100.159C108.308 100.159 108.899 100.282 109.418 100.528C109.937 100.771 110.355 101.112 110.673 101.551C110.995 101.991 111.187 102.504 111.247 103.091H109.594C109.503 102.682 109.295 102.33 108.969 102.034C108.647 101.739 108.215 101.591 107.673 101.591C107.2 101.591 106.785 101.716 106.429 101.966C106.077 102.212 105.802 102.564 105.605 103.023C105.408 103.477 105.31 104.015 105.31 104.636C105.31 105.273 105.406 105.822 105.599 106.284C105.793 106.746 106.065 107.104 106.418 107.358C106.774 107.612 107.192 107.739 107.673 107.739C107.995 107.739 108.287 107.68 108.548 107.562C108.813 107.441 109.035 107.269 109.213 107.045C109.395 106.822 109.522 106.553 109.594 106.239H111.247C111.187 106.803 111.003 107.307 110.696 107.75C110.389 108.193 109.978 108.542 109.463 108.795C108.952 109.049 108.351 109.176 107.662 109.176ZM115.604 109.193C115.051 109.193 114.551 109.091 114.104 108.886C113.657 108.678 113.303 108.377 113.041 107.983C112.784 107.589 112.655 107.106 112.655 106.534C112.655 106.042 112.75 105.636 112.939 105.318C113.128 105 113.384 104.748 113.706 104.562C114.028 104.377 114.388 104.237 114.786 104.142C115.183 104.047 115.589 103.975 116.001 103.926C116.524 103.866 116.948 103.816 117.274 103.778C117.6 103.737 117.837 103.67 117.984 103.58C118.132 103.489 118.206 103.341 118.206 103.136V103.097C118.206 102.6 118.066 102.216 117.786 101.943C117.509 101.67 117.096 101.534 116.547 101.534C115.975 101.534 115.524 101.661 115.195 101.915C114.869 102.165 114.643 102.443 114.518 102.75L112.922 102.386C113.111 101.856 113.388 101.428 113.751 101.102C114.119 100.773 114.541 100.534 115.018 100.386C115.496 100.235 115.998 100.159 116.524 100.159C116.873 100.159 117.242 100.201 117.632 100.284C118.026 100.364 118.393 100.511 118.734 100.727C119.079 100.943 119.361 101.252 119.581 101.653C119.801 102.051 119.911 102.568 119.911 103.205V109H118.251V107.807H118.183C118.073 108.027 117.909 108.242 117.689 108.455C117.469 108.667 117.187 108.843 116.842 108.983C116.498 109.123 116.085 109.193 115.604 109.193ZM115.973 107.83C116.443 107.83 116.844 107.737 117.178 107.551C117.515 107.366 117.77 107.123 117.945 106.824C118.123 106.521 118.212 106.197 118.212 105.852V104.727C118.151 104.788 118.034 104.845 117.859 104.898C117.689 104.947 117.494 104.991 117.274 105.028C117.054 105.062 116.84 105.095 116.632 105.125C116.424 105.152 116.25 105.174 116.109 105.193C115.78 105.235 115.479 105.305 115.206 105.403C114.937 105.502 114.721 105.644 114.558 105.83C114.399 106.011 114.32 106.254 114.32 106.557C114.32 106.977 114.475 107.295 114.786 107.511C115.096 107.723 115.492 107.83 115.973 107.83ZM127.071 106.898L129.889 100.273H131.355L127.702 109H126.44L122.861 100.273H124.31L127.071 106.898ZM123.838 100.273V109H122.173V100.273H123.838ZM130.349 109V100.273H132.003V109H130.349ZM135.545 103.273H138.08C139.148 103.273 139.97 103.538 140.545 104.068C141.121 104.598 141.409 105.282 141.409 106.119C141.409 106.665 141.28 107.155 141.023 107.591C140.765 108.027 140.388 108.371 139.892 108.625C139.396 108.875 138.792 109 138.08 109H134.267V100.273H135.932V107.534H138.08C138.568 107.534 138.97 107.407 139.284 107.153C139.598 106.896 139.756 106.568 139.756 106.17C139.756 105.75 139.598 105.407 139.284 105.142C138.97 104.873 138.568 104.739 138.08 104.739H135.545V103.273ZM142.648 109V100.273H144.347V109H142.648ZM150.388 109.176C149.528 109.176 148.787 108.992 148.166 108.625C147.549 108.254 147.071 107.733 146.734 107.062C146.401 106.388 146.234 105.598 146.234 104.693C146.234 103.799 146.401 103.011 146.734 102.33C147.071 101.648 147.541 101.116 148.143 100.733C148.75 100.35 149.458 100.159 150.268 100.159C150.761 100.159 151.238 100.241 151.7 100.403C152.162 100.566 152.577 100.822 152.945 101.17C153.312 101.519 153.602 101.972 153.814 102.528C154.026 103.081 154.132 103.754 154.132 104.545V105.148H147.195V103.875H152.467C152.467 103.428 152.376 103.032 152.195 102.688C152.013 102.339 151.757 102.064 151.428 101.864C151.102 101.663 150.719 101.562 150.28 101.562C149.803 101.562 149.386 101.68 149.03 101.915C148.678 102.146 148.405 102.449 148.212 102.824C148.022 103.195 147.928 103.598 147.928 104.034V105.028C147.928 105.612 148.03 106.108 148.234 106.517C148.443 106.926 148.732 107.239 149.104 107.455C149.475 107.667 149.909 107.773 150.405 107.773C150.727 107.773 151.02 107.727 151.286 107.636C151.551 107.542 151.78 107.402 151.973 107.216C152.166 107.03 152.314 106.801 152.416 106.528L154.024 106.818C153.895 107.292 153.664 107.706 153.331 108.062C153.001 108.415 152.587 108.689 152.087 108.886C151.59 109.08 151.024 109.176 150.388 109.176ZM160.251 109V100.273H167.371V109H165.706V101.739H161.905V109H160.251ZM173.318 109.176C172.5 109.176 171.786 108.989 171.176 108.614C170.566 108.239 170.093 107.714 169.756 107.04C169.419 106.366 169.25 105.578 169.25 104.676C169.25 103.771 169.419 102.979 169.756 102.301C170.093 101.623 170.566 101.097 171.176 100.722C171.786 100.347 172.5 100.159 173.318 100.159C174.136 100.159 174.85 100.347 175.46 100.722C176.07 101.097 176.544 101.623 176.881 102.301C177.218 102.979 177.386 103.771 177.386 104.676C177.386 105.578 177.218 106.366 176.881 107.04C176.544 107.714 176.07 108.239 175.46 108.614C174.85 108.989 174.136 109.176 173.318 109.176ZM173.324 107.75C173.854 107.75 174.294 107.61 174.642 107.33C174.991 107.049 175.248 106.676 175.415 106.21C175.585 105.744 175.67 105.231 175.67 104.67C175.67 104.114 175.585 103.602 175.415 103.136C175.248 102.667 174.991 102.29 174.642 102.006C174.294 101.722 173.854 101.58 173.324 101.58C172.79 101.58 172.347 101.722 171.994 102.006C171.646 102.29 171.386 102.667 171.216 103.136C171.049 103.602 170.966 104.114 170.966 104.67C170.966 105.231 171.049 105.744 171.216 106.21C171.386 106.676 171.646 107.049 171.994 107.33C172.347 107.61 172.79 107.75 173.324 107.75ZM178.43 111.517V107.528H179.141C179.322 107.362 179.476 107.163 179.601 106.932C179.73 106.701 179.838 106.426 179.925 106.108C180.016 105.79 180.091 105.419 180.152 104.994C180.213 104.566 180.266 104.078 180.311 103.528L180.584 100.273H186.516V107.528H187.857V111.517H186.197V109H180.112V111.517H178.43ZM180.959 107.528H184.857V101.727H182.107L181.925 103.528C181.838 104.445 181.728 105.241 181.595 105.915C181.463 106.585 181.25 107.123 180.959 107.528ZM190.858 100.273L192.784 103.67L194.727 100.273H196.585L193.864 104.636L196.608 109H194.75L192.784 105.739L190.824 109H188.96L191.676 104.636L188.994 100.273H190.858ZM201.662 109.176C200.844 109.176 200.13 108.989 199.52 108.614C198.91 108.239 198.437 107.714 198.099 107.04C197.762 106.366 197.594 105.578 197.594 104.676C197.594 103.771 197.762 102.979 198.099 102.301C198.437 101.623 198.91 101.097 199.52 100.722C200.13 100.347 200.844 100.159 201.662 100.159C202.48 100.159 203.194 100.347 203.804 100.722C204.414 101.097 204.887 101.623 205.224 102.301C205.562 102.979 205.73 103.771 205.73 104.676C205.73 105.578 205.562 106.366 205.224 107.04C204.887 107.714 204.414 108.239 203.804 108.614C203.194 108.989 202.48 109.176 201.662 109.176ZM201.668 107.75C202.198 107.75 202.637 107.61 202.986 107.33C203.334 107.049 203.592 106.676 203.759 106.21C203.929 105.744 204.014 105.231 204.014 104.67C204.014 104.114 203.929 103.602 203.759 103.136C203.592 102.667 203.334 102.29 202.986 102.006C202.637 101.722 202.198 101.58 201.668 101.58C201.134 101.58 200.69 101.722 200.338 102.006C199.99 102.29 199.73 102.667 199.56 103.136C199.393 103.602 199.31 104.114 199.31 104.67C199.31 105.231 199.393 105.744 199.56 106.21C199.73 106.676 199.99 107.049 200.338 107.33C200.69 107.61 201.134 107.75 201.668 107.75ZM206.774 111.517V107.528H207.484C207.666 107.362 207.82 107.163 207.945 106.932C208.073 106.701 208.181 106.426 208.268 106.108C208.359 105.79 208.435 105.419 208.496 104.994C208.556 104.566 208.609 104.078 208.655 103.528L208.928 100.273H214.859V107.528H216.2V111.517H214.541V109H208.456V111.517H206.774ZM209.303 107.528H213.2V101.727H210.45L210.268 103.528C210.181 104.445 210.071 105.241 209.939 105.915C209.806 106.585 209.594 107.123 209.303 107.528ZM223.065 109V101.722H220.974C220.478 101.722 220.092 101.837 219.815 102.068C219.539 102.299 219.401 102.602 219.401 102.977C219.401 103.348 219.527 103.648 219.781 103.875C220.039 104.098 220.399 104.21 220.861 104.21H223.56V105.585H220.861C220.217 105.585 219.66 105.479 219.19 105.267C218.724 105.051 218.365 104.746 218.111 104.352C217.861 103.958 217.736 103.492 217.736 102.955C217.736 102.405 217.865 101.932 218.122 101.534C218.384 101.133 218.757 100.822 219.241 100.602C219.73 100.383 220.308 100.273 220.974 100.273H224.662V109H223.065ZM217.338 109L219.798 104.591H221.537L219.077 109H217.338ZM239.429 107.534L239.27 111.5H237.605V109H236.52V107.534H239.429ZM226.923 100.273H228.588V107.528H231.605V100.273H233.27V107.528H236.287V100.273H237.952V109H226.923V100.273ZM242.885 106.619L246.732 100.273H248.561V109H246.896V102.648L243.067 109H241.22V100.273H242.885V106.619ZM254.607 109.176C253.747 109.176 253.006 108.992 252.385 108.625C251.768 108.254 251.29 107.733 250.953 107.062C250.62 106.388 250.453 105.598 250.453 104.693C250.453 103.799 250.62 103.011 250.953 102.33C251.29 101.648 251.76 101.116 252.362 100.733C252.968 100.35 253.677 100.159 254.487 100.159C254.98 100.159 255.457 100.241 255.919 100.403C256.381 100.566 256.796 100.822 257.163 101.17C257.531 101.519 257.821 101.972 258.033 102.528C258.245 103.081 258.351 103.754 258.351 104.545V105.148H251.413V103.875H256.686C256.686 103.428 256.595 103.032 256.413 102.688C256.232 102.339 255.976 102.064 255.646 101.864C255.321 101.663 254.938 101.562 254.499 101.562C254.021 101.562 253.605 101.68 253.249 101.915C252.896 102.146 252.624 102.449 252.43 102.824C252.241 103.195 252.146 103.598 252.146 104.034V105.028C252.146 105.612 252.249 106.108 252.453 106.517C252.661 106.926 252.951 107.239 253.322 107.455C253.694 107.667 254.127 107.773 254.624 107.773C254.946 107.773 255.239 107.727 255.504 107.636C255.769 107.542 255.999 107.402 256.192 107.216C256.385 107.03 256.533 106.801 256.635 106.528L258.243 106.818C258.114 107.292 257.883 107.706 257.55 108.062C257.22 108.415 256.805 108.689 256.305 108.886C255.809 109.08 255.243 109.176 254.607 109.176ZM51.4233 131V122.273H58.5426V131H56.8778V123.739H53.0767V131H51.4233ZM60.8139 134.273V122.273H62.473V123.688H62.6151C62.7135 123.506 62.8556 123.295 63.0412 123.057C63.2268 122.818 63.4844 122.61 63.8139 122.432C64.1435 122.25 64.5791 122.159 65.1207 122.159C65.8253 122.159 66.4541 122.337 67.0071 122.693C67.5601 123.049 67.9938 123.562 68.3082 124.233C68.6264 124.903 68.7855 125.71 68.7855 126.653C68.7855 127.597 68.6283 128.405 68.3139 129.08C67.9995 129.75 67.5677 130.267 67.0185 130.631C66.4692 130.991 65.8423 131.17 65.1378 131.17C64.6075 131.17 64.1738 131.081 63.8366 130.903C63.5033 130.725 63.242 130.517 63.0526 130.278C62.8632 130.04 62.7173 129.828 62.6151 129.642H62.5128V134.273H60.8139ZM62.4787 126.636C62.4787 127.25 62.5677 127.788 62.7457 128.25C62.9238 128.712 63.1813 129.074 63.5185 129.335C63.8556 129.593 64.2685 129.722 64.7571 129.722C65.2647 129.722 65.6889 129.587 66.0298 129.318C66.3707 129.045 66.6283 128.676 66.8026 128.21C66.9806 127.744 67.0696 127.22 67.0696 126.636C67.0696 126.061 66.9825 125.544 66.8082 125.085C66.6378 124.627 66.3802 124.265 66.0355 124C65.6946 123.735 65.2685 123.602 64.7571 123.602C64.2647 123.602 63.848 123.729 63.5071 123.983C63.17 124.237 62.9143 124.591 62.7401 125.045C62.5658 125.5 62.4787 126.03 62.4787 126.636ZM74.4503 131.176C73.5904 131.176 72.8499 130.992 72.2287 130.625C71.6113 130.254 71.134 129.733 70.7969 129.062C70.4635 128.388 70.2969 127.598 70.2969 126.693C70.2969 125.799 70.4635 125.011 70.7969 124.33C71.134 123.648 71.6037 123.116 72.206 122.733C72.812 122.35 73.5204 122.159 74.331 122.159C74.8234 122.159 75.3007 122.241 75.7628 122.403C76.2249 122.566 76.6397 122.822 77.0071 123.17C77.3745 123.519 77.6643 123.972 77.8764 124.528C78.0885 125.081 78.1946 125.754 78.1946 126.545V127.148H71.2571V125.875H76.5298C76.5298 125.428 76.4389 125.032 76.2571 124.688C76.0753 124.339 75.8196 124.064 75.4901 123.864C75.1643 123.663 74.7817 123.562 74.3423 123.562C73.8651 123.562 73.4484 123.68 73.0923 123.915C72.7401 124.146 72.4673 124.449 72.2741 124.824C72.0848 125.195 71.9901 125.598 71.9901 126.034V127.028C71.9901 127.612 72.0923 128.108 72.2969 128.517C72.5052 128.926 72.795 129.239 73.1662 129.455C73.5374 129.667 73.9711 129.773 74.4673 129.773C74.7893 129.773 75.0829 129.727 75.348 129.636C75.6132 129.542 75.8423 129.402 76.0355 129.216C76.2287 129.03 76.3764 128.801 76.4787 128.528L78.0866 128.818C77.9579 129.292 77.7268 129.706 77.3935 130.062C77.0639 130.415 76.6491 130.689 76.1491 130.886C75.6529 131.08 75.0866 131.176 74.4503 131.176ZM79.2273 133.517V129.528H79.9375C80.1193 129.362 80.2727 129.163 80.3977 128.932C80.5265 128.701 80.6345 128.426 80.7216 128.108C80.8125 127.79 80.8883 127.419 80.9489 126.994C81.0095 126.566 81.0625 126.078 81.108 125.528L81.3807 122.273H87.3125V129.528H88.6534V133.517H86.9943V131H80.9091V133.517H79.2273ZM81.7557 129.528H85.6534V123.727H82.9034L82.7216 125.528C82.6345 126.445 82.5246 127.241 82.392 127.915C82.2595 128.585 82.0473 129.123 81.7557 129.528ZM89.6264 131L89.6207 129.528H89.9332C90.1757 129.528 90.3783 129.477 90.5412 129.375C90.7079 129.269 90.8442 129.091 90.9503 128.841C91.0563 128.591 91.1378 128.246 91.1946 127.807C91.2514 127.364 91.2931 126.807 91.3196 126.136L91.473 122.273H97.5639V131H95.8991V123.739H93.0469L92.9105 126.705C92.8764 127.424 92.8026 128.053 92.6889 128.591C92.5791 129.129 92.4181 129.578 92.206 129.938C91.9938 130.294 91.7211 130.561 91.3878 130.739C91.0545 130.913 90.6491 131 90.1719 131H89.6264ZM103.506 131.176C102.688 131.176 101.973 130.989 101.364 130.614C100.754 130.239 100.28 129.714 99.9432 129.04C99.6061 128.366 99.4375 127.578 99.4375 126.676C99.4375 125.771 99.6061 124.979 99.9432 124.301C100.28 123.623 100.754 123.097 101.364 122.722C101.973 122.347 102.688 122.159 103.506 122.159C104.324 122.159 105.038 122.347 105.648 122.722C106.258 123.097 106.731 123.623 107.068 124.301C107.405 124.979 107.574 125.771 107.574 126.676C107.574 127.578 107.405 128.366 107.068 129.04C106.731 129.714 106.258 130.239 105.648 130.614C105.038 130.989 104.324 131.176 103.506 131.176ZM103.511 129.75C104.042 129.75 104.481 129.61 104.83 129.33C105.178 129.049 105.436 128.676 105.602 128.21C105.773 127.744 105.858 127.231 105.858 126.67C105.858 126.114 105.773 125.602 105.602 125.136C105.436 124.667 105.178 124.29 104.83 124.006C104.481 123.722 104.042 123.58 103.511 123.58C102.977 123.58 102.534 123.722 102.182 124.006C101.833 124.29 101.574 124.667 101.403 125.136C101.237 125.602 101.153 126.114 101.153 126.67C101.153 127.231 101.237 127.744 101.403 128.21C101.574 128.676 101.833 129.049 102.182 129.33C102.534 129.61 102.977 129.75 103.511 129.75ZM108.57 131L111.95 126.534L108.609 122.273H110.587L113.286 125.898H113.893V122.273H115.592V125.898H116.183L118.882 122.273H120.859L117.536 126.534L120.899 131H118.882L116.161 127.364H115.592V131H113.893V127.364H113.325L110.587 131H108.57ZM126.044 131.176C125.184 131.176 124.444 130.992 123.822 130.625C123.205 130.254 122.728 129.733 122.391 129.062C122.057 128.388 121.891 127.598 121.891 126.693C121.891 125.799 122.057 125.011 122.391 124.33C122.728 123.648 123.197 123.116 123.8 122.733C124.406 122.35 125.114 122.159 125.925 122.159C126.417 122.159 126.894 122.241 127.357 122.403C127.819 122.566 128.233 122.822 128.601 123.17C128.968 123.519 129.258 123.972 129.47 124.528C129.682 125.081 129.788 125.754 129.788 126.545V127.148H122.851V125.875H128.124C128.124 125.428 128.033 125.032 127.851 124.688C127.669 124.339 127.413 124.064 127.084 123.864C126.758 123.663 126.375 123.562 125.936 123.562C125.459 123.562 125.042 123.68 124.686 123.915C124.334 124.146 124.061 124.449 123.868 124.824C123.679 125.195 123.584 125.598 123.584 126.034V127.028C123.584 127.612 123.686 128.108 123.891 128.517C124.099 128.926 124.389 129.239 124.76 129.455C125.131 129.667 125.565 129.773 126.061 129.773C126.383 129.773 126.677 129.727 126.942 129.636C127.207 129.542 127.436 129.402 127.629 129.216C127.822 129.03 127.97 128.801 128.072 128.528L129.68 128.818C129.552 129.292 129.321 129.706 128.987 130.062C128.658 130.415 128.243 130.689 127.743 130.886C127.247 131.08 126.68 131.176 126.044 131.176ZM137.588 125.903V127.375H132.861V125.903H137.588ZM133.338 122.273V131H131.673V122.273H133.338ZM138.776 122.273V131H137.116V122.273H138.776ZM142.713 128.619L146.56 122.273H148.389V131H146.724V124.648L142.895 131H141.048V122.273H142.713V128.619ZM155.878 131V123.722H153.787C153.291 123.722 152.904 123.837 152.628 124.068C152.351 124.299 152.213 124.602 152.213 124.977C152.213 125.348 152.34 125.648 152.594 125.875C152.851 126.098 153.211 126.21 153.673 126.21H156.372V127.585H153.673C153.029 127.585 152.473 127.479 152.003 127.267C151.537 127.051 151.177 126.746 150.923 126.352C150.673 125.958 150.548 125.492 150.548 124.955C150.548 124.405 150.677 123.932 150.935 123.534C151.196 123.133 151.569 122.822 152.054 122.602C152.543 122.383 153.12 122.273 153.787 122.273H157.474V131H155.878ZM150.151 131L152.611 126.591H154.349L151.889 131H150.151ZM163.97 131V122.273H171.089V131H169.425V123.739H165.624V131H163.97ZM177.037 131.176C176.219 131.176 175.505 130.989 174.895 130.614C174.285 130.239 173.812 129.714 173.474 129.04C173.137 128.366 172.969 127.578 172.969 126.676C172.969 125.771 173.137 124.979 173.474 124.301C173.812 123.623 174.285 123.097 174.895 122.722C175.505 122.347 176.219 122.159 177.037 122.159C177.855 122.159 178.569 122.347 179.179 122.722C179.789 123.097 180.262 123.623 180.599 124.301C180.937 124.979 181.105 125.771 181.105 126.676C181.105 127.578 180.937 128.366 180.599 129.04C180.262 129.714 179.789 130.239 179.179 130.614C178.569 130.989 177.855 131.176 177.037 131.176ZM177.043 129.75C177.573 129.75 178.012 129.61 178.361 129.33C178.709 129.049 178.967 128.676 179.134 128.21C179.304 127.744 179.389 127.231 179.389 126.67C179.389 126.114 179.304 125.602 179.134 125.136C178.967 124.667 178.709 124.29 178.361 124.006C178.012 123.722 177.573 123.58 177.043 123.58C176.509 123.58 176.065 123.722 175.713 124.006C175.365 124.29 175.105 124.667 174.935 125.136C174.768 125.602 174.685 126.114 174.685 126.67C174.685 127.231 174.768 127.744 174.935 128.21C175.105 128.676 175.365 129.049 175.713 129.33C176.065 129.61 176.509 129.75 177.043 129.75ZM187.236 134.273V122.273H188.895V123.688H189.037C189.135 123.506 189.277 123.295 189.463 123.057C189.649 122.818 189.906 122.61 190.236 122.432C190.565 122.25 191.001 122.159 191.543 122.159C192.247 122.159 192.876 122.337 193.429 122.693C193.982 123.049 194.416 123.562 194.73 124.233C195.048 124.903 195.207 125.71 195.207 126.653C195.207 127.597 195.05 128.405 194.736 129.08C194.421 129.75 193.99 130.267 193.44 130.631C192.891 130.991 192.264 131.17 191.56 131.17C191.029 131.17 190.596 131.081 190.259 130.903C189.925 130.725 189.664 130.517 189.474 130.278C189.285 130.04 189.139 129.828 189.037 129.642H188.935V134.273H187.236ZM188.901 126.636C188.901 127.25 188.99 127.788 189.168 128.25C189.346 128.712 189.603 129.074 189.94 129.335C190.277 129.593 190.69 129.722 191.179 129.722C191.687 129.722 192.111 129.587 192.452 129.318C192.793 129.045 193.05 128.676 193.224 128.21C193.402 127.744 193.491 127.22 193.491 126.636C193.491 126.061 193.404 125.544 193.23 125.085C193.06 124.627 192.802 124.265 192.457 124C192.116 123.735 191.69 123.602 191.179 123.602C190.687 123.602 190.27 123.729 189.929 123.983C189.592 124.237 189.336 124.591 189.162 125.045C188.988 125.5 188.901 126.03 188.901 126.636ZM199.651 131.193C199.098 131.193 198.598 131.091 198.151 130.886C197.704 130.678 197.349 130.377 197.088 129.983C196.83 129.589 196.702 129.106 196.702 128.534C196.702 128.042 196.796 127.636 196.986 127.318C197.175 127 197.431 126.748 197.753 126.562C198.075 126.377 198.435 126.237 198.832 126.142C199.23 126.047 199.635 125.975 200.048 125.926C200.571 125.866 200.995 125.816 201.321 125.778C201.647 125.737 201.884 125.67 202.031 125.58C202.179 125.489 202.253 125.341 202.253 125.136V125.097C202.253 124.6 202.113 124.216 201.832 123.943C201.556 123.67 201.143 123.534 200.594 123.534C200.022 123.534 199.571 123.661 199.241 123.915C198.916 124.165 198.69 124.443 198.565 124.75L196.969 124.386C197.158 123.856 197.435 123.428 197.798 123.102C198.166 122.773 198.588 122.534 199.065 122.386C199.543 122.235 200.045 122.159 200.571 122.159C200.92 122.159 201.289 122.201 201.679 122.284C202.073 122.364 202.44 122.511 202.781 122.727C203.126 122.943 203.408 123.252 203.628 123.653C203.848 124.051 203.957 124.568 203.957 125.205V131H202.298V129.807H202.23C202.12 130.027 201.955 130.242 201.736 130.455C201.516 130.667 201.234 130.843 200.889 130.983C200.545 131.123 200.132 131.193 199.651 131.193ZM200.02 129.83C200.49 129.83 200.891 129.737 201.224 129.551C201.562 129.366 201.817 129.123 201.991 128.824C202.17 128.521 202.259 128.197 202.259 127.852V126.727C202.198 126.788 202.08 126.845 201.906 126.898C201.736 126.947 201.541 126.991 201.321 127.028C201.101 127.062 200.887 127.095 200.679 127.125C200.471 127.152 200.296 127.174 200.156 127.193C199.827 127.235 199.526 127.305 199.253 127.403C198.984 127.502 198.768 127.644 198.605 127.83C198.446 128.011 198.366 128.254 198.366 128.557C198.366 128.977 198.522 129.295 198.832 129.511C199.143 129.723 199.539 129.83 200.02 129.83ZM212.953 119.023L213.658 120.097C213.396 120.335 213.099 120.506 212.766 120.608C212.436 120.706 212.055 120.769 211.624 120.795C211.192 120.818 210.697 120.839 210.141 120.858C209.512 120.877 208.995 121.013 208.589 121.267C208.184 121.517 207.872 121.888 207.652 122.381C207.436 122.869 207.296 123.483 207.232 124.222H207.339C207.624 123.68 208.018 123.275 208.521 123.006C209.029 122.737 209.599 122.602 210.232 122.602C210.936 122.602 211.563 122.763 212.112 123.085C212.661 123.407 213.093 123.879 213.408 124.5C213.726 125.117 213.885 125.873 213.885 126.767C213.885 127.672 213.718 128.455 213.385 129.114C213.055 129.773 212.589 130.282 211.987 130.642C211.389 130.998 210.682 131.176 209.868 131.176C209.054 131.176 208.343 130.992 207.737 130.625C207.135 130.254 206.667 129.705 206.334 128.977C206.004 128.25 205.839 127.352 205.839 126.284V125.42C205.839 123.424 206.196 121.922 206.908 120.915C207.62 119.907 208.684 119.39 210.101 119.364C210.559 119.352 210.968 119.35 211.328 119.358C211.688 119.362 212.002 119.345 212.271 119.307C212.544 119.265 212.771 119.17 212.953 119.023ZM209.874 129.75C210.347 129.75 210.754 129.631 211.095 129.392C211.44 129.15 211.705 128.807 211.891 128.364C212.076 127.92 212.169 127.398 212.169 126.795C212.169 126.205 212.076 125.703 211.891 125.29C211.705 124.877 211.44 124.562 211.095 124.347C210.75 124.127 210.338 124.017 209.857 124.017C209.5 124.017 209.182 124.08 208.902 124.205C208.622 124.326 208.381 124.506 208.18 124.744C207.983 124.983 207.83 125.275 207.72 125.619C207.614 125.96 207.557 126.352 207.55 126.795C207.55 127.697 207.756 128.415 208.169 128.949C208.586 129.483 209.154 129.75 209.874 129.75ZM219.459 131.176C218.641 131.176 217.927 130.989 217.317 130.614C216.707 130.239 216.233 129.714 215.896 129.04C215.559 128.366 215.391 127.578 215.391 126.676C215.391 125.771 215.559 124.979 215.896 124.301C216.233 123.623 216.707 123.097 217.317 122.722C217.927 122.347 218.641 122.159 219.459 122.159C220.277 122.159 220.991 122.347 221.601 122.722C222.211 123.097 222.684 123.623 223.021 124.301C223.358 124.979 223.527 125.771 223.527 126.676C223.527 127.578 223.358 128.366 223.021 129.04C222.684 129.714 222.211 130.239 221.601 130.614C220.991 130.989 220.277 131.176 219.459 131.176ZM219.464 129.75C219.995 129.75 220.434 129.61 220.783 129.33C221.131 129.049 221.389 128.676 221.555 128.21C221.726 127.744 221.811 127.231 221.811 126.67C221.811 126.114 221.726 125.602 221.555 125.136C221.389 124.667 221.131 124.29 220.783 124.006C220.434 123.722 219.995 123.58 219.464 123.58C218.93 123.58 218.487 123.722 218.135 124.006C217.786 124.29 217.527 124.667 217.357 125.136C217.19 125.602 217.107 126.114 217.107 126.67C217.107 127.231 217.19 127.744 217.357 128.21C217.527 128.676 217.786 129.049 218.135 129.33C218.487 129.61 218.93 129.75 219.464 129.75ZM224.372 123.739V122.273H231.736V123.739H228.889V131H227.23V123.739H224.372ZM236.888 131.176C236.028 131.176 235.287 130.992 234.666 130.625C234.049 130.254 233.571 129.733 233.234 129.062C232.901 128.388 232.734 127.598 232.734 126.693C232.734 125.799 232.901 125.011 233.234 124.33C233.571 123.648 234.041 123.116 234.643 122.733C235.25 122.35 235.958 122.159 236.768 122.159C237.261 122.159 237.738 122.241 238.2 122.403C238.662 122.566 239.077 122.822 239.445 123.17C239.812 123.519 240.102 123.972 240.314 124.528C240.526 125.081 240.632 125.754 240.632 126.545V127.148H233.695V125.875H238.967C238.967 125.428 238.876 125.032 238.695 124.688C238.513 124.339 238.257 124.064 237.928 123.864C237.602 123.663 237.219 123.562 236.78 123.562C236.303 123.562 235.886 123.68 235.53 123.915C235.178 124.146 234.905 124.449 234.712 124.824C234.522 125.195 234.428 125.598 234.428 126.034V127.028C234.428 127.612 234.53 128.108 234.734 128.517C234.943 128.926 235.232 129.239 235.604 129.455C235.975 129.667 236.409 129.773 236.905 129.773C237.227 129.773 237.52 129.727 237.786 129.636C238.051 129.542 238.28 129.402 238.473 129.216C238.666 129.03 238.814 128.801 238.916 128.528L240.524 128.818C240.395 129.292 240.164 129.706 239.831 130.062C239.501 130.415 239.087 130.689 238.587 130.886C238.09 131.08 237.524 131.176 236.888 131.176ZM243.636 131.108C243.326 131.108 243.059 130.998 242.835 130.778C242.612 130.555 242.5 130.286 242.5 129.972C242.5 129.661 242.612 129.396 242.835 129.176C243.059 128.953 243.326 128.841 243.636 128.841C243.947 128.841 244.214 128.953 244.438 129.176C244.661 129.396 244.773 129.661 244.773 129.972C244.773 130.18 244.72 130.371 244.614 130.545C244.511 130.716 244.375 130.852 244.205 130.955C244.034 131.057 243.845 131.108 243.636 131.108Z" fill="#343434"/>
</svg>
