<svg width="268" height="63" viewBox="0 0 268 63" fill="none" xmlns="http://www.w3.org/2000/svg">
<path d="M0.0113636 1.36364H3.04545L6.25 9.18182H6.38636L9.59091 1.36364H12.625V13H10.2386V5.42614H10.142L7.13068 12.9432H5.50568L2.49432 5.39773H2.39773V13H0.0113636V1.36364ZM17.0952 13.1648C16.5384 13.1648 16.0421 13.0682 15.6065 12.875C15.1709 12.678 14.8262 12.3883 14.5724 12.0057C14.3224 11.6193 14.1974 11.1383 14.1974 10.5625C14.1974 10.0777 14.2865 9.67045 14.4645 9.34091C14.6425 9.01136 14.8849 8.74621 15.1918 8.54545C15.4986 8.3447 15.8471 8.19318 16.2372 8.09091C16.6312 7.98864 17.044 7.91667 17.4759 7.875C17.9834 7.82197 18.3925 7.77273 18.7031 7.72727C19.0137 7.67803 19.2391 7.60606 19.3793 7.51136C19.5194 7.41667 19.5895 7.27652 19.5895 7.09091V7.05682C19.5895 6.69697 19.4759 6.41856 19.2486 6.22159C19.0251 6.02462 18.7069 5.92614 18.294 5.92614C17.8584 5.92614 17.5118 6.02273 17.2543 6.21591C16.9967 6.4053 16.8262 6.64394 16.7429 6.93182L14.5043 6.75C14.6179 6.2197 14.8414 5.76136 15.1747 5.375C15.508 4.98485 15.938 4.68561 16.4645 4.47727C16.9948 4.26515 17.6084 4.15909 18.3054 4.15909C18.7902 4.15909 19.2543 4.21591 19.6974 4.32955C20.1444 4.44318 20.5402 4.61932 20.8849 4.85795C21.2334 5.09659 21.508 5.40341 21.7088 5.77841C21.9096 6.14962 22.0099 6.5947 22.0099 7.11364V13H19.7145V11.7898H19.6463C19.5062 12.0625 19.3187 12.303 19.0838 12.5114C18.849 12.7159 18.5668 12.8769 18.2372 12.9943C17.9077 13.108 17.527 13.1648 17.0952 13.1648ZM17.7884 11.4943C18.1444 11.4943 18.4588 11.4242 18.7315 11.2841C19.0043 11.1402 19.2183 10.947 19.3736 10.7045C19.5289 10.4621 19.6065 10.1875 19.6065 9.88068V8.95455C19.5308 9.00379 19.4266 9.04924 19.294 9.09091C19.1652 9.12879 19.0194 9.16477 18.8565 9.19886C18.6937 9.22917 18.5308 9.25758 18.3679 9.28409C18.205 9.30682 18.0573 9.32765 17.9247 9.34659C17.6406 9.38826 17.3925 9.45455 17.1804 9.54545C16.9683 9.63636 16.8035 9.75947 16.6861 9.91477C16.5687 10.0663 16.5099 10.2557 16.5099 10.483C16.5099 10.8125 16.6293 11.0644 16.8679 11.2386C17.1103 11.4091 17.4171 11.4943 17.7884 11.4943ZM23.8878 13V4.27273H26.1946V5.8125H26.2969C26.4787 5.30114 26.7817 4.89773 27.206 4.60227C27.6302 4.30682 28.1378 4.15909 28.7287 4.15909C29.3272 4.15909 29.8366 4.30871 30.2571 4.60795C30.6776 4.90341 30.9579 5.30492 31.098 5.8125H31.1889C31.367 5.3125 31.6889 4.91288 32.1548 4.61364C32.6245 4.31061 33.1795 4.15909 33.8196 4.15909C34.634 4.15909 35.295 4.41856 35.8026 4.9375C36.3139 5.45265 36.5696 6.18371 36.5696 7.13068V13H34.1548V7.60795C34.1548 7.12311 34.026 6.75947 33.7685 6.51705C33.5109 6.27462 33.1889 6.15341 32.8026 6.15341C32.3632 6.15341 32.0204 6.29356 31.7741 6.57386C31.5279 6.85038 31.4048 7.21591 31.4048 7.67045V13H29.0582V7.55682C29.0582 7.12879 28.9351 6.78788 28.6889 6.53409C28.4465 6.2803 28.1264 6.15341 27.7287 6.15341C27.4598 6.15341 27.2173 6.22159 27.0014 6.35795C26.7893 6.49053 26.6207 6.67803 26.4957 6.92045C26.3707 7.15909 26.3082 7.43939 26.3082 7.76136V13H23.8878ZM40.9702 13.1648C40.4134 13.1648 39.9171 13.0682 39.4815 12.875C39.0459 12.678 38.7012 12.3883 38.4474 12.0057C38.1974 11.6193 38.0724 11.1383 38.0724 10.5625C38.0724 10.0777 38.1615 9.67045 38.3395 9.34091C38.5175 9.01136 38.7599 8.74621 39.0668 8.54545C39.3736 8.3447 39.7221 8.19318 40.1122 8.09091C40.5062 7.98864 40.919 7.91667 41.3509 7.875C41.8584 7.82197 42.2675 7.77273 42.5781 7.72727C42.8887 7.67803 43.1141 7.60606 43.2543 7.51136C43.3944 7.41667 43.4645 7.27652 43.4645 7.09091V7.05682C43.4645 6.69697 43.3509 6.41856 43.1236 6.22159C42.9001 6.02462 42.5819 5.92614 42.169 5.92614C41.7334 5.92614 41.3868 6.02273 41.1293 6.21591C40.8717 6.4053 40.7012 6.64394 40.6179 6.93182L38.3793 6.75C38.4929 6.2197 38.7164 5.76136 39.0497 5.375C39.383 4.98485 39.813 4.68561 40.3395 4.47727C40.8698 4.26515 41.4834 4.15909 42.1804 4.15909C42.6652 4.15909 43.1293 4.21591 43.5724 4.32955C44.0194 4.44318 44.4152 4.61932 44.7599 4.85795C45.1084 5.09659 45.383 5.40341 45.5838 5.77841C45.7846 6.14962 45.8849 6.5947 45.8849 7.11364V13H43.5895V11.7898H43.5213C43.3812 12.0625 43.1937 12.303 42.9588 12.5114C42.724 12.7159 42.4418 12.8769 42.1122 12.9943C41.7827 13.108 41.402 13.1648 40.9702 13.1648ZM41.6634 11.4943C42.0194 11.4943 42.3338 11.4242 42.6065 11.2841C42.8793 11.1402 43.0933 10.947 43.2486 10.7045C43.4039 10.4621 43.4815 10.1875 43.4815 9.88068V8.95455C43.4058 9.00379 43.3016 9.04924 43.169 9.09091C43.0402 9.12879 42.8944 9.16477 42.7315 9.19886C42.5687 9.22917 42.4058 9.25758 42.2429 9.28409C42.08 9.30682 41.9323 9.32765 41.7997 9.34659C41.5156 9.38826 41.2675 9.45455 41.0554 9.54545C40.8433 9.63636 40.6785 9.75947 40.5611 9.91477C40.4437 10.0663 40.3849 10.2557 40.3849 10.483C40.3849 10.8125 40.5043 11.0644 40.7429 11.2386C40.9853 11.4091 41.2921 11.4943 41.6634 11.4943ZM47.8082 13V1.36364H50.2685V6.49432H50.4219L54.6094 1.36364H57.5582L53.2401 6.57386L57.6094 13H54.6662L51.4787 8.21591L50.2685 9.69318V13H47.8082ZM58.794 13V4.27273H61.1406V5.79545H61.2315C61.3906 5.25379 61.6577 4.8447 62.0327 4.56818C62.4077 4.28788 62.8395 4.14773 63.3281 4.14773C63.4493 4.14773 63.58 4.1553 63.7202 4.17045C63.8603 4.18561 63.9834 4.20644 64.0895 4.23295V6.38068C63.9759 6.34659 63.8187 6.31629 63.6179 6.28977C63.4171 6.26326 63.2334 6.25 63.0668 6.25C62.7107 6.25 62.3925 6.32765 62.1122 6.48295C61.8357 6.63447 61.616 6.84659 61.4531 7.11932C61.294 7.39205 61.2145 7.70644 61.2145 8.0625V13H58.794ZM65.3409 13V4.27273H67.7614V13H65.3409ZM66.5568 3.14773C66.197 3.14773 65.8883 3.02841 65.6307 2.78977C65.3769 2.54735 65.25 2.25758 65.25 1.92045C65.25 1.58712 65.3769 1.30114 65.6307 1.0625C65.8883 0.820075 66.197 0.698863 66.5568 0.698863C66.9167 0.698863 67.2235 0.820075 67.4773 1.0625C67.7348 1.30114 67.8636 1.58712 67.8636 1.92045C67.8636 2.25758 67.7348 2.54735 67.4773 2.78977C67.2235 3.02841 66.9167 3.14773 66.5568 3.14773ZM76.9616 6.76136L74.7457 6.89773C74.7079 6.70833 74.6264 6.53788 74.5014 6.38636C74.3764 6.23106 74.2116 6.10795 74.0071 6.01705C73.8063 5.92235 73.5658 5.875 73.2855 5.875C72.9105 5.875 72.5942 5.95455 72.3366 6.11364C72.0791 6.26894 71.9503 6.47727 71.9503 6.73864C71.9503 6.94697 72.0336 7.12311 72.2003 7.26705C72.367 7.41098 72.6529 7.52652 73.0582 7.61364L74.6378 7.93182C75.4863 8.10606 76.1188 8.38636 76.5355 8.77273C76.9522 9.15909 77.1605 9.66667 77.1605 10.2955C77.1605 10.8674 76.992 11.3693 76.6548 11.8011C76.3215 12.233 75.8632 12.5701 75.2798 12.8125C74.7003 13.0511 74.0317 13.1705 73.2741 13.1705C72.1188 13.1705 71.1984 12.9299 70.5128 12.4489C69.831 11.964 69.4313 11.3049 69.3139 10.4716L71.6946 10.3466C71.7666 10.6989 71.9408 10.9678 72.2173 11.1534C72.4938 11.3352 72.848 11.4261 73.2798 11.4261C73.7041 11.4261 74.045 11.3447 74.3026 11.1818C74.5639 11.0152 74.6965 10.8011 74.7003 10.5398C74.6965 10.3201 74.6037 10.1402 74.4219 10C74.2401 9.85606 73.9598 9.74621 73.581 9.67045L72.0696 9.36932C71.2173 9.19886 70.5829 8.90341 70.1662 8.48295C69.7533 8.0625 69.5469 7.52652 69.5469 6.875C69.5469 6.31439 69.6984 5.83144 70.0014 5.42614C70.3082 5.02083 70.7382 4.70833 71.2912 4.48864C71.848 4.26894 72.4995 4.15909 73.2457 4.15909C74.348 4.15909 75.2154 4.39205 75.848 4.85795C76.4844 5.32386 76.8556 5.95833 76.9616 6.76136ZM97.9531 7.34659V8.81818H81.9531V7.34659H97.9531ZM106.33 5.63068C106.034 5.63447 105.75 5.70455 105.477 5.84091C105.205 5.97727 104.979 6.15909 104.801 6.38636C104.627 6.61364 104.54 6.87121 104.54 7.15909H102.938C102.938 6.75 103.028 6.36364 103.21 6C103.392 5.63636 103.64 5.31629 103.955 5.03977C104.269 4.76326 104.631 4.54545 105.04 4.38636C105.449 4.22727 105.879 4.14773 106.33 4.14773C107.152 4.14773 107.847 4.34848 108.415 4.75C108.987 5.14773 109.42 5.67803 109.716 6.34091C110.011 7 110.159 7.72348 110.159 8.51136V8.79545C110.159 9.58333 110.011 10.3087 109.716 10.9716C109.42 11.6345 108.987 12.1648 108.415 12.5625C107.847 12.9602 107.152 13.1591 106.33 13.1591C105.67 13.1591 105.085 13.0189 104.574 12.7386C104.063 12.4583 103.661 12.0758 103.369 11.5909C103.081 11.1023 102.938 10.5455 102.938 9.92045H104.54C104.54 10.2311 104.621 10.5189 104.784 10.7841C104.947 11.0492 105.163 11.2633 105.432 11.4261C105.705 11.5852 106.004 11.6667 106.33 11.6705C106.818 11.6667 107.222 11.5189 107.54 11.2273C107.862 10.9356 108.1 10.5701 108.256 10.1307C108.415 9.6875 108.494 9.24242 108.494 8.79545V8.51136C108.494 8.04545 108.415 7.5928 108.256 7.15341C108.1 6.71402 107.862 6.35227 107.54 6.06818C107.222 5.7803 106.818 5.63447 106.33 5.63068ZM109.091 7.96023V9.26705H105.517V7.96023H109.091ZM110.997 5.73864V4.27273H118.361V5.73864H115.514V13H113.855V5.73864H110.997ZM123.428 13.1761C122.609 13.1761 121.895 12.9886 121.286 12.6136C120.676 12.2386 120.202 11.714 119.865 11.0398C119.528 10.3655 119.359 9.57765 119.359 8.67614C119.359 7.77083 119.528 6.97917 119.865 6.30114C120.202 5.62311 120.676 5.09659 121.286 4.72159C121.895 4.34659 122.609 4.15909 123.428 4.15909C124.246 4.15909 124.96 4.34659 125.57 4.72159C126.179 5.09659 126.653 5.62311 126.99 6.30114C127.327 6.97917 127.496 7.77083 127.496 8.67614C127.496 9.57765 127.327 10.3655 126.99 11.0398C126.653 11.714 126.179 12.2386 125.57 12.6136C124.96 12.9886 124.246 13.1761 123.428 13.1761ZM123.433 11.75C123.964 11.75 124.403 11.6098 124.751 11.3295C125.1 11.0492 125.357 10.6761 125.524 10.2102C125.695 9.74432 125.78 9.23106 125.78 8.67045C125.78 8.11364 125.695 7.60227 125.524 7.13636C125.357 6.66667 125.1 6.28977 124.751 6.00568C124.403 5.72159 123.964 5.57955 123.433 5.57955C122.899 5.57955 122.456 5.72159 122.104 6.00568C121.755 6.28977 121.496 6.66667 121.325 7.13636C121.159 7.60227 121.075 8.11364 121.075 8.67045C121.075 9.23106 121.159 9.74432 121.325 10.2102C121.496 10.6761 121.755 11.0492 122.104 11.3295C122.456 11.6098 122.899 11.75 123.433 11.75ZM137.303 13.1761C136.458 13.1761 135.731 12.9848 135.121 12.6023C134.515 12.2159 134.049 11.6837 133.723 11.0057C133.397 10.3277 133.234 9.55114 133.234 8.67614C133.234 7.78977 133.401 7.00758 133.734 6.32955C134.068 5.64773 134.537 5.11553 135.143 4.73295C135.75 4.35038 136.464 4.15909 137.286 4.15909C137.948 4.15909 138.539 4.2822 139.058 4.52841C139.577 4.77083 139.996 5.11174 140.314 5.55114C140.636 5.99053 140.827 6.50379 140.888 7.09091H139.234C139.143 6.68182 138.935 6.32955 138.609 6.03409C138.287 5.73864 137.856 5.59091 137.314 5.59091C136.84 5.59091 136.426 5.71591 136.07 5.96591C135.717 6.21212 135.443 6.56439 135.246 7.02273C135.049 7.47727 134.95 8.01515 134.95 8.63636C134.95 9.27273 135.047 9.82197 135.24 10.2841C135.433 10.7462 135.706 11.1042 136.058 11.358C136.414 11.6117 136.833 11.7386 137.314 11.7386C137.636 11.7386 137.928 11.6799 138.189 11.5625C138.454 11.4413 138.676 11.2689 138.854 11.0455C139.036 10.822 139.162 10.553 139.234 10.2386H140.888C140.827 10.803 140.643 11.3068 140.337 11.75C140.03 12.1932 139.619 12.5417 139.104 12.7955C138.592 13.0492 137.992 13.1761 137.303 13.1761ZM145.244 13.1932C144.691 13.1932 144.191 13.0909 143.744 12.8864C143.297 12.678 142.943 12.3769 142.682 11.983C142.424 11.589 142.295 11.1061 142.295 10.5341C142.295 10.0417 142.39 9.63636 142.58 9.31818C142.769 9 143.025 8.74811 143.347 8.5625C143.669 8.37689 144.028 8.23674 144.426 8.14205C144.824 8.04735 145.229 7.97538 145.642 7.92614C146.165 7.86553 146.589 7.81629 146.915 7.77841C147.241 7.73674 147.477 7.67045 147.625 7.57955C147.773 7.48864 147.847 7.34091 147.847 7.13636V7.09659C147.847 6.60038 147.706 6.21591 147.426 5.94318C147.15 5.67045 146.737 5.53409 146.188 5.53409C145.616 5.53409 145.165 5.66098 144.835 5.91477C144.509 6.16477 144.284 6.44318 144.159 6.75L142.562 6.38636C142.752 5.85606 143.028 5.42803 143.392 5.10227C143.759 4.77273 144.182 4.53409 144.659 4.38636C145.136 4.23485 145.638 4.15909 146.165 4.15909C146.513 4.15909 146.883 4.20076 147.273 4.28409C147.667 4.36364 148.034 4.51136 148.375 4.72727C148.72 4.94318 149.002 5.25189 149.222 5.65341C149.441 6.05114 149.551 6.56818 149.551 7.20455V13H147.892V11.8068H147.824C147.714 12.0265 147.549 12.2424 147.33 12.4545C147.11 12.6667 146.828 12.8428 146.483 12.983C146.138 13.1231 145.725 13.1932 145.244 13.1932ZM145.614 11.8295C146.083 11.8295 146.485 11.7367 146.818 11.5511C147.155 11.3655 147.411 11.1231 147.585 10.8239C147.763 10.5208 147.852 10.197 147.852 9.85227V8.72727C147.792 8.78788 147.674 8.8447 147.5 8.89773C147.33 8.94697 147.134 8.99053 146.915 9.02841C146.695 9.0625 146.481 9.0947 146.273 9.125C146.064 9.15152 145.89 9.17424 145.75 9.19318C145.42 9.23485 145.119 9.30492 144.847 9.40341C144.578 9.50189 144.362 9.64394 144.199 9.82955C144.04 10.0114 143.96 10.2538 143.96 10.5568C143.96 10.9773 144.116 11.2955 144.426 11.5114C144.737 11.7235 145.133 11.8295 145.614 11.8295ZM156.712 10.8977L159.53 4.27273H160.996L157.342 13H156.081L152.501 4.27273H153.95L156.712 10.8977ZM153.479 4.27273V13H151.814V4.27273H153.479ZM159.99 13V4.27273H161.643V13H159.99ZM166.447 13.1932C165.894 13.1932 165.394 13.0909 164.947 12.8864C164.5 12.678 164.146 12.3769 163.885 11.983C163.627 11.589 163.499 11.1061 163.499 10.5341C163.499 10.0417 163.593 9.63636 163.783 9.31818C163.972 9 164.228 8.74811 164.55 8.5625C164.872 8.37689 165.232 8.23674 165.629 8.14205C166.027 8.04735 166.432 7.97538 166.845 7.92614C167.368 7.86553 167.792 7.81629 168.118 7.77841C168.444 7.73674 168.68 7.67045 168.828 7.57955C168.976 7.48864 169.05 7.34091 169.05 7.13636V7.09659C169.05 6.60038 168.91 6.21591 168.629 5.94318C168.353 5.67045 167.94 5.53409 167.391 5.53409C166.819 5.53409 166.368 5.66098 166.038 5.91477C165.713 6.16477 165.487 6.44318 165.362 6.75L163.766 6.38636C163.955 5.85606 164.232 5.42803 164.595 5.10227C164.963 4.77273 165.385 4.53409 165.862 4.38636C166.339 4.23485 166.841 4.15909 167.368 4.15909C167.716 4.15909 168.086 4.20076 168.476 4.28409C168.87 4.36364 169.237 4.51136 169.578 4.72727C169.923 4.94318 170.205 5.25189 170.425 5.65341C170.644 6.05114 170.754 6.56818 170.754 7.20455V13H169.095V11.8068H169.027C168.917 12.0265 168.752 12.2424 168.533 12.4545C168.313 12.6667 168.031 12.8428 167.686 12.983C167.341 13.1231 166.929 13.1932 166.447 13.1932ZM166.817 11.8295C167.286 11.8295 167.688 11.7367 168.021 11.5511C168.358 11.3655 168.614 11.1231 168.788 10.8239C168.966 10.5208 169.055 10.197 169.055 9.85227V8.72727C168.995 8.78788 168.877 8.8447 168.703 8.89773C168.533 8.94697 168.338 8.99053 168.118 9.02841C167.898 9.0625 167.684 9.0947 167.476 9.125C167.268 9.15152 167.093 9.17424 166.953 9.19318C166.624 9.23485 166.322 9.30492 166.05 9.40341C165.781 9.50189 165.565 9.64394 165.402 9.82955C165.243 10.0114 165.163 10.2538 165.163 10.5568C165.163 10.9773 165.319 11.2955 165.629 11.5114C165.94 11.7235 166.336 11.8295 166.817 11.8295ZM178.222 13V5.72159H176.131C175.634 5.72159 175.248 5.83712 174.972 6.06818C174.695 6.29924 174.557 6.60227 174.557 6.97727C174.557 7.34848 174.684 7.64773 174.938 7.875C175.195 8.09848 175.555 8.21023 176.017 8.21023H178.716V9.58523H176.017C175.373 9.58523 174.816 9.47917 174.347 9.26705C173.881 9.05114 173.521 8.74621 173.267 8.35227C173.017 7.95833 172.892 7.49242 172.892 6.95455C172.892 6.4053 173.021 5.93182 173.278 5.53409C173.54 5.13258 173.913 4.82197 174.398 4.60227C174.886 4.38258 175.464 4.27273 176.131 4.27273H179.818V13H178.222ZM172.494 13L174.955 8.59091H176.693L174.233 13H172.494ZM187.388 16.2727C187.134 16.2727 186.903 16.2519 186.695 16.2102C186.486 16.1723 186.331 16.1307 186.229 16.0852L186.638 14.6932C186.948 14.7765 187.225 14.8125 187.467 14.8011C187.71 14.7898 187.924 14.6989 188.109 14.5284C188.299 14.358 188.465 14.0795 188.609 13.6932L188.82 13.1136L185.626 4.27273H187.445L189.655 11.0455H189.746L191.956 4.27273H193.78L190.183 14.1648C190.017 14.6193 189.804 15.0038 189.547 15.3182C189.289 15.6364 188.982 15.875 188.626 16.0341C188.27 16.1932 187.857 16.2727 187.388 16.2727ZM193.805 15.517V11.5284H194.516C194.697 11.3617 194.851 11.1629 194.976 10.9318C195.105 10.7008 195.213 10.4261 195.3 10.108C195.391 9.78977 195.466 9.41856 195.527 8.99432C195.588 8.56629 195.641 8.07765 195.686 7.52841L195.959 4.27273H201.891V11.5284H203.232V15.517H201.572V13H195.487V15.517H193.805ZM196.334 11.5284H200.232V5.72727H197.482L197.3 7.52841C197.213 8.44508 197.103 9.24053 196.97 9.91477C196.838 10.5852 196.625 11.1231 196.334 11.5284ZM208.568 13.1761C207.75 13.1761 207.036 12.9886 206.426 12.6136C205.816 12.2386 205.343 11.714 205.006 11.0398C204.669 10.3655 204.5 9.57765 204.5 8.67614C204.5 7.77083 204.669 6.97917 205.006 6.30114C205.343 5.62311 205.816 5.09659 206.426 4.72159C207.036 4.34659 207.75 4.15909 208.568 4.15909C209.386 4.15909 210.1 4.34659 210.71 4.72159C211.32 5.09659 211.794 5.62311 212.131 6.30114C212.468 6.97917 212.636 7.77083 212.636 8.67614C212.636 9.57765 212.468 10.3655 212.131 11.0398C211.794 11.714 211.32 12.2386 210.71 12.6136C210.1 12.9886 209.386 13.1761 208.568 13.1761ZM208.574 11.75C209.104 11.75 209.544 11.6098 209.892 11.3295C210.241 11.0492 210.498 10.6761 210.665 10.2102C210.835 9.74432 210.92 9.23106 210.92 8.67045C210.92 8.11364 210.835 7.60227 210.665 7.13636C210.498 6.66667 210.241 6.28977 209.892 6.00568C209.544 5.72159 209.104 5.57955 208.574 5.57955C208.04 5.57955 207.597 5.72159 207.244 6.00568C206.896 6.28977 206.636 6.66667 206.466 7.13636C206.299 7.60227 206.216 8.11364 206.216 8.67045C206.216 9.23106 206.299 9.74432 206.466 10.2102C206.636 10.6761 206.896 11.0492 207.244 11.3295C207.597 11.6098 208.04 11.75 208.574 11.75ZM221.266 1.02273L221.97 2.09659C221.709 2.33523 221.411 2.50568 221.078 2.60795C220.749 2.70644 220.368 2.76894 219.936 2.79545C219.504 2.81818 219.01 2.83901 218.453 2.85795C217.824 2.87689 217.307 3.01326 216.902 3.26705C216.497 3.51705 216.184 3.88826 215.964 4.38068C215.749 4.86932 215.608 5.48295 215.544 6.22159H215.652C215.936 5.67992 216.33 5.27462 216.834 5.00568C217.341 4.73674 217.911 4.60227 218.544 4.60227C219.249 4.60227 219.875 4.76326 220.425 5.08523C220.974 5.4072 221.406 5.87879 221.72 6.5C222.038 7.11742 222.197 7.87311 222.197 8.76705C222.197 9.67235 222.031 10.4545 221.697 11.1136C221.368 11.7727 220.902 12.2822 220.3 12.642C219.701 12.9981 218.995 13.1761 218.18 13.1761C217.366 13.1761 216.656 12.9924 216.05 12.625C215.447 12.2538 214.98 11.7045 214.646 10.9773C214.317 10.25 214.152 9.35227 214.152 8.28409V7.42045C214.152 5.42424 214.508 3.92235 215.22 2.91477C215.932 1.9072 216.997 1.39015 218.413 1.36364C218.872 1.35227 219.281 1.35038 219.641 1.35795C220 1.36174 220.315 1.3447 220.584 1.30682C220.857 1.26515 221.084 1.17045 221.266 1.02273ZM218.186 11.75C218.66 11.75 219.067 11.6307 219.408 11.392C219.752 11.1496 220.018 10.8068 220.203 10.3636C220.389 9.92045 220.482 9.39773 220.482 8.79545C220.482 8.20455 220.389 7.70265 220.203 7.28977C220.018 6.87689 219.752 6.5625 219.408 6.34659C219.063 6.12689 218.65 6.01705 218.169 6.01705C217.813 6.01705 217.495 6.07955 217.214 6.20455C216.934 6.32576 216.694 6.50568 216.493 6.74432C216.296 6.98295 216.143 7.27462 216.033 7.61932C215.927 7.96023 215.87 8.35227 215.862 8.79545C215.862 9.69697 216.069 10.4148 216.482 10.9489C216.898 11.483 217.466 11.75 218.186 11.75ZM230.01 7.90341V9.375H225.283V7.90341H230.01ZM225.76 4.27273V13H224.095V4.27273H225.76ZM231.197 4.27273V13H229.538V4.27273H231.197ZM236.01 13.1932C235.457 13.1932 234.957 13.0909 234.51 12.8864C234.063 12.678 233.709 12.3769 233.447 11.983C233.19 11.589 233.061 11.1061 233.061 10.5341C233.061 10.0417 233.156 9.63636 233.345 9.31818C233.535 9 233.79 8.74811 234.112 8.5625C234.434 8.37689 234.794 8.23674 235.192 8.14205C235.589 8.04735 235.995 7.97538 236.408 7.92614C236.93 7.86553 237.355 7.81629 237.68 7.77841C238.006 7.73674 238.243 7.67045 238.391 7.57955C238.538 7.48864 238.612 7.34091 238.612 7.13636V7.09659C238.612 6.60038 238.472 6.21591 238.192 5.94318C237.915 5.67045 237.502 5.53409 236.953 5.53409C236.381 5.53409 235.93 5.66098 235.601 5.91477C235.275 6.16477 235.05 6.44318 234.925 6.75L233.328 6.38636C233.518 5.85606 233.794 5.42803 234.158 5.10227C234.525 4.77273 234.947 4.53409 235.425 4.38636C235.902 4.23485 236.404 4.15909 236.93 4.15909C237.279 4.15909 237.648 4.20076 238.038 4.28409C238.432 4.36364 238.8 4.51136 239.141 4.72727C239.485 4.94318 239.768 5.25189 239.987 5.65341C240.207 6.05114 240.317 6.56818 240.317 7.20455V13H238.658V11.8068H238.589C238.48 12.0265 238.315 12.2424 238.095 12.4545C237.875 12.6667 237.593 12.8428 237.249 12.983C236.904 13.1231 236.491 13.1932 236.01 13.1932ZM236.379 11.8295C236.849 11.8295 237.25 11.7367 237.584 11.5511C237.921 11.3655 238.177 11.1231 238.351 10.8239C238.529 10.5208 238.618 10.197 238.618 9.85227V8.72727C238.557 8.78788 238.44 8.8447 238.266 8.89773C238.095 8.94697 237.9 8.99053 237.68 9.02841C237.461 9.0625 237.247 9.0947 237.038 9.125C236.83 9.15152 236.656 9.17424 236.516 9.19318C236.186 9.23485 235.885 9.30492 235.612 9.40341C235.343 9.50189 235.127 9.64394 234.964 9.82955C234.805 10.0114 234.726 10.2538 234.726 10.5568C234.726 10.9773 234.881 11.2955 235.192 11.5114C235.502 11.7235 235.898 11.8295 236.379 11.8295ZM247.784 13V5.72159H245.693C245.197 5.72159 244.811 5.83712 244.534 6.06818C244.258 6.29924 244.119 6.60227 244.119 6.97727C244.119 7.34848 244.246 7.64773 244.5 7.875C244.758 8.09848 245.117 8.21023 245.58 8.21023H248.278V9.58523H245.58C244.936 9.58523 244.379 9.47917 243.909 9.26705C243.443 9.05114 243.083 8.74621 242.83 8.35227C242.58 7.95833 242.455 7.49242 242.455 6.95455C242.455 6.4053 242.583 5.93182 242.841 5.53409C243.102 5.13258 243.475 4.82197 243.96 4.60227C244.449 4.38258 245.027 4.27273 245.693 4.27273H249.381V13H247.784ZM242.057 13L244.517 8.59091H246.256L243.795 13H242.057ZM0.142045 36V27.2727H7.26136V36H5.59659V28.7386H1.79545V36H0.142045ZM8.84517 36L8.83949 34.5284H9.15199C9.39441 34.5284 9.59706 34.4773 9.75994 34.375C9.92661 34.2689 10.063 34.0909 10.169 33.8409C10.2751 33.5909 10.3565 33.2462 10.4134 32.8068C10.4702 32.3636 10.5118 31.8068 10.5384 31.1364L10.6918 27.2727H16.7827V36H15.1179V28.7386H12.2656L12.1293 31.7045C12.0952 32.4242 12.0213 33.053 11.9077 33.5909C11.7978 34.1288 11.6368 34.5777 11.4247 34.9375C11.2126 35.2936 10.9399 35.5606 10.6065 35.7386C10.2732 35.9129 9.8679 36 9.39062 36H8.84517ZM21.5881 36.1932C21.035 36.1932 20.535 36.0909 20.0881 35.8864C19.6411 35.678 19.2869 35.3769 19.0256 34.983C18.768 34.589 18.6392 34.1061 18.6392 33.5341C18.6392 33.0417 18.7339 32.6364 18.9233 32.3182C19.1127 32 19.3684 31.7481 19.6903 31.5625C20.0123 31.3769 20.3722 31.2367 20.7699 31.142C21.1676 31.0473 21.5729 30.9754 21.9858 30.9261C22.5085 30.8655 22.9328 30.8163 23.2585 30.7784C23.5843 30.7367 23.821 30.6705 23.9688 30.5795C24.1165 30.4886 24.1903 30.3409 24.1903 30.1364V30.0966C24.1903 29.6004 24.0502 29.2159 23.7699 28.9432C23.4934 28.6705 23.0805 28.5341 22.5312 28.5341C21.9593 28.5341 21.5085 28.661 21.179 28.9148C20.8532 29.1648 20.6278 29.4432 20.5028 29.75L18.9062 29.3864C19.0956 28.8561 19.3722 28.428 19.7358 28.1023C20.1032 27.7727 20.5256 27.5341 21.0028 27.3864C21.4801 27.2348 21.982 27.1591 22.5085 27.1591C22.857 27.1591 23.2263 27.2008 23.6165 27.2841C24.0104 27.3636 24.3778 27.5114 24.7188 27.7273C25.0634 27.9432 25.3456 28.2519 25.5653 28.6534C25.785 29.0511 25.8949 29.5682 25.8949 30.2045V36H24.2358V34.8068H24.1676C24.0578 35.0265 23.893 35.2424 23.6733 35.4545C23.4536 35.6667 23.1714 35.8428 22.8267 35.983C22.482 36.1231 22.0691 36.1932 21.5881 36.1932ZM21.9574 34.8295C22.4271 34.8295 22.8286 34.7367 23.1619 34.5511C23.4991 34.3655 23.7547 34.1231 23.929 33.8239C24.107 33.5208 24.196 33.197 24.196 32.8523V31.7273C24.1354 31.7879 24.018 31.8447 23.8438 31.8977C23.6733 31.947 23.4782 31.9905 23.2585 32.0284C23.0388 32.0625 22.8248 32.0947 22.6165 32.125C22.4081 32.1515 22.2339 32.1742 22.0938 32.1932C21.7642 32.2348 21.4631 32.3049 21.1903 32.4034C20.9214 32.5019 20.7055 32.6439 20.5426 32.8295C20.3835 33.0114 20.304 33.2538 20.304 33.5568C20.304 33.9773 20.4593 34.2955 20.7699 34.5114C21.0805 34.7235 21.4763 34.8295 21.9574 34.8295ZM27.0753 28.7386V27.2727H34.4389V28.7386H31.5923V36H29.9332V28.7386H27.0753ZM39.5852 38.9716V24.3636H41.2841V38.9716H39.5852ZM39.5852 36.1761C38.9678 36.1761 38.4053 36.0701 37.8977 35.858C37.3902 35.642 36.9527 35.3352 36.5852 34.9375C36.2178 34.5398 35.9337 34.0644 35.733 33.5114C35.536 32.9583 35.4375 32.3466 35.4375 31.6761C35.4375 30.9981 35.536 30.3826 35.733 29.8295C35.9337 29.2765 36.2178 28.8011 36.5852 28.4034C36.9527 28.0057 37.3902 27.6989 37.8977 27.483C38.4053 27.267 38.9678 27.1591 39.5852 27.1591H40.0057V36.1761H39.5852ZM39.5852 34.7443H39.8239V28.5909H39.5852C39.1761 28.5909 38.8201 28.6742 38.517 28.8409C38.214 29.0038 37.9621 29.2292 37.7614 29.517C37.5606 29.8011 37.4091 30.1288 37.3068 30.5C37.2083 30.8712 37.1591 31.2633 37.1591 31.6761C37.1591 32.2292 37.2481 32.7386 37.4261 33.2045C37.6042 33.6667 37.8731 34.0398 38.233 34.3239C38.5928 34.6042 39.0436 34.7443 39.5852 34.7443ZM41.2841 36.1761H40.858V27.1591H41.2841C41.9015 27.1591 42.464 27.267 42.9716 27.483C43.4792 27.6989 43.9148 28.0057 44.2784 28.4034C44.6458 28.8011 44.928 29.2765 45.125 29.8295C45.3258 30.3826 45.4261 30.9981 45.4261 31.6761C45.4261 32.3466 45.3258 32.9583 45.125 33.5114C44.928 34.0644 44.6458 34.5398 44.2784 34.9375C43.9148 35.3352 43.4792 35.642 42.9716 35.858C42.464 36.0701 41.9015 36.1761 41.2841 36.1761ZM41.2841 34.7443C41.6932 34.7443 42.0492 34.6648 42.3523 34.5057C42.6553 34.3428 42.9072 34.1193 43.108 33.8352C43.3087 33.5473 43.4583 33.2197 43.5568 32.8523C43.6553 32.4811 43.7045 32.089 43.7045 31.6761C43.7045 31.1269 43.6155 30.6193 43.4375 30.1534C43.2633 29.6837 42.9962 29.3068 42.6364 29.0227C42.2765 28.7348 41.8258 28.5909 41.2841 28.5909H41.0398V34.7443H41.2841ZM50.9901 36.1761C50.1719 36.1761 49.4579 35.9886 48.848 35.6136C48.2382 35.2386 47.7647 34.714 47.4276 34.0398C47.0904 33.3655 46.9219 32.5777 46.9219 31.6761C46.9219 30.7708 47.0904 29.9792 47.4276 29.3011C47.7647 28.6231 48.2382 28.0966 48.848 27.7216C49.4579 27.3466 50.1719 27.1591 50.9901 27.1591C51.8082 27.1591 52.5223 27.3466 53.1321 27.7216C53.742 28.0966 54.2154 28.6231 54.5526 29.3011C54.8897 29.9792 55.0582 30.7708 55.0582 31.6761C55.0582 32.5777 54.8897 33.3655 54.5526 34.0398C54.2154 34.714 53.742 35.2386 53.1321 35.6136C52.5223 35.9886 51.8082 36.1761 50.9901 36.1761ZM50.9957 34.75C51.526 34.75 51.9654 34.6098 52.3139 34.3295C52.6624 34.0492 52.92 33.6761 53.0866 33.2102C53.2571 32.7443 53.3423 32.2311 53.3423 31.6705C53.3423 31.1136 53.2571 30.6023 53.0866 30.1364C52.92 29.6667 52.6624 29.2898 52.3139 29.0057C51.9654 28.7216 51.526 28.5795 50.9957 28.5795C50.4616 28.5795 50.0185 28.7216 49.6662 29.0057C49.3177 29.2898 49.0582 29.6667 48.8878 30.1364C48.7211 30.6023 48.6378 31.1136 48.6378 31.6705C48.6378 32.2311 48.7211 32.7443 48.8878 33.2102C49.0582 33.6761 49.3177 34.0492 49.6662 34.3295C50.0185 34.6098 50.4616 34.75 50.9957 34.75ZM56.9545 39.2727V27.2727H58.6136V28.6875H58.7557C58.8542 28.5057 58.9962 28.2955 59.1818 28.0568C59.3674 27.8182 59.625 27.6098 59.9545 27.4318C60.2841 27.25 60.7197 27.1591 61.2614 27.1591C61.9659 27.1591 62.5947 27.3371 63.1477 27.6932C63.7008 28.0492 64.1345 28.5625 64.4489 29.233C64.767 29.9034 64.9261 30.7102 64.9261 31.6534C64.9261 32.5966 64.7689 33.4053 64.4545 34.0795C64.1402 34.75 63.7083 35.267 63.1591 35.6307C62.6098 35.9905 61.983 36.1705 61.2784 36.1705C60.7481 36.1705 60.3144 36.0814 59.9773 35.9034C59.6439 35.7254 59.3826 35.517 59.1932 35.2784C59.0038 35.0398 58.858 34.8277 58.7557 34.642H58.6534V39.2727H56.9545ZM58.6193 31.6364C58.6193 32.25 58.7083 32.7879 58.8864 33.25C59.0644 33.7121 59.322 34.0739 59.6591 34.3352C59.9962 34.5928 60.4091 34.7216 60.8977 34.7216C61.4053 34.7216 61.8295 34.5871 62.1705 34.3182C62.5114 34.0455 62.7689 33.6761 62.9432 33.2102C63.1212 32.7443 63.2102 32.2197 63.2102 31.6364C63.2102 31.0606 63.1231 30.5436 62.9489 30.0852C62.7784 29.6269 62.5208 29.2652 62.1761 29C61.8352 28.7348 61.4091 28.6023 60.8977 28.6023C60.4053 28.6023 59.9886 28.7292 59.6477 28.983C59.3106 29.2367 59.0549 29.5909 58.8807 30.0455C58.7064 30.5 58.6193 31.0303 58.6193 31.6364ZM71.7273 33.8977L74.5455 27.2727H76.0114L72.358 36H71.0966L67.517 27.2727H68.9659L71.7273 33.8977ZM68.4943 27.2727V36H66.8295V27.2727H68.4943ZM75.0057 36V27.2727H76.6591V36H75.0057ZM81.4631 36.1932C80.91 36.1932 80.41 36.0909 79.9631 35.8864C79.5161 35.678 79.1619 35.3769 78.9006 34.983C78.643 34.589 78.5142 34.1061 78.5142 33.5341C78.5142 33.0417 78.6089 32.6364 78.7983 32.3182C78.9877 32 79.2434 31.7481 79.5653 31.5625C79.8873 31.3769 80.2472 31.2367 80.6449 31.142C81.0426 31.0473 81.4479 30.9754 81.8608 30.9261C82.3835 30.8655 82.8078 30.8163 83.1335 30.7784C83.4593 30.7367 83.696 30.6705 83.8438 30.5795C83.9915 30.4886 84.0653 30.3409 84.0653 30.1364V30.0966C84.0653 29.6004 83.9252 29.2159 83.6449 28.9432C83.3684 28.6705 82.9555 28.5341 82.4062 28.5341C81.8343 28.5341 81.3835 28.661 81.054 28.9148C80.7282 29.1648 80.5028 29.4432 80.3778 29.75L78.7812 29.3864C78.9706 28.8561 79.2472 28.428 79.6108 28.1023C79.9782 27.7727 80.4006 27.5341 80.8778 27.3864C81.3551 27.2348 81.857 27.1591 82.3835 27.1591C82.732 27.1591 83.1013 27.2008 83.4915 27.2841C83.8854 27.3636 84.2528 27.5114 84.5938 27.7273C84.9384 27.9432 85.2206 28.2519 85.4403 28.6534C85.66 29.0511 85.7699 29.5682 85.7699 30.2045V36H84.1108V34.8068H84.0426C83.9328 35.0265 83.768 35.2424 83.5483 35.4545C83.3286 35.6667 83.0464 35.8428 82.7017 35.983C82.357 36.1231 81.9441 36.1932 81.4631 36.1932ZM81.8324 34.8295C82.3021 34.8295 82.7036 34.7367 83.0369 34.5511C83.3741 34.3655 83.6297 34.1231 83.804 33.8239C83.982 33.5208 84.071 33.197 84.071 32.8523V31.7273C84.0104 31.7879 83.893 31.8447 83.7188 31.8977C83.5483 31.947 83.3532 31.9905 83.1335 32.0284C82.9138 32.0625 82.6998 32.0947 82.4915 32.125C82.2831 32.1515 82.1089 32.1742 81.9688 32.1932C81.6392 32.2348 81.3381 32.3049 81.0653 32.4034C80.7964 32.5019 80.5805 32.6439 80.4176 32.8295C80.2585 33.0114 80.179 33.2538 80.179 33.5568C80.179 33.9773 80.3343 34.2955 80.6449 34.5114C80.9555 34.7235 81.3513 34.8295 81.8324 34.8295ZM91.4148 38.517V34.5284H92.125C92.3068 34.3617 92.4602 34.1629 92.5852 33.9318C92.714 33.7008 92.822 33.4261 92.9091 33.108C93 32.7898 93.0758 32.4186 93.1364 31.9943C93.197 31.5663 93.25 31.0777 93.2955 30.5284L93.5682 27.2727H99.5V34.5284H100.841V38.517H99.1818V36H93.0966V38.517H91.4148ZM93.9432 34.5284H97.8409V28.7273H95.0909L94.9091 30.5284C94.822 31.4451 94.7121 32.2405 94.5795 32.9148C94.447 33.5852 94.2348 34.1231 93.9432 34.5284ZM101.814 36L101.808 34.5284H102.121C102.363 34.5284 102.566 34.4773 102.729 34.375C102.895 34.2689 103.032 34.0909 103.138 33.8409C103.244 33.5909 103.325 33.2462 103.382 32.8068C103.439 32.3636 103.481 31.8068 103.507 31.1364L103.661 27.2727H109.751V36H108.087V28.7386H105.234L105.098 31.7045C105.064 32.4242 104.99 33.053 104.876 33.5909C104.767 34.1288 104.606 34.5777 104.393 34.9375C104.181 35.2936 103.909 35.5606 103.575 35.7386C103.242 35.9129 102.837 36 102.359 36H101.814ZM117.222 36V28.7216H115.131C114.634 28.7216 114.248 28.8371 113.972 29.0682C113.695 29.2992 113.557 29.6023 113.557 29.9773C113.557 30.3485 113.684 30.6477 113.938 30.875C114.195 31.0985 114.555 31.2102 115.017 31.2102H117.716V32.5852H115.017C114.373 32.5852 113.816 32.4792 113.347 32.267C112.881 32.0511 112.521 31.7462 112.267 31.3523C112.017 30.9583 111.892 30.4924 111.892 29.9545C111.892 29.4053 112.021 28.9318 112.278 28.5341C112.54 28.1326 112.913 27.822 113.398 27.6023C113.886 27.3826 114.464 27.2727 115.131 27.2727H118.818V36H117.222ZM111.494 36L113.955 31.5909H115.693L113.233 36H111.494ZM125.314 36V27.2727H132.433V36H130.768V28.7386H126.967V36H125.314ZM138.381 36.1761C137.563 36.1761 136.848 35.9886 136.239 35.6136C135.629 35.2386 135.155 34.714 134.818 34.0398C134.481 33.3655 134.312 32.5777 134.312 31.6761C134.312 30.7708 134.481 29.9792 134.818 29.3011C135.155 28.6231 135.629 28.0966 136.239 27.7216C136.848 27.3466 137.563 27.1591 138.381 27.1591C139.199 27.1591 139.913 27.3466 140.523 27.7216C141.133 28.0966 141.606 28.6231 141.943 29.3011C142.28 29.9792 142.449 30.7708 142.449 31.6761C142.449 32.5777 142.28 33.3655 141.943 34.0398C141.606 34.714 141.133 35.2386 140.523 35.6136C139.913 35.9886 139.199 36.1761 138.381 36.1761ZM138.386 34.75C138.917 34.75 139.356 34.6098 139.705 34.3295C140.053 34.0492 140.311 33.6761 140.477 33.2102C140.648 32.7443 140.733 32.2311 140.733 31.6705C140.733 31.1136 140.648 30.6023 140.477 30.1364C140.311 29.6667 140.053 29.2898 139.705 29.0057C139.356 28.7216 138.917 28.5795 138.386 28.5795C137.852 28.5795 137.409 28.7216 137.057 29.0057C136.708 29.2898 136.449 29.6667 136.278 30.1364C136.112 30.6023 136.028 31.1136 136.028 31.6705C136.028 32.2311 136.112 32.7443 136.278 33.2102C136.449 33.6761 136.708 34.0492 137.057 34.3295C137.409 34.6098 137.852 34.75 138.386 34.75ZM146.01 33.6193L149.857 27.2727H151.686V36H150.021V29.6477L146.192 36H144.345V27.2727H146.01V33.6193ZM157.646 36.1761C156.802 36.1761 156.074 35.9848 155.464 35.6023C154.858 35.2159 154.393 34.6837 154.067 34.0057C153.741 33.3277 153.578 32.5511 153.578 31.6761C153.578 30.7898 153.745 30.0076 154.078 29.3295C154.411 28.6477 154.881 28.1155 155.487 27.733C156.093 27.3504 156.807 27.1591 157.629 27.1591C158.292 27.1591 158.883 27.2822 159.402 27.5284C159.921 27.7708 160.339 28.1117 160.658 28.5511C160.98 28.9905 161.171 29.5038 161.232 30.0909H159.578C159.487 29.6818 159.279 29.3295 158.953 29.0341C158.631 28.7386 158.199 28.5909 157.658 28.5909C157.184 28.5909 156.769 28.7159 156.413 28.9659C156.061 29.2121 155.786 29.5644 155.589 30.0227C155.393 30.4773 155.294 31.0152 155.294 31.6364C155.294 32.2727 155.391 32.822 155.584 33.2841C155.777 33.7462 156.05 34.1042 156.402 34.358C156.758 34.6117 157.177 34.7386 157.658 34.7386C157.98 34.7386 158.271 34.6799 158.533 34.5625C158.798 34.4413 159.019 34.2689 159.197 34.0455C159.379 33.822 159.506 33.553 159.578 33.2386H161.232C161.171 33.803 160.987 34.3068 160.68 34.75C160.374 35.1932 159.963 35.5417 159.447 35.7955C158.936 36.0492 158.336 36.1761 157.646 36.1761ZM163.048 36V27.2727H164.747V30.9318H165.565L168.446 27.2727H170.548L167.168 31.517L170.588 36H168.48L165.849 32.5114H164.747V36H163.048ZM174.447 36.1932C173.894 36.1932 173.394 36.0909 172.947 35.8864C172.5 35.678 172.146 35.3769 171.885 34.983C171.627 34.589 171.499 34.1061 171.499 33.5341C171.499 33.0417 171.593 32.6364 171.783 32.3182C171.972 32 172.228 31.7481 172.55 31.5625C172.872 31.3769 173.232 31.2367 173.629 31.142C174.027 31.0473 174.432 30.9754 174.845 30.9261C175.368 30.8655 175.792 30.8163 176.118 30.7784C176.444 30.7367 176.68 30.6705 176.828 30.5795C176.976 30.4886 177.05 30.3409 177.05 30.1364V30.0966C177.05 29.6004 176.91 29.2159 176.629 28.9432C176.353 28.6705 175.94 28.5341 175.391 28.5341C174.819 28.5341 174.368 28.661 174.038 28.9148C173.713 29.1648 173.487 29.4432 173.362 29.75L171.766 29.3864C171.955 28.8561 172.232 28.428 172.595 28.1023C172.963 27.7727 173.385 27.5341 173.862 27.3864C174.339 27.2348 174.841 27.1591 175.368 27.1591C175.716 27.1591 176.086 27.2008 176.476 27.2841C176.87 27.3636 177.237 27.5114 177.578 27.7273C177.923 27.9432 178.205 28.2519 178.425 28.6534C178.644 29.0511 178.754 29.5682 178.754 30.2045V36H177.095V34.8068H177.027C176.917 35.0265 176.752 35.2424 176.533 35.4545C176.313 35.6667 176.031 35.8428 175.686 35.983C175.341 36.1231 174.929 36.1932 174.447 36.1932ZM174.817 34.8295C175.286 34.8295 175.688 34.7367 176.021 34.5511C176.358 34.3655 176.614 34.1231 176.788 33.8239C176.966 33.5208 177.055 33.197 177.055 32.8523V31.7273C176.995 31.7879 176.877 31.8447 176.703 31.8977C176.533 31.947 176.338 31.9905 176.118 32.0284C175.898 32.0625 175.684 32.0947 175.476 32.125C175.268 32.1515 175.093 32.1742 174.953 32.1932C174.624 32.2348 174.322 32.3049 174.05 32.4034C173.781 32.5019 173.565 32.6439 173.402 32.8295C173.243 33.0114 173.163 33.2538 173.163 33.5568C173.163 33.9773 173.319 34.2955 173.629 34.5114C173.94 34.7235 174.336 34.8295 174.817 34.8295ZM186.325 39.2727C186.071 39.2727 185.84 39.2519 185.632 39.2102C185.424 39.1723 185.268 39.1307 185.166 39.0852L185.575 37.6932C185.886 37.7765 186.162 37.8125 186.405 37.8011C186.647 37.7898 186.861 37.6989 187.047 37.5284C187.236 37.358 187.403 37.0795 187.547 36.6932L187.757 36.1136L184.564 27.2727H186.382L188.592 34.0455H188.683L190.893 27.2727H192.717L189.121 37.1648C188.954 37.6193 188.742 38.0038 188.484 38.3182C188.227 38.6364 187.92 38.875 187.564 39.0341C187.208 39.1932 186.795 39.2727 186.325 39.2727ZM192.743 38.517V34.5284H193.453C193.635 34.3617 193.788 34.1629 193.913 33.9318C194.042 33.7008 194.15 33.4261 194.237 33.108C194.328 32.7898 194.404 32.4186 194.464 31.9943C194.525 31.5663 194.578 31.0777 194.624 30.5284L194.896 27.2727H200.828V34.5284H202.169V38.517H200.51V36H194.425V38.517H192.743ZM195.271 34.5284H199.169V28.7273H196.419L196.237 30.5284C196.15 31.4451 196.04 32.2405 195.908 32.9148C195.775 33.5852 195.563 34.1231 195.271 34.5284ZM206.369 36.1932C205.816 36.1932 205.316 36.0909 204.869 35.8864C204.422 35.678 204.068 35.3769 203.807 34.983C203.549 34.589 203.42 34.1061 203.42 33.5341C203.42 33.0417 203.515 32.6364 203.705 32.3182C203.894 32 204.15 31.7481 204.472 31.5625C204.794 31.3769 205.153 31.2367 205.551 31.142C205.949 31.0473 206.354 30.9754 206.767 30.9261C207.29 30.8655 207.714 30.8163 208.04 30.7784C208.366 30.7367 208.602 30.6705 208.75 30.5795C208.898 30.4886 208.972 30.3409 208.972 30.1364V30.0966C208.972 29.6004 208.831 29.2159 208.551 28.9432C208.275 28.6705 207.862 28.5341 207.312 28.5341C206.741 28.5341 206.29 28.661 205.96 28.9148C205.634 29.1648 205.409 29.4432 205.284 29.75L203.688 29.3864C203.877 28.8561 204.153 28.428 204.517 28.1023C204.884 27.7727 205.307 27.5341 205.784 27.3864C206.261 27.2348 206.763 27.1591 207.29 27.1591C207.638 27.1591 208.008 27.2008 208.398 27.2841C208.792 27.3636 209.159 27.5114 209.5 27.7273C209.845 27.9432 210.127 28.2519 210.347 28.6534C210.566 29.0511 210.676 29.5682 210.676 30.2045V36H209.017V34.8068H208.949C208.839 35.0265 208.674 35.2424 208.455 35.4545C208.235 35.6667 207.953 35.8428 207.608 35.983C207.263 36.1231 206.85 36.1932 206.369 36.1932ZM206.739 34.8295C207.208 34.8295 207.61 34.7367 207.943 34.5511C208.28 34.3655 208.536 34.1231 208.71 33.8239C208.888 33.5208 208.977 33.197 208.977 32.8523V31.7273C208.917 31.7879 208.799 31.8447 208.625 31.8977C208.455 31.947 208.259 31.9905 208.04 32.0284C207.82 32.0625 207.606 32.0947 207.398 32.125C207.189 32.1515 207.015 32.1742 206.875 32.1932C206.545 32.2348 206.244 32.3049 205.972 32.4034C205.703 32.5019 205.487 32.6439 205.324 32.8295C205.165 33.0114 205.085 33.2538 205.085 33.5568C205.085 33.9773 205.241 34.2955 205.551 34.5114C205.862 34.7235 206.258 34.8295 206.739 34.8295ZM212.251 36L212.246 34.5284H212.558C212.801 34.5284 213.003 34.4773 213.166 34.375C213.333 34.2689 213.469 34.0909 213.575 33.8409C213.681 33.5909 213.763 33.2462 213.82 32.8068C213.876 32.3636 213.918 31.8068 213.945 31.1364L214.098 27.2727H220.189V36H218.524V28.7386H215.672L215.536 31.7045C215.501 32.4242 215.428 33.053 215.314 33.5909C215.204 34.1288 215.043 34.5777 214.831 34.9375C214.619 35.2936 214.346 35.5606 214.013 35.7386C213.679 35.9129 213.274 36 212.797 36H212.251ZM226.216 36.1761C225.356 36.1761 224.616 35.9924 223.994 35.625C223.377 35.2538 222.9 34.733 222.562 34.0625C222.229 33.3883 222.062 32.5985 222.062 31.6932C222.062 30.7992 222.229 30.0114 222.562 29.3295C222.9 28.6477 223.369 28.1155 223.972 27.733C224.578 27.3504 225.286 27.1591 226.097 27.1591C226.589 27.1591 227.066 27.2405 227.528 27.4034C227.991 27.5663 228.405 27.822 228.773 28.1705C229.14 28.5189 229.43 28.9716 229.642 29.5284C229.854 30.0814 229.96 30.7538 229.96 31.5455V32.1477H223.023V30.875H228.295C228.295 30.428 228.205 30.0322 228.023 29.6875C227.841 29.339 227.585 29.0644 227.256 28.8636C226.93 28.6629 226.547 28.5625 226.108 28.5625C225.631 28.5625 225.214 28.6799 224.858 28.9148C224.506 29.1458 224.233 29.4489 224.04 29.8239C223.85 30.1951 223.756 30.5985 223.756 31.0341V32.0284C223.756 32.6117 223.858 33.108 224.062 33.517C224.271 33.9261 224.561 34.2386 224.932 34.4545C225.303 34.6667 225.737 34.7727 226.233 34.7727C226.555 34.7727 226.848 34.7273 227.114 34.6364C227.379 34.5417 227.608 34.4015 227.801 34.2159C227.994 34.0303 228.142 33.8011 228.244 33.5284L229.852 33.8182C229.723 34.2917 229.492 34.7064 229.159 35.0625C228.83 35.4148 228.415 35.6894 227.915 35.8864C227.419 36.0795 226.852 36.1761 226.216 36.1761ZM224.364 25.9034C224.095 25.9034 223.86 25.8049 223.659 25.608C223.458 25.4072 223.358 25.1761 223.358 24.9148C223.358 24.6307 223.458 24.3939 223.659 24.2045C223.86 24.0152 224.095 23.9205 224.364 23.9205C224.648 23.9205 224.884 24.0152 225.074 24.2045C225.267 24.3939 225.364 24.6307 225.364 24.9148C225.364 25.1761 225.267 25.4072 225.074 25.608C224.884 25.8049 224.648 25.9034 224.364 25.9034ZM227.705 25.9034C227.436 25.9034 227.201 25.8049 227 25.608C226.799 25.4072 226.699 25.1761 226.699 24.9148C226.699 24.6307 226.799 24.3939 227 24.2045C227.201 24.0152 227.436 23.9205 227.705 23.9205C227.989 23.9205 228.225 24.0152 228.415 24.2045C228.608 24.3939 228.705 24.6307 228.705 24.9148C228.705 25.1761 228.608 25.4072 228.415 25.608C228.225 25.8049 227.989 25.9034 227.705 25.9034ZM237.76 30.9034V32.375H233.033V30.9034H237.76ZM233.51 27.2727V36H231.845V27.2727H233.51ZM238.947 27.2727V36H237.288V27.2727H238.947ZM247.135 30.9034V32.375H242.408V30.9034H247.135ZM242.885 27.2727V36H241.22V27.2727H242.885ZM248.322 27.2727V36H246.663V27.2727H248.322ZM254.271 36.1761C253.453 36.1761 252.739 35.9886 252.129 35.6136C251.519 35.2386 251.046 34.714 250.709 34.0398C250.372 33.3655 250.203 32.5777 250.203 31.6761C250.203 30.7708 250.372 29.9792 250.709 29.3011C251.046 28.6231 251.519 28.0966 252.129 27.7216C252.739 27.3466 253.453 27.1591 254.271 27.1591C255.089 27.1591 255.804 27.3466 256.413 27.7216C257.023 28.0966 257.497 28.6231 257.834 29.3011C258.171 29.9792 258.339 30.7708 258.339 31.6761C258.339 32.5777 258.171 33.3655 257.834 34.0398C257.497 34.714 257.023 35.2386 256.413 35.6136C255.804 35.9886 255.089 36.1761 254.271 36.1761ZM254.277 34.75C254.807 34.75 255.247 34.6098 255.595 34.3295C255.944 34.0492 256.201 33.6761 256.368 33.2102C256.538 32.7443 256.624 32.2311 256.624 31.6705C256.624 31.1136 256.538 30.6023 256.368 30.1364C256.201 29.6667 255.944 29.2898 255.595 29.0057C255.247 28.7216 254.807 28.5795 254.277 28.5795C253.743 28.5795 253.3 28.7216 252.947 29.0057C252.599 29.2898 252.339 29.6667 252.169 30.1364C252.002 30.6023 251.919 31.1136 251.919 31.6705C251.919 32.2311 252.002 32.7443 252.169 33.2102C252.339 33.6761 252.599 34.0492 252.947 34.3295C253.3 34.6098 253.743 34.75 254.277 34.75ZM261.901 33.6193L265.747 27.2727H267.577V36H265.912V29.6477L262.082 36H260.236V27.2727H261.901V33.6193ZM265.02 24.3182H266.418C266.418 24.9583 266.19 25.4792 265.736 25.8807C265.285 26.2784 264.675 26.4773 263.906 26.4773C263.141 26.4773 262.533 26.2784 262.082 25.8807C261.632 25.4792 261.406 24.9583 261.406 24.3182H262.798C262.798 24.6023 262.882 24.8542 263.048 25.0739C263.215 25.2898 263.501 25.3977 263.906 25.3977C264.304 25.3977 264.588 25.2898 264.759 25.0739C264.933 24.858 265.02 24.6061 265.02 24.3182ZM0.142045 62.2727V50.2727H1.80114V51.6875H1.94318C2.04167 51.5057 2.18371 51.2955 2.36932 51.0568C2.55492 50.8182 2.8125 50.6098 3.14205 50.4318C3.47159 50.25 3.9072 50.1591 4.44886 50.1591C5.15341 50.1591 5.7822 50.3371 6.33523 50.6932C6.88826 51.0492 7.32197 51.5625 7.63636 52.233C7.95455 52.9034 8.11364 53.7102 8.11364 54.6534C8.11364 55.5966 7.95644 56.4053 7.64205 57.0795C7.32765 57.75 6.89583 58.267 6.34659 58.6307C5.79735 58.9905 5.17045 59.1705 4.46591 59.1705C3.93561 59.1705 3.50189 59.0814 3.16477 58.9034C2.83144 58.7254 2.57008 58.517 2.38068 58.2784C2.19129 58.0398 2.04545 57.8277 1.94318 57.642H1.84091V62.2727H0.142045ZM1.80682 54.6364C1.80682 55.25 1.89583 55.7879 2.07386 56.25C2.25189 56.7121 2.50947 57.0739 2.84659 57.3352C3.18371 57.5928 3.59659 57.7216 4.08523 57.7216C4.5928 57.7216 5.01705 57.5871 5.35795 57.3182C5.69886 57.0455 5.95644 56.6761 6.13068 56.2102C6.30871 55.7443 6.39773 55.2197 6.39773 54.6364C6.39773 54.0606 6.31061 53.5436 6.13636 53.0852C5.96591 52.6269 5.70833 52.2652 5.36364 52C5.02273 51.7348 4.59659 51.6023 4.08523 51.6023C3.5928 51.6023 3.17614 51.7292 2.83523 51.983C2.49811 52.2367 2.24242 52.5909 2.06818 53.0455C1.89394 53.5 1.80682 54.0303 1.80682 54.6364ZM12.5568 59.1932C12.0038 59.1932 11.5038 59.0909 11.0568 58.8864C10.6098 58.678 10.2557 58.3769 9.99432 57.983C9.73674 57.589 9.60795 57.1061 9.60795 56.5341C9.60795 56.0417 9.70265 55.6364 9.89205 55.3182C10.0814 55 10.3371 54.7481 10.6591 54.5625C10.9811 54.3769 11.3409 54.2367 11.7386 54.142C12.1364 54.0473 12.5417 53.9754 12.9545 53.9261C13.4773 53.8655 13.9015 53.8163 14.2273 53.7784C14.553 53.7367 14.7898 53.6705 14.9375 53.5795C15.0852 53.4886 15.1591 53.3409 15.1591 53.1364V53.0966C15.1591 52.6004 15.0189 52.2159 14.7386 51.9432C14.4621 51.6705 14.0492 51.5341 13.5 51.5341C12.928 51.5341 12.4773 51.661 12.1477 51.9148C11.822 52.1648 11.5966 52.4432 11.4716 52.75L9.875 52.3864C10.0644 51.8561 10.3409 51.428 10.7045 51.1023C11.072 50.7727 11.4943 50.5341 11.9716 50.3864C12.4489 50.2348 12.9508 50.1591 13.4773 50.1591C13.8258 50.1591 14.1951 50.2008 14.5852 50.2841C14.9792 50.3636 15.3466 50.5114 15.6875 50.7273C16.0322 50.9432 16.3144 51.2519 16.5341 51.6534C16.7538 52.0511 16.8636 52.5682 16.8636 53.2045V59H15.2045V57.8068H15.1364C15.0265 58.0265 14.8617 58.2424 14.642 58.4545C14.4223 58.6667 14.1402 58.8428 13.7955 58.983C13.4508 59.1231 13.0379 59.1932 12.5568 59.1932ZM12.9261 57.8295C13.3958 57.8295 13.7973 57.7367 14.1307 57.5511C14.4678 57.3655 14.7235 57.1231 14.8977 56.8239C15.0758 56.5208 15.1648 56.197 15.1648 55.8523V54.7273C15.1042 54.7879 14.9867 54.8447 14.8125 54.8977C14.642 54.947 14.447 54.9905 14.2273 55.0284C14.0076 55.0625 13.7936 55.0947 13.5852 55.125C13.3769 55.1515 13.2027 55.1742 13.0625 55.1932C12.733 55.2348 12.4318 55.3049 12.1591 55.4034C11.8902 55.5019 11.6742 55.6439 11.5114 55.8295C11.3523 56.0114 11.2727 56.2538 11.2727 56.5568C11.2727 56.9773 11.428 57.2955 11.7386 57.5114C12.0492 57.7235 12.4451 57.8295 12.9261 57.8295ZM25.8594 47.0227L26.5639 48.0966C26.3026 48.3352 26.0052 48.5057 25.6719 48.608C25.3423 48.7064 24.9616 48.7689 24.5298 48.7955C24.098 48.8182 23.6037 48.839 23.0469 48.858C22.4181 48.8769 21.901 49.0133 21.4957 49.267C21.0904 49.517 20.7779 49.8883 20.5582 50.3807C20.3423 50.8693 20.2022 51.483 20.1378 52.2216H20.2457C20.5298 51.6799 20.9238 51.2746 21.4276 51.0057C21.9351 50.7367 22.5052 50.6023 23.1378 50.6023C23.8423 50.6023 24.4692 50.7633 25.0185 51.0852C25.5677 51.4072 25.9995 51.8788 26.3139 52.5C26.6321 53.1174 26.7912 53.8731 26.7912 54.767C26.7912 55.6723 26.6245 56.4545 26.2912 57.1136C25.9616 57.7727 25.4957 58.2822 24.8935 58.642C24.295 58.9981 23.5885 59.1761 22.7741 59.1761C21.9598 59.1761 21.2495 58.9924 20.6435 58.625C20.0412 58.2538 19.5734 57.7045 19.2401 56.9773C18.9105 56.25 18.7457 55.3523 18.7457 54.2841V53.4205C18.7457 51.4242 19.1018 49.9223 19.8139 48.9148C20.526 47.9072 21.5904 47.3902 23.0071 47.3636C23.4654 47.3523 23.8745 47.3504 24.2344 47.358C24.5942 47.3617 24.9086 47.3447 25.1776 47.3068C25.4503 47.2652 25.6776 47.1705 25.8594 47.0227ZM22.7798 57.75C23.2533 57.75 23.6605 57.6307 24.0014 57.392C24.3461 57.1496 24.6113 56.8068 24.7969 56.3636C24.9825 55.9205 25.0753 55.3977 25.0753 54.7955C25.0753 54.2045 24.9825 53.7027 24.7969 53.2898C24.6113 52.8769 24.3461 52.5625 24.0014 52.3466C23.6567 52.1269 23.2438 52.017 22.7628 52.017C22.4067 52.017 22.0885 52.0795 21.8082 52.2045C21.5279 52.3258 21.2874 52.5057 21.0866 52.7443C20.8897 52.983 20.7363 53.2746 20.6264 53.6193C20.5204 53.9602 20.4635 54.3523 20.456 54.7955C20.456 55.697 20.6624 56.4148 21.0753 56.9489C21.492 57.483 22.0601 57.75 22.7798 57.75ZM32.3651 59.1761C31.5469 59.1761 30.8329 58.9886 30.223 58.6136C29.6132 58.2386 29.1397 57.714 28.8026 57.0398C28.4654 56.3655 28.2969 55.5777 28.2969 54.6761C28.2969 53.7708 28.4654 52.9792 28.8026 52.3011C29.1397 51.6231 29.6132 51.0966 30.223 50.7216C30.8329 50.3466 31.5469 50.1591 32.3651 50.1591C33.1832 50.1591 33.8973 50.3466 34.5071 50.7216C35.117 51.0966 35.5904 51.6231 35.9276 52.3011C36.2647 52.9792 36.4332 53.7708 36.4332 54.6761C36.4332 55.5777 36.2647 56.3655 35.9276 57.0398C35.5904 57.714 35.117 58.2386 34.5071 58.6136C33.8973 58.9886 33.1832 59.1761 32.3651 59.1761ZM32.3707 57.75C32.901 57.75 33.3404 57.6098 33.6889 57.3295C34.0374 57.0492 34.295 56.6761 34.4616 56.2102C34.6321 55.7443 34.7173 55.2311 34.7173 54.6705C34.7173 54.1136 34.6321 53.6023 34.4616 53.1364C34.295 52.6667 34.0374 52.2898 33.6889 52.0057C33.3404 51.7216 32.901 51.5795 32.3707 51.5795C31.8366 51.5795 31.3935 51.7216 31.0412 52.0057C30.6927 52.2898 30.4332 52.6667 30.2628 53.1364C30.0961 53.6023 30.0128 54.1136 30.0128 54.6705C30.0128 55.2311 30.0961 55.7443 30.2628 56.2102C30.4332 56.6761 30.6927 57.0492 31.0412 57.3295C31.3935 57.6098 31.8366 57.75 32.3707 57.75ZM37.2784 51.7386V50.2727H44.642V51.7386H41.7955V59H40.1364V51.7386H37.2784ZM47.7173 53.2727H50.2514C51.3196 53.2727 52.1416 53.5379 52.7173 54.0682C53.2931 54.5985 53.581 55.2822 53.581 56.1193C53.581 56.6648 53.4522 57.1553 53.1946 57.5909C52.937 58.0265 52.5601 58.3712 52.0639 58.625C51.5677 58.875 50.9635 59 50.2514 59H46.4389V50.2727H48.1037V57.5341H50.2514C50.7401 57.5341 51.1416 57.4072 51.456 57.1534C51.7704 56.8958 51.9276 56.5682 51.9276 56.1705C51.9276 55.75 51.7704 55.4072 51.456 55.142C51.1416 54.8731 50.7401 54.7386 50.2514 54.7386H47.7173V53.2727ZM54.8196 59V50.2727H56.5185V59H54.8196Z" fill="#343434"/>
</svg>
