<svg width="165" height="16" viewBox="0 0 165 16" fill="none" xmlns="http://www.w3.org/2000/svg">
<path d="M0.0113636 1.36364H2.46591V8.68182H2.5625L7.59091 1.36364H9.74432V13H7.28409V5.67614H7.19886L2.14205 13H0.0113636V1.36364ZM11.0497 15.5568V11.0795H11.7202C11.9134 10.9583 12.0687 10.7652 12.1861 10.5C12.3073 10.2348 12.4058 9.92235 12.4815 9.5625C12.5611 9.20265 12.6217 8.81439 12.6634 8.39773C12.7088 7.97727 12.7486 7.55303 12.7827 7.125L13.0099 4.27273H19.7031V11.0795H21.0554V15.5568H18.7486V13H13.4134V15.5568H11.0497ZM14.1293 11.0795H17.419V6.13636H15.0668L14.9759 7.125C14.9115 8.05682 14.8187 8.84848 14.6974 9.5C14.5762 10.1477 14.3868 10.6742 14.1293 11.0795ZM26.4432 13.1705C25.5455 13.1705 24.7727 12.9886 24.125 12.625C23.4811 12.2576 22.9848 11.7386 22.6364 11.0682C22.2879 10.3939 22.1136 9.59659 22.1136 8.67614C22.1136 7.77841 22.2879 6.99053 22.6364 6.3125C22.9848 5.63447 23.4754 5.10606 24.108 4.72727C24.7443 4.34848 25.4905 4.15909 26.3466 4.15909C26.9223 4.15909 27.4583 4.25189 27.9545 4.4375C28.4545 4.61932 28.8902 4.89394 29.2614 5.26136C29.6364 5.62879 29.928 6.09091 30.1364 6.64773C30.3447 7.20076 30.4489 7.84848 30.4489 8.59091V9.25568H23.0795V7.75568H28.1705C28.1705 7.4072 28.0947 7.09848 27.9432 6.82955C27.7917 6.56061 27.5814 6.35038 27.3125 6.19886C27.0473 6.04356 26.7386 5.96591 26.3864 5.96591C26.0189 5.96591 25.6932 6.05114 25.4091 6.22159C25.1288 6.38826 24.9091 6.61364 24.75 6.89773C24.5909 7.17803 24.5095 7.49053 24.5057 7.83523V9.26136C24.5057 9.69318 24.5852 10.0663 24.7443 10.3807C24.9072 10.6951 25.1364 10.9375 25.4318 11.108C25.7273 11.2784 26.0777 11.3636 26.483 11.3636C26.7519 11.3636 26.9981 11.3258 27.2216 11.25C27.4451 11.1742 27.6364 11.0606 27.7955 10.9091C27.9545 10.7576 28.0758 10.572 28.1591 10.3523L30.3977 10.5C30.2841 11.0379 30.0511 11.5076 29.6989 11.9091C29.3504 12.3068 28.8996 12.6174 28.3466 12.8409C27.7973 13.0606 27.1629 13.1705 26.4432 13.1705ZM34.517 13.1648C33.9602 13.1648 33.464 13.0682 33.0284 12.875C32.5928 12.678 32.2481 12.3883 31.9943 12.0057C31.7443 11.6193 31.6193 11.1383 31.6193 10.5625C31.6193 10.0777 31.7083 9.67045 31.8864 9.34091C32.0644 9.01136 32.3068 8.74621 32.6136 8.54545C32.9205 8.3447 33.2689 8.19318 33.6591 8.09091C34.053 7.98864 34.4659 7.91667 34.8977 7.875C35.4053 7.82197 35.8144 7.77273 36.125 7.72727C36.4356 7.67803 36.661 7.60606 36.8011 7.51136C36.9413 7.41667 37.0114 7.27652 37.0114 7.09091V7.05682C37.0114 6.69697 36.8977 6.41856 36.6705 6.22159C36.447 6.02462 36.1288 5.92614 35.7159 5.92614C35.2803 5.92614 34.9337 6.02273 34.6761 6.21591C34.4186 6.4053 34.2481 6.64394 34.1648 6.93182L31.9261 6.75C32.0398 6.2197 32.2633 5.76136 32.5966 5.375C32.9299 4.98485 33.3598 4.68561 33.8864 4.47727C34.4167 4.26515 35.0303 4.15909 35.7273 4.15909C36.2121 4.15909 36.6761 4.21591 37.1193 4.32955C37.5663 4.44318 37.9621 4.61932 38.3068 4.85795C38.6553 5.09659 38.9299 5.40341 39.1307 5.77841C39.3314 6.14962 39.4318 6.5947 39.4318 7.11364V13H37.1364V11.7898H37.0682C36.928 12.0625 36.7405 12.303 36.5057 12.5114C36.2708 12.7159 35.9886 12.8769 35.6591 12.9943C35.3295 13.108 34.9489 13.1648 34.517 13.1648ZM35.2102 11.4943C35.5663 11.4943 35.8807 11.4242 36.1534 11.2841C36.4261 11.1402 36.6402 10.947 36.7955 10.7045C36.9508 10.4621 37.0284 10.1875 37.0284 9.88068V8.95455C36.9527 9.00379 36.8485 9.04924 36.7159 9.09091C36.5871 9.12879 36.4413 9.16477 36.2784 9.19886C36.1155 9.22917 35.9527 9.25758 35.7898 9.28409C35.6269 9.30682 35.4792 9.32765 35.3466 9.34659C35.0625 9.38826 34.8144 9.45455 34.6023 9.54545C34.3902 9.63636 34.2254 9.75947 34.108 9.91477C33.9905 10.0663 33.9318 10.2557 33.9318 10.483C33.9318 10.8125 34.0511 11.0644 34.2898 11.2386C34.5322 11.4091 34.839 11.4943 35.2102 11.4943ZM40.7983 13L40.7869 11.0795H41.0767C41.2813 11.0795 41.4574 11.0303 41.6051 10.9318C41.7566 10.8295 41.8816 10.6648 41.9801 10.4375C42.0786 10.2102 42.1563 9.90909 42.2131 9.53409C42.2699 9.1553 42.3078 8.68939 42.3267 8.13636L42.4688 4.27273H49.1051V13H46.7983V6.17614H44.6449L44.5085 8.84091C44.4744 9.57197 44.3854 10.2008 44.2415 10.7273C44.1013 11.2538 43.9062 11.6856 43.6562 12.0227C43.4062 12.3561 43.1051 12.6023 42.7528 12.7614C42.4006 12.9205 41.9915 13 41.5256 13H40.7983ZM52.4986 6.95455H55.1065C56.2618 6.95455 57.1634 7.23106 57.8111 7.78409C58.4588 8.33333 58.7827 9.06818 58.7827 9.98864C58.7827 10.5871 58.6368 11.1136 58.3452 11.5682C58.0535 12.0189 57.633 12.3712 57.0838 12.625C56.5346 12.875 55.8755 13 55.1065 13H50.9815V4.27273H53.294V11.0966H55.1065C55.5118 11.0966 55.8452 10.9943 56.1065 10.7898C56.3679 10.5852 56.5005 10.3239 56.5043 10.0057C56.5005 9.66856 56.3679 9.39394 56.1065 9.18182C55.8452 8.96591 55.5118 8.85795 55.1065 8.85795H52.4986V6.95455ZM66.4616 7.67045V9.57386H61.9048V7.67045H66.4616ZM62.7003 4.27273V13H60.3878V4.27273H62.7003ZM67.9787 4.27273V13H65.6832V4.27273H67.9787ZM73.7997 13.1705C72.9171 13.1705 72.1539 12.983 71.5099 12.608C70.8698 12.2292 70.3755 11.7027 70.027 11.0284C69.6785 10.3504 69.5043 9.56439 69.5043 8.67045C69.5043 7.76894 69.6785 6.98106 70.027 6.30682C70.3755 5.62879 70.8698 5.10227 71.5099 4.72727C72.1539 4.34848 72.9171 4.15909 73.7997 4.15909C74.6823 4.15909 75.4437 4.34848 76.0838 4.72727C76.7277 5.10227 77.224 5.62879 77.5724 6.30682C77.9209 6.98106 78.0952 7.76894 78.0952 8.67045C78.0952 9.56439 77.9209 10.3504 77.5724 11.0284C77.224 11.7027 76.7277 12.2292 76.0838 12.608C75.4437 12.983 74.6823 13.1705 73.7997 13.1705ZM73.8111 11.2955C74.2126 11.2955 74.5478 11.1818 74.8168 10.9545C75.0857 10.7235 75.2884 10.4091 75.4247 10.0114C75.5649 9.61364 75.6349 9.16098 75.6349 8.65341C75.6349 8.14583 75.5649 7.69318 75.4247 7.29545C75.2884 6.89773 75.0857 6.58333 74.8168 6.35227C74.5478 6.12121 74.2126 6.00568 73.8111 6.00568C73.4058 6.00568 73.0649 6.12121 72.7884 6.35227C72.5156 6.58333 72.3092 6.89773 72.169 7.29545C72.0327 7.69318 71.9645 8.14583 71.9645 8.65341C71.9645 9.16098 72.0327 9.61364 72.169 10.0114C72.3092 10.4091 72.5156 10.7235 72.7884 10.9545C73.0649 11.1818 73.4058 11.2955 73.8111 11.2955ZM83.3722 13V4.27273H91.0028V13H88.6903V6.17614H85.6562V13H83.3722ZM96.8778 13.1705C95.9953 13.1705 95.232 12.983 94.5881 12.608C93.9479 12.2292 93.4536 11.7027 93.1051 11.0284C92.7566 10.3504 92.5824 9.56439 92.5824 8.67045C92.5824 7.76894 92.7566 6.98106 93.1051 6.30682C93.4536 5.62879 93.9479 5.10227 94.5881 4.72727C95.232 4.34848 95.9953 4.15909 96.8778 4.15909C97.7604 4.15909 98.5218 4.34848 99.1619 4.72727C99.8059 5.10227 100.302 5.62879 100.651 6.30682C100.999 6.98106 101.173 7.76894 101.173 8.67045C101.173 9.56439 100.999 10.3504 100.651 11.0284C100.302 11.7027 99.8059 12.2292 99.1619 12.608C98.5218 12.983 97.7604 13.1705 96.8778 13.1705ZM96.8892 11.2955C97.2907 11.2955 97.6259 11.1818 97.8949 10.9545C98.1638 10.7235 98.3665 10.4091 98.5028 10.0114C98.643 9.61364 98.7131 9.16098 98.7131 8.65341C98.7131 8.14583 98.643 7.69318 98.5028 7.29545C98.3665 6.89773 98.1638 6.58333 97.8949 6.35227C97.6259 6.12121 97.2907 6.00568 96.8892 6.00568C96.4839 6.00568 96.143 6.12121 95.8665 6.35227C95.5938 6.58333 95.3873 6.89773 95.2472 7.29545C95.1108 7.69318 95.0426 8.14583 95.0426 8.65341C95.0426 9.16098 95.1108 9.61364 95.2472 10.0114C95.3873 10.4091 95.5938 10.7235 95.8665 10.9545C96.143 11.1818 96.4839 11.2955 96.8892 11.2955ZM102.065 15.5568V11.0795H102.736C102.929 10.9583 103.084 10.7652 103.202 10.5C103.323 10.2348 103.421 9.92235 103.497 9.5625C103.577 9.20265 103.637 8.81439 103.679 8.39773C103.724 7.97727 103.764 7.55303 103.798 7.125L104.026 4.27273H110.719V11.0795H112.071V15.5568H109.764V13H104.429V15.5568H102.065ZM105.145 11.0795H108.435V6.13636H106.082L105.991 7.125C105.927 8.05682 105.834 8.84848 105.713 9.5C105.592 10.1477 105.402 10.6742 105.145 11.0795ZM117.425 13.1705C116.542 13.1705 115.779 12.983 115.135 12.608C114.495 12.2292 114 11.7027 113.652 11.0284C113.304 10.3504 113.129 9.56439 113.129 8.67045C113.129 7.76894 113.304 6.98106 113.652 6.30682C114 5.62879 114.495 5.10227 115.135 4.72727C115.779 4.34848 116.542 4.15909 117.425 4.15909C118.307 4.15909 119.069 4.34848 119.709 4.72727C120.353 5.10227 120.849 5.62879 121.197 6.30682C121.546 6.98106 121.72 7.76894 121.72 8.67045C121.72 9.56439 121.546 10.3504 121.197 11.0284C120.849 11.7027 120.353 12.2292 119.709 12.608C119.069 12.983 118.307 13.1705 117.425 13.1705ZM117.436 11.2955C117.838 11.2955 118.173 11.1818 118.442 10.9545C118.711 10.7235 118.913 10.4091 119.05 10.0114C119.19 9.61364 119.26 9.16098 119.26 8.65341C119.26 8.14583 119.19 7.69318 119.05 7.29545C118.913 6.89773 118.711 6.58333 118.442 6.35227C118.173 6.12121 117.838 6.00568 117.436 6.00568C117.031 6.00568 116.69 6.12121 116.413 6.35227C116.141 6.58333 115.934 6.89773 115.794 7.29545C115.658 7.69318 115.589 8.14583 115.589 8.65341C115.589 9.16098 115.658 9.61364 115.794 10.0114C115.934 10.4091 116.141 10.7235 116.413 10.9545C116.69 11.1818 117.031 11.2955 117.436 11.2955ZM125.607 9.80682L128.749 4.27273H131.135V13H128.828V7.44886L125.697 13H123.294V4.27273H125.607V9.80682ZM128.334 1.22727H130.021C130.018 1.91667 129.762 2.47159 129.254 2.89205C128.75 3.3125 128.069 3.52273 127.209 3.52273C126.345 3.52273 125.661 3.3125 125.158 2.89205C124.654 2.47159 124.402 1.91667 124.402 1.22727H126.078C126.074 1.48864 126.158 1.72348 126.328 1.93182C126.502 2.14015 126.796 2.24432 127.209 2.24432C127.61 2.24432 127.898 2.14205 128.072 1.9375C128.247 1.73295 128.334 1.49621 128.334 1.22727ZM132.393 15.5568V11.0795H133.064C133.257 10.9583 133.412 10.7652 133.53 10.5C133.651 10.2348 133.75 9.92235 133.825 9.5625C133.905 9.20265 133.965 8.81439 134.007 8.39773C134.053 7.97727 134.092 7.55303 134.126 7.125L134.354 4.27273H141.047V11.0795H142.399V15.5568H140.092V13H134.757V15.5568H132.393ZM135.473 11.0795H138.763V6.13636H136.411L136.32 7.125C136.255 8.05682 136.162 8.84848 136.041 9.5C135.92 10.1477 135.731 10.6742 135.473 11.0795ZM147.787 13.1705C146.889 13.1705 146.116 12.9886 145.469 12.625C144.825 12.2576 144.329 11.7386 143.98 11.0682C143.632 10.3939 143.457 9.59659 143.457 8.67614C143.457 7.77841 143.632 6.99053 143.98 6.3125C144.329 5.63447 144.819 5.10606 145.452 4.72727C146.088 4.34848 146.834 4.15909 147.69 4.15909C148.266 4.15909 148.802 4.25189 149.298 4.4375C149.798 4.61932 150.234 4.89394 150.605 5.26136C150.98 5.62879 151.272 6.09091 151.48 6.64773C151.688 7.20076 151.793 7.84848 151.793 8.59091V9.25568H144.423V7.75568H149.514C149.514 7.4072 149.438 7.09848 149.287 6.82955C149.135 6.56061 148.925 6.35038 148.656 6.19886C148.391 6.04356 148.082 5.96591 147.73 5.96591C147.363 5.96591 147.037 6.05114 146.753 6.22159C146.473 6.38826 146.253 6.61364 146.094 6.89773C145.935 7.17803 145.853 7.49053 145.849 7.83523V9.26136C145.849 9.69318 145.929 10.0663 146.088 10.3807C146.251 10.6951 146.48 10.9375 146.776 11.108C147.071 11.2784 147.421 11.3636 147.827 11.3636C148.096 11.3636 148.342 11.3258 148.565 11.25C148.789 11.1742 148.98 11.0606 149.139 10.9091C149.298 10.7576 149.42 10.572 149.503 10.3523L151.741 10.5C151.628 11.0379 151.395 11.5076 151.043 11.9091C150.694 12.3068 150.243 12.6174 149.69 12.8409C149.141 13.0606 148.507 13.1705 147.787 13.1705ZM145.901 3.07955C145.575 3.07955 145.295 2.96591 145.06 2.73864C144.825 2.50758 144.707 2.23485 144.707 1.92045C144.707 1.59848 144.825 1.32576 145.06 1.10227C145.295 0.878787 145.575 0.767045 145.901 0.767045C146.23 0.767045 146.509 0.878787 146.736 1.10227C146.967 1.32576 147.082 1.59848 147.082 1.92045C147.082 2.23485 146.967 2.50758 146.736 2.73864C146.509 2.96591 146.23 3.07955 145.901 3.07955ZM149.378 3.07955C149.052 3.07955 148.772 2.96591 148.537 2.73864C148.302 2.50758 148.185 2.23485 148.185 1.92045C148.185 1.59848 148.302 1.32576 148.537 1.10227C148.772 0.878787 149.052 0.767045 149.378 0.767045C149.707 0.767045 149.986 0.878787 150.213 1.10227C150.444 1.32576 150.56 1.59848 150.56 1.92045C150.56 2.23485 150.444 2.50758 150.213 2.73864C149.986 2.96591 149.707 3.07955 149.378 3.07955ZM152.699 6.17614V4.27273H160.608V6.17614H157.795V13H155.489V6.17614H152.699ZM163.49 13.1477C163.115 13.1477 162.793 13.0152 162.524 12.75C162.259 12.4811 162.126 12.1591 162.126 11.7841C162.126 11.4129 162.259 11.0947 162.524 10.8295C162.793 10.5644 163.115 10.4318 163.49 10.4318C163.854 10.4318 164.172 10.5644 164.445 10.8295C164.717 11.0947 164.854 11.4129 164.854 11.7841C164.854 12.0341 164.789 12.2633 164.661 12.4716C164.536 12.6761 164.371 12.8409 164.166 12.9659C163.962 13.0871 163.736 13.1477 163.49 13.1477ZM163.49 7.03409C163.115 7.03409 162.793 6.90151 162.524 6.63636C162.259 6.37121 162.126 6.04924 162.126 5.67045C162.126 5.29924 162.259 4.98295 162.524 4.72159C162.793 4.45644 163.115 4.32386 163.49 4.32386C163.854 4.32386 164.172 4.45644 164.445 4.72159C164.717 4.98295 164.854 5.29924 164.854 5.67045C164.854 5.92424 164.789 6.1553 164.661 6.36364C164.536 6.56818 164.371 6.73106 164.166 6.85227C163.962 6.97348 163.736 7.03409 163.49 7.03409Z" fill="#343434"/>
</svg>
