<svg width="144" height="150" viewBox="0 0 144 150" fill="none" xmlns="http://www.w3.org/2000/svg">
<mask id="path-1-inside-1_1251_1839" fill="white">
<path d="M0 12C0 5.37258 5.37258 0 12 0H132C138.627 0 144 5.37258 144 12V138C144 144.627 138.627 150 132 150H12C5.37258 150 0 144.627 0 138V12Z"/>
</mask>
<path d="M-2 8C-2 0.268014 4.26801 -6 12 -6H132C139.732 -6 146 0.268014 146 8L142 12C142 8.68629 137.523 6 132 6H12C6.47715 6 2 8.68629 2 12L-2 8ZM146 138C146 145.732 139.732 152 132 152H12C4.26801 152 -2 145.732 -2 138H2C2 143.523 6.47715 148 12 148H132C137.523 148 142 143.523 142 138H146ZM12 152C4.26801 152 -2 145.732 -2 138V8C-2 0.268014 4.26801 -6 12 -6V6C6.47715 6 2 8.68629 2 12V138C2 143.523 6.47715 148 12 148V152ZM132 -6C139.732 -6 146 0.268014 146 8V138C146 145.732 139.732 152 132 152V148C137.523 148 142 143.523 142 138V12C142 8.68629 137.523 6 132 6V-6Z" fill="#93D56F" mask="url(#path-1-inside-1_1251_1839)"/>
<path d="M12.9325 32V22.5455H16.478C17.2043 22.5455 17.8137 22.6809 18.3061 22.9517C18.8016 23.2225 19.1755 23.5949 19.4279 24.0689C19.6834 24.5398 19.8111 25.0753 19.8111 25.6754C19.8111 26.2817 19.6834 26.8203 19.4279 27.2912C19.1725 27.7621 18.7955 28.1329 18.2969 28.4038C17.7983 28.6715 17.1843 28.8054 16.4549 28.8054H14.1051V27.3974H16.2241C16.6488 27.3974 16.9966 27.3235 17.2674 27.1758C17.5382 27.0281 17.7383 26.8249 17.8675 26.5664C17.9999 26.3079 18.0661 26.0109 18.0661 25.6754C18.0661 25.34 17.9999 25.0445 17.8675 24.7891C17.7383 24.5336 17.5367 24.3351 17.2628 24.1935C16.992 24.0489 16.6426 23.9766 16.2148 23.9766H14.6452V32H12.9325ZM23.1384 32.1431C22.6891 32.1431 22.2844 32.0631 21.9243 31.9031C21.5673 31.7399 21.2841 31.4999 21.0748 31.1829C20.8686 30.8659 20.7655 30.475 20.7655 30.0103C20.7655 29.6102 20.8394 29.2794 20.9871 29.0178C21.1349 28.7562 21.3364 28.5469 21.5919 28.3899C21.8473 28.233 22.1351 28.1145 22.4552 28.0344C22.7783 27.9513 23.1122 27.8913 23.4569 27.8544C23.8724 27.8113 24.2094 27.7728 24.468 27.739C24.7265 27.7021 24.9142 27.6467 25.0312 27.5728C25.1512 27.4959 25.2112 27.3774 25.2112 27.2173V27.1896C25.2112 26.8419 25.1081 26.5726 24.9019 26.3817C24.6957 26.1909 24.3987 26.0955 24.0109 26.0955C23.6016 26.0955 23.2769 26.1848 23.0368 26.3633C22.7999 26.5418 22.6398 26.7526 22.5567 26.9957L20.9964 26.7741C21.1195 26.3433 21.3226 25.9832 21.6057 25.6939C21.8889 25.4015 22.2351 25.183 22.6444 25.0384C23.0538 24.8906 23.5062 24.8168 24.0017 24.8168C24.3433 24.8168 24.6834 24.8568 25.0219 24.9368C25.3605 25.0168 25.6698 25.1491 25.9498 25.3338C26.2299 25.5154 26.4546 25.7631 26.6238 26.0771C26.7962 26.391 26.8824 26.7834 26.8824 27.2543V32H25.2758V31.0259H25.2204C25.1189 31.2229 24.9758 31.4076 24.7911 31.5799C24.6095 31.7492 24.3802 31.8861 24.1032 31.9908C23.8293 32.0923 23.5077 32.1431 23.1384 32.1431ZM23.5724 30.9151C23.9078 30.9151 24.1987 30.849 24.4449 30.7166C24.6911 30.5812 24.8804 30.4027 25.0127 30.1811C25.1481 29.9595 25.2158 29.7179 25.2158 29.4563V28.6207C25.1635 28.6638 25.0742 28.7038 24.9481 28.7408C24.825 28.7777 24.6865 28.81 24.5326 28.8377C24.3787 28.8654 24.2264 28.89 24.0756 28.9116C23.9247 28.9331 23.7939 28.9516 23.6831 28.967C23.4339 29.0008 23.2107 29.0562 23.0138 29.1332C22.8168 29.2101 22.6614 29.3178 22.5475 29.4563C22.4336 29.5917 22.3767 29.7672 22.3767 29.9826C22.3767 30.2904 22.489 30.5227 22.7137 30.6797C22.9384 30.8366 23.2246 30.9151 23.5724 30.9151ZM34.2457 22.2869L34.8273 23.3672C34.6211 23.5457 34.3903 23.675 34.1349 23.755C33.8794 23.835 33.5793 23.8873 33.2346 23.9119C32.893 23.9335 32.4868 23.9489 32.0159 23.9581C31.4865 23.9704 31.0541 24.0704 30.7187 24.2582C30.3832 24.4459 30.1262 24.7306 29.9477 25.1122C29.7692 25.4908 29.6523 25.974 29.5969 26.5618H29.6753C29.8969 26.1278 30.2078 25.797 30.6079 25.5692C31.008 25.3415 31.4773 25.2276 32.0159 25.2276C32.6037 25.2276 33.1223 25.36 33.5716 25.6246C34.0241 25.8862 34.3765 26.2663 34.6288 26.7649C34.8843 27.2635 35.012 27.8667 35.012 28.5746C35.012 29.304 34.875 29.9364 34.6011 30.4719C34.3272 31.0044 33.9379 31.4152 33.4331 31.7045C32.9315 31.9938 32.336 32.1385 31.6466 32.1385C30.9603 32.1385 30.3632 31.9892 29.8554 31.6907C29.3506 31.3891 28.9598 30.9444 28.6828 30.3565C28.4089 29.7656 28.2719 29.0378 28.2719 28.1729V27.5359C28.2719 25.8678 28.5828 24.6229 29.2045 23.8011C29.8261 22.9794 30.7479 22.5608 31.9697 22.5455C32.3329 22.5393 32.6576 22.5378 32.9438 22.5408C33.2331 22.5439 33.4855 22.5301 33.7009 22.4993C33.9163 22.4685 34.0979 22.3977 34.2457 22.2869ZM31.6558 30.7997C31.9974 30.7997 32.2929 30.712 32.5422 30.5366C32.7915 30.3581 32.9823 30.1057 33.1146 29.7795C33.25 29.4532 33.3177 29.067 33.3177 28.6207C33.3177 28.1806 33.25 27.8067 33.1146 27.4989C32.9792 27.1881 32.7868 26.9511 32.5376 26.788C32.2883 26.6249 31.9913 26.5433 31.6466 26.5433C31.3881 26.5433 31.1557 26.5895 30.9495 26.6818C30.7433 26.7741 30.5679 26.9096 30.4232 27.0881C30.2786 27.2666 30.1678 27.4835 30.0908 27.739C30.0139 27.9944 29.9723 28.2884 29.9662 28.6207C29.9662 29.2886 30.117 29.8195 30.4186 30.2134C30.7202 30.6043 31.1326 30.7997 31.6558 30.7997ZM39.5269 32.1385C38.8344 32.1385 38.2343 31.9862 37.7265 31.6815C37.2187 31.3768 36.8247 30.9505 36.5447 30.4027C36.2677 29.8549 36.1292 29.2147 36.1292 28.4822C36.1292 27.7498 36.2677 27.1081 36.5447 26.5572C36.8247 26.0063 37.2187 25.5785 37.7265 25.2738C38.2343 24.9691 38.8344 24.8168 39.5269 24.8168C40.2194 24.8168 40.8195 24.9691 41.3273 25.2738C41.8351 25.5785 42.2275 26.0063 42.5045 26.5572C42.7846 27.1081 42.9246 27.7498 42.9246 28.4822C42.9246 29.2147 42.7846 29.8549 42.5045 30.4027C42.2275 30.9505 41.8351 31.3768 41.3273 31.6815C40.8195 31.9862 40.2194 32.1385 39.5269 32.1385ZM39.5361 30.7997C39.9116 30.7997 40.2255 30.6966 40.4779 30.4904C40.7303 30.2811 40.918 30.0011 41.0411 29.6502C41.1673 29.2994 41.2304 28.9085 41.2304 28.4776C41.2304 28.0437 41.1673 27.6513 41.0411 27.3004C40.918 26.9465 40.7303 26.6649 40.4779 26.4556C40.2255 26.2463 39.9116 26.1417 39.5361 26.1417C39.1514 26.1417 38.8314 26.2463 38.5759 26.4556C38.3235 26.6649 38.1343 26.9465 38.0081 27.3004C37.885 27.6513 37.8234 28.0437 37.8234 28.4776C37.8234 28.9085 37.885 29.2994 38.0081 29.6502C38.1343 30.0011 38.3235 30.2811 38.5759 30.4904C38.8314 30.6966 39.1514 30.7997 39.5361 30.7997ZM43.5617 26.2802V24.9091H49.7662V26.2802H47.4719V32H45.8561V26.2802H43.5617ZM53.898 32.1385C53.2055 32.1385 52.6054 31.9862 52.0976 31.6815C51.5898 31.3768 51.1958 30.9505 50.9157 30.4027C50.6388 29.8549 50.5003 29.2147 50.5003 28.4822C50.5003 27.7498 50.6388 27.1081 50.9157 26.5572C51.1958 26.0063 51.5898 25.5785 52.0976 25.2738C52.6054 24.9691 53.2055 24.8168 53.898 24.8168C54.5905 24.8168 55.1906 24.9691 55.6984 25.2738C56.2062 25.5785 56.5986 26.0063 56.8756 26.5572C57.1557 27.1081 57.2957 27.7498 57.2957 28.4822C57.2957 29.2147 57.1557 29.8549 56.8756 30.4027C56.5986 30.9505 56.2062 31.3768 55.6984 31.6815C55.1906 31.9862 54.5905 32.1385 53.898 32.1385ZM53.9072 30.7997C54.2827 30.7997 54.5966 30.6966 54.849 30.4904C55.1014 30.2811 55.2891 30.0011 55.4122 29.6502C55.5384 29.2994 55.6015 28.9085 55.6015 28.4776C55.6015 28.0437 55.5384 27.6513 55.4122 27.3004C55.2891 26.9465 55.1014 26.6649 54.849 26.4556C54.5966 26.2463 54.2827 26.1417 53.9072 26.1417C53.5225 26.1417 53.2024 26.2463 52.947 26.4556C52.6946 26.6649 52.5054 26.9465 52.3792 27.3004C52.2561 27.6513 52.1945 28.0437 52.1945 28.4776C52.1945 28.9085 52.2561 29.2994 52.3792 29.6502C52.5054 30.0011 52.6946 30.2811 52.947 30.4904C53.2024 30.6966 53.5225 30.7997 53.9072 30.7997ZM58.0863 34.0589V30.6243H58.6495C58.8003 30.5073 58.9265 30.3488 59.0281 30.1488C59.1296 29.9457 59.2127 29.7071 59.2773 29.4332C59.3451 29.1562 59.4004 28.8469 59.4435 28.5053C59.4866 28.1606 59.5251 27.7898 59.5589 27.3928L59.7621 24.9091H64.8864V30.6243H65.9851V34.0589H64.3693V32H59.7298V34.0589H58.0863ZM60.3668 30.6243H63.2891V26.2571H61.2116L61.1009 27.3928C61.0393 28.1437 60.9577 28.7869 60.8562 29.3224C60.7546 29.858 60.5915 30.2919 60.3668 30.6243ZM69.2732 32.1431C68.8238 32.1431 68.4191 32.0631 68.059 31.9031C67.702 31.7399 67.4189 31.4999 67.2096 31.1829C67.0034 30.8659 66.9003 30.475 66.9003 30.0103C66.9003 29.6102 66.9742 29.2794 67.1219 29.0178C67.2696 28.7562 67.4712 28.5469 67.7267 28.3899C67.9821 28.233 68.2699 28.1145 68.5899 28.0344C68.9131 27.9513 69.247 27.8913 69.5917 27.8544C70.0072 27.8113 70.3442 27.7728 70.6027 27.739C70.8612 27.7021 71.049 27.6467 71.1659 27.5728C71.286 27.4959 71.346 27.3774 71.346 27.2173V27.1896C71.346 26.8419 71.2429 26.5726 71.0367 26.3817C70.8305 26.1909 70.5335 26.0955 70.1457 26.0955C69.7364 26.0955 69.4117 26.1848 69.1716 26.3633C68.9346 26.5418 68.7746 26.7526 68.6915 26.9957L67.1311 26.7741C67.2542 26.3433 67.4574 25.9832 67.7405 25.6939C68.0236 25.4015 68.3699 25.183 68.7792 25.0384C69.1885 24.8906 69.641 24.8168 70.1365 24.8168C70.4781 24.8168 70.8182 24.8568 71.1567 24.9368C71.4952 25.0168 71.8045 25.1491 72.0846 25.3338C72.3647 25.5154 72.5893 25.7631 72.7586 26.0771C72.931 26.391 73.0171 26.7834 73.0171 27.2543V32H71.4106V31.0259H71.3552C71.2536 31.2229 71.1105 31.4076 70.9259 31.5799C70.7443 31.7492 70.515 31.8861 70.238 31.9908C69.9641 32.0923 69.6425 32.1431 69.2732 32.1431ZM69.7071 30.9151C70.0426 30.9151 70.3334 30.849 70.5796 30.7166C70.8258 30.5812 71.0151 30.4027 71.1475 30.1811C71.2829 29.9595 71.3506 29.7179 71.3506 29.4563V28.6207C71.2983 28.6638 71.209 28.7038 71.0828 28.7408C70.9597 28.7777 70.8212 28.81 70.6673 28.8377C70.5135 28.8654 70.3611 28.89 70.2103 28.9116C70.0595 28.9331 69.9287 28.9516 69.8179 28.967C69.5686 29.0008 69.3455 29.0562 69.1485 29.1332C68.9516 29.2101 68.7961 29.3178 68.6823 29.4563C68.5684 29.5917 68.5115 29.7672 68.5115 29.9826C68.5115 30.2904 68.6238 30.5227 68.8485 30.6797C69.0731 30.8366 69.3593 30.9151 69.7071 30.9151ZM73.9035 26.2802V24.9091H80.108V26.2802H77.8137V32H76.1979V26.2802H73.9035ZM84.286 32.1385C83.575 32.1385 82.961 31.9908 82.444 31.6953C81.93 31.3968 81.5345 30.9751 81.2575 30.4304C80.9806 29.8826 80.8421 29.2378 80.8421 28.4961C80.8421 27.7667 80.9806 27.1265 81.2575 26.5756C81.5376 26.0217 81.9285 25.5908 82.4301 25.283C82.9318 24.9722 83.5212 24.8168 84.1982 24.8168C84.6353 24.8168 85.0477 24.8875 85.4355 25.0291C85.8263 25.1676 86.171 25.383 86.4695 25.6754C86.7712 25.9678 87.0081 26.3402 87.1805 26.7926C87.3528 27.242 87.439 27.7775 87.439 28.3991V28.9116H81.6269V27.7852H85.8371C85.834 27.4651 85.7648 27.1804 85.6294 26.9311C85.4939 26.6787 85.3047 26.4802 85.0615 26.3356C84.8215 26.1909 84.5414 26.1186 84.2213 26.1186C83.8797 26.1186 83.5796 26.2017 83.3211 26.3679C83.0626 26.531 82.861 26.7464 82.7164 27.0142C82.5748 27.2789 82.5025 27.5697 82.4994 27.8867V28.87C82.4994 29.2824 82.5748 29.6364 82.7256 29.9318C82.8764 30.2242 83.0872 30.4489 83.358 30.6058C83.6289 30.7597 83.9459 30.8366 84.309 30.8366C84.5522 30.8366 84.7722 30.8028 84.9692 30.7351C85.1662 30.6643 85.337 30.5612 85.4816 30.4258C85.6263 30.2904 85.7355 30.1226 85.8094 29.9226L87.3698 30.098C87.2713 30.5104 87.0835 30.8705 86.8066 31.1783C86.5326 31.483 86.1818 31.7199 85.754 31.8892C85.3262 32.0554 84.8369 32.1385 84.286 32.1385ZM88.3635 32L88.3542 30.6243H88.5989C88.7836 30.6243 88.939 30.5827 89.0652 30.4996C89.1913 30.4165 89.296 30.2781 89.3791 30.0842C89.4622 29.8872 89.5268 29.6225 89.573 29.2901C89.6191 28.9577 89.6515 28.5438 89.6699 28.0483L89.7946 24.9091H94.965V32H93.3493V26.2802H91.3134L91.2026 28.5653C91.1749 29.1562 91.1087 29.6687 91.0041 30.1026C90.9025 30.5335 90.7579 30.889 90.5701 31.169C90.3855 31.4491 90.1531 31.6584 89.873 31.7969C89.593 31.9323 89.2621 32 88.8805 32H88.3635ZM100.839 32V26.2663H99.3253C98.9406 26.2663 98.6451 26.3556 98.4389 26.5341C98.2327 26.7126 98.1312 26.9342 98.1342 27.1989C98.1312 27.4635 98.2281 27.6821 98.4251 27.8544C98.622 28.0268 98.9036 28.1129 99.2699 28.1129H101.366V29.3317H99.2699C98.7036 29.3317 98.2143 29.2424 97.8018 29.0639C97.3894 28.8854 97.0724 28.633 96.8509 28.3068C96.6293 27.9806 96.5185 27.599 96.5185 27.1619C96.5185 26.7064 96.6308 26.311 96.8555 25.9755C97.0832 25.637 97.4064 25.3754 97.8249 25.1907C98.2466 25.003 98.7467 24.9091 99.3253 24.9091H102.404V32H100.839ZM96.2599 32L98.2404 28.3622H99.8885L97.9034 32H96.2599ZM108.168 30.0565L110.273 24.9091H111.621L108.754 32H107.586L104.784 24.9091H106.118L108.168 30.0565ZM105.698 24.9091V32H104.087V24.9091H105.698ZM110.707 32V24.9091H112.305V32H110.707ZM14.4698 44.7379L17.3089 39.9091H19.0263V47H17.4105V42.1665L14.5806 47H12.8587V39.9091H14.4698V44.7379ZM25.6382 42.8452V47H23.9671V37.5455H25.6013V41.114H25.6844C25.8506 40.7139 26.1076 40.3984 26.4553 40.1676C26.8062 39.9337 27.2525 39.8168 27.7941 39.8168C28.2865 39.8168 28.7159 39.9199 29.0821 40.1261C29.4484 40.3323 29.7315 40.6339 29.9316 41.0309C30.1347 41.4279 30.2362 41.9126 30.2362 42.4851V47H28.5651V42.7436C28.5651 42.2666 28.442 41.8957 28.1958 41.631C27.9526 41.3633 27.611 41.2294 27.1709 41.2294C26.8754 41.2294 26.6108 41.294 26.3769 41.4233C26.146 41.5495 25.9645 41.7326 25.8321 41.9727C25.7029 42.2127 25.6382 42.5036 25.6382 42.8452ZM31.9397 47V39.9091H33.5601V41.0909H33.634C33.7632 40.6816 33.9848 40.3661 34.2987 40.1445C34.6157 39.9199 34.9774 39.8075 35.3836 39.8075C35.4759 39.8075 35.579 39.8121 35.6929 39.8214C35.8099 39.8275 35.9068 39.8383 35.9838 39.8537V41.391C35.913 41.3664 35.8006 41.3448 35.6468 41.3263C35.4959 41.3048 35.3498 41.294 35.2082 41.294C34.9035 41.294 34.6296 41.3602 34.3865 41.4925C34.1464 41.6218 33.9571 41.8018 33.8186 42.0327C33.6801 42.2635 33.6109 42.5297 33.6109 42.8313V47H31.9397ZM41.0746 42.3743V43.75H36.8182V42.3743H41.0746ZM46.9133 45.0565L49.0184 39.9091H50.3664L47.4996 47H46.3316L43.5294 39.9091H44.8635L46.9133 45.0565ZM44.4434 39.9091V47H42.8323V39.9091H44.4434ZM49.4523 47V39.9091H51.0496V47H49.4523ZM55.8738 47.1385C55.1629 47.1385 54.5489 46.9908 54.0319 46.6953C53.5179 46.3968 53.1224 45.9751 52.8454 45.4304C52.5684 44.8826 52.43 44.2378 52.43 43.4961C52.43 42.7667 52.5684 42.1265 52.8454 41.5756C53.1255 41.0217 53.5164 40.5908 54.018 40.283C54.5197 39.9722 55.109 39.8168 55.7861 39.8168C56.2232 39.8168 56.6356 39.8875 57.0233 40.0291C57.4142 40.1676 57.7589 40.383 58.0574 40.6754C58.359 40.9678 58.596 41.3402 58.7684 41.7926C58.9407 42.242 59.0269 42.7775 59.0269 43.3991V43.9116H53.2148V42.7852H57.425C57.4219 42.4651 57.3527 42.1804 57.2172 41.9311C57.0818 41.6787 56.8925 41.4802 56.6494 41.3356C56.4094 41.1909 56.1293 41.1186 55.8092 41.1186C55.4676 41.1186 55.1675 41.2017 54.909 41.3679C54.6505 41.531 54.4489 41.7464 54.3042 42.0142C54.1627 42.2789 54.0903 42.5697 54.0873 42.8867V43.87C54.0873 44.2824 54.1627 44.6364 54.3135 44.9318C54.4643 45.2242 54.6751 45.4489 54.9459 45.6058C55.2168 45.7597 55.5338 45.8366 55.8969 45.8366C56.1401 45.8366 56.3601 45.8028 56.5571 45.7351C56.7541 45.6643 56.9249 45.5612 57.0695 45.4258C57.2142 45.2904 57.3234 45.1226 57.3973 44.9226L58.9577 45.098C58.8592 45.5104 58.6714 45.8705 58.3944 46.1783C58.1205 46.483 57.7697 46.7199 57.3419 46.8892C56.9141 47.0554 56.4247 47.1385 55.8738 47.1385ZM65.3111 42.7621V44.1332H61.5348V42.7621H65.3111ZM62.0518 39.9091V47H60.4407V39.9091H62.0518ZM66.4052 39.9091V47H64.7987V39.9091H66.4052ZM71.2352 47.1385C70.5242 47.1385 69.9102 46.9908 69.3932 46.6953C68.8792 46.3968 68.4838 45.9751 68.2068 45.4304C67.9298 44.8826 67.7913 44.2378 67.7913 43.4961C67.7913 42.7667 67.9298 42.1265 68.2068 41.5756C68.4868 41.0217 68.8777 40.5908 69.3794 40.283C69.881 39.9722 70.4704 39.8168 71.1475 39.8168C71.5845 39.8168 71.9969 39.8875 72.3847 40.0291C72.7755 40.1676 73.1202 40.383 73.4188 40.6754C73.7204 40.9678 73.9574 41.3402 74.1297 41.7926C74.3021 42.242 74.3882 42.7775 74.3882 43.3991V43.9116H68.5761V42.7852H72.7863C72.7832 42.4651 72.714 42.1804 72.5786 41.9311C72.4432 41.6787 72.2539 41.4802 72.0107 41.3356C71.7707 41.1909 71.4906 41.1186 71.1705 41.1186C70.8289 41.1186 70.5289 41.2017 70.2703 41.3679C70.0118 41.531 69.8102 41.7464 69.6656 42.0142C69.524 42.2789 69.4517 42.5697 69.4486 42.8867V43.87C69.4486 44.2824 69.524 44.6364 69.6748 44.9318C69.8256 45.2242 70.0364 45.4489 70.3073 45.6058C70.5781 45.7597 70.8951 45.8366 71.2583 45.8366C71.5014 45.8366 71.7214 45.8028 71.9184 45.7351C72.1154 45.6643 72.2862 45.5612 72.4308 45.4258C72.5755 45.2904 72.6847 45.1226 72.7586 44.9226L74.319 45.098C74.2205 45.5104 74.0328 45.8705 73.7558 46.1783C73.4819 46.483 73.131 46.7199 72.7032 46.8892C72.2754 47.0554 71.7861 47.1385 71.2352 47.1385ZM75.1742 49.0589V45.6243H75.7374C75.8882 45.5073 76.0144 45.3488 76.1159 45.1488C76.2175 44.9457 76.3006 44.7071 76.3652 44.4332C76.4329 44.1562 76.4883 43.8469 76.5314 43.5053C76.5745 43.1606 76.613 42.7898 76.6468 42.3928L76.85 39.9091H81.9743V45.6243H83.073V49.0589H81.4572V47H76.8176V49.0589H75.1742ZM77.4547 45.6243H80.377V41.2571H78.2995L78.1887 42.3928C78.1272 43.1437 78.0456 43.7869 77.9441 44.3224C77.8425 44.858 77.6794 45.2919 77.4547 45.6243ZM83.8589 47L86.4765 43.3391L83.882 39.9091H85.8117L87.8291 42.7667H88.2261V39.9091H89.8973V42.7667H90.2851L92.3025 39.9091H94.2322L91.6515 43.3391L94.2552 47H92.284L90.2666 44.1378H89.8973V47H88.2261V44.1378H87.8568L85.8302 47H83.8589ZM98.3778 47.1385C97.6668 47.1385 97.0528 46.9908 96.5358 46.6953C96.0218 46.3968 95.6263 45.9751 95.3493 45.4304C95.0724 44.8826 94.9339 44.2378 94.9339 43.4961C94.9339 42.7667 95.0724 42.1265 95.3493 41.5756C95.6294 41.0217 96.0203 40.5908 96.5219 40.283C97.0236 39.9722 97.613 39.8168 98.29 39.8168C98.7271 39.8168 99.1395 39.8875 99.5273 40.0291C99.9181 40.1676 100.263 40.383 100.561 40.6754C100.863 40.9678 101.1 41.3402 101.272 41.7926C101.445 42.242 101.531 42.7775 101.531 43.3991V43.9116H95.7187V42.7852H99.9289C99.9258 42.4651 99.8566 42.1804 99.7211 41.9311C99.5857 41.6787 99.3965 41.4802 99.1533 41.3356C98.9133 41.1909 98.6332 41.1186 98.3131 41.1186C97.9715 41.1186 97.6714 41.2017 97.4129 41.3679C97.1544 41.531 96.9528 41.7464 96.8081 42.0142C96.6666 42.2789 96.5943 42.5697 96.5912 42.8867V43.87C96.5912 44.2824 96.6666 44.6364 96.8174 44.9318C96.9682 45.2242 97.179 45.4489 97.4498 45.6058C97.7207 45.7597 98.0377 45.8366 98.4008 45.8366C98.644 45.8366 98.864 45.8028 99.061 45.7351C99.258 45.6643 99.4288 45.5612 99.5734 45.4258C99.7181 45.2904 99.8273 45.1226 99.9012 44.9226L101.462 45.098C101.363 45.5104 101.175 45.8705 100.898 46.1783C100.624 46.483 100.274 46.7199 99.8458 46.8892C99.418 47.0554 98.9287 47.1385 98.3778 47.1385ZM102.945 49.6591V39.9091H104.588V41.0817H104.685C104.771 40.9093 104.893 40.7262 105.05 40.5323C105.207 40.3353 105.419 40.1676 105.687 40.0291C105.955 39.8875 106.296 39.8168 106.712 39.8168C107.259 39.8168 107.753 39.9568 108.194 40.2369C108.637 40.5138 108.988 40.9247 109.246 41.4695C109.508 42.0111 109.638 42.6759 109.638 43.4638C109.638 44.2424 109.511 44.9041 109.255 45.4489C109 45.9936 108.652 46.4091 108.212 46.6953C107.772 46.9815 107.273 47.1246 106.716 47.1246C106.31 47.1246 105.973 47.0569 105.705 46.9215C105.438 46.7861 105.222 46.623 105.059 46.4322C104.899 46.2383 104.774 46.0552 104.685 45.8828H104.616V49.6591H102.945ZM104.583 43.4545C104.583 43.9131 104.648 44.3147 104.777 44.6594C104.91 45.0041 105.099 45.2734 105.345 45.4673C105.594 45.6581 105.896 45.7536 106.25 45.7536C106.619 45.7536 106.929 45.6551 107.178 45.4581C107.427 45.258 107.615 44.9857 107.741 44.641C107.87 44.2932 107.935 43.8977 107.935 43.4545C107.935 43.0144 107.872 42.6236 107.746 42.282C107.62 41.9403 107.432 41.6726 107.183 41.4787C106.933 41.2848 106.622 41.1879 106.25 41.1879C105.893 41.1879 105.59 41.2817 105.341 41.4695C105.091 41.6572 104.902 41.9203 104.773 42.2589C104.647 42.5974 104.583 42.996 104.583 43.4545ZM113.11 47.1431C112.661 47.1431 112.256 47.0631 111.896 46.9031C111.539 46.7399 111.256 46.4999 111.047 46.1829C110.84 45.8659 110.737 45.475 110.737 45.0103C110.737 44.6102 110.811 44.2794 110.959 44.0178C111.107 43.7562 111.308 43.5469 111.564 43.3899C111.819 43.233 112.107 43.1145 112.427 43.0344C112.75 42.9513 113.084 42.8913 113.429 42.8544C113.844 42.8113 114.181 42.7728 114.44 42.739C114.698 42.7021 114.886 42.6467 115.003 42.5728C115.123 42.4959 115.183 42.3774 115.183 42.2173V42.1896C115.183 41.8419 115.08 41.5726 114.874 41.3817C114.667 41.1909 114.37 41.0955 113.983 41.0955C113.573 41.0955 113.249 41.1848 113.009 41.3633C112.772 41.5418 112.612 41.7526 112.528 41.9957L110.968 41.7741C111.091 41.3433 111.294 40.9832 111.577 40.6939C111.861 40.4015 112.207 40.183 112.616 40.0384C113.025 39.8906 113.478 39.8168 113.973 39.8168C114.315 39.8168 114.655 39.8568 114.994 39.9368C115.332 40.0168 115.641 40.1491 115.922 40.3338C116.202 40.5154 116.426 40.7631 116.596 41.0771C116.768 41.391 116.854 41.7834 116.854 42.2543V47H115.248V46.0259H115.192C115.091 46.2229 114.947 46.4076 114.763 46.5799C114.581 46.7492 114.352 46.8861 114.075 46.9908C113.801 47.0923 113.479 47.1431 113.11 47.1431ZM113.544 45.9151C113.879 45.9151 114.17 45.849 114.417 45.7166C114.663 45.5812 114.852 45.4027 114.984 45.1811C115.12 44.9595 115.188 44.7179 115.188 44.4563V43.6207C115.135 43.6638 115.046 43.7038 114.92 43.7408C114.797 43.7777 114.658 43.81 114.504 43.8377C114.35 43.8654 114.198 43.89 114.047 43.9116C113.896 43.9331 113.766 43.9516 113.655 43.967C113.406 44.0008 113.182 44.0562 112.985 44.1332C112.788 44.2101 112.633 44.3178 112.519 44.4563C112.405 44.5917 112.348 44.7672 112.348 44.9826C112.348 45.2904 112.461 45.5227 112.685 45.6797C112.91 45.8366 113.196 45.9151 113.544 45.9151ZM122.615 45.0565L124.721 39.9091H126.069L123.202 47H122.034L119.232 39.9091H120.566L122.615 45.0565ZM120.146 39.9091V47H118.534V39.9091H120.146ZM125.154 47V39.9091H126.752V47H125.154Z" fill="#343434"/>
<path d="M12.9205 65V58.4545H13.9261V61.3011H14.5909L16.9432 58.4545H18.2386L15.5966 61.608L18.2727 65H16.9773L14.8295 62.2386H13.9261V65H12.9205ZM21.7553 65.1364C21.1644 65.1364 20.646 64.9957 20.1999 64.7145C19.7567 64.4332 19.4102 64.0398 19.1602 63.5341C18.913 63.0284 18.7894 62.4375 18.7894 61.7614C18.7894 61.0795 18.913 60.4844 19.1602 59.9759C19.4102 59.4673 19.7567 59.0724 20.1999 58.7912C20.646 58.5099 21.1644 58.3693 21.7553 58.3693C22.3462 58.3693 22.8633 58.5099 23.3065 58.7912C23.7525 59.0724 24.0991 59.4673 24.3462 59.9759C24.5962 60.4844 24.7212 61.0795 24.7212 61.7614C24.7212 62.4375 24.5962 63.0284 24.3462 63.5341C24.0991 64.0398 23.7525 64.4332 23.3065 64.7145C22.8633 64.9957 22.3462 65.1364 21.7553 65.1364ZM21.7553 64.233C22.2042 64.233 22.5735 64.1179 22.8633 63.8878C23.1531 63.6577 23.3675 63.3551 23.5067 62.9801C23.646 62.6051 23.7156 62.1989 23.7156 61.7614C23.7156 61.3239 23.646 60.9162 23.5067 60.5384C23.3675 60.1605 23.1531 59.8551 22.8633 59.6222C22.5735 59.3892 22.2042 59.2727 21.7553 59.2727C21.3065 59.2727 20.9371 59.3892 20.6474 59.6222C20.3576 59.8551 20.1431 60.1605 20.0039 60.5384C19.8647 60.9162 19.7951 61.3239 19.7951 61.7614C19.7951 62.1989 19.8647 62.6051 20.0039 62.9801C20.1431 63.3551 20.3576 63.6577 20.6474 63.8878C20.9371 64.1179 21.3065 64.233 21.7553 64.233ZM25.4009 59.392V58.4545H30.7191V59.392H28.5714V65H27.5657V59.392H25.4009ZM34.5053 65.1364C33.9144 65.1364 33.396 64.9957 32.9499 64.7145C32.5067 64.4332 32.1602 64.0398 31.9102 63.5341C31.663 63.0284 31.5394 62.4375 31.5394 61.7614C31.5394 61.0795 31.663 60.4844 31.9102 59.9759C32.1602 59.4673 32.5067 59.0724 32.9499 58.7912C33.396 58.5099 33.9144 58.3693 34.5053 58.3693C35.0962 58.3693 35.6133 58.5099 36.0565 58.7912C36.5025 59.0724 36.8491 59.4673 37.0962 59.9759C37.3462 60.4844 37.4712 61.0795 37.4712 61.7614C37.4712 62.4375 37.3462 63.0284 37.0962 63.5341C36.8491 64.0398 36.5025 64.4332 36.0565 64.7145C35.6133 64.9957 35.0962 65.1364 34.5053 65.1364ZM34.5053 64.233C34.9542 64.233 35.3235 64.1179 35.6133 63.8878C35.9031 63.6577 36.1175 63.3551 36.2567 62.9801C36.396 62.6051 36.4656 62.1989 36.4656 61.7614C36.4656 61.3239 36.396 60.9162 36.2567 60.5384C36.1175 60.1605 35.9031 59.8551 35.6133 59.6222C35.3235 59.3892 34.9542 59.2727 34.5053 59.2727C34.0565 59.2727 33.6871 59.3892 33.3974 59.6222C33.1076 59.8551 32.8931 60.1605 32.7539 60.5384C32.6147 60.9162 32.5451 61.3239 32.5451 61.7614C32.5451 62.1989 32.6147 62.6051 32.7539 62.9801C32.8931 63.3551 33.1076 63.6577 33.3974 63.8878C33.6871 64.1179 34.0565 64.233 34.5053 64.233ZM39.0064 67.4545V58.4545H39.978V59.4943H40.0973C40.1712 59.3807 40.2734 59.2358 40.4041 59.0597C40.5376 58.8807 40.728 58.7216 40.9751 58.5824C41.2251 58.4403 41.5632 58.3693 41.9893 58.3693C42.5405 58.3693 43.0263 58.5071 43.4467 58.7827C43.8672 59.0582 44.1953 59.4489 44.4311 59.9545C44.6669 60.4602 44.7848 61.0568 44.7848 61.7443C44.7848 62.4375 44.6669 63.0384 44.4311 63.5469C44.1953 64.0526 43.8686 64.4446 43.451 64.723C43.0334 64.9986 42.5518 65.1364 42.0064 65.1364C41.5859 65.1364 41.2493 65.0668 40.9964 64.9276C40.7436 64.7855 40.549 64.625 40.4126 64.446C40.2763 64.2642 40.1712 64.1136 40.0973 63.9943H40.0121V67.4545H39.0064ZM39.995 61.7273C39.995 62.2216 40.0675 62.6577 40.2124 63.0355C40.3572 63.4105 40.5689 63.7045 40.8473 63.9176C41.1257 64.1278 41.4666 64.233 41.87 64.233C42.2905 64.233 42.6413 64.1222 42.9226 63.9006C43.2067 63.6761 43.4197 63.375 43.5618 62.9972C43.7067 62.6165 43.7791 62.1932 43.7791 61.7273C43.7791 61.267 43.7081 60.8523 43.5661 60.483C43.4268 60.1108 43.2152 59.8168 42.9311 59.6009C42.6499 59.3821 42.2962 59.2727 41.87 59.2727C41.4609 59.2727 41.1172 59.3764 40.8388 59.5838C40.5604 59.7884 40.3501 60.0753 40.2081 60.4446C40.0661 60.8111 39.995 61.2386 39.995 61.7273ZM47.1882 60.8239H49.0632C49.8303 60.8239 50.4169 61.0185 50.8232 61.4077C51.2294 61.7969 51.4325 62.2898 51.4325 62.8864C51.4325 63.2784 51.3416 63.6349 51.1598 63.956C50.978 64.2741 50.7109 64.5284 50.3587 64.7188C50.0064 64.9062 49.5746 65 49.0632 65H46.3189V58.4545H47.3246V64.0625H49.0632C49.4609 64.0625 49.7876 63.9574 50.0433 63.7472C50.299 63.5369 50.4268 63.267 50.4268 62.9375C50.4268 62.5909 50.299 62.3082 50.0433 62.0895C49.7876 61.8707 49.4609 61.7614 49.0632 61.7614H47.1882V60.8239ZM52.4723 65V58.4545H53.478V65H52.4723ZM58.0632 65.1364C57.4325 65.1364 56.8885 64.9972 56.4311 64.7188C55.9766 64.4375 55.6257 64.0455 55.3786 63.5426C55.1342 63.0369 55.0121 62.4489 55.0121 61.7784C55.0121 61.108 55.1342 60.517 55.3786 60.0057C55.6257 59.4915 55.9695 59.0909 56.4098 58.804C56.853 58.5142 57.37 58.3693 57.9609 58.3693C58.3018 58.3693 58.6385 58.4261 58.9709 58.5398C59.3033 58.6534 59.6058 58.8381 59.8786 59.0938C60.1513 59.3466 60.3686 59.6818 60.5305 60.0994C60.6925 60.517 60.7734 61.0312 60.7734 61.642V62.0682H55.728V61.1989H59.7507C59.7507 60.8295 59.6768 60.5 59.5291 60.2102C59.3842 59.9205 59.1768 59.6918 58.907 59.5241C58.6399 59.3565 58.3246 59.2727 57.9609 59.2727C57.5604 59.2727 57.2138 59.3722 56.9212 59.571C56.6314 59.767 56.4084 60.0227 56.2521 60.3381C56.0959 60.6534 56.0178 60.9915 56.0178 61.3523V61.9318C56.0178 62.4261 56.103 62.8452 56.2734 63.1889C56.4467 63.5298 56.6868 63.7898 56.9936 63.9688C57.3004 64.1449 57.657 64.233 58.0632 64.233C58.3274 64.233 58.5661 64.196 58.7791 64.1222C58.995 64.0455 59.1811 63.9318 59.3374 63.7812C59.4936 63.6278 59.6143 63.4375 59.6996 63.2102L60.6712 63.483C60.5689 63.8125 60.397 64.1023 60.1555 64.3523C59.9141 64.5994 59.6158 64.7926 59.2607 64.9318C58.9055 65.0682 58.5064 65.1364 58.0632 65.1364ZM66.6839 63.517L69.8374 58.4545H70.9964V65H69.9908V59.9375L66.8544 65H65.6783V58.4545H66.6839V63.517ZM81.7702 64.0625L81.6509 66.875H80.6112V65H79.7589V64.0625H81.7702ZM72.8384 58.4545H73.8441V64.0625H76.3157V58.4545H77.3214V64.0625H79.793V58.4545H80.7987V65H72.8384V58.4545ZM83.8807 67.4545C83.7102 67.4545 83.5582 67.4403 83.4247 67.4119C83.2912 67.3864 83.1989 67.3608 83.1477 67.3352L83.4034 66.4489C83.6477 66.5114 83.8636 66.5341 84.0511 66.517C84.2386 66.5 84.4048 66.4162 84.5497 66.2656C84.6974 66.1179 84.8324 65.8778 84.9545 65.5455L85.142 65.0341L82.7216 58.4545H83.8125L85.6193 63.6705H85.6875L87.4943 58.4545H88.5852L85.8068 65.9545C85.6818 66.2926 85.527 66.5724 85.3423 66.794C85.1577 67.0185 84.9432 67.1847 84.6989 67.2926C84.4574 67.4006 84.1847 67.4545 83.8807 67.4545ZM89.5376 59.392V58.4545H94.8558V59.392H92.7081V65H91.7024V59.392H89.5376ZM102.357 65.1364C101.743 65.1364 101.215 64.9915 100.772 64.7017C100.328 64.4119 99.9876 64.0128 99.7489 63.5043C99.5103 62.9957 99.391 62.4148 99.391 61.7614C99.391 61.0966 99.5131 60.5099 99.7575 60.0014C100.005 59.4901 100.348 59.0909 100.789 58.804C101.232 58.5142 101.749 58.3693 102.34 58.3693C102.8 58.3693 103.215 58.4545 103.584 58.625C103.953 58.7955 104.256 59.0341 104.492 59.3409C104.728 59.6477 104.874 60.0057 104.931 60.4148H103.925C103.848 60.1165 103.678 59.8523 103.414 59.6222C103.152 59.3892 102.8 59.2727 102.357 59.2727C101.965 59.2727 101.621 59.375 101.326 59.5795C101.033 59.7812 100.804 60.0668 100.64 60.4361C100.478 60.8026 100.397 61.233 100.397 61.7273C100.397 62.233 100.476 62.6733 100.635 63.0483C100.797 63.4233 101.025 63.7145 101.317 63.9219C101.613 64.1293 101.959 64.233 102.357 64.233C102.618 64.233 102.855 64.1875 103.069 64.0966C103.282 64.0057 103.462 63.875 103.61 63.7045C103.757 63.5341 103.863 63.3295 103.925 63.0909H104.931C104.874 63.4773 104.733 63.8253 104.509 64.1349C104.287 64.4418 103.993 64.6861 103.627 64.8679C103.263 65.0469 102.84 65.1364 102.357 65.1364ZM109.145 65.1364C108.515 65.1364 107.971 64.9972 107.513 64.7188C107.059 64.4375 106.708 64.0455 106.461 63.5426C106.216 63.0369 106.094 62.4489 106.094 61.7784C106.094 61.108 106.216 60.517 106.461 60.0057C106.708 59.4915 107.051 59.0909 107.492 58.804C107.935 58.5142 108.452 58.3693 109.043 58.3693C109.384 58.3693 109.721 58.4261 110.053 58.5398C110.385 58.6534 110.688 58.8381 110.961 59.0938C111.233 59.3466 111.451 59.6818 111.613 60.0994C111.775 60.517 111.855 61.0312 111.855 61.642V62.0682H106.81V61.1989H110.833C110.833 60.8295 110.759 60.5 110.611 60.2102C110.466 59.9205 110.259 59.6918 109.989 59.5241C109.722 59.3565 109.407 59.2727 109.043 59.2727C108.642 59.2727 108.296 59.3722 108.003 59.571C107.713 59.767 107.49 60.0227 107.334 60.3381C107.178 60.6534 107.1 60.9915 107.1 61.3523V61.9318C107.1 62.4261 107.185 62.8452 107.355 63.1889C107.529 63.5298 107.769 63.7898 108.076 63.9688C108.382 64.1449 108.739 64.233 109.145 64.233C109.409 64.233 109.648 64.196 109.861 64.1222C110.077 64.0455 110.263 63.9318 110.419 63.7812C110.576 63.6278 110.696 63.4375 110.782 63.2102L111.753 63.483C111.651 63.8125 111.479 64.1023 111.238 64.3523C110.996 64.5994 110.698 64.7926 110.343 64.9318C109.988 65.0682 109.588 65.1364 109.145 65.1364ZM118.243 56L118.755 56.6136C118.556 56.8068 118.326 56.9418 118.064 57.0185C117.803 57.0952 117.507 57.142 117.178 57.1591C116.848 57.1761 116.482 57.1932 116.078 57.2102C115.624 57.2273 115.248 57.3381 114.949 57.5426C114.651 57.7472 114.421 58.0426 114.259 58.429C114.097 58.8153 113.993 59.2898 113.948 59.8523H114.033C114.255 59.4432 114.561 59.142 114.953 58.9489C115.346 58.7557 115.766 58.6591 116.215 58.6591C116.726 58.6591 117.186 58.7784 117.596 59.017C118.005 59.2557 118.328 59.6094 118.567 60.0781C118.806 60.5469 118.925 61.125 118.925 61.8125C118.925 62.4972 118.803 63.0881 118.559 63.5852C118.317 64.0824 117.978 64.4659 117.54 64.7358C117.105 65.0028 116.596 65.1364 116.01 65.1364C115.425 65.1364 114.912 64.9986 114.472 64.723C114.032 64.4446 113.689 64.0327 113.445 63.4872C113.201 62.9389 113.078 62.2614 113.078 61.4545V60.7557C113.078 59.2983 113.326 58.1932 113.82 57.4403C114.317 56.6875 115.064 56.2983 116.061 56.2727C116.414 56.2614 116.728 56.2585 117.003 56.2642C117.279 56.2699 117.519 56.2571 117.723 56.2259C117.928 56.1946 118.101 56.1193 118.243 56ZM116.01 64.233C116.405 64.233 116.745 64.1335 117.029 63.9347C117.316 63.7358 117.536 63.456 117.689 63.0952C117.843 62.7315 117.919 62.304 117.919 61.8125C117.919 61.3352 117.841 60.929 117.685 60.5938C117.532 60.2585 117.311 60.0028 117.025 59.8267C116.738 59.6506 116.394 59.5625 115.993 59.5625C115.701 59.5625 115.438 59.6122 115.205 59.7116C114.972 59.8111 114.773 59.9574 114.608 60.1506C114.444 60.3437 114.316 60.5795 114.225 60.858C114.137 61.1364 114.09 61.4545 114.084 61.8125C114.084 62.5455 114.256 63.1321 114.6 63.5724C114.944 64.0128 115.414 64.233 116.01 64.233ZM123.208 65.1364C122.577 65.1364 122.033 64.9972 121.576 64.7188C121.121 64.4375 120.77 64.0455 120.523 63.5426C120.279 63.0369 120.157 62.4489 120.157 61.7784C120.157 61.108 120.279 60.517 120.523 60.0057C120.77 59.4915 121.114 59.0909 121.554 58.804C121.998 58.5142 122.515 58.3693 123.105 58.3693C123.446 58.3693 123.783 58.4261 124.115 58.5398C124.448 58.6534 124.75 58.8381 125.023 59.0938C125.296 59.3466 125.513 59.6818 125.675 60.0994C125.837 60.517 125.918 61.0312 125.918 61.642V62.0682H120.873V61.1989H124.895C124.895 60.8295 124.821 60.5 124.674 60.2102C124.529 59.9205 124.321 59.6918 124.051 59.5241C123.784 59.3565 123.469 59.2727 123.105 59.2727C122.705 59.2727 122.358 59.3722 122.066 59.571C121.776 59.767 121.553 60.0227 121.397 60.3381C121.24 60.6534 121.162 60.9915 121.162 61.3523V61.9318C121.162 62.4261 121.248 62.8452 121.418 63.1889C121.591 63.5298 121.831 63.7898 122.138 63.9688C122.445 64.1449 122.801 64.233 123.208 64.233C123.472 64.233 123.711 64.196 123.924 64.1222C124.14 64.0455 124.326 63.9318 124.482 63.7812C124.638 63.6278 124.759 63.4375 124.844 63.2102L125.816 63.483C125.713 63.8125 125.542 64.1023 125.3 64.3523C125.059 64.5994 124.76 64.7926 124.405 64.9318C124.05 65.0682 123.651 65.1364 123.208 65.1364ZM13.6705 72.4545L15.2386 75.1307L16.8068 72.4545H17.9659L15.8523 75.7273L17.9659 79H16.8068L15.2386 76.4602L13.6705 79H12.5114L14.5909 75.7273L12.5114 72.4545H13.6705ZM21.7905 79.1364C21.1996 79.1364 20.6811 78.9957 20.2351 78.7145C19.7919 78.4332 19.4453 78.0398 19.1953 77.5341C18.9482 77.0284 18.8246 76.4375 18.8246 75.7614C18.8246 75.0795 18.9482 74.4844 19.1953 73.9759C19.4453 73.4673 19.7919 73.0724 20.2351 72.7912C20.6811 72.5099 21.1996 72.3693 21.7905 72.3693C22.3814 72.3693 22.8984 72.5099 23.3416 72.7912C23.7876 73.0724 24.1342 73.4673 24.3814 73.9759C24.6314 74.4844 24.7564 75.0795 24.7564 75.7614C24.7564 76.4375 24.6314 77.0284 24.3814 77.5341C24.1342 78.0398 23.7876 78.4332 23.3416 78.7145C22.8984 78.9957 22.3814 79.1364 21.7905 79.1364ZM21.7905 78.233C22.2393 78.233 22.6087 78.1179 22.8984 77.8878C23.1882 77.6577 23.4027 77.3551 23.5419 76.9801C23.6811 76.6051 23.7507 76.1989 23.7507 75.7614C23.7507 75.3239 23.6811 74.9162 23.5419 74.5384C23.4027 74.1605 23.1882 73.8551 22.8984 73.6222C22.6087 73.3892 22.2393 73.2727 21.7905 73.2727C21.3416 73.2727 20.9723 73.3892 20.6825 73.6222C20.3928 73.8551 20.1783 74.1605 20.0391 74.5384C19.8999 74.9162 19.8303 75.3239 19.8303 75.7614C19.8303 76.1989 19.8999 76.6051 20.0391 76.9801C20.1783 77.3551 20.3928 77.6577 20.6825 77.8878C20.9723 78.1179 21.3416 78.233 21.7905 78.233ZM26.2915 81.4545V72.4545H27.2631V73.4943H27.3825C27.4563 73.3807 27.5586 73.2358 27.6893 73.0597C27.8228 72.8807 28.0131 72.7216 28.2603 72.5824C28.5103 72.4403 28.8484 72.3693 29.2745 72.3693C29.8256 72.3693 30.3114 72.5071 30.7319 72.7827C31.1523 73.0582 31.4805 73.4489 31.7163 73.9545C31.9521 74.4602 32.07 75.0568 32.07 75.7443C32.07 76.4375 31.9521 77.0384 31.7163 77.5469C31.4805 78.0526 31.1538 78.4446 30.7362 78.723C30.3185 78.9986 29.837 79.1364 29.2915 79.1364C28.8711 79.1364 28.5344 79.0668 28.2816 78.9276C28.0288 78.7855 27.8342 78.625 27.6978 78.446C27.5614 78.2642 27.4563 78.1136 27.3825 77.9943H27.2972V81.4545H26.2915ZM27.2802 75.7273C27.2802 76.2216 27.3526 76.6577 27.4975 77.0355C27.6424 77.4105 27.854 77.7045 28.1325 77.9176C28.4109 78.1278 28.7518 78.233 29.1552 78.233C29.5756 78.233 29.9265 78.1222 30.2077 77.9006C30.4918 77.6761 30.7049 77.375 30.8469 76.9972C30.9918 76.6165 31.0643 76.1932 31.0643 75.7273C31.0643 75.267 30.9933 74.8523 30.8512 74.483C30.712 74.1108 30.5004 73.8168 30.2163 73.6009C29.935 73.3821 29.5813 73.2727 29.1552 73.2727C28.7461 73.2727 28.4023 73.3764 28.1239 73.5838C27.8455 73.7884 27.6353 74.0753 27.4933 74.4446C27.3512 74.8111 27.2802 75.2386 27.2802 75.7273ZM36.2631 79.1364C35.6722 79.1364 35.1538 78.9957 34.7077 78.7145C34.2646 78.4332 33.918 78.0398 33.668 77.5341C33.4208 77.0284 33.2972 76.4375 33.2972 75.7614C33.2972 75.0795 33.4208 74.4844 33.668 73.9759C33.918 73.4673 34.2646 73.0724 34.7077 72.7912C35.1538 72.5099 35.6722 72.3693 36.2631 72.3693C36.854 72.3693 37.3711 72.5099 37.8143 72.7912C38.2603 73.0724 38.6069 73.4673 38.854 73.9759C39.104 74.4844 39.229 75.0795 39.229 75.7614C39.229 76.4375 39.104 77.0284 38.854 77.5341C38.6069 78.0398 38.2603 78.4332 37.8143 78.7145C37.3711 78.9957 36.854 79.1364 36.2631 79.1364ZM36.2631 78.233C36.712 78.233 37.0813 78.1179 37.3711 77.8878C37.6609 77.6577 37.8754 77.3551 38.0146 76.9801C38.1538 76.6051 38.2234 76.1989 38.2234 75.7614C38.2234 75.3239 38.1538 74.9162 38.0146 74.5384C37.8754 74.1605 37.6609 73.8551 37.3711 73.6222C37.0813 73.3892 36.712 73.2727 36.2631 73.2727C35.8143 73.2727 35.445 73.3892 35.1552 73.6222C34.8654 73.8551 34.6509 74.1605 34.5117 74.5384C34.3725 74.9162 34.3029 75.3239 34.3029 75.7614C34.3029 76.1989 34.3725 76.6051 34.5117 76.9801C34.6509 77.3551 34.8654 77.6577 35.1552 77.8878C35.445 78.1179 35.8143 78.233 36.2631 78.233ZM40.7642 72.4545H41.7699V78.0625H44.2415V72.4545H45.2472V78.0625H47.7188V72.4545H48.7244V79H40.7642V72.4545ZM53.3054 79.1364C52.6747 79.1364 52.1307 78.9972 51.6733 78.7188C51.2188 78.4375 50.8679 78.0455 50.6207 77.5426C50.3764 77.0369 50.2543 76.4489 50.2543 75.7784C50.2543 75.108 50.3764 74.517 50.6207 74.0057C50.8679 73.4915 51.2116 73.0909 51.652 72.804C52.0952 72.5142 52.6122 72.3693 53.2031 72.3693C53.544 72.3693 53.8807 72.4261 54.2131 72.5398C54.5455 72.6534 54.848 72.8381 55.1207 73.0938C55.3935 73.3466 55.6108 73.6818 55.7727 74.0994C55.9347 74.517 56.0156 75.0312 56.0156 75.642V76.0682H50.9702V75.1989H54.9929C54.9929 74.8295 54.919 74.5 54.7713 74.2102C54.6264 73.9205 54.419 73.6918 54.1491 73.5241C53.8821 73.3565 53.5668 73.2727 53.2031 73.2727C52.8026 73.2727 52.456 73.3722 52.1634 73.571C51.8736 73.767 51.6506 74.0227 51.4943 74.3381C51.3381 74.6534 51.2599 74.9915 51.2599 75.3523V75.9318C51.2599 76.4261 51.3452 76.8452 51.5156 77.1889C51.6889 77.5298 51.929 77.7898 52.2358 77.9688C52.5426 78.1449 52.8991 78.233 53.3054 78.233C53.5696 78.233 53.8082 78.196 54.0213 78.1222C54.2372 78.0455 54.4233 77.9318 54.5795 77.7812C54.7358 77.6278 54.8565 77.4375 54.9418 77.2102L55.9134 77.483C55.8111 77.8125 55.6392 78.1023 55.3977 78.3523C55.1563 78.5994 54.858 78.7926 54.5028 78.9318C54.1477 79.0682 53.7486 79.1364 53.3054 79.1364ZM61.5852 72.4545V73.392H58.5511V79H57.5455V72.4545H61.5852ZM65.3725 79.1364C64.7816 79.1364 64.2631 78.9957 63.8171 78.7145C63.3739 78.4332 63.0273 78.0398 62.7773 77.5341C62.5302 77.0284 62.4066 76.4375 62.4066 75.7614C62.4066 75.0795 62.5302 74.4844 62.7773 73.9759C63.0273 73.4673 63.3739 73.0724 63.8171 72.7912C64.2631 72.5099 64.7816 72.3693 65.3725 72.3693C65.9634 72.3693 66.4805 72.5099 66.9237 72.7912C67.3697 73.0724 67.7163 73.4673 67.9634 73.9759C68.2134 74.4844 68.3384 75.0795 68.3384 75.7614C68.3384 76.4375 68.2134 77.0284 67.9634 77.5341C67.7163 78.0398 67.3697 78.4332 66.9237 78.7145C66.4805 78.9957 65.9634 79.1364 65.3725 79.1364ZM65.3725 78.233C65.8214 78.233 66.1907 78.1179 66.4805 77.8878C66.7702 77.6577 66.9847 77.3551 67.1239 76.9801C67.2631 76.6051 67.3327 76.1989 67.3327 75.7614C67.3327 75.3239 67.2631 74.9162 67.1239 74.5384C66.9847 74.1605 66.7702 73.8551 66.4805 73.6222C66.1907 73.3892 65.8214 73.2727 65.3725 73.2727C64.9237 73.2727 64.5543 73.3892 64.2646 73.6222C63.9748 73.8551 63.7603 74.1605 63.6211 74.5384C63.4819 74.9162 63.4123 75.3239 63.4123 75.7614C63.4123 76.1989 63.4819 76.6051 63.6211 76.9801C63.7603 77.3551 63.9748 77.6577 64.2646 77.8878C64.5543 78.1179 64.9237 78.233 65.3725 78.233ZM15.5795 93.1364C14.9659 93.1364 14.4375 92.9915 13.9943 92.7017C13.5511 92.4119 13.2102 92.0128 12.9716 91.5043C12.733 90.9957 12.6136 90.4148 12.6136 89.7614C12.6136 89.0966 12.7358 88.5099 12.9801 88.0014C13.2273 87.4901 13.571 87.0909 14.0114 86.804C14.4545 86.5142 14.9716 86.3693 15.5625 86.3693C16.0227 86.3693 16.4375 86.4545 16.8068 86.625C17.1761 86.7955 17.4787 87.0341 17.7145 87.3409C17.9503 87.6477 18.0966 88.0057 18.1534 88.4148H17.1477C17.071 88.1165 16.9006 87.8523 16.6364 87.6222C16.375 87.3892 16.0227 87.2727 15.5795 87.2727C15.1875 87.2727 14.8438 87.375 14.5483 87.5795C14.2557 87.7812 14.027 88.0668 13.8622 88.4361C13.7003 88.8026 13.6193 89.233 13.6193 89.7273C13.6193 90.233 13.6989 90.6733 13.858 91.0483C14.0199 91.4233 14.2472 91.7145 14.5398 91.9219C14.8352 92.1293 15.1818 92.233 15.5795 92.233C15.8409 92.233 16.0781 92.1875 16.2912 92.0966C16.5043 92.0057 16.6847 91.875 16.8324 91.7045C16.9801 91.5341 17.0852 91.3295 17.1477 91.0909H18.1534C18.0966 91.4773 17.956 91.8253 17.7315 92.1349C17.5099 92.4418 17.2159 92.6861 16.8494 92.8679C16.4858 93.0469 16.0625 93.1364 15.5795 93.1364ZM22.2827 93.1364C21.6918 93.1364 21.1733 92.9957 20.7273 92.7145C20.2841 92.4332 19.9375 92.0398 19.6875 91.5341C19.4403 91.0284 19.3168 90.4375 19.3168 89.7614C19.3168 89.0795 19.4403 88.4844 19.6875 87.9759C19.9375 87.4673 20.2841 87.0724 20.7273 86.7912C21.1733 86.5099 21.6918 86.3693 22.2827 86.3693C22.8736 86.3693 23.3906 86.5099 23.8338 86.7912C24.2798 87.0724 24.6264 87.4673 24.8736 87.9759C25.1236 88.4844 25.2486 89.0795 25.2486 89.7614C25.2486 90.4375 25.1236 91.0284 24.8736 91.5341C24.6264 92.0398 24.2798 92.4332 23.8338 92.7145C23.3906 92.9957 22.8736 93.1364 22.2827 93.1364ZM22.2827 92.233C22.7315 92.233 23.1009 92.1179 23.3906 91.8878C23.6804 91.6577 23.8949 91.3551 24.0341 90.9801C24.1733 90.6051 24.2429 90.1989 24.2429 89.7614C24.2429 89.3239 24.1733 88.9162 24.0341 88.5384C23.8949 88.1605 23.6804 87.8551 23.3906 87.6222C23.1009 87.3892 22.7315 87.2727 22.2827 87.2727C21.8338 87.2727 21.4645 87.3892 21.1747 87.6222C20.8849 87.8551 20.6705 88.1605 20.5312 88.5384C20.392 88.9162 20.3224 89.3239 20.3224 89.7614C20.3224 90.1989 20.392 90.6051 20.5312 90.9801C20.6705 91.3551 20.8849 91.6577 21.1747 91.8878C21.4645 92.1179 21.8338 92.233 22.2827 92.233ZM25.9283 87.392V86.4545H31.2464V87.392H29.0987V93H28.093V87.392H25.9283ZM32.7134 95.4545V86.4545H33.685V87.4943H33.8043C33.8782 87.3807 33.9805 87.2358 34.1112 87.0597C34.2447 86.8807 34.435 86.7216 34.6822 86.5824C34.9322 86.4403 35.2702 86.3693 35.6964 86.3693C36.2475 86.3693 36.7333 86.5071 37.1538 86.7827C37.5742 87.0582 37.9023 87.4489 38.1381 87.9545C38.3739 88.4602 38.4918 89.0568 38.4918 89.7443C38.4918 90.4375 38.3739 91.0384 38.1381 91.5469C37.9023 92.0526 37.5756 92.4446 37.158 92.723C36.7404 92.9986 36.2589 93.1364 35.7134 93.1364C35.293 93.1364 34.9563 93.0668 34.7035 92.9276C34.4506 92.7855 34.256 92.625 34.1197 92.446C33.9833 92.2642 33.8782 92.1136 33.8043 91.9943H33.7191V95.4545H32.7134ZM33.7021 89.7273C33.7021 90.2216 33.7745 90.6577 33.9194 91.0355C34.0643 91.4105 34.2759 91.7045 34.5543 91.9176C34.8327 92.1278 35.1737 92.233 35.5771 92.233C35.9975 92.233 36.3484 92.1222 36.6296 91.9006C36.9137 91.6761 37.1268 91.375 37.2688 90.9972C37.4137 90.6165 37.4862 90.1932 37.4862 89.7273C37.4862 89.267 37.4151 88.8523 37.2731 88.483C37.1339 88.1108 36.9222 87.8168 36.6381 87.6009C36.3569 87.3821 36.0032 87.2727 35.5771 87.2727C35.168 87.2727 34.8242 87.3764 34.5458 87.5838C34.2674 87.7884 34.0572 88.0753 33.9151 88.4446C33.7731 88.8111 33.7021 89.2386 33.7021 89.7273ZM40.4393 95.4545C40.2688 95.4545 40.1168 95.4403 39.9833 95.4119C39.8498 95.3864 39.7575 95.3608 39.7063 95.3352L39.962 94.4489C40.2063 94.5114 40.4222 94.5341 40.6097 94.517C40.7972 94.5 40.9634 94.4162 41.1083 94.2656C41.256 94.1179 41.391 93.8778 41.5131 93.5455L41.7006 93.0341L39.2802 86.4545H40.3711L42.1779 91.6705H42.2461L44.0529 86.4545H45.1438L42.3654 93.9545C42.2404 94.2926 42.0856 94.5724 41.9009 94.794C41.7163 95.0185 41.5018 95.1847 41.2575 95.2926C41.016 95.4006 40.7433 95.4545 40.4393 95.4545ZM45.2216 94.875V92.0625H45.767C45.9006 91.9233 46.0156 91.7727 46.1122 91.6108C46.2088 91.4489 46.2926 91.2571 46.3636 91.0355C46.4375 90.8111 46.5 90.5384 46.5511 90.2173C46.6023 89.8935 46.6477 89.5028 46.6875 89.0455L46.9091 86.4545H51.0682V92.0625H52.0739V94.875H51.0682V93H46.2273V94.875H45.2216ZM46.9091 92.0625H50.0625V87.392H47.8466L47.6761 89.0455C47.6051 89.7301 47.517 90.3281 47.4119 90.8395C47.3068 91.3509 47.1392 91.7585 46.9091 92.0625ZM57.7894 89.267V90.2045H54.1758V89.267H57.7894ZM54.4144 86.4545V93H53.4087V86.4545H54.4144ZM58.5565 86.4545V93H57.5508V86.4545H58.5565ZM61.3988 91.517L64.5522 86.4545H65.7113V93H64.7056V87.9375L61.5692 93H60.3931V86.4545H61.3988V91.517ZM67.5533 93V86.4545H68.5589V89.3011H69.2237L71.576 86.4545H72.8714L70.2294 89.608L72.9055 93H71.6101L69.4624 90.2386H68.5589V93H67.5533ZM75.9247 93.1534C75.5099 93.1534 75.1335 93.0753 74.7955 92.919C74.4574 92.7599 74.1889 92.5312 73.9901 92.233C73.7912 91.9318 73.6918 91.5682 73.6918 91.142C73.6918 90.767 73.7656 90.4631 73.9134 90.2301C74.0611 89.9943 74.2585 89.8097 74.5057 89.6761C74.7528 89.5426 75.0256 89.4432 75.3239 89.3778C75.625 89.3097 75.9276 89.2557 76.2315 89.2159C76.6293 89.1648 76.9517 89.1264 77.1989 89.1009C77.4489 89.0724 77.6307 89.0256 77.7443 88.9602C77.8608 88.8949 77.919 88.7812 77.919 88.6193V88.5852C77.919 88.1648 77.804 87.8381 77.5739 87.6051C77.3466 87.3722 77.0014 87.2557 76.5384 87.2557C76.0582 87.2557 75.6818 87.3608 75.4091 87.571C75.1364 87.7812 74.9446 88.0057 74.8338 88.2443L73.8793 87.9034C74.0497 87.5057 74.277 87.196 74.5611 86.9744C74.848 86.75 75.1605 86.5937 75.4986 86.5057C75.8395 86.4148 76.1747 86.3693 76.5043 86.3693C76.7145 86.3693 76.956 86.3949 77.2287 86.446C77.5043 86.4943 77.7699 86.5952 78.0256 86.7486C78.2841 86.902 78.4986 87.1335 78.669 87.4432C78.8395 87.7528 78.9247 88.1676 78.9247 88.6875V93H77.919V92.1136H77.8679C77.7997 92.2557 77.6861 92.4077 77.527 92.5696C77.3679 92.7315 77.1563 92.8693 76.892 92.983C76.6278 93.0966 76.3054 93.1534 75.9247 93.1534ZM76.0781 92.25C76.4759 92.25 76.8111 92.1719 77.0838 92.0156C77.3594 91.8594 77.5668 91.6577 77.706 91.4105C77.848 91.1634 77.919 90.9034 77.919 90.6307V89.7102C77.8764 89.7614 77.7827 89.8082 77.6378 89.8509C77.4957 89.8906 77.331 89.9261 77.1435 89.9574C76.9588 89.9858 76.7784 90.0114 76.6023 90.0341C76.429 90.054 76.2884 90.071 76.1804 90.0852C75.919 90.1193 75.6747 90.1747 75.4474 90.2514C75.223 90.3253 75.0412 90.4375 74.902 90.5881C74.7656 90.7358 74.6974 90.9375 74.6974 91.1932C74.6974 91.5426 74.8267 91.8068 75.0852 91.9858C75.3466 92.1619 75.6776 92.25 76.0781 92.25ZM12.9205 107V100.455H15.5966C16.3011 100.455 16.8608 100.614 17.2756 100.932C17.6903 101.25 17.8977 101.67 17.8977 102.193C17.8977 102.591 17.7798 102.899 17.544 103.118C17.3082 103.334 17.0057 103.48 16.6364 103.557C16.8778 103.591 17.1122 103.676 17.3395 103.812C17.5696 103.949 17.7599 104.136 17.9105 104.375C18.0611 104.611 18.1364 104.901 18.1364 105.244C18.1364 105.58 18.0511 105.879 17.8807 106.143C17.7102 106.408 17.4659 106.616 17.1477 106.77C16.8295 106.923 16.4489 107 16.0057 107H12.9205ZM13.875 106.08H16.0057C16.3523 106.08 16.6236 105.997 16.8196 105.832C17.0156 105.668 17.1136 105.443 17.1136 105.159C17.1136 104.821 17.0156 104.555 16.8196 104.362C16.6236 104.166 16.3523 104.068 16.0057 104.068H13.875V106.08ZM13.875 103.199H15.5966C15.8665 103.199 16.098 103.162 16.2912 103.088C16.4844 103.011 16.6321 102.903 16.7344 102.764C16.8395 102.622 16.892 102.455 16.892 102.261C16.892 101.986 16.777 101.77 16.5469 101.614C16.3168 101.455 16 101.375 15.5966 101.375H13.875V103.199ZM23.0337 107V100.455H28.1815V107H27.1758V101.392H24.0394V107H23.0337ZM30.0181 109.455V100.455H30.9897V101.494H31.109C31.1829 101.381 31.2852 101.236 31.4158 101.06C31.5494 100.881 31.7397 100.722 31.9869 100.582C32.2369 100.44 32.5749 100.369 33.0011 100.369C33.5522 100.369 34.038 100.507 34.4585 100.783C34.8789 101.058 35.207 101.449 35.4428 101.955C35.6786 102.46 35.7965 103.057 35.7965 103.744C35.7965 104.438 35.6786 105.038 35.4428 105.547C35.207 106.053 34.8803 106.445 34.4627 106.723C34.0451 106.999 33.5636 107.136 33.0181 107.136C32.5977 107.136 32.261 107.067 32.0082 106.928C31.7553 106.786 31.5607 106.625 31.4244 106.446C31.288 106.264 31.1829 106.114 31.109 105.994H31.0238V109.455H30.0181ZM31.0067 103.727C31.0067 104.222 31.0792 104.658 31.2241 105.036C31.369 105.411 31.5806 105.705 31.859 105.918C32.1374 106.128 32.4783 106.233 32.8817 106.233C33.3022 106.233 33.6531 106.122 33.9343 105.901C34.2184 105.676 34.4315 105.375 34.5735 104.997C34.7184 104.616 34.7908 104.193 34.7908 103.727C34.7908 103.267 34.7198 102.852 34.5778 102.483C34.4386 102.111 34.2269 101.817 33.9428 101.601C33.6616 101.382 33.3079 101.273 32.8817 101.273C32.4727 101.273 32.1289 101.376 31.8505 101.584C31.5721 101.788 31.3619 102.075 31.2198 102.445C31.0778 102.811 31.0067 103.239 31.0067 103.727ZM39.9897 107.136C39.3988 107.136 38.8803 106.996 38.4343 106.714C37.9911 106.433 37.6445 106.04 37.3945 105.534C37.1474 105.028 37.0238 104.437 37.0238 103.761C37.0238 103.08 37.1474 102.484 37.3945 101.976C37.6445 101.467 37.9911 101.072 38.4343 100.791C38.8803 100.51 39.3988 100.369 39.9897 100.369C40.5806 100.369 41.0977 100.51 41.5408 100.791C41.9869 101.072 42.3335 101.467 42.5806 101.976C42.8306 102.484 42.9556 103.08 42.9556 103.761C42.9556 104.437 42.8306 105.028 42.5806 105.534C42.3335 106.04 41.9869 106.433 41.5408 106.714C41.0977 106.996 40.5806 107.136 39.9897 107.136ZM39.9897 106.233C40.4386 106.233 40.8079 106.118 41.0977 105.888C41.3874 105.658 41.6019 105.355 41.7411 104.98C41.8803 104.605 41.9499 104.199 41.9499 103.761C41.9499 103.324 41.8803 102.916 41.7411 102.538C41.6019 102.161 41.3874 101.855 41.0977 101.622C40.8079 101.389 40.4386 101.273 39.9897 101.273C39.5408 101.273 39.1715 101.389 38.8817 101.622C38.592 101.855 38.3775 102.161 38.2383 102.538C38.0991 102.916 38.0295 103.324 38.0295 103.761C38.0295 104.199 38.0991 104.605 38.2383 104.98C38.3775 105.355 38.592 105.658 38.8817 105.888C39.1715 106.118 39.5408 106.233 39.9897 106.233ZM47.2351 107.136C46.6044 107.136 46.0604 106.997 45.603 106.719C45.1484 106.438 44.7976 106.045 44.5504 105.543C44.3061 105.037 44.1839 104.449 44.1839 103.778C44.1839 103.108 44.3061 102.517 44.5504 102.006C44.7976 101.491 45.1413 101.091 45.5817 100.804C46.0249 100.514 46.5419 100.369 47.1328 100.369C47.4737 100.369 47.8104 100.426 48.1428 100.54C48.4751 100.653 48.7777 100.838 49.0504 101.094C49.3232 101.347 49.5405 101.682 49.7024 102.099C49.8643 102.517 49.9453 103.031 49.9453 103.642V104.068H44.8999V103.199H48.9226C48.9226 102.83 48.8487 102.5 48.701 102.21C48.5561 101.92 48.3487 101.692 48.0788 101.524C47.8118 101.357 47.4964 101.273 47.1328 101.273C46.7322 101.273 46.3857 101.372 46.093 101.571C45.8033 101.767 45.5803 102.023 45.424 102.338C45.2678 102.653 45.1896 102.991 45.1896 103.352V103.932C45.1896 104.426 45.2749 104.845 45.4453 105.189C45.6186 105.53 45.8587 105.79 46.1655 105.969C46.4723 106.145 46.8288 106.233 47.2351 106.233C47.4993 106.233 47.7379 106.196 47.951 106.122C48.1669 106.045 48.353 105.932 48.5092 105.781C48.6655 105.628 48.7862 105.437 48.8714 105.21L49.843 105.483C49.7408 105.812 49.5689 106.102 49.3274 106.352C49.0859 106.599 48.7876 106.793 48.4325 106.932C48.0774 107.068 47.6783 107.136 47.2351 107.136ZM51.4751 107V100.455H52.4808V103.301H53.1456L55.4979 100.455H56.7933L54.1513 103.608L56.8274 107H55.532L53.3842 104.239H52.4808V107H51.4751ZM57.5455 101.392V100.455H62.8636V101.392H60.7159V107H59.7102V101.392H57.5455Z" fill="#343434"/>
</svg>
