<svg width="144" height="150" viewBox="0 0 144 150" fill="none" xmlns="http://www.w3.org/2000/svg">
<mask id="path-1-inside-1_1251_1841" fill="white">
<path d="M0 12C0 5.37258 5.37258 0 12 0H132C138.627 0 144 5.37258 144 12V138C144 144.627 138.627 150 132 150H12C5.37258 150 0 144.627 0 138V12Z"/>
</mask>
<path d="M-2 8C-2 0.268014 4.26801 -6 12 -6H132C139.732 -6 146 0.268014 146 8L142 12C142 8.68629 137.523 6 132 6H12C6.47715 6 2 8.68629 2 12L-2 8ZM146 138C146 145.732 139.732 152 132 152H12C4.26801 152 -2 145.732 -2 138H2C2 143.523 6.47715 148 12 148H132C137.523 148 142 143.523 142 138H146ZM12 152C4.26801 152 -2 145.732 -2 138V8C-2 0.268014 4.26801 -6 12 -6V6C6.47715 6 2 8.68629 2 12V138C2 143.523 6.47715 148 12 148V152ZM132 -6C139.732 -6 146 0.268014 146 8V138C146 145.732 139.732 152 132 152V148C137.523 148 142 143.523 142 138V12C142 8.68629 137.523 6 132 6V-6Z" fill="#93D56F" mask="url(#path-1-inside-1_1251_1841)"/>
<path d="M21.0252 25.7354H19.2987C19.2494 25.4523 19.1586 25.2015 19.0263 24.983C18.8939 24.7614 18.7293 24.5736 18.5323 24.4197C18.3353 24.2659 18.1107 24.1504 17.8583 24.0735C17.609 23.9935 17.3397 23.9535 17.0504 23.9535C16.5365 23.9535 16.081 24.0827 15.6839 24.3413C15.2869 24.5967 14.9761 24.9722 14.7514 25.4677C14.5268 25.9601 14.4144 26.5618 14.4144 27.2727C14.4144 27.996 14.5268 28.6054 14.7514 29.1009C14.9792 29.5933 15.29 29.9657 15.6839 30.218C16.081 30.4673 16.5349 30.592 17.0458 30.592C17.329 30.592 17.5936 30.555 17.8398 30.4812C18.0891 30.4042 18.3123 30.2919 18.5092 30.1442C18.7093 29.9964 18.877 29.8149 19.0124 29.5994C19.1509 29.384 19.2463 29.1378 19.2987 28.8608L21.0252 28.87C20.9606 29.3194 20.8205 29.741 20.6051 30.1349C20.3928 30.5289 20.1142 30.8767 19.7695 31.1783C19.4248 31.4768 19.0217 31.7107 18.56 31.88C18.0984 32.0462 17.5859 32.1293 17.0227 32.1293C16.1918 32.1293 15.45 31.9369 14.7976 31.5522C14.1451 31.1675 13.6312 30.612 13.2557 29.8857C12.8802 29.1593 12.6925 28.2884 12.6925 27.2727C12.6925 26.254 12.8817 25.383 13.2603 24.6598C13.6388 23.9335 14.1544 23.378 14.8068 22.9933C15.4593 22.6085 16.1979 22.4162 17.0227 22.4162C17.549 22.4162 18.0384 22.4901 18.4908 22.6378C18.9432 22.7855 19.3464 23.0025 19.7003 23.2887C20.0542 23.5719 20.3451 23.9196 20.5728 24.332C20.8036 24.7414 20.9544 25.2092 21.0252 25.7354ZM25.6128 32.1385C24.9204 32.1385 24.3202 31.9862 23.8124 31.6815C23.3046 31.3768 22.9107 30.9505 22.6306 30.4027C22.3536 29.8549 22.2151 29.2147 22.2151 28.4822C22.2151 27.7498 22.3536 27.1081 22.6306 26.5572C22.9107 26.0063 23.3046 25.5785 23.8124 25.2738C24.3202 24.9691 24.9204 24.8168 25.6128 24.8168C26.3053 24.8168 26.9055 24.9691 27.4133 25.2738C27.9211 25.5785 28.3135 26.0063 28.5905 26.5572C28.8705 27.1081 29.0106 27.7498 29.0106 28.4822C29.0106 29.2147 28.8705 29.8549 28.5905 30.4027C28.3135 30.9505 27.9211 31.3768 27.4133 31.6815C26.9055 31.9862 26.3053 32.1385 25.6128 32.1385ZM25.6221 30.7997C25.9975 30.7997 26.3115 30.6966 26.5638 30.4904C26.8162 30.2811 27.0039 30.0011 27.127 29.6502C27.2532 29.2994 27.3163 28.9085 27.3163 28.4776C27.3163 28.0437 27.2532 27.6513 27.127 27.3004C27.0039 26.9465 26.8162 26.6649 26.5638 26.4556C26.3115 26.2463 25.9975 26.1417 25.6221 26.1417C25.2374 26.1417 24.9173 26.2463 24.6618 26.4556C24.4095 26.6649 24.2202 26.9465 24.094 27.3004C23.9709 27.6513 23.9094 28.0437 23.9094 28.4776C23.9094 28.9085 23.9709 29.2994 24.094 29.6502C24.2202 30.0011 24.4095 30.2811 24.6618 30.4904C24.9173 30.6966 25.2374 30.7997 25.6221 30.7997ZM32.0401 29.7379L34.8793 24.9091H36.5966V32H34.9808V27.1665L32.1509 32H30.429V24.9091H32.0401V29.7379ZM41.4058 32.1385C40.6979 32.1385 40.0901 31.9831 39.5823 31.6722C39.0776 31.3614 38.6882 30.9321 38.4143 30.3842C38.1435 29.8333 38.0081 29.1993 38.0081 28.4822C38.0081 27.7621 38.1466 27.1265 38.4236 26.5756C38.7006 26.0217 39.0914 25.5908 39.5961 25.283C40.104 24.9722 40.7041 24.8168 41.3966 24.8168C41.9721 24.8168 42.4814 24.9229 42.9246 25.1353C43.3709 25.3446 43.7264 25.6416 43.991 26.0263C44.2557 26.4079 44.4065 26.8542 44.4434 27.3651H42.8461C42.7815 27.0234 42.6276 26.7388 42.3845 26.511C42.1444 26.2802 41.8228 26.1648 41.4197 26.1648C41.078 26.1648 40.778 26.2571 40.5194 26.4418C40.2609 26.6233 40.0593 26.8849 39.9147 27.2266C39.7731 27.5682 39.7023 27.9775 39.7023 28.4545C39.7023 28.9377 39.7731 29.3532 39.9147 29.701C40.0563 30.0457 40.2548 30.3119 40.5102 30.4996C40.7687 30.6843 41.0719 30.7766 41.4197 30.7766C41.6659 30.7766 41.8859 30.7305 42.0798 30.6381C42.2768 30.5427 42.4414 30.4058 42.5738 30.2273C42.7061 30.0488 42.7969 29.8318 42.8461 29.5763H44.4434C44.4034 30.078 44.2557 30.5227 44.0003 30.9105C43.7448 31.2952 43.397 31.5968 42.9569 31.8153C42.5168 32.0308 41.9998 32.1385 41.4058 32.1385ZM45.8157 32V24.9091H47.4869V27.7713H48.0962L50.229 24.9091H52.2418L49.6151 28.3899L52.2695 32H50.2475L48.304 29.3271H47.4869V32H45.8157ZM55.2575 32.1431C54.8082 32.1431 54.4035 32.0631 54.0434 31.9031C53.6864 31.7399 53.4033 31.4999 53.194 31.1829C52.9878 30.8659 52.8847 30.475 52.8847 30.0103C52.8847 29.6102 52.9585 29.2794 53.1063 29.0178C53.254 28.7562 53.4556 28.5469 53.711 28.3899C53.9665 28.233 54.2542 28.1145 54.5743 28.0344C54.8975 27.9513 55.2314 27.8913 55.5761 27.8544C55.9916 27.8113 56.3286 27.7728 56.5871 27.739C56.8456 27.7021 57.0334 27.6467 57.1503 27.5728C57.2703 27.4959 57.3303 27.3774 57.3303 27.2173V27.1896C57.3303 26.8419 57.2272 26.5726 57.021 26.3817C56.8148 26.1909 56.5178 26.0955 56.1301 26.0955C55.7207 26.0955 55.396 26.1848 55.156 26.3633C54.919 26.5418 54.759 26.7526 54.6759 26.9957L53.1155 26.7741C53.2386 26.3433 53.4417 25.9832 53.7249 25.6939C54.008 25.4015 54.3543 25.183 54.7636 25.0384C55.1729 24.8906 55.6253 24.8168 56.1208 24.8168C56.4624 24.8168 56.8025 24.8568 57.1411 24.9368C57.4796 25.0168 57.7889 25.1491 58.069 25.3338C58.349 25.5154 58.5737 25.7631 58.743 26.0771C58.9153 26.391 59.0015 26.7834 59.0015 27.2543V32H57.395V31.0259H57.3396C57.238 31.2229 57.0949 31.4076 56.9102 31.5799C56.7287 31.7492 56.4994 31.8861 56.2224 31.9908C55.9485 32.0923 55.6269 32.1431 55.2575 32.1431ZM55.6915 30.9151C56.027 30.9151 56.3178 30.849 56.564 30.7166C56.8102 30.5812 56.9995 30.4027 57.1318 30.1811C57.2673 29.9595 57.335 29.7179 57.335 29.4563V28.6207C57.2826 28.6638 57.1934 28.7038 57.0672 28.7408C56.9441 28.7777 56.8056 28.81 56.6517 28.8377C56.4978 28.8654 56.3455 28.89 56.1947 28.9116C56.0439 28.9331 55.9131 28.9516 55.8023 28.967C55.553 29.0008 55.3299 29.0562 55.1329 29.1332C54.9359 29.2101 54.7805 29.3178 54.6666 29.4563C54.5528 29.5917 54.4958 29.7672 54.4958 29.9826C54.4958 30.2904 54.6082 30.5227 54.8328 30.6797C55.0575 30.8366 55.3437 30.9151 55.6915 30.9151ZM59.8879 26.2802V24.9091H66.0924V26.2802H63.798V32H62.1823V26.2802H59.8879ZM70.2703 32.1385C69.5594 32.1385 68.9454 31.9908 68.4284 31.6953C67.9144 31.3968 67.5189 30.9751 67.2419 30.4304C66.9649 29.8826 66.8264 29.2378 66.8264 28.4961C66.8264 27.7667 66.9649 27.1265 67.2419 26.5756C67.522 26.0217 67.9128 25.5908 68.4145 25.283C68.9162 24.9722 69.5055 24.8168 70.1826 24.8168C70.6196 24.8168 71.032 24.8875 71.4198 25.0291C71.8107 25.1676 72.1554 25.383 72.4539 25.6754C72.7555 25.9678 72.9925 26.3402 73.1649 26.7926C73.3372 27.242 73.4234 27.7775 73.4234 28.3991V28.9116H67.6112V27.7852H71.8215C71.8184 27.4651 71.7491 27.1804 71.6137 26.9311C71.4783 26.6787 71.289 26.4802 71.0459 26.3356C70.8058 26.1909 70.5258 26.1186 70.2057 26.1186C69.8641 26.1186 69.564 26.2017 69.3055 26.3679C69.047 26.531 68.8454 26.7464 68.7007 27.0142C68.5592 27.2789 68.4868 27.5697 68.4838 27.8867V28.87C68.4838 29.2824 68.5592 29.6364 68.71 29.9318C68.8608 30.2242 69.0716 30.4489 69.3424 30.6058C69.6133 30.7597 69.9302 30.8366 70.2934 30.8366C70.5365 30.8366 70.7566 30.8028 70.9536 30.7351C71.1505 30.6643 71.3213 30.5612 71.466 30.4258C71.6106 30.2904 71.7199 30.1226 71.7938 29.9226L73.3541 30.098C73.2557 30.5104 73.0679 30.8705 72.7909 31.1783C72.517 31.483 72.1662 31.7199 71.7384 31.8892C71.3106 32.0554 70.8212 32.1385 70.2703 32.1385ZM74.3478 32L74.3386 30.6243H74.5833C74.7679 30.6243 74.9234 30.5827 75.0495 30.4996C75.1757 30.4165 75.2804 30.2781 75.3635 30.0842C75.4466 29.8872 75.5112 29.6225 75.5574 29.2901C75.6035 28.9577 75.6358 28.5438 75.6543 28.0483L75.7789 24.9091H80.9494V32H79.3336V26.2802H77.2978L77.187 28.5653C77.1593 29.1562 77.0931 29.6687 76.9885 30.1026C76.8869 30.5335 76.7422 30.889 76.5545 31.169C76.3699 31.4491 76.1375 31.6584 75.8574 31.7969C75.5774 31.9323 75.2465 32 74.8649 32H74.3478ZM86.8239 32V26.2663H85.3097C84.925 26.2663 84.6295 26.3556 84.4233 26.5341C84.2171 26.7126 84.1155 26.9342 84.1186 27.1989C84.1155 27.4635 84.2125 27.6821 84.4094 27.8544C84.6064 28.0268 84.888 28.1129 85.2543 28.1129H87.3501V29.3317H85.2543C84.688 29.3317 84.1986 29.2424 83.7862 29.0639C83.3738 28.8854 83.0568 28.633 82.8352 28.3068C82.6136 27.9806 82.5028 27.599 82.5028 27.1619C82.5028 26.7064 82.6152 26.311 82.8398 25.9755C83.0676 25.637 83.3907 25.3754 83.8093 25.1907C84.2309 25.003 84.7311 24.9091 85.3097 24.9091H88.3888V32H86.8239ZM82.2443 32L84.2248 28.3622H85.8729L83.8878 32H82.2443ZM94.1525 30.0565L96.2576 24.9091H97.6056L94.7388 32H93.5708L90.7686 24.9091H92.1028L94.1525 30.0565ZM91.6827 24.9091V32H90.0716V24.9091H91.6827ZM96.6916 32V24.9091H98.2889V32H96.6916Z" fill="#343434"/>
<path d="M17.5795 52.233V41.2727H18.5852V52.233H17.5795ZM17.5795 50.1364C17.1364 50.1364 16.733 50.0568 16.3693 49.8977C16.0057 49.7358 15.6932 49.5071 15.4318 49.2116C15.1705 48.9134 14.9688 48.5568 14.8267 48.142C14.6847 47.7273 14.6136 47.267 14.6136 46.7614C14.6136 46.25 14.6847 45.7869 14.8267 45.3722C14.9688 44.9545 15.1705 44.5966 15.4318 44.2983C15.6932 44 16.0057 43.7713 16.3693 43.6122C16.733 43.4503 17.1364 43.3693 17.5795 43.3693H17.8864V50.1364H17.5795ZM17.5795 49.233H17.75V44.2727H17.5795C17.2443 44.2727 16.9531 44.3409 16.706 44.4773C16.4588 44.6108 16.2543 44.794 16.0923 45.027C15.9332 45.2571 15.8139 45.5213 15.7344 45.8196C15.6577 46.1179 15.6193 46.4318 15.6193 46.7614C15.6193 47.1989 15.6889 47.6051 15.8281 47.9801C15.9673 48.3551 16.1818 48.6577 16.4716 48.8878C16.7614 49.1179 17.1307 49.233 17.5795 49.233ZM18.5852 50.1364H18.2784V43.3693H18.5852C19.0284 43.3693 19.4318 43.4503 19.7955 43.6122C20.1591 43.7713 20.4716 44 20.733 44.2983C20.9943 44.5966 21.196 44.9545 21.3381 45.3722C21.4801 45.7869 21.5511 46.25 21.5511 46.7614C21.5511 47.267 21.4801 47.7273 21.3381 48.142C21.196 48.5568 20.9943 48.9134 20.733 49.2116C20.4716 49.5071 20.1591 49.7358 19.7955 49.8977C19.4318 50.0568 19.0284 50.1364 18.5852 50.1364ZM18.5852 49.233C18.9233 49.233 19.2145 49.1676 19.4588 49.0369C19.706 48.9034 19.9091 48.7216 20.0682 48.4915C20.2301 48.2585 20.3494 47.9943 20.4261 47.6989C20.5057 47.4006 20.5455 47.0881 20.5455 46.7614C20.5455 46.3239 20.4759 45.9162 20.3366 45.5384C20.1974 45.1605 19.983 44.8551 19.6932 44.6222C19.4034 44.3892 19.0341 44.2727 18.5852 44.2727H18.4148V49.233H18.5852ZM23.0884 52.4545V43.4545H24.06V44.4943H24.1793C24.2532 44.3807 24.3555 44.2358 24.4862 44.0597C24.6197 43.8807 24.81 43.7216 25.0572 43.5824C25.3072 43.4403 25.6452 43.3693 26.0714 43.3693C26.6225 43.3693 27.1083 43.5071 27.5288 43.7827C27.9492 44.0582 28.2773 44.4489 28.5131 44.9545C28.7489 45.4602 28.8668 46.0568 28.8668 46.7443C28.8668 47.4375 28.7489 48.0384 28.5131 48.5469C28.2773 49.0526 27.9506 49.4446 27.533 49.723C27.1154 49.9986 26.6339 50.1364 26.0884 50.1364C25.668 50.1364 25.3313 50.0668 25.0785 49.9276C24.8256 49.7855 24.631 49.625 24.4947 49.446C24.3583 49.2642 24.2532 49.1136 24.1793 48.9943H24.0941V52.4545H23.0884ZM24.0771 46.7273C24.0771 47.2216 24.1495 47.6577 24.2944 48.0355C24.4393 48.4105 24.6509 48.7045 24.9293 48.9176C25.2077 49.1278 25.5487 49.233 25.9521 49.233C26.3725 49.233 26.7234 49.1222 27.0046 48.9006C27.2887 48.6761 27.5018 48.375 27.6438 47.9972C27.7887 47.6165 27.8612 47.1932 27.8612 46.7273C27.8612 46.267 27.7901 45.8523 27.6481 45.483C27.5089 45.1108 27.2972 44.8168 27.0131 44.6009C26.7319 44.3821 26.3782 44.2727 25.9521 44.2727C25.543 44.2727 25.1992 44.3764 24.9208 44.5838C24.6424 44.7884 24.4322 45.0753 24.2901 45.4446C24.1481 45.8111 24.0771 46.2386 24.0771 46.7273ZM31.4066 48.517L34.56 43.4545H35.7191V50H34.7134V44.9375L31.5771 50H30.4009V43.4545H31.4066V48.517ZM36.9815 50V49.0625H37.2202C37.4162 49.0625 37.5795 49.0241 37.7102 48.9474C37.8409 48.8679 37.946 48.7301 38.0256 48.5341C38.108 48.3352 38.1705 48.0597 38.2131 47.7074C38.2585 47.3523 38.2912 46.9006 38.3111 46.3523L38.4304 43.4545H42.794V50H41.7884V44.392H39.3849L39.2827 46.7273C39.2599 47.2642 39.2116 47.7372 39.1378 48.1463C39.0668 48.5526 38.9574 48.8935 38.8097 49.169C38.6648 49.4446 38.4716 49.652 38.2301 49.7912C37.9886 49.9304 37.6861 50 37.3224 50H36.9815ZM46.5653 50.1534C46.1506 50.1534 45.7741 50.0753 45.4361 49.919C45.098 49.7599 44.8295 49.5312 44.6307 49.233C44.4318 48.9318 44.3324 48.5682 44.3324 48.142C44.3324 47.767 44.4063 47.4631 44.554 47.2301C44.7017 46.9943 44.8991 46.8097 45.1463 46.6761C45.3935 46.5426 45.6662 46.4432 45.9645 46.3778C46.2656 46.3097 46.5682 46.2557 46.8722 46.2159C47.2699 46.1648 47.5923 46.1264 47.8395 46.1009C48.0895 46.0724 48.2713 46.0256 48.3849 45.9602C48.5014 45.8949 48.5597 45.7812 48.5597 45.6193V45.5852C48.5597 45.1648 48.4446 44.8381 48.2145 44.6051C47.9872 44.3722 47.642 44.2557 47.179 44.2557C46.6989 44.2557 46.3224 44.3608 46.0497 44.571C45.777 44.7812 45.5852 45.0057 45.4744 45.2443L44.5199 44.9034C44.6903 44.5057 44.9176 44.196 45.2017 43.9744C45.4886 43.75 45.8011 43.5937 46.1392 43.5057C46.4801 43.4148 46.8153 43.3693 47.1449 43.3693C47.3551 43.3693 47.5966 43.3949 47.8693 43.446C48.1449 43.4943 48.4105 43.5952 48.6662 43.7486C48.9247 43.902 49.1392 44.1335 49.3097 44.4432C49.4801 44.7528 49.5653 45.1676 49.5653 45.6875V50H48.5597V49.1136H48.5085C48.4403 49.2557 48.3267 49.4077 48.1676 49.5696C48.0085 49.7315 47.7969 49.8693 47.5327 49.983C47.2685 50.0966 46.946 50.1534 46.5653 50.1534ZM46.7188 49.25C47.1165 49.25 47.4517 49.1719 47.7244 49.0156C48 48.8594 48.2074 48.6577 48.3466 48.4105C48.4886 48.1634 48.5597 47.9034 48.5597 47.6307V46.7102C48.517 46.7614 48.4233 46.8082 48.2784 46.8509C48.1364 46.8906 47.9716 46.9261 47.7841 46.9574C47.5994 46.9858 47.419 47.0114 47.2429 47.0341C47.0696 47.054 46.929 47.071 46.821 47.0852C46.5597 47.1193 46.3153 47.1747 46.0881 47.2514C45.8636 47.3253 45.6818 47.4375 45.5426 47.5881C45.4063 47.7358 45.3381 47.9375 45.3381 48.1932C45.3381 48.5426 45.4673 48.8068 45.7259 48.9858C45.9872 49.1619 46.3182 49.25 46.7188 49.25ZM55.7816 46.267V47.2045H52.168V46.267H55.7816ZM52.4066 43.4545V50H51.4009V43.4545H52.4066ZM56.5487 43.4545V50H55.543V43.4545H56.5487ZM61.0444 50.1364C60.4308 50.1364 59.9023 49.9915 59.4592 49.7017C59.016 49.4119 58.6751 49.0128 58.4364 48.5043C58.1978 47.9957 58.0785 47.4148 58.0785 46.7614C58.0785 46.0966 58.2006 45.5099 58.445 45.0014C58.6921 44.4901 59.0359 44.0909 59.4762 43.804C59.9194 43.5142 60.4364 43.3693 61.0273 43.3693C61.4876 43.3693 61.9023 43.4545 62.2717 43.625C62.641 43.7955 62.9435 44.0341 63.1793 44.3409C63.4151 44.6477 63.5614 45.0057 63.6183 45.4148H62.6126C62.5359 45.1165 62.3654 44.8523 62.1012 44.6222C61.8398 44.3892 61.4876 44.2727 61.0444 44.2727C60.6523 44.2727 60.3086 44.375 60.0131 44.5795C59.7205 44.7812 59.4918 45.0668 59.3271 45.4361C59.1651 45.8026 59.0842 46.233 59.0842 46.7273C59.0842 47.233 59.1637 47.6733 59.3228 48.0483C59.4847 48.4233 59.712 48.7145 60.0046 48.9219C60.3001 49.1293 60.6467 49.233 61.0444 49.233C61.3058 49.233 61.543 49.1875 61.756 49.0966C61.9691 49.0057 62.1495 48.875 62.2972 48.7045C62.445 48.5341 62.5501 48.3295 62.6126 48.0909H63.6183C63.5614 48.4773 63.4208 48.8253 63.1964 49.1349C62.9748 49.4418 62.6808 49.6861 62.3143 49.8679C61.9506 50.0469 61.5273 50.1364 61.0444 50.1364ZM67.8327 50.1364C67.2021 50.1364 66.658 49.9972 66.2006 49.7188C65.7461 49.4375 65.3952 49.0455 65.1481 48.5426C64.9038 48.0369 64.7816 47.4489 64.7816 46.7784C64.7816 46.108 64.9038 45.517 65.1481 45.0057C65.3952 44.4915 65.739 44.0909 66.1793 43.804C66.6225 43.5142 67.1396 43.3693 67.7305 43.3693C68.0714 43.3693 68.408 43.4261 68.7404 43.5398C69.0728 43.6534 69.3754 43.8381 69.6481 44.0938C69.9208 44.3466 70.1381 44.6818 70.3001 45.0994C70.462 45.517 70.543 46.0312 70.543 46.642V47.0682H65.4975V46.1989H69.5202C69.5202 45.8295 69.4464 45.5 69.2987 45.2102C69.1538 44.9205 68.9464 44.6918 68.6765 44.5241C68.4094 44.3565 68.0941 44.2727 67.7305 44.2727C67.3299 44.2727 66.9833 44.3722 66.6907 44.571C66.4009 44.767 66.1779 45.0227 66.0217 45.3381C65.8654 45.6534 65.7873 45.9915 65.7873 46.3523V46.9318C65.7873 47.4261 65.8725 47.8452 66.043 48.1889C66.2163 48.5298 66.4563 48.7898 66.7631 48.9688C67.07 49.1449 67.4265 49.233 67.8327 49.233C68.0969 49.233 68.3356 49.196 68.5487 49.1222C68.7646 49.0455 68.9506 48.9318 69.1069 48.7812C69.2631 48.6278 69.3839 48.4375 69.4691 48.2102L70.4407 48.483C70.3384 48.8125 70.1665 49.1023 69.9251 49.3523C69.6836 49.5994 69.3853 49.7926 69.0302 49.9318C68.6751 50.0682 68.2759 50.1364 67.8327 50.1364ZM72.0728 52.4545V43.4545H73.0444V44.4943H73.1637C73.2376 44.3807 73.3398 44.2358 73.4705 44.0597C73.604 43.8807 73.7944 43.7216 74.0415 43.5824C74.2915 43.4403 74.6296 43.3693 75.0558 43.3693C75.6069 43.3693 76.0927 43.5071 76.5131 43.7827C76.9336 44.0582 77.2617 44.4489 77.4975 44.9545C77.7333 45.4602 77.8512 46.0568 77.8512 46.7443C77.8512 47.4375 77.7333 48.0384 77.4975 48.5469C77.2617 49.0526 76.935 49.4446 76.5174 49.723C76.0998 49.9986 75.6183 50.1364 75.0728 50.1364C74.6523 50.1364 74.3157 50.0668 74.0629 49.9276C73.81 49.7855 73.6154 49.625 73.479 49.446C73.3427 49.2642 73.2376 49.1136 73.1637 48.9943H73.0785V52.4545H72.0728ZM73.0614 46.7273C73.0614 47.2216 73.1339 47.6577 73.2788 48.0355C73.4237 48.4105 73.6353 48.7045 73.9137 48.9176C74.1921 49.1278 74.533 49.233 74.9364 49.233C75.3569 49.233 75.7077 49.1222 75.989 48.9006C76.2731 48.6761 76.4862 48.375 76.6282 47.9972C76.7731 47.6165 76.8455 47.1932 76.8455 46.7273C76.8455 46.267 76.7745 45.8523 76.6325 45.483C76.4933 45.1108 76.2816 44.8168 75.9975 44.6009C75.7163 44.3821 75.3626 44.2727 74.9364 44.2727C74.5273 44.2727 74.1836 44.3764 73.9052 44.5838C73.6268 44.7884 73.4165 45.0753 73.2745 45.4446C73.1325 45.8111 73.0614 46.2386 73.0614 46.7273ZM81.3114 50.1534C80.8967 50.1534 80.5202 50.0753 80.1822 49.919C79.8441 49.7599 79.5756 49.5312 79.3768 49.233C79.1779 48.9318 79.0785 48.5682 79.0785 48.142C79.0785 47.767 79.1523 47.4631 79.3001 47.2301C79.4478 46.9943 79.6452 46.8097 79.8924 46.6761C80.1396 46.5426 80.4123 46.4432 80.7106 46.3778C81.0117 46.3097 81.3143 46.2557 81.6183 46.2159C82.016 46.1648 82.3384 46.1264 82.5856 46.1009C82.8356 46.0724 83.0174 46.0256 83.131 45.9602C83.2475 45.8949 83.3058 45.7812 83.3058 45.6193V45.5852C83.3058 45.1648 83.1907 44.8381 82.9606 44.6051C82.7333 44.3722 82.3881 44.2557 81.9251 44.2557C81.445 44.2557 81.0685 44.3608 80.7958 44.571C80.5231 44.7812 80.3313 45.0057 80.2205 45.2443L79.266 44.9034C79.4364 44.5057 79.6637 44.196 79.9478 43.9744C80.2347 43.75 80.5472 43.5937 80.8853 43.5057C81.2262 43.4148 81.5614 43.3693 81.891 43.3693C82.1012 43.3693 82.3427 43.3949 82.6154 43.446C82.891 43.4943 83.1566 43.5952 83.4123 43.7486C83.6708 43.902 83.8853 44.1335 84.0558 44.4432C84.2262 44.7528 84.3114 45.1676 84.3114 45.6875V50H83.3058V49.1136H83.2546C83.1864 49.2557 83.0728 49.4077 82.9137 49.5696C82.7546 49.7315 82.543 49.8693 82.2788 49.983C82.0146 50.0966 81.6921 50.1534 81.3114 50.1534ZM81.4648 49.25C81.8626 49.25 82.1978 49.1719 82.4705 49.0156C82.7461 48.8594 82.9535 48.6577 83.0927 48.4105C83.2347 48.1634 83.3058 47.9034 83.3058 47.6307V46.7102C83.2631 46.7614 83.1694 46.8082 83.0245 46.8509C82.8825 46.8906 82.7177 46.9261 82.5302 46.9574C82.3455 46.9858 82.1651 47.0114 81.989 47.0341C81.8157 47.054 81.6751 47.071 81.5671 47.0852C81.3058 47.1193 81.0614 47.1747 80.8342 47.2514C80.6097 47.3253 80.4279 47.4375 80.2887 47.5881C80.1523 47.7358 80.0842 47.9375 80.0842 48.1932C80.0842 48.5426 80.2134 48.8068 80.4719 48.9858C80.7333 49.1619 81.0643 49.25 81.4648 49.25ZM89.7266 48.6364L92.0107 43.4545H92.9652L90.1357 50H89.3175L86.5391 43.4545H87.4766L89.7266 48.6364ZM87.1527 43.4545V50H86.147V43.4545H87.1527ZM92.3004 50V43.4545H93.3061V50H92.3004ZM96.647 48.8068L96.5788 49.267C96.5305 49.5909 96.4567 49.9375 96.3572 50.3068C96.2607 50.6761 96.1598 51.0241 96.0547 51.3509C95.9496 51.6776 95.8629 51.9375 95.7947 52.1307H95.0277C95.0646 51.9489 95.1129 51.7088 95.1726 51.4105C95.2322 51.1122 95.2919 50.7784 95.3516 50.4091C95.4141 50.0426 95.4652 49.6676 95.505 49.2841L95.5561 48.8068H96.647ZM18.5 61.6364L20.7841 56.4545H21.7386L18.9091 63H18.0909L15.3125 56.4545H16.25L18.5 61.6364ZM15.9261 56.4545V63H14.9205V56.4545H15.9261ZM21.0739 63V56.4545H22.0795V63H21.0739ZM25.8466 63.1534C25.4318 63.1534 25.0554 63.0753 24.7173 62.919C24.3793 62.7599 24.1108 62.5312 23.9119 62.233C23.7131 61.9318 23.6136 61.5682 23.6136 61.142C23.6136 60.767 23.6875 60.4631 23.8352 60.2301C23.983 59.9943 24.1804 59.8097 24.4276 59.6761C24.6747 59.5426 24.9474 59.4432 25.2457 59.3778C25.5469 59.3097 25.8494 59.2557 26.1534 59.2159C26.5511 59.1648 26.8736 59.1264 27.1207 59.1009C27.3707 59.0724 27.5526 59.0256 27.6662 58.9602C27.7827 58.8949 27.8409 58.7812 27.8409 58.6193V58.5852C27.8409 58.1648 27.7259 57.8381 27.4957 57.6051C27.2685 57.3722 26.9233 57.2557 26.4602 57.2557C25.9801 57.2557 25.6037 57.3608 25.331 57.571C25.0582 57.7812 24.8665 58.0057 24.7557 58.2443L23.8011 57.9034C23.9716 57.5057 24.1989 57.196 24.483 56.9744C24.7699 56.75 25.0824 56.5937 25.4205 56.5057C25.7614 56.4148 26.0966 56.3693 26.4261 56.3693C26.6364 56.3693 26.8778 56.3949 27.1506 56.446C27.4261 56.4943 27.6918 56.5952 27.9474 56.7486C28.206 56.902 28.4205 57.1335 28.5909 57.4432C28.7614 57.7528 28.8466 58.1676 28.8466 58.6875V63H27.8409V62.1136H27.7898C27.7216 62.2557 27.608 62.4077 27.4489 62.5696C27.2898 62.7315 27.0781 62.8693 26.8139 62.983C26.5497 63.0966 26.2273 63.1534 25.8466 63.1534ZM26 62.25C26.3977 62.25 26.733 62.1719 27.0057 62.0156C27.2813 61.8594 27.4886 61.6577 27.6278 61.4105C27.7699 61.1634 27.8409 60.9034 27.8409 60.6307V59.7102C27.7983 59.7614 27.7045 59.8082 27.5597 59.8509C27.4176 59.8906 27.2528 59.9261 27.0653 59.9574C26.8807 59.9858 26.7003 60.0114 26.5241 60.0341C26.3509 60.054 26.2102 60.071 26.1023 60.0852C25.8409 60.1193 25.5966 60.1747 25.3693 60.2514C25.1449 60.3253 24.9631 60.4375 24.8239 60.5881C24.6875 60.7358 24.6193 60.9375 24.6193 61.1932C24.6193 61.5426 24.7486 61.8068 25.0071 61.9858C25.2685 62.1619 25.5994 62.25 26 62.25ZM34.2617 61.6364L36.5458 56.4545H37.5004L34.6708 63H33.8526L31.0742 56.4545H32.0117L34.2617 61.6364ZM31.6879 56.4545V63H30.6822V56.4545H31.6879ZM36.8356 63V56.4545H37.8413V63H36.8356ZM41.6083 63.1534C41.1935 63.1534 40.8171 63.0753 40.479 62.919C40.141 62.7599 39.8725 62.5312 39.6737 62.233C39.4748 61.9318 39.3754 61.5682 39.3754 61.142C39.3754 60.767 39.4492 60.4631 39.5969 60.2301C39.7447 59.9943 39.9421 59.8097 40.1893 59.6761C40.4364 59.5426 40.7092 59.4432 41.0075 59.3778C41.3086 59.3097 41.6112 59.2557 41.9151 59.2159C42.3129 59.1648 42.6353 59.1264 42.8825 59.1009C43.1325 59.0724 43.3143 59.0256 43.4279 58.9602C43.5444 58.8949 43.6026 58.7812 43.6026 58.6193V58.5852C43.6026 58.1648 43.4876 57.8381 43.2575 57.6051C43.0302 57.3722 42.685 57.2557 42.2219 57.2557C41.7418 57.2557 41.3654 57.3608 41.0927 57.571C40.82 57.7812 40.6282 58.0057 40.5174 58.2443L39.5629 57.9034C39.7333 57.5057 39.9606 57.196 40.2447 56.9744C40.5316 56.75 40.8441 56.5937 41.1822 56.5057C41.5231 56.4148 41.8583 56.3693 42.1879 56.3693C42.3981 56.3693 42.6396 56.3949 42.9123 56.446C43.1879 56.4943 43.4535 56.5952 43.7092 56.7486C43.9677 56.902 44.1822 57.1335 44.3526 57.4432C44.5231 57.7528 44.6083 58.1676 44.6083 58.6875V63H43.6026V62.1136H43.5515C43.4833 62.2557 43.3697 62.4077 43.2106 62.5696C43.0515 62.7315 42.8398 62.8693 42.5756 62.983C42.3114 63.0966 41.989 63.1534 41.6083 63.1534ZM41.7617 62.25C42.1594 62.25 42.4947 62.1719 42.7674 62.0156C43.043 61.8594 43.2504 61.6577 43.3896 61.4105C43.5316 61.1634 43.6026 60.9034 43.6026 60.6307V59.7102C43.56 59.7614 43.4663 59.8082 43.3214 59.8509C43.1793 59.8906 43.0146 59.9261 42.8271 59.9574C42.6424 59.9858 42.462 60.0114 42.2859 60.0341C42.1126 60.054 41.9719 60.071 41.864 60.0852C41.6026 60.1193 41.3583 60.1747 41.131 60.2514C40.9066 60.3253 40.7248 60.4375 40.5856 60.5881C40.4492 60.7358 40.381 60.9375 40.381 61.1932C40.381 61.5426 40.5103 61.8068 40.7688 61.9858C41.0302 62.1619 41.3612 62.25 41.7617 62.25ZM50.0234 61.6364L52.3075 56.4545H53.2621L50.4325 63H49.6143L46.8359 56.4545H47.7734L50.0234 61.6364ZM47.4496 56.4545V63H46.4439V56.4545H47.4496ZM52.5973 63V56.4545H53.603V63H52.5973ZM58.8189 63V56.4545H61.495C62.1996 56.4545 62.7592 56.6136 63.174 56.9318C63.5888 57.25 63.7962 57.6705 63.7962 58.1932C63.7962 58.5909 63.6783 58.8991 63.4425 59.1179C63.2067 59.3338 62.9041 59.4801 62.5348 59.5568C62.7763 59.5909 63.0107 59.6761 63.2379 59.8125C63.468 59.9489 63.6584 60.1364 63.8089 60.375C63.9595 60.6108 64.0348 60.9006 64.0348 61.2443C64.0348 61.5795 63.9496 61.8793 63.7791 62.1435C63.6087 62.4077 63.3643 62.6165 63.0462 62.7699C62.728 62.9233 62.3473 63 61.9041 63H58.8189ZM59.7734 62.0795H61.9041C62.2507 62.0795 62.522 61.9972 62.718 61.8324C62.9141 61.6676 63.0121 61.4432 63.0121 61.1591C63.0121 60.821 62.9141 60.5554 62.718 60.3622C62.522 60.1662 62.2507 60.0682 61.9041 60.0682H59.7734V62.0795ZM59.7734 59.1989H61.495C61.7649 59.1989 61.9964 59.1619 62.1896 59.0881C62.3828 59.0114 62.5305 58.9034 62.6328 58.7642C62.7379 58.6222 62.7905 58.4545 62.7905 58.2614C62.7905 57.9858 62.6754 57.7699 62.4453 57.6136C62.2152 57.4545 61.8984 57.375 61.495 57.375H59.7734V59.1989ZM68.2333 64.875V62.0625H68.7788C68.9123 61.9233 69.0273 61.7727 69.1239 61.6108C69.2205 61.4489 69.3043 61.2571 69.3754 61.0355C69.4492 60.8111 69.5117 60.5384 69.5629 60.2173C69.614 59.8935 69.6594 59.5028 69.6992 59.0455L69.9208 56.4545H74.0799V62.0625H75.0856V64.875H74.0799V63H69.239V64.875H68.2333ZM69.9208 62.0625H73.0742V57.392H70.8583L70.6879 59.0455C70.6168 59.7301 70.5288 60.3281 70.4237 60.8395C70.3185 61.3509 70.1509 61.7585 69.9208 62.0625ZM79.1648 63.1364C78.5341 63.1364 77.9901 62.9972 77.5327 62.7188C77.0781 62.4375 76.7273 62.0455 76.4801 61.5426C76.2358 61.0369 76.1136 60.4489 76.1136 59.7784C76.1136 59.108 76.2358 58.517 76.4801 58.0057C76.7273 57.4915 77.071 57.0909 77.5114 56.804C77.9545 56.5142 78.4716 56.3693 79.0625 56.3693C79.4034 56.3693 79.7401 56.4261 80.0724 56.5398C80.4048 56.6534 80.7074 56.8381 80.9801 57.0938C81.2528 57.3466 81.4702 57.6818 81.6321 58.0994C81.794 58.517 81.875 59.0312 81.875 59.642V60.0682H76.8295V59.1989H80.8523C80.8523 58.8295 80.7784 58.5 80.6307 58.2102C80.4858 57.9205 80.2784 57.6918 80.0085 57.5241C79.7415 57.3565 79.4261 57.2727 79.0625 57.2727C78.6619 57.2727 78.3153 57.3722 78.0227 57.571C77.733 57.767 77.5099 58.0227 77.3537 58.3381C77.1974 58.6534 77.1193 58.9915 77.1193 59.3523V59.9318C77.1193 60.4261 77.2045 60.8452 77.375 61.1889C77.5483 61.5298 77.7884 61.7898 78.0952 61.9688C78.402 62.1449 78.7585 62.233 79.1648 62.233C79.429 62.233 79.6676 62.196 79.8807 62.1222C80.0966 62.0455 80.2827 61.9318 80.4389 61.7812C80.5952 61.6278 80.7159 61.4375 80.8011 61.2102L81.7727 61.483C81.6705 61.8125 81.4986 62.1023 81.2571 62.3523C81.0156 62.5994 80.7173 62.7926 80.3622 62.9318C80.0071 63.0682 79.608 63.1364 79.1648 63.1364ZM83.4048 63V56.4545H84.4105V59.3011H85.0753L87.4276 56.4545H88.723L86.081 59.608L88.7571 63H87.4616L85.3139 60.2386H84.4105V63H83.4048ZM89.8501 65.4545V56.4545H90.8217V57.4943H90.9411C91.0149 57.3807 91.1172 57.2358 91.2479 57.0597C91.3814 56.8807 91.5717 56.7216 91.8189 56.5824C92.0689 56.4403 92.407 56.3693 92.8331 56.3693C93.3842 56.3693 93.87 56.5071 94.2905 56.7827C94.7109 57.0582 95.0391 57.4489 95.2749 57.9545C95.5107 58.4602 95.6286 59.0568 95.6286 59.7443C95.6286 60.4375 95.5107 61.0384 95.2749 61.5469C95.0391 62.0526 94.7124 62.4446 94.2947 62.723C93.8771 62.9986 93.3956 63.1364 92.8501 63.1364C92.4297 63.1364 92.093 63.0668 91.8402 62.9276C91.5874 62.7855 91.3928 62.625 91.2564 62.446C91.12 62.2642 91.0149 62.1136 90.9411 61.9943H90.8558V65.4545H89.8501ZM90.8388 59.7273C90.8388 60.2216 90.9112 60.6577 91.0561 61.0355C91.201 61.4105 91.4126 61.7045 91.6911 61.9176C91.9695 62.1278 92.3104 62.233 92.7138 62.233C93.1342 62.233 93.4851 62.1222 93.7663 61.9006C94.0504 61.6761 94.2635 61.375 94.4055 60.9972C94.5504 60.6165 94.6229 60.1932 94.6229 59.7273C94.6229 59.267 94.5518 58.8523 94.4098 58.483C94.2706 58.1108 94.0589 57.8168 93.7749 57.6009C93.4936 57.3821 93.1399 57.2727 92.7138 57.2727C92.3047 57.2727 91.9609 57.3764 91.6825 57.5838C91.4041 57.7884 91.1939 58.0753 91.0518 58.4446C90.9098 58.8111 90.8388 59.2386 90.8388 59.7273ZM99.907 63.1364C99.2763 63.1364 98.7322 62.9972 98.2749 62.7188C97.8203 62.4375 97.4695 62.0455 97.2223 61.5426C96.978 61.0369 96.8558 60.4489 96.8558 59.7784C96.8558 59.108 96.978 58.517 97.2223 58.0057C97.4695 57.4915 97.8132 57.0909 98.2536 56.804C98.6967 56.5142 99.2138 56.3693 99.8047 56.3693C100.146 56.3693 100.482 56.4261 100.815 56.5398C101.147 56.6534 101.45 56.8381 101.722 57.0938C101.995 57.3466 102.212 57.6818 102.374 58.0994C102.536 58.517 102.617 59.0312 102.617 59.642V60.0682H97.5717V59.1989H101.594C101.594 58.8295 101.521 58.5 101.373 58.2102C101.228 57.9205 101.021 57.6918 100.751 57.5241C100.484 57.3565 100.168 57.2727 99.8047 57.2727C99.4041 57.2727 99.0575 57.3722 98.7649 57.571C98.4751 57.767 98.2521 58.0227 98.0959 58.3381C97.9396 58.6534 97.8615 58.9915 97.8615 59.3523V59.9318C97.8615 60.4261 97.9467 60.8452 98.1172 61.1889C98.2905 61.5298 98.5305 61.7898 98.8374 61.9688C99.1442 62.1449 99.5007 62.233 99.907 62.233C100.171 62.233 100.41 62.196 100.623 62.1222C100.839 62.0455 101.025 61.9318 101.181 61.7812C101.337 61.6278 101.458 61.4375 101.543 61.2102L102.515 61.483C102.413 61.8125 102.241 62.1023 101.999 62.3523C101.758 62.5994 101.46 62.7926 101.104 62.9318C100.749 63.0682 100.35 63.1364 99.907 63.1364ZM103.538 57.392V56.4545H108.856V57.392H106.708V63H105.702V57.392H103.538ZM112.727 63.1364C112.097 63.1364 111.553 62.9972 111.095 62.7188C110.641 62.4375 110.29 62.0455 110.043 61.5426C109.798 61.0369 109.676 60.4489 109.676 59.7784C109.676 59.108 109.798 58.517 110.043 58.0057C110.29 57.4915 110.634 57.0909 111.074 56.804C111.517 56.5142 112.034 56.3693 112.625 56.3693C112.966 56.3693 113.303 56.4261 113.635 56.5398C113.967 56.6534 114.27 56.8381 114.543 57.0938C114.815 57.3466 115.033 57.6818 115.195 58.0994C115.357 58.517 115.438 59.0312 115.438 59.642V60.0682H110.392V59.1989H114.415C114.415 58.8295 114.341 58.5 114.193 58.2102C114.048 57.9205 113.841 57.6918 113.571 57.5241C113.304 57.3565 112.989 57.2727 112.625 57.2727C112.224 57.2727 111.878 57.3722 111.585 57.571C111.295 57.767 111.072 58.0227 110.916 58.3381C110.76 58.6534 110.682 58.9915 110.682 59.3523V59.9318C110.682 60.4261 110.767 60.8452 110.938 61.1889C111.111 61.5298 111.351 61.7898 111.658 61.9688C111.964 62.1449 112.321 62.233 112.727 62.233C112.991 62.233 113.23 62.196 113.443 62.1222C113.659 62.0455 113.845 61.9318 114.001 61.7812C114.158 61.6278 114.278 61.4375 114.364 61.2102L115.335 61.483C115.233 61.8125 115.061 62.1023 114.82 62.3523C114.578 62.5994 114.28 62.7926 113.925 62.9318C113.57 63.0682 113.17 63.1364 112.727 63.1364ZM118.467 61.8068L118.399 62.267C118.351 62.5909 118.277 62.9375 118.178 63.3068C118.081 63.6761 117.98 64.0241 117.875 64.3509C117.77 64.6776 117.683 64.9375 117.615 65.1307H116.848C116.885 64.9489 116.933 64.7088 116.993 64.4105C117.053 64.1122 117.112 63.7784 117.172 63.4091C117.234 63.0426 117.286 62.6676 117.325 62.2841L117.376 61.8068H118.467ZM17.5795 76.1364C16.9659 76.1364 16.4375 75.9915 15.9943 75.7017C15.5511 75.4119 15.2102 75.0128 14.9716 74.5043C14.733 73.9957 14.6136 73.4148 14.6136 72.7614C14.6136 72.0966 14.7358 71.5099 14.9801 71.0014C15.2273 70.4901 15.571 70.0909 16.0114 69.804C16.4545 69.5142 16.9716 69.3693 17.5625 69.3693C18.0227 69.3693 18.4375 69.4545 18.8068 69.625C19.1761 69.7955 19.4787 70.0341 19.7145 70.3409C19.9503 70.6477 20.0966 71.0057 20.1534 71.4148H19.1477C19.071 71.1165 18.9006 70.8523 18.6364 70.6222C18.375 70.3892 18.0227 70.2727 17.5795 70.2727C17.1875 70.2727 16.8438 70.375 16.5483 70.5795C16.2557 70.7812 16.027 71.0668 15.8622 71.4361C15.7003 71.8026 15.6193 72.233 15.6193 72.7273C15.6193 73.233 15.6989 73.6733 15.858 74.0483C16.0199 74.4233 16.2472 74.7145 16.5398 74.9219C16.8352 75.1293 17.1818 75.233 17.5795 75.233C17.8409 75.233 18.0781 75.1875 18.2912 75.0966C18.5043 75.0057 18.6847 74.875 18.8324 74.7045C18.9801 74.5341 19.0852 74.3295 19.1477 74.0909H20.1534C20.0966 74.4773 19.956 74.8253 19.7315 75.1349C19.5099 75.4418 19.2159 75.6861 18.8494 75.8679C18.4858 76.0469 18.0625 76.1364 17.5795 76.1364ZM21.108 70.392V69.4545H26.4261V70.392H24.2784V76H23.2727V70.392H21.108ZM28.5408 78.4545C28.3704 78.4545 28.2184 78.4403 28.0849 78.4119C27.9513 78.3864 27.859 78.3608 27.8079 78.3352L28.0636 77.4489C28.3079 77.5114 28.5238 77.5341 28.7113 77.517C28.8988 77.5 29.065 77.4162 29.2099 77.2656C29.3576 77.1179 29.4925 76.8778 29.6147 76.5455L29.8022 76.0341L27.3817 69.4545H28.4727L30.2795 74.6705H30.3477L32.1545 69.4545H33.2454L30.467 76.9545C30.342 77.2926 30.1871 77.5724 30.0025 77.794C29.8178 78.0185 29.6033 78.1847 29.359 78.2926C29.1175 78.4006 28.8448 78.4545 28.5408 78.4545ZM33.3232 77.875V75.0625H33.8686C34.0021 74.9233 34.1172 74.7727 34.2138 74.6108C34.3104 74.4489 34.3942 74.2571 34.4652 74.0355C34.5391 73.8111 34.6016 73.5384 34.6527 73.2173C34.7038 72.8935 34.7493 72.5028 34.7891 72.0455L35.0107 69.4545H39.1697V75.0625H40.1754V77.875H39.1697V76H34.3288V77.875H33.3232ZM35.0107 75.0625H38.1641V70.392H35.9482L35.7777 72.0455C35.7067 72.7301 35.6186 73.3281 35.5135 73.8395C35.4084 74.3509 35.2408 74.7585 35.0107 75.0625ZM44.2546 76.1364C43.6239 76.1364 43.0799 75.9972 42.6225 75.7188C42.168 75.4375 41.8171 75.0455 41.57 74.5426C41.3256 74.0369 41.2035 73.4489 41.2035 72.7784C41.2035 72.108 41.3256 71.517 41.57 71.0057C41.8171 70.4915 42.1609 70.0909 42.6012 69.804C43.0444 69.5142 43.5614 69.3693 44.1523 69.3693C44.4933 69.3693 44.8299 69.4261 45.1623 69.5398C45.4947 69.6534 45.7972 69.8381 46.07 70.0938C46.3427 70.3466 46.56 70.6818 46.7219 71.0994C46.8839 71.517 46.9648 72.0312 46.9648 72.642V73.0682H41.9194V72.1989H45.9421C45.9421 71.8295 45.8683 71.5 45.7205 71.2102C45.5756 70.9205 45.3683 70.6918 45.0984 70.5241C44.8313 70.3565 44.516 70.2727 44.1523 70.2727C43.7518 70.2727 43.4052 70.3722 43.1126 70.571C42.8228 70.767 42.5998 71.0227 42.4435 71.3381C42.2873 71.6534 42.2092 71.9915 42.2092 72.3523V72.9318C42.2092 73.4261 42.2944 73.8452 42.4648 74.1889C42.6381 74.5298 42.8782 74.7898 43.185 74.9688C43.4918 75.1449 43.8484 75.233 44.2546 75.233C44.5188 75.233 44.7575 75.196 44.9705 75.1222C45.1864 75.0455 45.3725 74.9318 45.5288 74.7812C45.685 74.6278 45.8058 74.4375 45.891 74.2102L46.8626 74.483C46.7603 74.8125 46.5884 75.1023 46.3469 75.3523C46.1055 75.5994 45.8072 75.7926 45.4521 75.9318C45.0969 76.0682 44.6978 76.1364 44.2546 76.1364ZM52.8754 72.267V73.2045H49.2617V72.267H52.8754ZM49.5004 69.4545V76H48.4947V69.4545H49.5004ZM53.6424 69.4545V76H52.6367V69.4545H53.6424ZM54.5884 70.392V69.4545H59.9066V70.392H57.7589V76H56.7532V70.392H54.5884ZM62.9599 76.1534C62.5451 76.1534 62.1687 76.0753 61.8306 75.919C61.4925 75.7599 61.2241 75.5312 61.0252 75.233C60.8263 74.9318 60.7269 74.5682 60.7269 74.142C60.7269 73.767 60.8008 73.4631 60.9485 73.2301C61.0962 72.9943 61.2937 72.8097 61.5408 72.6761C61.788 72.5426 62.0607 72.4432 62.359 72.3778C62.6602 72.3097 62.9627 72.2557 63.2667 72.2159C63.6644 72.1648 63.9869 72.1264 64.234 72.1009C64.484 72.0724 64.6658 72.0256 64.7795 71.9602C64.896 71.8949 64.9542 71.7812 64.9542 71.6193V71.5852C64.9542 71.1648 64.8391 70.8381 64.609 70.6051C64.3817 70.3722 64.0366 70.2557 63.5735 70.2557C63.0934 70.2557 62.717 70.3608 62.4442 70.571C62.1715 70.7812 61.9798 71.0057 61.869 71.2443L60.9144 70.9034C61.0849 70.5057 61.3121 70.196 61.5962 69.9744C61.8832 69.75 62.1957 69.5937 62.5337 69.5057C62.8746 69.4148 63.2099 69.3693 63.5394 69.3693C63.7496 69.3693 63.9911 69.3949 64.2638 69.446C64.5394 69.4943 64.805 69.5952 65.0607 69.7486C65.3192 69.902 65.5337 70.1335 65.7042 70.4432C65.8746 70.7528 65.9599 71.1676 65.9599 71.6875V76H64.9542V75.1136H64.9031C64.8349 75.2557 64.7212 75.4077 64.5621 75.5696C64.4031 75.7315 64.1914 75.8693 63.9272 75.983C63.663 76.0966 63.3406 76.1534 62.9599 76.1534ZM63.1133 75.25C63.511 75.25 63.8462 75.1719 64.119 75.0156C64.3945 74.8594 64.6019 74.6577 64.7411 74.4105C64.8832 74.1634 64.9542 73.9034 64.9542 73.6307V72.7102C64.9116 72.7614 64.8178 72.8082 64.6729 72.8509C64.5309 72.8906 64.3661 72.9261 64.1786 72.9574C63.994 72.9858 63.8136 73.0114 63.6374 73.0341C63.4641 73.054 63.3235 73.071 63.2156 73.0852C62.9542 73.1193 62.7099 73.1747 62.4826 73.2514C62.2582 73.3253 62.0763 73.4375 61.9371 73.5881C61.8008 73.7358 61.7326 73.9375 61.7326 74.1932C61.7326 74.5426 61.8619 74.8068 62.1204 74.9858C62.3817 75.1619 62.7127 75.25 63.1133 75.25ZM71.375 74.6364L73.6591 69.4545H74.6136L71.7841 76H70.9659L68.1875 69.4545H69.125L71.375 74.6364ZM68.8011 69.4545V76H67.7955V69.4545H68.8011ZM73.9489 76V69.4545H74.9545V76H73.9489ZM78.2955 74.8068L78.2273 75.267C78.179 75.5909 78.1051 75.9375 78.0057 76.3068C77.9091 76.6761 77.8082 77.0241 77.7031 77.3509C77.598 77.6776 77.5114 77.9375 77.4432 78.1307H76.6761C76.7131 77.9489 76.7614 77.7088 76.821 77.4105C76.8807 77.1122 76.9403 76.7784 77 76.4091C77.0625 76.0426 77.1136 75.6676 77.1534 75.2841L77.2045 74.8068H78.2955ZM14.9205 89V82.4545H20.0682V89H19.0625V83.392H15.9261V89H14.9205ZM24.6491 89.1364C24.0185 89.1364 23.4744 88.9972 23.017 88.7188C22.5625 88.4375 22.2116 88.0455 21.9645 87.5426C21.7202 87.0369 21.598 86.4489 21.598 85.7784C21.598 85.108 21.7202 84.517 21.9645 84.0057C22.2116 83.4915 22.5554 83.0909 22.9957 82.804C23.4389 82.5142 23.956 82.3693 24.5469 82.3693C24.8878 82.3693 25.2244 82.4261 25.5568 82.5398C25.8892 82.6534 26.1918 82.8381 26.4645 83.0938C26.7372 83.3466 26.9545 83.6818 27.1165 84.0994C27.2784 84.517 27.3594 85.0312 27.3594 85.642V86.0682H22.3139V85.1989H26.3366C26.3366 84.8295 26.2628 84.5 26.1151 84.2102C25.9702 83.9205 25.7628 83.6918 25.4929 83.5241C25.2259 83.3565 24.9105 83.2727 24.5469 83.2727C24.1463 83.2727 23.7997 83.3722 23.5071 83.571C23.2173 83.767 22.9943 84.0227 22.8381 84.3381C22.6818 84.6534 22.6037 84.9915 22.6037 85.3523V85.9318C22.6037 86.4261 22.6889 86.8452 22.8594 87.1889C23.0327 87.5298 23.2727 87.7898 23.5795 87.9688C23.8864 88.1449 24.2429 88.233 24.6491 88.233C24.9134 88.233 25.152 88.196 25.3651 88.1222C25.581 88.0455 25.767 87.9318 25.9233 87.7812C26.0795 87.6278 26.2003 87.4375 26.2855 87.2102L27.2571 87.483C27.1548 87.8125 26.983 88.1023 26.7415 88.3523C26.5 88.5994 26.2017 88.7926 25.8466 88.9318C25.4915 89.0682 25.0923 89.1364 24.6491 89.1364ZM33.2699 85.267V86.2045H29.6562V85.267H33.2699ZM29.8949 82.4545V89H28.8892V82.4545H29.8949ZM34.0369 82.4545V89H33.0312V82.4545H34.0369ZM38.5327 89.1364C37.919 89.1364 37.3906 88.9915 36.9474 88.7017C36.5043 88.4119 36.1634 88.0128 35.9247 87.5043C35.6861 86.9957 35.5668 86.4148 35.5668 85.7614C35.5668 85.0966 35.6889 84.5099 35.9332 84.0014C36.1804 83.4901 36.5241 83.0909 36.9645 82.804C37.4077 82.5142 37.9247 82.3693 38.5156 82.3693C38.9759 82.3693 39.3906 82.4545 39.7599 82.625C40.1293 82.7955 40.4318 83.0341 40.6676 83.3409C40.9034 83.6477 41.0497 84.0057 41.1065 84.4148H40.1009C40.0241 84.1165 39.8537 83.8523 39.5895 83.6222C39.3281 83.3892 38.9759 83.2727 38.5327 83.2727C38.1406 83.2727 37.7969 83.375 37.5014 83.5795C37.2088 83.7812 36.9801 84.0668 36.8153 84.4361C36.6534 84.8026 36.5724 85.233 36.5724 85.7273C36.5724 86.233 36.652 86.6733 36.8111 87.0483C36.973 87.4233 37.2003 87.7145 37.4929 87.9219C37.7884 88.1293 38.1349 88.233 38.5327 88.233C38.794 88.233 39.0312 88.1875 39.2443 88.0966C39.4574 88.0057 39.6378 87.875 39.7855 87.7045C39.9332 87.5341 40.0384 87.3295 40.1009 87.0909H41.1065C41.0497 87.4773 40.9091 87.8253 40.6847 88.1349C40.4631 88.4418 40.169 88.6861 39.8026 88.8679C39.4389 89.0469 39.0156 89.1364 38.5327 89.1364ZM43.5824 87.517L46.7358 82.4545H47.8949V89H46.8892V83.9375L43.7528 89H42.5767V82.4545H43.5824V87.517ZM52.396 89.1364C51.805 89.1364 51.2866 88.9957 50.8406 88.7145C50.3974 88.4332 50.0508 88.0398 49.8008 87.5341C49.5536 87.0284 49.43 86.4375 49.43 85.7614C49.43 85.0795 49.5536 84.4844 49.8008 83.9759C50.0508 83.4673 50.3974 83.0724 50.8406 82.7912C51.2866 82.5099 51.805 82.3693 52.396 82.3693C52.9869 82.3693 53.5039 82.5099 53.9471 82.7912C54.3931 83.0724 54.7397 83.4673 54.9869 83.9759C55.2369 84.4844 55.3619 85.0795 55.3619 85.7614C55.3619 86.4375 55.2369 87.0284 54.9869 87.5341C54.7397 88.0398 54.3931 88.4332 53.9471 88.7145C53.5039 88.9957 52.9869 89.1364 52.396 89.1364ZM52.396 88.233C52.8448 88.233 53.2141 88.1179 53.5039 87.8878C53.7937 87.6577 54.0082 87.3551 54.1474 86.9801C54.2866 86.6051 54.3562 86.1989 54.3562 85.7614C54.3562 85.3239 54.2866 84.9162 54.1474 84.5384C54.0082 84.1605 53.7937 83.8551 53.5039 83.6222C53.2141 83.3892 52.8448 83.2727 52.396 83.2727C51.9471 83.2727 51.5778 83.3892 51.288 83.6222C50.9982 83.8551 50.7837 84.1605 50.6445 84.5384C50.5053 84.9162 50.4357 85.3239 50.4357 85.7614C50.4357 86.1989 50.5053 86.6051 50.6445 86.9801C50.7837 87.3551 50.9982 87.6577 51.288 87.8878C51.5778 88.1179 51.9471 88.233 52.396 88.233ZM61.2777 85.267V86.2045H57.6641V85.267H61.2777ZM57.9027 82.4545V89H56.897V82.4545H57.9027ZM62.0447 82.4545V89H61.0391V82.4545H62.0447ZM66.6257 89.1364C65.995 89.1364 65.451 88.9972 64.9936 88.7188C64.5391 88.4375 64.1882 88.0455 63.9411 87.5426C63.6967 87.0369 63.5746 86.4489 63.5746 85.7784C63.5746 85.108 63.6967 84.517 63.9411 84.0057C64.1882 83.4915 64.532 83.0909 64.9723 82.804C65.4155 82.5142 65.9325 82.3693 66.5234 82.3693C66.8643 82.3693 67.201 82.4261 67.5334 82.5398C67.8658 82.6534 68.1683 82.8381 68.4411 83.0938C68.7138 83.3466 68.9311 83.6818 69.093 84.0994C69.255 84.517 69.3359 85.0312 69.3359 85.642V86.0682H64.2905V85.1989H68.3132C68.3132 84.8295 68.2393 84.5 68.0916 84.2102C67.9467 83.9205 67.7393 83.6918 67.4695 83.5241C67.2024 83.3565 66.8871 83.2727 66.5234 83.2727C66.1229 83.2727 65.7763 83.3722 65.4837 83.571C65.1939 83.767 64.9709 84.0227 64.8146 84.3381C64.6584 84.6534 64.5803 84.9915 64.5803 85.3523V85.9318C64.5803 86.4261 64.6655 86.8452 64.8359 87.1889C65.0092 87.5298 65.2493 87.7898 65.5561 87.9688C65.8629 88.1449 66.2195 88.233 66.6257 88.233C66.8899 88.233 67.1286 88.196 67.3416 88.1222C67.5575 88.0455 67.7436 87.9318 67.8999 87.7812C68.0561 87.6278 68.1768 87.4375 68.2621 87.2102L69.2337 87.483C69.1314 87.8125 68.9595 88.1023 68.718 88.3523C68.4766 88.5994 68.1783 88.7926 67.8232 88.9318C67.468 89.0682 67.0689 89.1364 66.6257 89.1364ZM70.8658 91.4545V82.4545H71.8374V83.4943H71.9567C72.0305 83.3807 72.1328 83.2358 72.2635 83.0597C72.397 82.8807 72.5874 82.7216 72.8345 82.5824C73.0845 82.4403 73.4226 82.3693 73.8487 82.3693C74.3999 82.3693 74.8857 82.5071 75.3061 82.7827C75.7266 83.0582 76.0547 83.4489 76.2905 83.9545C76.5263 84.4602 76.6442 85.0568 76.6442 85.7443C76.6442 86.4375 76.5263 87.0384 76.2905 87.5469C76.0547 88.0526 75.728 88.4446 75.3104 88.723C74.8928 88.9986 74.4112 89.1364 73.8658 89.1364C73.4453 89.1364 73.1087 89.0668 72.8558 88.9276C72.603 88.7855 72.4084 88.625 72.272 88.446C72.1357 88.2642 72.0305 88.1136 71.9567 87.9943H71.8714V91.4545H70.8658ZM71.8544 85.7273C71.8544 86.2216 71.9268 86.6577 72.0717 87.0355C72.2166 87.4105 72.4283 87.7045 72.7067 87.9176C72.9851 88.1278 73.326 88.233 73.7294 88.233C74.1499 88.233 74.5007 88.1222 74.782 87.9006C75.0661 87.6761 75.2791 87.375 75.4212 86.9972C75.5661 86.6165 75.6385 86.1932 75.6385 85.7273C75.6385 85.267 75.5675 84.8523 75.4254 84.483C75.2862 84.1108 75.0746 83.8168 74.7905 83.6009C74.5092 83.3821 74.1555 83.2727 73.7294 83.2727C73.3203 83.2727 72.9766 83.3764 72.6982 83.5838C72.4197 83.7884 72.2095 84.0753 72.0675 84.4446C71.9254 84.8111 71.8544 85.2386 71.8544 85.7273ZM80.1044 89.1534C79.6896 89.1534 79.3132 89.0753 78.9751 88.919C78.6371 88.7599 78.3686 88.5312 78.1697 88.233C77.9709 87.9318 77.8714 87.5682 77.8714 87.142C77.8714 86.767 77.9453 86.4631 78.093 86.2301C78.2408 85.9943 78.4382 85.8097 78.6854 85.6761C78.9325 85.5426 79.2053 85.4432 79.5036 85.3778C79.8047 85.3097 80.1072 85.2557 80.4112 85.2159C80.8089 85.1648 81.1314 85.1264 81.3786 85.1009C81.6286 85.0724 81.8104 85.0256 81.924 84.9602C82.0405 84.8949 82.0987 84.7812 82.0987 84.6193V84.5852C82.0987 84.1648 81.9837 83.8381 81.7536 83.6051C81.5263 83.3722 81.1811 83.2557 80.718 83.2557C80.2379 83.2557 79.8615 83.3608 79.5888 83.571C79.3161 83.7812 79.1243 84.0057 79.0135 84.2443L78.0589 83.9034C78.2294 83.5057 78.4567 83.196 78.7408 82.9744C79.0277 82.75 79.3402 82.5937 79.6783 82.5057C80.0192 82.4148 80.3544 82.3693 80.6839 82.3693C80.8942 82.3693 81.1357 82.3949 81.4084 82.446C81.6839 82.4943 81.9496 82.5952 82.2053 82.7486C82.4638 82.902 82.6783 83.1335 82.8487 83.4432C83.0192 83.7528 83.1044 84.1676 83.1044 84.6875V89H82.0987V88.1136H82.0476C81.9794 88.2557 81.8658 88.4077 81.7067 88.5696C81.5476 88.7315 81.3359 88.8693 81.0717 88.983C80.8075 89.0966 80.4851 89.1534 80.1044 89.1534ZM80.2578 88.25C80.6555 88.25 80.9908 88.1719 81.2635 88.0156C81.5391 87.8594 81.7464 87.6577 81.8857 87.4105C82.0277 87.1634 82.0987 86.9034 82.0987 86.6307V85.7102C82.0561 85.7614 81.9624 85.8082 81.8175 85.8509C81.6754 85.8906 81.5107 85.9261 81.3232 85.9574C81.1385 85.9858 80.9581 86.0114 80.782 86.0341C80.6087 86.054 80.468 86.071 80.3601 86.0852C80.0987 86.1193 79.8544 86.1747 79.6271 86.2514C79.4027 86.3253 79.2209 86.4375 79.0817 86.5881C78.9453 86.7358 78.8771 86.9375 78.8771 87.1932C78.8771 87.5426 79.0064 87.8068 79.2649 87.9858C79.5263 88.1619 79.8572 88.25 80.2578 88.25ZM88.5195 87.6364L90.8036 82.4545H91.7582L88.9286 89H88.1104L85.332 82.4545H86.2695L88.5195 87.6364ZM85.9457 82.4545V89H84.94V82.4545H85.9457ZM91.0934 89V82.4545H92.0991V89H91.0934ZM95.44 87.8068L95.3718 88.267C95.3235 88.5909 95.2496 88.9375 95.1502 89.3068C95.0536 89.6761 94.9528 90.0241 94.8477 90.3509C94.7425 90.6776 94.6559 90.9375 94.5877 91.1307H93.8207C93.8576 90.9489 93.9059 90.7088 93.9656 90.4105C94.0252 90.1122 94.0849 89.7784 94.1445 89.4091C94.207 89.0426 94.2582 88.6676 94.2979 88.2841L94.3491 87.8068H95.44ZM14.3409 102V101.062H14.5795C14.7756 101.062 14.9389 101.024 15.0696 100.947C15.2003 100.868 15.3054 100.73 15.3849 100.534C15.4673 100.335 15.5298 100.06 15.5724 99.7074C15.6179 99.3523 15.6506 98.9006 15.6705 98.3523L15.7898 95.4545H20.1534V102H19.1477V96.392H16.7443L16.642 98.7273C16.6193 99.2642 16.571 99.7372 16.4972 100.146C16.4261 100.553 16.3168 100.893 16.169 101.169C16.0241 101.445 15.831 101.652 15.5895 101.791C15.348 101.93 15.0455 102 14.6818 102H14.3409ZM23.0043 100.517L26.1577 95.4545H27.3168V102H26.3111V96.9375L23.1747 102H21.9986V95.4545H23.0043V100.517ZM34.3065 95.4545V101.062H35.2269V104.114H34.2212V102H29.1587V95.4545H30.1644V101.062H33.3008V95.4545H34.3065ZM38.7021 102.153C38.2873 102.153 37.9109 102.075 37.5728 101.919C37.2347 101.76 36.9663 101.531 36.7674 101.233C36.5685 100.932 36.4691 100.568 36.4691 100.142C36.4691 99.767 36.543 99.4631 36.6907 99.2301C36.8384 98.9943 37.0359 98.8097 37.283 98.6761C37.5302 98.5426 37.8029 98.4432 38.1012 98.3778C38.4023 98.3097 38.7049 98.2557 39.0089 98.2159C39.4066 98.1648 39.729 98.1264 39.9762 98.1009C40.2262 98.0724 40.408 98.0256 40.5217 97.9602C40.6381 97.8949 40.6964 97.7812 40.6964 97.6193V97.5852C40.6964 97.1648 40.5813 96.8381 40.3512 96.6051C40.1239 96.3722 39.7788 96.2557 39.3157 96.2557C38.8356 96.2557 38.4592 96.3608 38.1864 96.571C37.9137 96.7812 37.7219 97.0057 37.6112 97.2443L36.6566 96.9034C36.8271 96.5057 37.0543 96.196 37.3384 95.9744C37.6254 95.75 37.9379 95.5937 38.2759 95.5057C38.6168 95.4148 38.9521 95.3693 39.2816 95.3693C39.4918 95.3693 39.7333 95.3949 40.006 95.446C40.2816 95.4943 40.5472 95.5952 40.8029 95.7486C41.0614 95.902 41.2759 96.1335 41.4464 96.4432C41.6168 96.7528 41.7021 97.1676 41.7021 97.6875V102H40.6964V101.114H40.6452C40.5771 101.256 40.4634 101.408 40.3043 101.57C40.1452 101.732 39.9336 101.869 39.6694 101.983C39.4052 102.097 39.0827 102.153 38.7021 102.153ZM38.8555 101.25C39.2532 101.25 39.5884 101.172 39.8612 101.016C40.1367 100.859 40.3441 100.658 40.4833 100.411C40.6254 100.163 40.6964 99.9034 40.6964 99.6307V98.7102C40.6538 98.7614 40.56 98.8082 40.4151 98.8509C40.2731 98.8906 40.1083 98.9261 39.9208 98.9574C39.7362 98.9858 39.5558 99.0114 39.3796 99.0341C39.2063 99.054 39.0657 99.071 38.9577 99.0852C38.6964 99.1193 38.4521 99.1747 38.2248 99.2514C38.0004 99.3253 37.8185 99.4375 37.6793 99.5881C37.543 99.7358 37.4748 99.9375 37.4748 100.193C37.4748 100.543 37.604 100.807 37.8626 100.986C38.1239 101.162 38.4549 101.25 38.8555 101.25ZM47.1172 100.636L49.4013 95.4545H50.3558L47.5263 102H46.7081L43.9297 95.4545H44.8672L47.1172 100.636ZM44.5433 95.4545V102H43.5376V95.4545H44.5433ZM49.6911 102V95.4545H50.6967V102H49.6911ZM17.5795 115.136C16.9659 115.136 16.4375 114.991 15.9943 114.702C15.5511 114.412 15.2102 114.013 14.9716 113.504C14.733 112.996 14.6136 112.415 14.6136 111.761C14.6136 111.097 14.7358 110.51 14.9801 110.001C15.2273 109.49 15.571 109.091 16.0114 108.804C16.4545 108.514 16.9716 108.369 17.5625 108.369C18.0227 108.369 18.4375 108.455 18.8068 108.625C19.1761 108.795 19.4787 109.034 19.7145 109.341C19.9503 109.648 20.0966 110.006 20.1534 110.415H19.1477C19.071 110.116 18.9006 109.852 18.6364 109.622C18.375 109.389 18.0227 109.273 17.5795 109.273C17.1875 109.273 16.8438 109.375 16.5483 109.58C16.2557 109.781 16.027 110.067 15.8622 110.436C15.7003 110.803 15.6193 111.233 15.6193 111.727C15.6193 112.233 15.6989 112.673 15.858 113.048C16.0199 113.423 16.2472 113.714 16.5398 113.922C16.8352 114.129 17.1818 114.233 17.5795 114.233C17.8409 114.233 18.0781 114.188 18.2912 114.097C18.5043 114.006 18.6847 113.875 18.8324 113.705C18.9801 113.534 19.0852 113.33 19.1477 113.091H20.1534C20.0966 113.477 19.956 113.825 19.7315 114.135C19.5099 114.442 19.2159 114.686 18.8494 114.868C18.4858 115.047 18.0625 115.136 17.5795 115.136ZM27.6577 115.136C27.0668 115.136 26.5483 114.996 26.1023 114.714C25.6591 114.433 25.3125 114.04 25.0625 113.534C24.8153 113.028 24.6918 112.437 24.6918 111.761C24.6918 111.08 24.8153 110.484 25.0625 109.976C25.3125 109.467 25.6591 109.072 26.1023 108.791C26.5483 108.51 27.0668 108.369 27.6577 108.369C28.2486 108.369 28.7656 108.51 29.2088 108.791C29.6548 109.072 30.0014 109.467 30.2486 109.976C30.4986 110.484 30.6236 111.08 30.6236 111.761C30.6236 112.437 30.4986 113.028 30.2486 113.534C30.0014 114.04 29.6548 114.433 29.2088 114.714C28.7656 114.996 28.2486 115.136 27.6577 115.136ZM27.6577 114.233C28.1065 114.233 28.4759 114.118 28.7656 113.888C29.0554 113.658 29.2699 113.355 29.4091 112.98C29.5483 112.605 29.6179 112.199 29.6179 111.761C29.6179 111.324 29.5483 110.916 29.4091 110.538C29.2699 110.161 29.0554 109.855 28.7656 109.622C28.4759 109.389 28.1065 109.273 27.6577 109.273C27.2088 109.273 26.8395 109.389 26.5497 109.622C26.2599 109.855 26.0455 110.161 25.9062 110.538C25.767 110.916 25.6974 111.324 25.6974 111.761C25.6974 112.199 25.767 112.605 25.9062 112.98C26.0455 113.355 26.2599 113.658 26.5497 113.888C26.8395 114.118 27.2088 114.233 27.6577 114.233ZM36.1985 108.455V109.392H33.1644V115H32.1587V108.455H36.1985ZM37.6665 117.455V108.455H38.6381V109.494H38.7575C38.8313 109.381 38.9336 109.236 39.0643 109.06C39.1978 108.881 39.3881 108.722 39.6353 108.582C39.8853 108.44 40.2234 108.369 40.6495 108.369C41.2006 108.369 41.6864 108.507 42.1069 108.783C42.5273 109.058 42.8555 109.449 43.0913 109.955C43.3271 110.46 43.445 111.057 43.445 111.744C43.445 112.438 43.3271 113.038 43.0913 113.547C42.8555 114.053 42.5288 114.445 42.1112 114.723C41.6935 114.999 41.212 115.136 40.6665 115.136C40.2461 115.136 39.9094 115.067 39.6566 114.928C39.4038 114.786 39.2092 114.625 39.0728 114.446C38.9364 114.264 38.8313 114.114 38.7575 113.994H38.6722V117.455H37.6665ZM38.6552 111.727C38.6552 112.222 38.7276 112.658 38.8725 113.036C39.0174 113.411 39.229 113.705 39.5075 113.918C39.7859 114.128 40.1268 114.233 40.5302 114.233C40.9506 114.233 41.3015 114.122 41.5827 113.901C41.8668 113.676 42.0799 113.375 42.2219 112.997C42.3668 112.616 42.4393 112.193 42.4393 111.727C42.4393 111.267 42.3683 110.852 42.2262 110.483C42.087 110.111 41.8754 109.817 41.5913 109.601C41.31 109.382 40.9563 109.273 40.5302 109.273C40.1211 109.273 39.7773 109.376 39.4989 109.584C39.2205 109.788 39.0103 110.075 38.8683 110.445C38.7262 110.811 38.6552 111.239 38.6552 111.727ZM46.9052 115.153C46.4904 115.153 46.114 115.075 45.7759 114.919C45.4379 114.76 45.1694 114.531 44.9705 114.233C44.7717 113.932 44.6722 113.568 44.6722 113.142C44.6722 112.767 44.7461 112.463 44.8938 112.23C45.0415 111.994 45.239 111.81 45.4862 111.676C45.7333 111.543 46.006 111.443 46.3043 111.378C46.6055 111.31 46.908 111.256 47.212 111.216C47.6097 111.165 47.9322 111.126 48.1793 111.101C48.4293 111.072 48.6112 111.026 48.7248 110.96C48.8413 110.895 48.8995 110.781 48.8995 110.619V110.585C48.8995 110.165 48.7844 109.838 48.5543 109.605C48.3271 109.372 47.9819 109.256 47.5188 109.256C47.0387 109.256 46.6623 109.361 46.3896 109.571C46.1168 109.781 45.9251 110.006 45.8143 110.244L44.8597 109.903C45.0302 109.506 45.2575 109.196 45.5415 108.974C45.8285 108.75 46.141 108.594 46.479 108.506C46.82 108.415 47.1552 108.369 47.4847 108.369C47.695 108.369 47.9364 108.395 48.2092 108.446C48.4847 108.494 48.7504 108.595 49.006 108.749C49.2646 108.902 49.479 109.134 49.6495 109.443C49.82 109.753 49.9052 110.168 49.9052 110.688V115H48.8995V114.114H48.8484C48.7802 114.256 48.6665 114.408 48.5075 114.57C48.3484 114.732 48.1367 114.869 47.8725 114.983C47.6083 115.097 47.2859 115.153 46.9052 115.153ZM47.0586 114.25C47.4563 114.25 47.7915 114.172 48.0643 114.016C48.3398 113.859 48.5472 113.658 48.6864 113.411C48.8285 113.163 48.8995 112.903 48.8995 112.631V111.71C48.8569 111.761 48.7631 111.808 48.6183 111.851C48.4762 111.891 48.3114 111.926 48.1239 111.957C47.9393 111.986 47.7589 112.011 47.5827 112.034C47.4094 112.054 47.2688 112.071 47.1609 112.085C46.8995 112.119 46.6552 112.175 46.4279 112.251C46.2035 112.325 46.0217 112.437 45.8825 112.588C45.7461 112.736 45.6779 112.937 45.6779 113.193C45.6779 113.543 45.8072 113.807 46.0657 113.986C46.3271 114.162 46.658 114.25 47.0586 114.25ZM56.1214 111.267V112.205H52.5078V111.267H56.1214ZM52.7464 108.455V115H51.7408V108.455H52.7464ZM56.8885 108.455V115H55.8828V108.455H56.8885ZM59.7308 113.517L62.8842 108.455H64.0433V115H63.0376V109.938L59.9013 115H58.7251V108.455H59.7308V113.517ZM70.9308 108.455V115H69.9251V108.455H70.9308ZM70.5387 111.574V112.511C70.3114 112.597 70.0856 112.672 69.8612 112.737C69.6367 112.8 69.4009 112.849 69.1538 112.886C68.9066 112.92 68.6353 112.938 68.3398 112.938C67.5984 112.938 67.0032 112.737 66.5543 112.337C66.1083 111.936 65.8853 111.335 65.8853 110.534V108.438H66.891V110.534C66.891 110.869 66.9549 111.145 67.0827 111.361C67.2106 111.577 67.3839 111.737 67.6026 111.842C67.8214 111.947 68.0671 112 68.3398 112C68.766 112 69.1509 111.962 69.4947 111.885C69.8413 111.805 70.1893 111.702 70.5387 111.574ZM75.5202 115.136C74.8896 115.136 74.3455 114.997 73.8881 114.719C73.4336 114.438 73.0827 114.045 72.8356 113.543C72.5913 113.037 72.4691 112.449 72.4691 111.778C72.4691 111.108 72.5913 110.517 72.8356 110.006C73.0827 109.491 73.4265 109.091 73.8668 108.804C74.31 108.514 74.8271 108.369 75.418 108.369C75.7589 108.369 76.0955 108.426 76.4279 108.54C76.7603 108.653 77.0629 108.838 77.3356 109.094C77.6083 109.347 77.8256 109.682 77.9876 110.099C78.1495 110.517 78.2305 111.031 78.2305 111.642V112.068H73.185V111.199H77.2077C77.2077 110.83 77.1339 110.5 76.9862 110.21C76.8413 109.92 76.6339 109.692 76.364 109.524C76.0969 109.357 75.7816 109.273 75.418 109.273C75.0174 109.273 74.6708 109.372 74.3782 109.571C74.0884 109.767 73.8654 110.023 73.7092 110.338C73.5529 110.653 73.4748 110.991 73.4748 111.352V111.932C73.4748 112.426 73.56 112.845 73.7305 113.189C73.9038 113.53 74.1438 113.79 74.4506 113.969C74.7575 114.145 75.114 114.233 75.5202 114.233C75.7844 114.233 76.0231 114.196 76.2362 114.122C76.4521 114.045 76.6381 113.932 76.7944 113.781C76.9506 113.628 77.0714 113.437 77.1566 113.21L78.1282 113.483C78.0259 113.812 77.854 114.102 77.6126 114.352C77.3711 114.599 77.0728 114.793 76.7177 114.932C76.3626 115.068 75.9634 115.136 75.5202 115.136ZM84.141 111.267V112.205H80.5273V111.267H84.141ZM80.766 108.455V115H79.7603V108.455H80.766ZM84.908 108.455V115H83.9023V108.455H84.908ZM91.1254 111.267V112.205H87.5117V111.267H91.1254ZM87.7504 108.455V115H86.7447V108.455H87.7504ZM91.8924 108.455V115H90.8867V108.455H91.8924ZM94.5984 110.824H96.4734C97.2404 110.824 97.8271 111.018 98.2333 111.408C98.6396 111.797 98.8427 112.29 98.8427 112.886C98.8427 113.278 98.7518 113.635 98.57 113.956C98.3881 114.274 98.1211 114.528 97.7688 114.719C97.4165 114.906 96.9847 115 96.4734 115H93.729V108.455H94.7347V114.062H96.4734C96.8711 114.062 97.1978 113.957 97.4535 113.747C97.7092 113.537 97.837 113.267 97.837 112.938C97.837 112.591 97.7092 112.308 97.4535 112.089C97.1978 111.871 96.8711 111.761 96.4734 111.761H94.5984V110.824ZM99.8825 115V108.455H100.888V115H99.8825ZM106.309 113.636L108.593 108.455H109.547L106.718 115H105.9L103.121 108.455H104.059L106.309 113.636ZM103.735 108.455V115H102.729V108.455H103.735ZM108.882 115V108.455H109.888V115H108.882ZM112.735 113.517L115.888 108.455H117.047V115H116.042V109.938L112.905 115H111.729V108.455H112.735V113.517ZM14.9205 128V121.455H17.5966C18.3011 121.455 18.8608 121.614 19.2756 121.932C19.6903 122.25 19.8977 122.67 19.8977 123.193C19.8977 123.591 19.7798 123.899 19.544 124.118C19.3082 124.334 19.0057 124.48 18.6364 124.557C18.8778 124.591 19.1122 124.676 19.3395 124.812C19.5696 124.949 19.7599 125.136 19.9105 125.375C20.0611 125.611 20.1364 125.901 20.1364 126.244C20.1364 126.58 20.0511 126.879 19.8807 127.143C19.7102 127.408 19.4659 127.616 19.1477 127.77C18.8295 127.923 18.4489 128 18.0057 128H14.9205ZM15.875 127.08H18.0057C18.3523 127.08 18.6236 126.997 18.8196 126.832C19.0156 126.668 19.1136 126.443 19.1136 126.159C19.1136 125.821 19.0156 125.555 18.8196 125.362C18.6236 125.166 18.3523 125.068 18.0057 125.068H15.875V127.08ZM15.875 124.199H17.5966C17.8665 124.199 18.098 124.162 18.2912 124.088C18.4844 124.011 18.6321 123.903 18.7344 123.764C18.8395 123.622 18.892 123.455 18.892 123.261C18.892 122.986 18.777 122.77 18.5469 122.614C18.3168 122.455 18 122.375 17.5966 122.375H15.875V124.199ZM24.3178 128.136C23.7269 128.136 23.2085 127.996 22.7624 127.714C22.3192 127.433 21.9727 127.04 21.7227 126.534C21.4755 126.028 21.3519 125.437 21.3519 124.761C21.3519 124.08 21.4755 123.484 21.7227 122.976C21.9727 122.467 22.3192 122.072 22.7624 121.791C23.2085 121.51 23.7269 121.369 24.3178 121.369C24.9087 121.369 25.4258 121.51 25.869 121.791C26.315 122.072 26.6616 122.467 26.9087 122.976C27.1587 123.484 27.2837 124.08 27.2837 124.761C27.2837 125.437 27.1587 126.028 26.9087 126.534C26.6616 127.04 26.315 127.433 25.869 127.714C25.4258 127.996 24.9087 128.136 24.3178 128.136ZM24.3178 127.233C24.7667 127.233 25.136 127.118 25.4258 126.888C25.7156 126.658 25.93 126.355 26.0692 125.98C26.2085 125.605 26.2781 125.199 26.2781 124.761C26.2781 124.324 26.2085 123.916 26.0692 123.538C25.93 123.161 25.7156 122.855 25.4258 122.622C25.136 122.389 24.7667 122.273 24.3178 122.273C23.869 122.273 23.4996 122.389 23.2099 122.622C22.9201 122.855 22.7056 123.161 22.5664 123.538C22.4272 123.916 22.3576 124.324 22.3576 124.761C22.3576 125.199 22.4272 125.605 22.5664 125.98C22.7056 126.355 22.9201 126.658 23.2099 126.888C23.4996 127.118 23.869 127.233 24.3178 127.233ZM28.4098 126.33H29.4837C29.5064 126.625 29.6399 126.849 29.8842 127.003C30.1314 127.156 30.4524 127.233 30.8473 127.233C31.2507 127.233 31.5959 127.151 31.8828 126.986C32.1697 126.818 32.3132 126.548 32.3132 126.176C32.3132 125.957 32.2592 125.767 32.1513 125.605C32.0433 125.44 31.8913 125.312 31.6953 125.222C31.4993 125.131 31.2678 125.085 31.0007 125.085H29.8757V124.182H31.0007C31.4013 124.182 31.6967 124.091 31.8871 123.909C32.0803 123.727 32.1768 123.5 32.1768 123.227C32.1768 122.935 32.0732 122.7 31.8658 122.524C31.6584 122.345 31.3643 122.256 30.9837 122.256C30.6001 122.256 30.2805 122.342 30.0249 122.516C29.7692 122.686 29.6342 122.906 29.62 123.176H28.5632C28.5746 122.824 28.6825 122.513 28.8871 122.243C29.0916 121.97 29.37 121.757 29.7223 121.604C30.0746 121.447 30.478 121.369 30.9325 121.369C31.3928 121.369 31.7919 121.45 32.13 121.612C32.4709 121.771 32.7337 121.989 32.9183 122.264C33.1058 122.537 33.1996 122.847 33.1996 123.193C33.1996 123.562 33.0959 123.861 32.8885 124.088C32.6811 124.315 32.4212 124.477 32.1087 124.574V124.642C32.3558 124.659 32.5703 124.739 32.7521 124.881C32.9368 125.02 33.0803 125.203 33.1825 125.43C33.2848 125.655 33.3359 125.903 33.3359 126.176C33.3359 126.574 33.2294 126.92 33.0163 127.216C32.8033 127.509 32.5107 127.736 32.1385 127.898C31.7663 128.057 31.3416 128.136 30.8643 128.136C30.4013 128.136 29.9865 128.061 29.62 127.911C29.2536 127.757 28.9624 127.545 28.7464 127.276C28.5334 127.003 28.4212 126.688 28.4098 126.33ZM38.3281 126.636L40.6122 121.455H41.5668L38.7372 128H37.919L35.1406 121.455H36.0781L38.3281 126.636ZM35.7543 121.455V128H34.7486V121.455H35.7543ZM40.902 128V121.455H41.9077V128H40.902ZM46.4077 128.136C45.8168 128.136 45.2983 127.996 44.8523 127.714C44.4091 127.433 44.0625 127.04 43.8125 126.534C43.5653 126.028 43.4418 125.437 43.4418 124.761C43.4418 124.08 43.5653 123.484 43.8125 122.976C44.0625 122.467 44.4091 122.072 44.8523 121.791C45.2983 121.51 45.8168 121.369 46.4077 121.369C46.9986 121.369 47.5156 121.51 47.9588 121.791C48.4048 122.072 48.7514 122.467 48.9986 122.976C49.2486 123.484 49.3736 124.08 49.3736 124.761C49.3736 125.437 49.2486 126.028 48.9986 126.534C48.7514 127.04 48.4048 127.433 47.9588 127.714C47.5156 127.996 46.9986 128.136 46.4077 128.136ZM46.4077 127.233C46.8565 127.233 47.2259 127.118 47.5156 126.888C47.8054 126.658 48.0199 126.355 48.1591 125.98C48.2983 125.605 48.3679 125.199 48.3679 124.761C48.3679 124.324 48.2983 123.916 48.1591 123.538C48.0199 123.161 47.8054 122.855 47.5156 122.622C47.2259 122.389 46.8565 122.273 46.4077 122.273C45.9588 122.273 45.5895 122.389 45.2997 122.622C45.0099 122.855 44.7955 123.161 44.6562 123.538C44.517 123.916 44.4474 124.324 44.4474 124.761C44.4474 125.199 44.517 125.605 44.6562 125.98C44.7955 126.355 45.0099 126.658 45.2997 126.888C45.5895 127.118 45.9588 127.233 46.4077 127.233ZM50.2301 128L52.8892 124.676L50.2642 121.455H51.4574L53.6392 124.25H54.1847V121.455H55.1903V124.25H55.7188L57.9006 121.455H59.0938L56.4858 124.676L59.1278 128H57.9176L55.7017 125.188H55.1903V128H54.1847V125.188H53.6733L51.4403 128H50.2301ZM64.9457 124.267V125.205H61.332V124.267H64.9457ZM61.5707 121.455V128H60.565V121.455H61.5707ZM65.7127 121.455V128H64.707V121.455H65.7127ZM70.2085 128.136C69.6175 128.136 69.0991 127.996 68.6531 127.714C68.2099 127.433 67.8633 127.04 67.6133 126.534C67.3661 126.028 67.2425 125.437 67.2425 124.761C67.2425 124.08 67.3661 123.484 67.6133 122.976C67.8633 122.467 68.2099 122.072 68.6531 121.791C69.0991 121.51 69.6175 121.369 70.2085 121.369C70.7994 121.369 71.3164 121.51 71.7596 121.791C72.2056 122.072 72.5522 122.467 72.7994 122.976C73.0494 123.484 73.1744 124.08 73.1744 124.761C73.1744 125.437 73.0494 126.028 72.7994 126.534C72.5522 127.04 72.2056 127.433 71.7596 127.714C71.3164 127.996 70.7994 128.136 70.2085 128.136ZM70.2085 127.233C70.6573 127.233 71.0266 127.118 71.3164 126.888C71.6062 126.658 71.8207 126.355 71.9599 125.98C72.0991 125.605 72.1687 125.199 72.1687 124.761C72.1687 124.324 72.0991 123.916 71.9599 123.538C71.8207 123.161 71.6062 122.855 71.3164 122.622C71.0266 122.389 70.6573 122.273 70.2085 122.273C69.7596 122.273 69.3903 122.389 69.1005 122.622C68.8107 122.855 68.5962 123.161 68.457 123.538C68.3178 123.916 68.2482 124.324 68.2482 124.761C68.2482 125.199 68.3178 125.605 68.457 125.98C68.5962 126.355 68.8107 126.658 69.1005 126.888C69.3903 127.118 69.7596 127.233 70.2085 127.233ZM77.3686 128.136C76.755 128.136 76.2266 127.991 75.7834 127.702C75.3402 127.412 74.9993 127.013 74.7607 126.504C74.522 125.996 74.4027 125.415 74.4027 124.761C74.4027 124.097 74.5249 123.51 74.7692 123.001C75.0163 122.49 75.3601 122.091 75.8004 121.804C76.2436 121.514 76.7607 121.369 77.3516 121.369C77.8118 121.369 78.2266 121.455 78.5959 121.625C78.9652 121.795 79.2678 122.034 79.5036 122.341C79.7393 122.648 79.8857 123.006 79.9425 123.415H78.9368C78.8601 123.116 78.6896 122.852 78.4254 122.622C78.1641 122.389 77.8118 122.273 77.3686 122.273C76.9766 122.273 76.6328 122.375 76.3374 122.58C76.0447 122.781 75.8161 123.067 75.6513 123.436C75.4893 123.803 75.4084 124.233 75.4084 124.727C75.4084 125.233 75.4879 125.673 75.647 126.048C75.8089 126.423 76.0362 126.714 76.3288 126.922C76.6243 127.129 76.9709 127.233 77.3686 127.233C77.63 127.233 77.8672 127.188 78.0803 127.097C78.2933 127.006 78.4737 126.875 78.6214 126.705C78.7692 126.534 78.8743 126.33 78.9368 126.091H79.9425C79.8857 126.477 79.745 126.825 79.5206 127.135C79.299 127.442 79.005 127.686 78.6385 127.868C78.2749 128.047 77.8516 128.136 77.3686 128.136ZM80.897 122.392V121.455H86.2152V122.392H84.0675V128H83.0618V122.392H80.897ZM91.6197 128V122.375H89.881C89.489 122.375 89.1808 122.466 88.9563 122.648C88.7319 122.83 88.6197 123.08 88.6197 123.398C88.6197 123.71 88.7205 123.956 88.9222 124.135C89.1268 124.314 89.4066 124.403 89.7617 124.403H91.8754V125.341H89.7617C89.3185 125.341 88.9364 125.263 88.6154 125.107C88.2944 124.95 88.0472 124.727 87.8739 124.438C87.7006 124.145 87.614 123.798 87.614 123.398C87.614 122.994 87.7049 122.648 87.8867 122.358C88.0685 122.068 88.3285 121.845 88.6665 121.689C89.0075 121.533 89.4123 121.455 89.881 121.455H92.5742V128H91.6197ZM87.256 128L89.114 124.744H90.2049L88.3469 128H87.256ZM98 126.636L100.284 121.455H101.239L98.4091 128H97.5909L94.8125 121.455H95.75L98 126.636ZM95.4261 121.455V128H94.4205V121.455H95.4261ZM100.574 128V121.455H101.58V128H100.574ZM104.426 126.517L107.58 121.455H108.739V128H107.733V122.938L104.597 128H103.42V121.455H104.426V126.517Z" fill="#343434"/>
</svg>
