<svg width="293" height="85" viewBox="0 0 293 85" fill="none" xmlns="http://www.w3.org/2000/svg">
<path d="M10.9432 4.14773H9.17045C9.10227 3.76894 8.97538 3.43561 8.78977 3.14773C8.60417 2.85985 8.37689 2.61553 8.10795 2.41477C7.83902 2.21401 7.53788 2.0625 7.20455 1.96023C6.875 1.85795 6.52462 1.80682 6.15341 1.80682C5.48295 1.80682 4.88258 1.97538 4.35227 2.3125C3.82576 2.64962 3.40909 3.14394 3.10227 3.79545C2.79924 4.44697 2.64773 5.24242 2.64773 6.18182C2.64773 7.12879 2.79924 7.92803 3.10227 8.57955C3.40909 9.23106 3.82765 9.72348 4.35795 10.0568C4.88826 10.3902 5.48485 10.5568 6.14773 10.5568C6.51515 10.5568 6.86364 10.5076 7.19318 10.4091C7.52652 10.3068 7.82765 10.1572 8.09659 9.96023C8.36553 9.76326 8.5928 9.52273 8.77841 9.23864C8.9678 8.95076 9.09848 8.62121 9.17045 8.25L10.9432 8.25568C10.8485 8.82765 10.6648 9.35417 10.392 9.83523C10.1231 10.3125 9.77652 10.7254 9.35227 11.0739C8.93182 11.4186 8.45076 11.6856 7.90909 11.875C7.36742 12.0644 6.77652 12.1591 6.13636 12.1591C5.12879 12.1591 4.23106 11.9205 3.44318 11.4432C2.6553 10.9621 2.03409 10.2746 1.57955 9.38068C1.12879 8.48674 0.903409 7.42045 0.903409 6.18182C0.903409 4.93939 1.13068 3.87311 1.58523 2.98295C2.03977 2.08901 2.66098 1.40341 3.44886 0.926136C4.23674 0.445075 5.13258 0.204545 6.13636 0.204545C6.75379 0.204545 7.32955 0.29356 7.86364 0.471591C8.40152 0.645833 8.88447 0.903409 9.3125 1.24432C9.74053 1.58144 10.0947 1.99432 10.375 2.48295C10.6553 2.9678 10.8447 3.52273 10.9432 4.14773ZM17.142 12V3.27273H24.2614V12H22.5966V4.73864H18.7955V12H17.142ZM30.2088 12.1761C29.3906 12.1761 28.6766 11.9886 28.0668 11.6136C27.4569 11.2386 26.9834 10.714 26.6463 10.0398C26.3092 9.36553 26.1406 8.57765 26.1406 7.67614C26.1406 6.77083 26.3092 5.97917 26.6463 5.30114C26.9834 4.62311 27.4569 4.09659 28.0668 3.72159C28.6766 3.34659 29.3906 3.15909 30.2088 3.15909C31.027 3.15909 31.741 3.34659 32.3509 3.72159C32.9607 4.09659 33.4342 4.62311 33.7713 5.30114C34.1084 5.97917 34.277 6.77083 34.277 7.67614C34.277 8.57765 34.1084 9.36553 33.7713 10.0398C33.4342 10.714 32.9607 11.2386 32.3509 11.6136C31.741 11.9886 31.027 12.1761 30.2088 12.1761ZM30.2145 10.75C30.7448 10.75 31.1842 10.6098 31.5327 10.3295C31.8812 10.0492 32.1387 9.67614 32.3054 9.21023C32.4759 8.74432 32.5611 8.23106 32.5611 7.67045C32.5611 7.11364 32.4759 6.60227 32.3054 6.13636C32.1387 5.66667 31.8812 5.28977 31.5327 5.00568C31.1842 4.72159 30.7448 4.57955 30.2145 4.57955C29.6804 4.57955 29.2372 4.72159 28.8849 5.00568C28.5365 5.28977 28.277 5.66667 28.1065 6.13636C27.9399 6.60227 27.8565 7.11364 27.8565 7.67045C27.8565 8.23106 27.9399 8.74432 28.1065 9.21023C28.277 9.67614 28.5365 10.0492 28.8849 10.3295C29.2372 10.6098 29.6804 10.75 30.2145 10.75ZM41.071 9.89773L43.8892 3.27273H45.3551L41.7017 12H40.4403L36.8608 3.27273H38.3097L41.071 9.89773ZM37.8381 3.27273V12H36.1733V3.27273H37.8381ZM44.3494 12V3.27273H46.0028V12H44.3494ZM51.9432 12.1761C51.125 12.1761 50.411 11.9886 49.8011 11.6136C49.1913 11.2386 48.7178 10.714 48.3807 10.0398C48.0436 9.36553 47.875 8.57765 47.875 7.67614C47.875 6.77083 48.0436 5.97917 48.3807 5.30114C48.7178 4.62311 49.1913 4.09659 49.8011 3.72159C50.411 3.34659 51.125 3.15909 51.9432 3.15909C52.7614 3.15909 53.4754 3.34659 54.0852 3.72159C54.6951 4.09659 55.1686 4.62311 55.5057 5.30114C55.8428 5.97917 56.0114 6.77083 56.0114 7.67614C56.0114 8.57765 55.8428 9.36553 55.5057 10.0398C55.1686 10.714 54.6951 11.2386 54.0852 11.6136C53.4754 11.9886 52.7614 12.1761 51.9432 12.1761ZM51.9489 10.75C52.4792 10.75 52.9186 10.6098 53.267 10.3295C53.6155 10.0492 53.8731 9.67614 54.0398 9.21023C54.2102 8.74432 54.2955 8.23106 54.2955 7.67045C54.2955 7.11364 54.2102 6.60227 54.0398 6.13636C53.8731 5.66667 53.6155 5.28977 53.267 5.00568C52.9186 4.72159 52.4792 4.57955 51.9489 4.57955C51.4148 4.57955 50.9716 4.72159 50.6193 5.00568C50.2708 5.28977 50.0114 5.66667 49.8409 6.13636C49.6742 6.60227 49.5909 7.11364 49.5909 7.67045C49.5909 8.23106 49.6742 8.74432 49.8409 9.21023C50.0114 9.67614 50.2708 10.0492 50.6193 10.3295C50.9716 10.6098 51.4148 10.75 51.9489 10.75ZM70.4134 10.5341L70.2543 14.5H68.5895V12H67.5043V10.5341H70.4134ZM57.9077 3.27273H59.5724V10.5284H62.5895V3.27273H64.2543V10.5284H67.2713V3.27273H68.9361V12H57.9077V3.27273ZM73.483 6.27273H76.017C77.0852 6.27273 77.9072 6.53788 78.483 7.06818C79.0587 7.59848 79.3466 8.2822 79.3466 9.11932C79.3466 9.66477 79.2178 10.1553 78.9602 10.5909C78.7027 11.0265 78.3258 11.3712 77.8295 11.625C77.3333 11.875 76.7292 12 76.017 12H72.2045V3.27273H73.8693V10.5341H76.017C76.5057 10.5341 76.9072 10.4072 77.2216 10.1534C77.536 9.89583 77.6932 9.56818 77.6932 9.17045C77.6932 8.75 77.536 8.4072 77.2216 8.14205C76.9072 7.87311 76.5057 7.73864 76.017 7.73864H73.483V6.27273ZM85.6435 6.96591V8.44318H80.9901V6.96591H85.6435ZM82.3707 3.27273V12H80.6719V3.27273H82.3707ZM88.3026 12.1761C87.492 12.1761 86.7836 11.9867 86.1776 11.608C85.5715 11.2292 85.1018 10.7027 84.7685 10.0284C84.4351 9.35038 84.2685 8.56439 84.2685 7.67045C84.2685 6.76894 84.4351 5.98106 84.7685 5.30682C85.1018 4.62879 85.5715 4.10227 86.1776 3.72727C86.7836 3.34848 87.492 3.15909 88.3026 3.15909C89.117 3.15909 89.8253 3.34848 90.4276 3.72727C91.0336 4.10227 91.5033 4.62879 91.8366 5.30682C92.1738 5.98106 92.3423 6.76894 92.3423 7.67045C92.3423 8.56439 92.1738 9.35038 91.8366 10.0284C91.5033 10.7027 91.0336 11.2292 90.4276 11.608C89.8253 11.9867 89.117 12.1761 88.3026 12.1761ZM88.3026 10.7216C88.8518 10.7216 89.3007 10.5833 89.6491 10.3068C90.0014 10.0265 90.2609 9.6553 90.4276 9.19318C90.5942 8.73106 90.6776 8.22348 90.6776 7.67045C90.6776 7.11364 90.5942 6.60417 90.4276 6.14205C90.2609 5.67614 90.0014 5.30303 89.6491 5.02273C89.3007 4.74242 88.8518 4.60227 88.3026 4.60227C87.7571 4.60227 87.3082 4.74242 86.956 5.02273C86.6037 5.30303 86.3442 5.67614 86.1776 6.14205C86.0109 6.60417 85.9276 7.11364 85.9276 7.67045C85.9276 8.22348 86.0109 8.73106 86.1776 9.19318C86.3442 9.6553 86.6037 10.0265 86.956 10.3068C87.3082 10.5833 87.7571 10.7216 88.3026 10.7216ZM104.494 6.90341V8.375H99.767V6.90341H104.494ZM100.244 3.27273V12H98.5795V3.27273H100.244ZM105.682 3.27273V12H104.023V3.27273H105.682ZM110.494 12.1932C109.941 12.1932 109.441 12.0909 108.994 11.8864C108.547 11.678 108.193 11.3769 107.932 10.983C107.674 10.589 107.545 10.1061 107.545 9.53409C107.545 9.04167 107.64 8.63636 107.83 8.31818C108.019 8 108.275 7.74811 108.597 7.5625C108.919 7.37689 109.278 7.23674 109.676 7.14205C110.074 7.04735 110.479 6.97538 110.892 6.92614C111.415 6.86553 111.839 6.81629 112.165 6.77841C112.491 6.73674 112.727 6.67045 112.875 6.57955C113.023 6.48864 113.097 6.34091 113.097 6.13636V6.09659C113.097 5.60038 112.956 5.21591 112.676 4.94318C112.4 4.67045 111.987 4.53409 111.438 4.53409C110.866 4.53409 110.415 4.66098 110.085 4.91477C109.759 5.16477 109.534 5.44318 109.409 5.75L107.812 5.38636C108.002 4.85606 108.278 4.42803 108.642 4.10227C109.009 3.77273 109.432 3.53409 109.909 3.38636C110.386 3.23485 110.888 3.15909 111.415 3.15909C111.763 3.15909 112.133 3.20076 112.523 3.28409C112.917 3.36364 113.284 3.51136 113.625 3.72727C113.97 3.94318 114.252 4.25189 114.472 4.65341C114.691 5.05114 114.801 5.56818 114.801 6.20455V12H113.142V10.8068H113.074C112.964 11.0265 112.799 11.2424 112.58 11.4545C112.36 11.6667 112.078 11.8428 111.733 11.983C111.388 12.1231 110.975 12.1932 110.494 12.1932ZM110.864 10.8295C111.333 10.8295 111.735 10.7367 112.068 10.5511C112.405 10.3655 112.661 10.1231 112.835 9.82386C113.013 9.52083 113.102 9.19697 113.102 8.85227V7.72727C113.042 7.78788 112.924 7.8447 112.75 7.89773C112.58 7.94697 112.384 7.99053 112.165 8.02841C111.945 8.0625 111.731 8.0947 111.523 8.125C111.314 8.15152 111.14 8.17424 111 8.19318C110.67 8.23485 110.369 8.30492 110.097 8.40341C109.828 8.50189 109.612 8.64394 109.449 8.82955C109.29 9.01136 109.21 9.25379 109.21 9.55682C109.21 9.97727 109.366 10.2955 109.676 10.5114C109.987 10.7235 110.383 10.8295 110.864 10.8295ZM117.064 3.27273H118.729V10.5284H121.746V3.27273H123.411V10.5284H126.428V3.27273H128.092V12H117.064V3.27273ZM134.122 12.1761C133.262 12.1761 132.522 11.9924 131.901 11.625C131.283 11.2538 130.806 10.733 130.469 10.0625C130.135 9.38826 129.969 8.59848 129.969 7.69318C129.969 6.79924 130.135 6.01136 130.469 5.32955C130.806 4.64773 131.276 4.11553 131.878 3.73295C132.484 3.35038 133.192 3.15909 134.003 3.15909C134.495 3.15909 134.973 3.24053 135.435 3.40341C135.897 3.56629 136.312 3.82197 136.679 4.17045C137.046 4.51894 137.336 4.97159 137.548 5.52841C137.76 6.08144 137.866 6.75379 137.866 7.54545V8.14773H130.929V6.875H136.202C136.202 6.42803 136.111 6.0322 135.929 5.6875C135.747 5.33902 135.491 5.06439 135.162 4.86364C134.836 4.66288 134.454 4.5625 134.014 4.5625C133.537 4.5625 133.12 4.67992 132.764 4.91477C132.412 5.14583 132.139 5.44886 131.946 5.82386C131.757 6.19508 131.662 6.59848 131.662 7.03409V8.02841C131.662 8.61174 131.764 9.10795 131.969 9.51705C132.177 9.92614 132.467 10.2386 132.838 10.4545C133.209 10.6667 133.643 10.7727 134.139 10.7727C134.461 10.7727 134.755 10.7273 135.02 10.6364C135.285 10.5417 135.514 10.4015 135.707 10.2159C135.901 10.0303 136.048 9.80114 136.151 9.52841L137.759 9.81818C137.63 10.2917 137.399 10.7064 137.065 11.0625C136.736 11.4148 136.321 11.6894 135.821 11.8864C135.325 12.0795 134.759 12.1761 134.122 12.1761ZM141.416 9.61932L145.263 3.27273H147.092V12H145.428V5.64773L141.598 12H139.751V3.27273H141.416V9.61932ZM144.536 0.318181H145.933C145.933 0.958333 145.706 1.47917 145.251 1.88068C144.801 2.27841 144.191 2.47727 143.422 2.47727C142.657 2.47727 142.049 2.27841 141.598 1.88068C141.147 1.47917 140.922 0.958333 140.922 0.318181H142.314C142.314 0.602272 142.397 0.854166 142.564 1.07386C142.731 1.28977 143.017 1.39773 143.422 1.39773C143.82 1.39773 144.104 1.28977 144.274 1.07386C144.448 0.857954 144.536 0.60606 144.536 0.318181ZM153.611 12V3.27273H160.73V12H159.065V4.73864H155.264V12H153.611ZM162.314 12L162.308 10.5284H162.621C162.863 10.5284 163.066 10.4773 163.229 10.375C163.395 10.2689 163.532 10.0909 163.638 9.84091C163.744 9.59091 163.825 9.24621 163.882 8.80682C163.939 8.36364 163.981 7.80682 164.007 7.13636L164.161 3.27273H170.251V12H168.587V4.73864H165.734L165.598 7.70455C165.564 8.42424 165.49 9.05303 165.376 9.59091C165.267 10.1288 165.106 10.5777 164.893 10.9375C164.681 11.2936 164.409 11.5606 164.075 11.7386C163.742 11.9129 163.337 12 162.859 12H162.314ZM175.057 12.1932C174.504 12.1932 174.004 12.0909 173.557 11.8864C173.11 11.678 172.756 11.3769 172.494 10.983C172.237 10.589 172.108 10.1061 172.108 9.53409C172.108 9.04167 172.203 8.63636 172.392 8.31818C172.581 8 172.837 7.74811 173.159 7.5625C173.481 7.37689 173.841 7.23674 174.239 7.14205C174.636 7.04735 175.042 6.97538 175.455 6.92614C175.977 6.86553 176.402 6.81629 176.727 6.77841C177.053 6.73674 177.29 6.67045 177.438 6.57955C177.585 6.48864 177.659 6.34091 177.659 6.13636V6.09659C177.659 5.60038 177.519 5.21591 177.239 4.94318C176.962 4.67045 176.549 4.53409 176 4.53409C175.428 4.53409 174.977 4.66098 174.648 4.91477C174.322 5.16477 174.097 5.44318 173.972 5.75L172.375 5.38636C172.564 4.85606 172.841 4.42803 173.205 4.10227C173.572 3.77273 173.994 3.53409 174.472 3.38636C174.949 3.23485 175.451 3.15909 175.977 3.15909C176.326 3.15909 176.695 3.20076 177.085 3.28409C177.479 3.36364 177.847 3.51136 178.188 3.72727C178.532 3.94318 178.814 4.25189 179.034 4.65341C179.254 5.05114 179.364 5.56818 179.364 6.20455V12H177.705V10.8068H177.636C177.527 11.0265 177.362 11.2424 177.142 11.4545C176.922 11.6667 176.64 11.8428 176.295 11.983C175.951 12.1231 175.538 12.1932 175.057 12.1932ZM175.426 10.8295C175.896 10.8295 176.297 10.7367 176.631 10.5511C176.968 10.3655 177.223 10.1231 177.398 9.82386C177.576 9.52083 177.665 9.19697 177.665 8.85227V7.72727C177.604 7.78788 177.487 7.8447 177.312 7.89773C177.142 7.94697 176.947 7.99053 176.727 8.02841C176.508 8.0625 176.294 8.0947 176.085 8.125C175.877 8.15152 175.703 8.17424 175.562 8.19318C175.233 8.23485 174.932 8.30492 174.659 8.40341C174.39 8.50189 174.174 8.64394 174.011 8.82955C173.852 9.01136 173.773 9.25379 173.773 9.55682C173.773 9.97727 173.928 10.2955 174.239 10.5114C174.549 10.7235 174.945 10.8295 175.426 10.8295ZM180.544 4.73864V3.27273H187.908V4.73864H185.061V12H183.402V4.73864H180.544ZM193.054 14.9716V0.363636H194.753V14.9716H193.054ZM193.054 12.1761C192.437 12.1761 191.874 12.0701 191.366 11.858C190.859 11.642 190.421 11.3352 190.054 10.9375C189.687 10.5398 189.402 10.0644 189.202 9.51136C189.005 8.95833 188.906 8.34659 188.906 7.67614C188.906 6.99811 189.005 6.38258 189.202 5.82955C189.402 5.27652 189.687 4.80114 190.054 4.40341C190.421 4.00568 190.859 3.69886 191.366 3.48295C191.874 3.26705 192.437 3.15909 193.054 3.15909H193.474V12.1761H193.054ZM193.054 10.7443H193.293V4.59091H193.054C192.645 4.59091 192.289 4.67424 191.986 4.84091C191.683 5.00379 191.431 5.22917 191.23 5.51705C191.029 5.80114 190.878 6.12879 190.776 6.5C190.677 6.87121 190.628 7.26326 190.628 7.67614C190.628 8.22917 190.717 8.73864 190.895 9.20455C191.073 9.66667 191.342 10.0398 191.702 10.3239C192.062 10.6042 192.512 10.7443 193.054 10.7443ZM194.753 12.1761H194.327V3.15909H194.753C195.37 3.15909 195.933 3.26705 196.44 3.48295C196.948 3.69886 197.384 4.00568 197.747 4.40341C198.115 4.80114 198.397 5.27652 198.594 5.82955C198.795 6.38258 198.895 6.99811 198.895 7.67614C198.895 8.34659 198.795 8.95833 198.594 9.51136C198.397 10.0644 198.115 10.5398 197.747 10.9375C197.384 11.3352 196.948 11.642 196.44 11.858C195.933 12.0701 195.37 12.1761 194.753 12.1761ZM194.753 10.7443C195.162 10.7443 195.518 10.6648 195.821 10.5057C196.124 10.3428 196.376 10.1193 196.577 9.83523C196.777 9.54735 196.927 9.2197 197.026 8.85227C197.124 8.48106 197.173 8.08902 197.173 7.67614C197.173 7.12689 197.084 6.61932 196.906 6.15341C196.732 5.68371 196.465 5.30682 196.105 5.02273C195.745 4.73485 195.295 4.59091 194.753 4.59091H194.509V10.7443H194.753ZM204.459 12.1761C203.641 12.1761 202.927 11.9886 202.317 11.6136C201.707 11.2386 201.233 10.714 200.896 10.0398C200.559 9.36553 200.391 8.57765 200.391 7.67614C200.391 6.77083 200.559 5.97917 200.896 5.30114C201.233 4.62311 201.707 4.09659 202.317 3.72159C202.927 3.34659 203.641 3.15909 204.459 3.15909C205.277 3.15909 205.991 3.34659 206.601 3.72159C207.211 4.09659 207.684 4.62311 208.021 5.30114C208.358 5.97917 208.527 6.77083 208.527 7.67614C208.527 8.57765 208.358 9.36553 208.021 10.0398C207.684 10.714 207.211 11.2386 206.601 11.6136C205.991 11.9886 205.277 12.1761 204.459 12.1761ZM204.464 10.75C204.995 10.75 205.434 10.6098 205.783 10.3295C206.131 10.0492 206.389 9.67614 206.555 9.21023C206.726 8.74432 206.811 8.23106 206.811 7.67045C206.811 7.11364 206.726 6.60227 206.555 6.13636C206.389 5.66667 206.131 5.28977 205.783 5.00568C205.434 4.72159 204.995 4.57955 204.464 4.57955C203.93 4.57955 203.487 4.72159 203.135 5.00568C202.786 5.28977 202.527 5.66667 202.357 6.13636C202.19 6.60227 202.107 7.11364 202.107 7.67045C202.107 8.23106 202.19 8.74432 202.357 9.21023C202.527 9.67614 202.786 10.0492 203.135 10.3295C203.487 10.6098 203.93 10.75 204.464 10.75ZM210.423 15.2727V3.27273H212.082V4.6875H212.224C212.323 4.50568 212.465 4.29545 212.651 4.05682C212.836 3.81818 213.094 3.60985 213.423 3.43182C213.753 3.25 214.188 3.15909 214.73 3.15909C215.435 3.15909 216.063 3.33712 216.616 3.69318C217.17 4.04924 217.603 4.5625 217.918 5.23295C218.236 5.90341 218.395 6.71023 218.395 7.65341C218.395 8.59659 218.238 9.4053 217.923 10.0795C217.609 10.75 217.177 11.267 216.628 11.6307C216.079 11.9905 215.452 12.1705 214.747 12.1705C214.217 12.1705 213.783 12.0814 213.446 11.9034C213.113 11.7254 212.851 11.517 212.662 11.2784C212.473 11.0398 212.327 10.8277 212.224 10.642H212.122V15.2727H210.423ZM212.088 7.63636C212.088 8.25 212.177 8.78788 212.355 9.25C212.533 9.71212 212.791 10.0739 213.128 10.3352C213.465 10.5928 213.878 10.7216 214.366 10.7216C214.874 10.7216 215.298 10.5871 215.639 10.3182C215.98 10.0455 216.238 9.67614 216.412 9.21023C216.59 8.74432 216.679 8.2197 216.679 7.63636C216.679 7.06061 216.592 6.54356 216.418 6.08523C216.247 5.62689 215.99 5.26515 215.645 5C215.304 4.73485 214.878 4.60227 214.366 4.60227C213.874 4.60227 213.457 4.72917 213.116 4.98295C212.779 5.23674 212.524 5.59091 212.349 6.04545C212.175 6.5 212.088 7.0303 212.088 7.63636ZM225.196 9.89773L228.014 3.27273H229.48L225.827 12H224.565L220.986 3.27273H222.435L225.196 9.89773ZM221.963 3.27273V12H220.298V3.27273H221.963ZM228.474 12V3.27273H230.128V12H228.474ZM233.67 6.27273H236.205C237.273 6.27273 238.095 6.53788 238.67 7.06818C239.246 7.59848 239.534 8.2822 239.534 9.11932C239.534 9.66477 239.405 10.1553 239.148 10.5909C238.89 11.0265 238.513 11.3712 238.017 11.625C237.521 11.875 236.917 12 236.205 12H232.392V3.27273H234.057V10.5341H236.205C236.693 10.5341 237.095 10.4072 237.409 10.1534C237.723 9.89583 237.881 9.56818 237.881 9.17045C237.881 8.75 237.723 8.4072 237.409 8.14205C237.095 7.87311 236.693 7.73864 236.205 7.73864H233.67V6.27273ZM240.773 12V3.27273H242.472V12H240.773ZM250.06 15.2727C249.806 15.2727 249.575 15.2519 249.366 15.2102C249.158 15.1723 249.003 15.1307 248.901 15.0852L249.31 13.6932C249.62 13.7765 249.897 13.8125 250.139 13.8011C250.382 13.7898 250.596 13.6989 250.781 13.5284C250.971 13.358 251.137 13.0795 251.281 12.6932L251.491 12.1136L248.298 3.27273H250.116L252.327 10.0455H252.418L254.628 3.27273H256.452L252.855 13.1648C252.688 13.6193 252.476 14.0038 252.219 14.3182C251.961 14.6364 251.654 14.875 251.298 15.0341C250.942 15.1932 250.529 15.2727 250.06 15.2727ZM257.491 12L260.872 7.53409L257.531 3.27273H259.509L262.207 6.89773H262.815V3.27273H264.514V6.89773H265.105L267.804 3.27273H269.781L266.457 7.53409L269.821 12H267.804L265.082 8.36364H264.514V12H262.815V8.36364H262.247L259.509 12H257.491ZM274.966 12.1761C274.106 12.1761 273.366 11.9924 272.744 11.625C272.127 11.2538 271.65 10.733 271.312 10.0625C270.979 9.38826 270.812 8.59848 270.812 7.69318C270.812 6.79924 270.979 6.01136 271.312 5.32955C271.65 4.64773 272.119 4.11553 272.722 3.73295C273.328 3.35038 274.036 3.15909 274.847 3.15909C275.339 3.15909 275.816 3.24053 276.278 3.40341C276.741 3.56629 277.155 3.82197 277.523 4.17045C277.89 4.51894 278.18 4.97159 278.392 5.52841C278.604 6.08144 278.71 6.75379 278.71 7.54545V8.14773H271.773V6.875H277.045C277.045 6.42803 276.955 6.0322 276.773 5.6875C276.591 5.33902 276.335 5.06439 276.006 4.86364C275.68 4.66288 275.297 4.5625 274.858 4.5625C274.381 4.5625 273.964 4.67992 273.608 4.91477C273.256 5.14583 272.983 5.44886 272.79 5.82386C272.6 6.19508 272.506 6.59848 272.506 7.03409V8.02841C272.506 8.61174 272.608 9.10795 272.812 9.51705C273.021 9.92614 273.311 10.2386 273.682 10.4545C274.053 10.6667 274.487 10.7727 274.983 10.7727C275.305 10.7727 275.598 10.7273 275.864 10.6364C276.129 10.5417 276.358 10.4015 276.551 10.2159C276.744 10.0303 276.892 9.80114 276.994 9.52841L278.602 9.81818C278.473 10.2917 278.242 10.7064 277.909 11.0625C277.58 11.4148 277.165 11.6894 276.665 11.8864C276.169 12.0795 275.602 12.1761 274.966 12.1761ZM0.653409 27.7386V26.2727H8.01705V27.7386H5.17045V35H3.51136V27.7386H0.653409ZM11.0923 29.2727H13.6264C14.6946 29.2727 15.5166 29.5379 16.0923 30.0682C16.6681 30.5985 16.956 31.2822 16.956 32.1193C16.956 32.6648 16.8272 33.1553 16.5696 33.5909C16.312 34.0265 15.9351 34.3712 15.4389 34.625C14.9427 34.875 14.3385 35 13.6264 35H9.81392V26.2727H11.4787V33.5341H13.6264C14.1151 33.5341 14.5166 33.4072 14.831 33.1534C15.1454 32.8958 15.3026 32.5682 15.3026 32.1705C15.3026 31.75 15.1454 31.4072 14.831 31.142C14.5166 30.8731 14.1151 30.7386 13.6264 30.7386H11.0923V29.2727ZM18.1946 35V26.2727H19.8935V35H18.1946ZM25.8494 35.1761C25.0047 35.1761 24.2775 34.9848 23.6676 34.6023C23.0616 34.2159 22.5956 33.6837 22.2699 33.0057C21.9441 32.3277 21.7812 31.5511 21.7812 30.6761C21.7812 29.7898 21.9479 29.0076 22.2812 28.3295C22.6146 27.6477 23.0843 27.1155 23.6903 26.733C24.2964 26.3504 25.0104 26.1591 25.8324 26.1591C26.4953 26.1591 27.0862 26.2822 27.6051 26.5284C28.1241 26.7708 28.5426 27.1117 28.8608 27.5511C29.1828 27.9905 29.3741 28.5038 29.4347 29.0909H27.7812C27.6903 28.6818 27.482 28.3295 27.1562 28.0341C26.8343 27.7386 26.4025 27.5909 25.8608 27.5909C25.3873 27.5909 24.9725 27.7159 24.6165 27.9659C24.2642 28.2121 23.9896 28.5644 23.7926 29.0227C23.5956 29.4773 23.4972 30.0152 23.4972 30.6364C23.4972 31.2727 23.5938 31.822 23.7869 32.2841C23.9801 32.7462 24.2528 33.1042 24.6051 33.358C24.9612 33.6117 25.3797 33.7386 25.8608 33.7386C26.1828 33.7386 26.4744 33.6799 26.7358 33.5625C27.0009 33.4413 27.2225 33.2689 27.4006 33.0455C27.5824 32.822 27.7093 32.553 27.7812 32.2386H29.4347C29.3741 32.803 29.1903 33.3068 28.8835 33.75C28.5767 34.1932 28.1657 34.5417 27.6506 34.7955C27.1392 35.0492 26.5388 35.1761 25.8494 35.1761ZM36.456 35V27.7216H34.3651C33.8688 27.7216 33.4825 27.8371 33.206 28.0682C32.9295 28.2992 32.7912 28.6023 32.7912 28.9773C32.7912 29.3485 32.9181 29.6477 33.1719 29.875C33.4295 30.0985 33.7893 30.2102 34.2514 30.2102H36.9503V31.5852H34.2514C33.6075 31.5852 33.0507 31.4792 32.581 31.267C32.1151 31.0511 31.7552 30.7462 31.5014 30.3523C31.2514 29.9583 31.1264 29.4924 31.1264 28.9545C31.1264 28.4053 31.2552 27.9318 31.5128 27.5341C31.7741 27.1326 32.1473 26.822 32.6321 26.6023C33.1207 26.3826 33.6984 26.2727 34.3651 26.2727H38.0526V35H36.456ZM30.7287 35L33.1889 30.5909H34.9276L32.4673 35H30.7287ZM47.3196 26.2727V35H45.6605V26.2727H47.3196ZM46.598 30.3239V31.7898C46.3366 31.8958 46.0601 31.9905 45.7685 32.0739C45.4768 32.1534 45.17 32.2159 44.848 32.2614C44.526 32.3068 44.1908 32.3295 43.8423 32.3295C42.7628 32.3295 41.9048 32.0663 41.2685 31.5398C40.6321 31.0095 40.3139 30.1989 40.3139 29.108V26.2557H41.9673V29.108C41.9673 29.5208 42.0431 29.8561 42.1946 30.1136C42.3461 30.3712 42.562 30.5606 42.8423 30.6818C43.1226 30.803 43.456 30.8636 43.8423 30.8636C44.3537 30.8636 44.8253 30.8163 45.2571 30.7216C45.6927 30.6231 46.1397 30.4905 46.598 30.3239ZM51.2443 32.6193L55.0909 26.2727H56.9205V35H55.2557V28.6477L51.4261 35H49.5795V26.2727H51.2443V32.6193ZM62.7514 35L62.7457 33.5284H63.0582C63.3007 33.5284 63.5033 33.4773 63.6662 33.375C63.8329 33.2689 63.9692 33.0909 64.0753 32.8409C64.1813 32.5909 64.2628 32.2462 64.3196 31.8068C64.3764 31.3636 64.4181 30.8068 64.4446 30.1364L64.598 26.2727H70.6889V35H69.0241V27.7386H66.1719L66.0355 30.7045C66.0014 31.4242 65.9276 32.053 65.8139 32.5909C65.7041 33.1288 65.5431 33.5777 65.331 33.9375C65.1188 34.2936 64.8461 34.5606 64.5128 34.7386C64.1795 34.9129 63.7741 35 63.2969 35H62.7514ZM77.3466 29.9659V31.4432H72.6932V29.9659H77.3466ZM74.0739 26.2727V35H72.375V26.2727H74.0739ZM80.0057 35.1761C79.1951 35.1761 78.4867 34.9867 77.8807 34.608C77.2746 34.2292 76.8049 33.7027 76.4716 33.0284C76.1383 32.3504 75.9716 31.5644 75.9716 30.6705C75.9716 29.7689 76.1383 28.9811 76.4716 28.3068C76.8049 27.6288 77.2746 27.1023 77.8807 26.7273C78.4867 26.3485 79.1951 26.1591 80.0057 26.1591C80.8201 26.1591 81.5284 26.3485 82.1307 26.7273C82.7367 27.1023 83.2064 27.6288 83.5398 28.3068C83.8769 28.9811 84.0455 29.7689 84.0455 30.6705C84.0455 31.5644 83.8769 32.3504 83.5398 33.0284C83.2064 33.7027 82.7367 34.2292 82.1307 34.608C81.5284 34.9867 80.8201 35.1761 80.0057 35.1761ZM80.0057 33.7216C80.5549 33.7216 81.0038 33.5833 81.3523 33.3068C81.7045 33.0265 81.964 32.6553 82.1307 32.1932C82.2973 31.7311 82.3807 31.2235 82.3807 30.6705C82.3807 30.1136 82.2973 29.6042 82.1307 29.142C81.964 28.6761 81.7045 28.303 81.3523 28.0227C81.0038 27.7424 80.5549 27.6023 80.0057 27.6023C79.4602 27.6023 79.0114 27.7424 78.6591 28.0227C78.3068 28.303 78.0473 28.6761 77.8807 29.142C77.714 29.6042 77.6307 30.1136 77.6307 30.6705C77.6307 31.2235 77.714 31.7311 77.8807 32.1932C78.0473 32.6553 78.3068 33.0265 78.6591 33.3068C79.0114 33.5833 79.4602 33.7216 80.0057 33.7216ZM85.196 37.517V33.5284H85.9062C86.0881 33.3617 86.2415 33.1629 86.3665 32.9318C86.4953 32.7008 86.6032 32.4261 86.6903 32.108C86.7813 31.7898 86.857 31.4186 86.9176 30.9943C86.9782 30.5663 87.0312 30.0777 87.0767 29.5284L87.3494 26.2727H93.2812V33.5284H94.6222V37.517H92.9631V35H86.8778V37.517H85.196ZM87.7244 33.5284H91.6222V27.7273H88.8722L88.6903 29.5284C88.6032 30.4451 88.4934 31.2405 88.3608 31.9148C88.2282 32.5852 88.0161 33.1231 87.7244 33.5284ZM100.044 35.1761C99.1842 35.1761 98.4437 34.9924 97.8224 34.625C97.205 34.2538 96.7277 33.733 96.3906 33.0625C96.0573 32.3883 95.8906 31.5985 95.8906 30.6932C95.8906 29.7992 96.0573 29.0114 96.3906 28.3295C96.7277 27.6477 97.1974 27.1155 97.7997 26.733C98.4058 26.3504 99.1141 26.1591 99.9247 26.1591C100.417 26.1591 100.894 26.2405 101.357 26.4034C101.819 26.5663 102.233 26.822 102.601 27.1705C102.968 27.5189 103.258 27.9716 103.47 28.5284C103.682 29.0814 103.788 29.7538 103.788 30.5455V31.1477H96.8509V29.875H102.124C102.124 29.428 102.033 29.0322 101.851 28.6875C101.669 28.339 101.413 28.0644 101.084 27.8636C100.758 27.6629 100.375 27.5625 99.9361 27.5625C99.4588 27.5625 99.0421 27.6799 98.6861 27.9148C98.3338 28.1458 98.0611 28.4489 97.8679 28.8239C97.6785 29.1951 97.5838 29.5985 97.5838 30.0341V31.0284C97.5838 31.6117 97.6861 32.108 97.8906 32.517C98.099 32.9261 98.3887 33.2386 98.7599 33.4545C99.1312 33.6667 99.5649 33.7727 100.061 33.7727C100.383 33.7727 100.677 33.7273 100.942 33.6364C101.207 33.5417 101.436 33.4015 101.629 33.2159C101.822 33.0303 101.97 32.8011 102.072 32.5284L103.68 32.8182C103.552 33.2917 103.321 33.7064 102.987 34.0625C102.658 34.4148 102.243 34.6894 101.743 34.8864C101.247 35.0795 100.68 35.1761 100.044 35.1761ZM107.338 32.6193L111.185 26.2727H113.014V35H111.349V28.6477L107.52 35H105.673V26.2727H107.338V32.6193ZM110.457 23.3182H111.855C111.855 23.9583 111.628 24.4792 111.173 24.8807C110.723 25.2784 110.113 25.4773 109.344 25.4773C108.579 25.4773 107.971 25.2784 107.52 24.8807C107.069 24.4792 106.844 23.9583 106.844 23.3182H108.236C108.236 23.6023 108.319 23.8542 108.486 24.0739C108.652 24.2898 108.938 24.3977 109.344 24.3977C109.741 24.3977 110.026 24.2898 110.196 24.0739C110.37 23.858 110.457 23.6061 110.457 23.3182ZM125.447 29.9034V31.375H120.72V29.9034H125.447ZM121.197 26.2727V35H119.533V26.2727H121.197ZM126.635 26.2727V35H124.976V26.2727H126.635ZM131.447 35.1932C130.894 35.1932 130.394 35.0909 129.947 34.8864C129.5 34.678 129.146 34.3769 128.885 33.983C128.627 33.589 128.499 33.1061 128.499 32.5341C128.499 32.0417 128.593 31.6364 128.783 31.3182C128.972 31 129.228 30.7481 129.55 30.5625C129.872 30.3769 130.232 30.2367 130.629 30.142C131.027 30.0473 131.432 29.9754 131.845 29.9261C132.368 29.8655 132.792 29.8163 133.118 29.7784C133.444 29.7367 133.68 29.6705 133.828 29.5795C133.976 29.4886 134.05 29.3409 134.05 29.1364V29.0966C134.05 28.6004 133.91 28.2159 133.629 27.9432C133.353 27.6705 132.94 27.5341 132.391 27.5341C131.819 27.5341 131.368 27.661 131.038 27.9148C130.713 28.1648 130.487 28.4432 130.362 28.75L128.766 28.3864C128.955 27.8561 129.232 27.428 129.595 27.1023C129.963 26.7727 130.385 26.5341 130.862 26.3864C131.339 26.2348 131.841 26.1591 132.368 26.1591C132.716 26.1591 133.086 26.2008 133.476 26.2841C133.87 26.3636 134.237 26.5114 134.578 26.7273C134.923 26.9432 135.205 27.2519 135.425 27.6534C135.644 28.0511 135.754 28.5682 135.754 29.2045V35H134.095V33.8068H134.027C133.917 34.0265 133.752 34.2424 133.533 34.4545C133.313 34.6667 133.031 34.8428 132.686 34.983C132.341 35.1231 131.929 35.1932 131.447 35.1932ZM131.817 33.8295C132.286 33.8295 132.688 33.7367 133.021 33.5511C133.358 33.3655 133.614 33.1231 133.788 32.8239C133.966 32.5208 134.055 32.197 134.055 31.8523V30.7273C133.995 30.7879 133.877 30.8447 133.703 30.8977C133.533 30.947 133.338 30.9905 133.118 31.0284C132.898 31.0625 132.684 31.0947 132.476 31.125C132.268 31.1515 132.093 31.1742 131.953 31.1932C131.624 31.2348 131.322 31.3049 131.05 31.4034C130.781 31.5019 130.565 31.6439 130.402 31.8295C130.243 32.0114 130.163 32.2538 130.163 32.5568C130.163 32.9773 130.319 33.2955 130.629 33.5114C130.94 33.7235 131.336 33.8295 131.817 33.8295ZM138.017 26.2727H139.682V33.5284H142.699V26.2727H144.364V33.5284H147.381V26.2727H149.045V35H138.017V26.2727ZM150.626 35L150.621 33.5284H150.933C151.176 33.5284 151.378 33.4773 151.541 33.375C151.708 33.2689 151.844 33.0909 151.95 32.8409C152.056 32.5909 152.138 32.2462 152.195 31.8068C152.251 31.3636 152.293 30.8068 152.32 30.1364L152.473 26.2727H158.564V35H156.899V27.7386H154.047L153.911 30.7045C153.876 31.4242 153.803 32.053 153.689 32.5909C153.579 33.1288 153.418 33.5777 153.206 33.9375C152.994 34.2936 152.721 34.5606 152.388 34.7386C152.054 34.9129 151.649 35 151.172 35H150.626ZM162.494 32.6193L166.341 26.2727H168.17V35H166.506V28.6477L162.676 35H160.83V26.2727H162.494V32.6193ZM178.365 35.1761C177.547 35.1761 176.833 34.9886 176.223 34.6136C175.613 34.2386 175.14 33.714 174.803 33.0398C174.465 32.3655 174.297 31.5777 174.297 30.6761C174.297 29.7708 174.465 28.9792 174.803 28.3011C175.14 27.6231 175.613 27.0966 176.223 26.7216C176.833 26.3466 177.547 26.1591 178.365 26.1591C179.183 26.1591 179.897 26.3466 180.507 26.7216C181.117 27.0966 181.59 27.6231 181.928 28.3011C182.265 28.9792 182.433 29.7708 182.433 30.6761C182.433 31.5777 182.265 32.3655 181.928 33.0398C181.59 33.714 181.117 34.2386 180.507 34.6136C179.897 34.9886 179.183 35.1761 178.365 35.1761ZM178.371 33.75C178.901 33.75 179.34 33.6098 179.689 33.3295C180.037 33.0492 180.295 32.6761 180.462 32.2102C180.632 31.7443 180.717 31.2311 180.717 30.6705C180.717 30.1136 180.632 29.6023 180.462 29.1364C180.295 28.6667 180.037 28.2898 179.689 28.0057C179.34 27.7216 178.901 27.5795 178.371 27.5795C177.837 27.5795 177.393 27.7216 177.041 28.0057C176.693 28.2898 176.433 28.6667 176.263 29.1364C176.096 29.6023 176.013 30.1136 176.013 30.6705C176.013 31.2311 176.096 31.7443 176.263 32.2102C176.433 32.6761 176.693 33.0492 177.041 33.3295C177.393 33.6098 177.837 33.75 178.371 33.75ZM190.244 29.9034V31.375H185.517V29.9034H190.244ZM185.994 26.2727V35H184.33V26.2727H185.994ZM191.432 26.2727V35H189.773V26.2727H191.432ZM193.017 35L193.011 33.5284H193.324C193.566 33.5284 193.769 33.4773 193.932 33.375C194.098 33.2689 194.235 33.0909 194.341 32.8409C194.447 32.5909 194.528 32.2462 194.585 31.8068C194.642 31.3636 194.684 30.8068 194.71 30.1364L194.864 26.2727H200.955V35H199.29V27.7386H196.438L196.301 30.7045C196.267 31.4242 196.193 32.053 196.08 32.5909C195.97 33.1288 195.809 33.5777 195.597 33.9375C195.384 34.2936 195.112 34.5606 194.778 34.7386C194.445 34.9129 194.04 35 193.562 35H193.017ZM205.76 35.1932C205.207 35.1932 204.707 35.0909 204.26 34.8864C203.813 34.678 203.459 34.3769 203.197 33.983C202.94 33.589 202.811 33.1061 202.811 32.5341C202.811 32.0417 202.906 31.6364 203.095 31.3182C203.285 31 203.54 30.7481 203.862 30.5625C204.184 30.3769 204.544 30.2367 204.942 30.142C205.339 30.0473 205.745 29.9754 206.158 29.9261C206.68 29.8655 207.105 29.8163 207.43 29.7784C207.756 29.7367 207.993 29.6705 208.141 29.5795C208.288 29.4886 208.362 29.3409 208.362 29.1364V29.0966C208.362 28.6004 208.222 28.2159 207.942 27.9432C207.665 27.6705 207.252 27.5341 206.703 27.5341C206.131 27.5341 205.68 27.661 205.351 27.9148C205.025 28.1648 204.8 28.4432 204.675 28.75L203.078 28.3864C203.268 27.8561 203.544 27.428 203.908 27.1023C204.275 26.7727 204.697 26.5341 205.175 26.3864C205.652 26.2348 206.154 26.1591 206.68 26.1591C207.029 26.1591 207.398 26.2008 207.788 26.2841C208.182 26.3636 208.55 26.5114 208.891 26.7273C209.235 26.9432 209.518 27.2519 209.737 27.6534C209.957 28.0511 210.067 28.5682 210.067 29.2045V35H208.408V33.8068H208.339C208.23 34.0265 208.065 34.2424 207.845 34.4545C207.625 34.6667 207.343 34.8428 206.999 34.983C206.654 35.1231 206.241 35.1932 205.76 35.1932ZM206.129 33.8295C206.599 33.8295 207 33.7367 207.334 33.5511C207.671 33.3655 207.927 33.1231 208.101 32.8239C208.279 32.5208 208.368 32.197 208.368 31.8523V30.7273C208.307 30.7879 208.19 30.8447 208.016 30.8977C207.845 30.947 207.65 30.9905 207.43 31.0284C207.211 31.0625 206.997 31.0947 206.788 31.125C206.58 31.1515 206.406 31.1742 206.266 31.1932C205.936 31.2348 205.635 31.3049 205.362 31.4034C205.093 31.5019 204.877 31.6439 204.714 31.8295C204.555 32.0114 204.476 32.2538 204.476 32.5568C204.476 32.9773 204.631 33.2955 204.942 33.5114C205.252 33.7235 205.648 33.8295 206.129 33.8295ZM213.994 32.6193L217.841 26.2727H219.67V35H218.006V28.6477L214.176 35H212.33V26.2727H213.994V32.6193ZM217.114 23.3182H218.511C218.511 23.9583 218.284 24.4792 217.83 24.8807C217.379 25.2784 216.769 25.4773 216 25.4773C215.235 25.4773 214.627 25.2784 214.176 24.8807C213.725 24.4792 213.5 23.9583 213.5 23.3182H214.892C214.892 23.6023 214.975 23.8542 215.142 24.0739C215.309 24.2898 215.595 24.3977 216 24.3977C216.398 24.3977 216.682 24.2898 216.852 24.0739C217.027 23.858 217.114 23.6061 217.114 23.3182ZM227.869 29.9034V31.375H223.142V29.9034H227.869ZM223.619 26.2727V35H221.955V26.2727H223.619ZM229.057 26.2727V35H227.398V26.2727H229.057ZM236.472 29.3466V30.8182H231.312V29.3466H236.472ZM238.736 38.2727V26.2727H240.395V27.6875H240.537C240.635 27.5057 240.777 27.2955 240.963 27.0568C241.149 26.8182 241.406 26.6098 241.736 26.4318C242.065 26.25 242.501 26.1591 243.043 26.1591C243.747 26.1591 244.376 26.3371 244.929 26.6932C245.482 27.0492 245.916 27.5625 246.23 28.233C246.548 28.9034 246.707 29.7102 246.707 30.6534C246.707 31.5966 246.55 32.4053 246.236 33.0795C245.921 33.75 245.49 34.267 244.94 34.6307C244.391 34.9905 243.764 35.1705 243.06 35.1705C242.529 35.1705 242.096 35.0814 241.759 34.9034C241.425 34.7254 241.164 34.517 240.974 34.2784C240.785 34.0398 240.639 33.8277 240.537 33.642H240.435V38.2727H238.736ZM240.401 30.6364C240.401 31.25 240.49 31.7879 240.668 32.25C240.846 32.7121 241.103 33.0739 241.44 33.3352C241.777 33.5928 242.19 33.7216 242.679 33.7216C243.187 33.7216 243.611 33.5871 243.952 33.3182C244.293 33.0455 244.55 32.6761 244.724 32.2102C244.902 31.7443 244.991 31.2197 244.991 30.6364C244.991 30.0606 244.904 29.5436 244.73 29.0852C244.56 28.6269 244.302 28.2652 243.957 28C243.616 27.7348 243.19 27.6023 242.679 27.6023C242.187 27.6023 241.77 27.7292 241.429 27.983C241.092 28.2367 240.836 28.5909 240.662 29.0455C240.488 29.5 240.401 30.0303 240.401 30.6364ZM251.151 35.1932C250.598 35.1932 250.098 35.0909 249.651 34.8864C249.204 34.678 248.849 34.3769 248.588 33.983C248.33 33.589 248.202 33.1061 248.202 32.5341C248.202 32.0417 248.296 31.6364 248.486 31.3182C248.675 31 248.931 30.7481 249.253 30.5625C249.575 30.3769 249.935 30.2367 250.332 30.142C250.73 30.0473 251.135 29.9754 251.548 29.9261C252.071 29.8655 252.495 29.8163 252.821 29.7784C253.147 29.7367 253.384 29.6705 253.531 29.5795C253.679 29.4886 253.753 29.3409 253.753 29.1364V29.0966C253.753 28.6004 253.613 28.2159 253.332 27.9432C253.056 27.6705 252.643 27.5341 252.094 27.5341C251.522 27.5341 251.071 27.661 250.741 27.9148C250.416 28.1648 250.19 28.4432 250.065 28.75L248.469 28.3864C248.658 27.8561 248.935 27.428 249.298 27.1023C249.666 26.7727 250.088 26.5341 250.565 26.3864C251.043 26.2348 251.545 26.1591 252.071 26.1591C252.42 26.1591 252.789 26.2008 253.179 26.2841C253.573 26.3636 253.94 26.5114 254.281 26.7273C254.626 26.9432 254.908 27.2519 255.128 27.6534C255.348 28.0511 255.457 28.5682 255.457 29.2045V35H253.798V33.8068H253.73C253.62 34.0265 253.455 34.2424 253.236 34.4545C253.016 34.6667 252.734 34.8428 252.389 34.983C252.045 35.1231 251.632 35.1932 251.151 35.1932ZM251.52 33.8295C251.99 33.8295 252.391 33.7367 252.724 33.5511C253.062 33.3655 253.317 33.1231 253.491 32.8239C253.67 32.5208 253.759 32.197 253.759 31.8523V30.7273C253.698 30.7879 253.58 30.8447 253.406 30.8977C253.236 30.947 253.041 30.9905 252.821 31.0284C252.601 31.0625 252.387 31.0947 252.179 31.125C251.971 31.1515 251.796 31.1742 251.656 31.1932C251.327 31.2348 251.026 31.3049 250.753 31.4034C250.484 31.5019 250.268 31.6439 250.105 31.8295C249.946 32.0114 249.866 32.2538 249.866 32.5568C249.866 32.9773 250.022 33.2955 250.332 33.5114C250.643 33.7235 251.039 33.8295 251.52 33.8295ZM264.453 23.0227L265.158 24.0966C264.896 24.3352 264.599 24.5057 264.266 24.608C263.936 24.7064 263.555 24.7689 263.124 24.7955C262.692 24.8182 262.197 24.839 261.641 24.858C261.012 24.8769 260.495 25.0133 260.089 25.267C259.684 25.517 259.372 25.8883 259.152 26.3807C258.936 26.8693 258.796 27.483 258.732 28.2216H258.839C259.124 27.6799 259.518 27.2746 260.021 27.0057C260.529 26.7367 261.099 26.6023 261.732 26.6023C262.436 26.6023 263.063 26.7633 263.612 27.0852C264.161 27.4072 264.593 27.8788 264.908 28.5C265.226 29.1174 265.385 29.8731 265.385 30.767C265.385 31.6723 265.218 32.4545 264.885 33.1136C264.555 33.7727 264.089 34.2822 263.487 34.642C262.889 34.9981 262.182 35.1761 261.368 35.1761C260.554 35.1761 259.843 34.9924 259.237 34.625C258.635 34.2538 258.167 33.7045 257.834 32.9773C257.504 32.25 257.339 31.3523 257.339 30.2841V29.4205C257.339 27.4242 257.696 25.9223 258.408 24.9148C259.12 23.9072 260.184 23.3902 261.601 23.3636C262.059 23.3523 262.468 23.3504 262.828 23.358C263.188 23.3617 263.502 23.3447 263.771 23.3068C264.044 23.2652 264.271 23.1705 264.453 23.0227ZM261.374 33.75C261.847 33.75 262.254 33.6307 262.595 33.392C262.94 33.1496 263.205 32.8068 263.391 32.3636C263.576 31.9205 263.669 31.3977 263.669 30.7955C263.669 30.2045 263.576 29.7027 263.391 29.2898C263.205 28.8769 262.94 28.5625 262.595 28.3466C262.25 28.1269 261.838 28.017 261.357 28.017C261 28.017 260.682 28.0795 260.402 28.2045C260.122 28.3258 259.881 28.5057 259.68 28.7443C259.483 28.983 259.33 29.2746 259.22 29.6193C259.114 29.9602 259.057 30.3523 259.05 30.7955C259.05 31.697 259.256 32.4148 259.669 32.9489C260.086 33.483 260.654 33.75 261.374 33.75ZM270.959 35.1761C270.141 35.1761 269.427 34.9886 268.817 34.6136C268.207 34.2386 267.733 33.714 267.396 33.0398C267.059 32.3655 266.891 31.5777 266.891 30.6761C266.891 29.7708 267.059 28.9792 267.396 28.3011C267.733 27.6231 268.207 27.0966 268.817 26.7216C269.427 26.3466 270.141 26.1591 270.959 26.1591C271.777 26.1591 272.491 26.3466 273.101 26.7216C273.711 27.0966 274.184 27.6231 274.521 28.3011C274.858 28.9792 275.027 29.7708 275.027 30.6761C275.027 31.5777 274.858 32.3655 274.521 33.0398C274.184 33.714 273.711 34.2386 273.101 34.6136C272.491 34.9886 271.777 35.1761 270.959 35.1761ZM270.964 33.75C271.495 33.75 271.934 33.6098 272.283 33.3295C272.631 33.0492 272.889 32.6761 273.055 32.2102C273.226 31.7443 273.311 31.2311 273.311 30.6705C273.311 30.1136 273.226 29.6023 273.055 29.1364C272.889 28.6667 272.631 28.2898 272.283 28.0057C271.934 27.7216 271.495 27.5795 270.964 27.5795C270.43 27.5795 269.987 27.7216 269.635 28.0057C269.286 28.2898 269.027 28.6667 268.857 29.1364C268.69 29.6023 268.607 30.1136 268.607 30.6705C268.607 31.2311 268.69 31.7443 268.857 32.2102C269.027 32.6761 269.286 33.0492 269.635 33.3295C269.987 33.6098 270.43 33.75 270.964 33.75ZM275.872 27.7386V26.2727H283.236V27.7386H280.389V35H278.73V27.7386H275.872ZM286.107 38.2727C285.853 38.2727 285.622 38.2519 285.413 38.2102C285.205 38.1723 285.05 38.1307 284.947 38.0852L285.357 36.6932C285.667 36.7765 285.944 36.8125 286.186 36.8011C286.429 36.7898 286.643 36.6989 286.828 36.5284C287.018 36.358 287.184 36.0795 287.328 35.6932L287.538 35.1136L284.345 26.2727H286.163L288.374 33.0455H288.464L290.675 26.2727H292.499L288.902 36.1648C288.735 36.6193 288.523 37.0038 288.266 37.3182C288.008 37.6364 287.701 37.875 287.345 38.0341C286.989 38.1932 286.576 38.2727 286.107 38.2727ZM6.03977 55.8977L8.85795 49.2727H10.3239L6.67045 58H5.40909L1.82955 49.2727H3.27841L6.03977 55.8977ZM2.80682 49.2727V58H1.14205V49.2727H2.80682ZM9.31818 58V49.2727H10.9716V58H9.31818ZM16.9972 58.1761C16.1373 58.1761 15.3968 57.9924 14.7756 57.625C14.1581 57.2538 13.6809 56.733 13.3438 56.0625C13.0104 55.3883 12.8438 54.5985 12.8438 53.6932C12.8438 52.7992 13.0104 52.0114 13.3438 51.3295C13.6809 50.6477 14.1506 50.1155 14.7528 49.733C15.3589 49.3504 16.0672 49.1591 16.8778 49.1591C17.3703 49.1591 17.8475 49.2405 18.3097 49.4034C18.7718 49.5663 19.1866 49.822 19.554 50.1705C19.9214 50.5189 20.2112 50.9716 20.4233 51.5284C20.6354 52.0814 20.7415 52.7538 20.7415 53.5455V54.1477H13.804V52.875H19.0767C19.0767 52.428 18.9858 52.0322 18.804 51.6875C18.6222 51.339 18.3665 51.0644 18.0369 50.8636C17.7112 50.6629 17.3286 50.5625 16.8892 50.5625C16.4119 50.5625 15.9953 50.6799 15.6392 50.9148C15.2869 51.1458 15.0142 51.4489 14.821 51.8239C14.6316 52.1951 14.5369 52.5985 14.5369 53.0341V54.0284C14.5369 54.6117 14.6392 55.108 14.8438 55.517C15.0521 55.9261 15.3419 56.2386 15.7131 56.4545C16.0843 56.6667 16.518 56.7727 17.0142 56.7727C17.3362 56.7727 17.6297 56.7273 17.8949 56.6364C18.16 56.5417 18.3892 56.4015 18.5824 56.2159C18.7756 56.0303 18.9233 55.8011 19.0256 55.5284L20.6335 55.8182C20.5047 56.2917 20.2737 56.7064 19.9403 57.0625C19.6108 57.4148 19.196 57.6894 18.696 57.8864C18.1998 58.0795 17.6335 58.1761 16.9972 58.1761ZM29.6321 49.2727V58H27.973V49.2727H29.6321ZM28.9105 53.3239V54.7898C28.6491 54.8958 28.3726 54.9905 28.081 55.0739C27.7893 55.1534 27.4825 55.2159 27.1605 55.2614C26.8385 55.3068 26.5033 55.3295 26.1548 55.3295C25.0753 55.3295 24.2173 55.0663 23.581 54.5398C22.9446 54.0095 22.6264 53.1989 22.6264 52.108V49.2557H24.2798V52.108C24.2798 52.5208 24.3556 52.8561 24.5071 53.1136C24.6586 53.3712 24.8745 53.5606 25.1548 53.6818C25.4351 53.803 25.7685 53.8636 26.1548 53.8636C26.6662 53.8636 27.1378 53.8163 27.5696 53.7216C28.0052 53.6231 28.4522 53.4905 28.9105 53.3239ZM30.8097 50.7386V49.2727H38.1733V50.7386H35.3267V58H33.6676V50.7386H30.8097ZM41.2486 52.2727H43.7827C44.8509 52.2727 45.6728 52.5379 46.2486 53.0682C46.8243 53.5985 47.1122 54.2822 47.1122 55.1193C47.1122 55.6648 46.9834 56.1553 46.7259 56.5909C46.4683 57.0265 46.0914 57.3712 45.5952 57.625C45.099 57.875 44.4948 58 43.7827 58H39.9702V49.2727H41.6349V56.5341H43.7827C44.2713 56.5341 44.6728 56.4072 44.9872 56.1534C45.3016 55.8958 45.4588 55.5682 45.4588 55.1705C45.4588 54.75 45.3016 54.4072 44.9872 54.142C44.6728 53.8731 44.2713 53.7386 43.7827 53.7386H41.2486V52.2727ZM48.3509 58V49.2727H50.0497V58H48.3509ZM58.2287 55.6193L62.0753 49.2727H63.9048V58H62.2401V51.6477L58.4105 58H56.5639V49.2727H58.2287V55.6193ZM72.0881 55.6193L75.9347 49.2727H77.7642V58H76.0994V51.6477L72.2699 58H70.4233V49.2727H72.0881V55.6193ZM79.196 60.517V56.5284H79.9062C80.0881 56.3617 80.2415 56.1629 80.3665 55.9318C80.4953 55.7008 80.6032 55.4261 80.6903 55.108C80.7813 54.7898 80.857 54.4186 80.9176 53.9943C80.9782 53.5663 81.0312 53.0777 81.0767 52.5284L81.3494 49.2727H87.2812V56.5284H88.6222V60.517H86.9631V58H80.8778V60.517H79.196ZM81.7244 56.5284H85.6222V50.7273H82.8722L82.6903 52.5284C82.6032 53.4451 82.4934 54.2405 82.3608 54.9148C82.2282 55.5852 82.0161 56.1231 81.7244 56.5284ZM94.044 58.1761C93.1842 58.1761 92.4437 57.9924 91.8224 57.625C91.205 57.2538 90.7277 56.733 90.3906 56.0625C90.0573 55.3883 89.8906 54.5985 89.8906 53.6932C89.8906 52.7992 90.0573 52.0114 90.3906 51.3295C90.7277 50.6477 91.1974 50.1155 91.7997 49.733C92.4058 49.3504 93.1141 49.1591 93.9247 49.1591C94.4171 49.1591 94.8944 49.2405 95.3565 49.4034C95.8187 49.5663 96.2334 49.822 96.6009 50.1705C96.9683 50.5189 97.258 50.9716 97.4702 51.5284C97.6823 52.0814 97.7884 52.7538 97.7884 53.5455V54.1477H90.8509V52.875H96.1236C96.1236 52.428 96.0327 52.0322 95.8509 51.6875C95.669 51.339 95.4134 51.0644 95.0838 50.8636C94.758 50.6629 94.3755 50.5625 93.9361 50.5625C93.4588 50.5625 93.0421 50.6799 92.6861 50.9148C92.3338 51.1458 92.0611 51.4489 91.8679 51.8239C91.6785 52.1951 91.5838 52.5985 91.5838 53.0341V54.0284C91.5838 54.6117 91.6861 55.108 91.8906 55.517C92.099 55.9261 92.3887 56.2386 92.7599 56.4545C93.1312 56.6667 93.5649 56.7727 94.0611 56.7727C94.383 56.7727 94.6766 56.7273 94.9418 56.6364C95.2069 56.5417 95.4361 56.4015 95.6293 56.2159C95.8224 56.0303 95.9702 55.8011 96.0724 55.5284L97.6804 55.8182C97.5516 56.2917 97.3205 56.7064 96.9872 57.0625C96.6577 57.4148 96.2429 57.6894 95.7429 57.8864C95.2467 58.0795 94.6804 58.1761 94.044 58.1761ZM102.213 58.1932C101.66 58.1932 101.16 58.0909 100.713 57.8864C100.266 57.678 99.9119 57.3769 99.6506 56.983C99.393 56.589 99.2642 56.1061 99.2642 55.5341C99.2642 55.0417 99.3589 54.6364 99.5483 54.3182C99.7377 54 99.9934 53.7481 100.315 53.5625C100.637 53.3769 100.997 53.2367 101.395 53.142C101.793 53.0473 102.198 52.9754 102.611 52.9261C103.134 52.8655 103.558 52.8163 103.884 52.7784C104.209 52.7367 104.446 52.6705 104.594 52.5795C104.741 52.4886 104.815 52.3409 104.815 52.1364V52.0966C104.815 51.6004 104.675 51.2159 104.395 50.9432C104.118 50.6705 103.705 50.5341 103.156 50.5341C102.584 50.5341 102.134 50.661 101.804 50.9148C101.478 51.1648 101.253 51.4432 101.128 51.75L99.5312 51.3864C99.7206 50.8561 99.9972 50.428 100.361 50.1023C100.728 49.7727 101.151 49.5341 101.628 49.3864C102.105 49.2348 102.607 49.1591 103.134 49.1591C103.482 49.1591 103.851 49.2008 104.241 49.2841C104.635 49.3636 105.003 49.5114 105.344 49.7273C105.688 49.9432 105.971 50.2519 106.19 50.6534C106.41 51.0511 106.52 51.5682 106.52 52.2045V58H104.861V56.8068H104.793C104.683 57.0265 104.518 57.2424 104.298 57.4545C104.079 57.6667 103.796 57.8428 103.452 57.983C103.107 58.1231 102.694 58.1932 102.213 58.1932ZM102.582 56.8295C103.052 56.8295 103.454 56.7367 103.787 56.5511C104.124 56.3655 104.38 56.1231 104.554 55.8239C104.732 55.5208 104.821 55.197 104.821 54.8523V53.7273C104.76 53.7879 104.643 53.8447 104.469 53.8977C104.298 53.947 104.103 53.9905 103.884 54.0284C103.664 54.0625 103.45 54.0947 103.241 54.125C103.033 54.1515 102.859 54.1742 102.719 54.1932C102.389 54.2348 102.088 54.3049 101.815 54.4034C101.546 54.5019 101.33 54.6439 101.168 54.8295C101.009 55.0114 100.929 55.2538 100.929 55.5568C100.929 55.9773 101.084 56.2955 101.395 56.5114C101.705 56.7235 102.101 56.8295 102.582 56.8295ZM108.095 58L108.089 56.5284H108.402C108.644 56.5284 108.847 56.4773 109.01 56.375C109.177 56.2689 109.313 56.0909 109.419 55.8409C109.525 55.5909 109.607 55.2462 109.663 54.8068C109.72 54.3636 109.762 53.8068 109.788 53.1364L109.942 49.2727H116.033V58H114.368V50.7386H111.516L111.379 53.7045C111.345 54.4242 111.271 55.053 111.158 55.5909C111.048 56.1288 110.887 56.5777 110.675 56.9375C110.463 57.2936 110.19 57.5606 109.857 57.7386C109.523 57.9129 109.118 58 108.641 58H108.095ZM119.577 52.2727H122.111C123.179 52.2727 124.001 52.5379 124.577 53.0682C125.152 53.5985 125.44 54.2822 125.44 55.1193C125.44 55.6648 125.312 56.1553 125.054 56.5909C124.796 57.0265 124.42 57.3712 123.923 57.625C123.427 57.875 122.823 58 122.111 58H118.298V49.2727H119.963V56.5341H122.111C122.599 56.5341 123.001 56.4072 123.315 56.1534C123.63 55.8958 123.787 55.5682 123.787 55.1705C123.787 54.75 123.63 54.4072 123.315 54.142C123.001 53.8731 122.599 53.7386 122.111 53.7386H119.577V52.2727ZM133.26 52.9034V54.375H128.533V52.9034H133.26ZM129.01 49.2727V58H127.345V49.2727H129.01ZM134.447 49.2727V58H132.788V49.2727H134.447ZM140.396 58.1761C139.578 58.1761 138.864 57.9886 138.254 57.6136C137.644 57.2386 137.171 56.714 136.834 56.0398C136.497 55.3655 136.328 54.5777 136.328 53.6761C136.328 52.7708 136.497 51.9792 136.834 51.3011C137.171 50.6231 137.644 50.0966 138.254 49.7216C138.864 49.3466 139.578 49.1591 140.396 49.1591C141.214 49.1591 141.929 49.3466 142.538 49.7216C143.148 50.0966 143.622 50.6231 143.959 51.3011C144.296 51.9792 144.464 52.7708 144.464 53.6761C144.464 54.5777 144.296 55.3655 143.959 56.0398C143.622 56.714 143.148 57.2386 142.538 57.6136C141.929 57.9886 141.214 58.1761 140.396 58.1761ZM140.402 56.75C140.932 56.75 141.372 56.6098 141.72 56.3295C142.069 56.0492 142.326 55.6761 142.493 55.2102C142.663 54.7443 142.749 54.2311 142.749 53.6705C142.749 53.1136 142.663 52.6023 142.493 52.1364C142.326 51.6667 142.069 51.2898 141.72 51.0057C141.372 50.7216 140.932 50.5795 140.402 50.5795C139.868 50.5795 139.425 50.7216 139.072 51.0057C138.724 51.2898 138.464 51.6667 138.294 52.1364C138.127 52.6023 138.044 53.1136 138.044 53.6705C138.044 54.2311 138.127 54.7443 138.294 55.2102C138.464 55.6761 138.724 56.0492 139.072 56.3295C139.425 56.6098 139.868 56.75 140.402 56.75ZM151.94 49.2727V50.7386H148.037V58H146.361V49.2727H151.94ZM157.006 58.1761C156.188 58.1761 155.473 57.9886 154.864 57.6136C154.254 57.2386 153.78 56.714 153.443 56.0398C153.106 55.3655 152.938 54.5777 152.938 53.6761C152.938 52.7708 153.106 51.9792 153.443 51.3011C153.78 50.6231 154.254 50.0966 154.864 49.7216C155.473 49.3466 156.188 49.1591 157.006 49.1591C157.824 49.1591 158.538 49.3466 159.148 49.7216C159.758 50.0966 160.231 50.6231 160.568 51.3011C160.905 51.9792 161.074 52.7708 161.074 53.6761C161.074 54.5777 160.905 55.3655 160.568 56.0398C160.231 56.714 159.758 57.2386 159.148 57.6136C158.538 57.9886 157.824 58.1761 157.006 58.1761ZM157.011 56.75C157.542 56.75 157.981 56.6098 158.33 56.3295C158.678 56.0492 158.936 55.6761 159.102 55.2102C159.273 54.7443 159.358 54.2311 159.358 53.6705C159.358 53.1136 159.273 52.6023 159.102 52.1364C158.936 51.6667 158.678 51.2898 158.33 51.0057C157.981 50.7216 157.542 50.5795 157.011 50.5795C156.477 50.5795 156.034 50.7216 155.682 51.0057C155.333 51.2898 155.074 51.6667 154.903 52.1364C154.737 52.6023 154.653 53.1136 154.653 53.6705C154.653 54.2311 154.737 54.7443 154.903 55.2102C155.074 55.6761 155.333 56.0492 155.682 56.3295C156.034 56.6098 156.477 56.75 157.011 56.75ZM170.881 58.1761C170.036 58.1761 169.309 57.9848 168.699 57.6023C168.093 57.2159 167.627 56.6837 167.301 56.0057C166.975 55.3277 166.812 54.5511 166.812 53.6761C166.812 52.7898 166.979 52.0076 167.312 51.3295C167.646 50.6477 168.116 50.1155 168.722 49.733C169.328 49.3504 170.042 49.1591 170.864 49.1591C171.527 49.1591 172.117 49.2822 172.636 49.5284C173.155 49.7708 173.574 50.1117 173.892 50.5511C174.214 50.9905 174.405 51.5038 174.466 52.0909H172.812C172.722 51.6818 172.513 51.3295 172.188 51.0341C171.866 50.7386 171.434 50.5909 170.892 50.5909C170.419 50.5909 170.004 50.7159 169.648 50.9659C169.295 51.2121 169.021 51.5644 168.824 52.0227C168.627 52.4773 168.528 53.0152 168.528 53.6364C168.528 54.2727 168.625 54.822 168.818 55.2841C169.011 55.7462 169.284 56.1042 169.636 56.358C169.992 56.6117 170.411 56.7386 170.892 56.7386C171.214 56.7386 171.506 56.6799 171.767 56.5625C172.032 56.4413 172.254 56.2689 172.432 56.0455C172.614 55.822 172.741 55.553 172.812 55.2386H174.466C174.405 55.803 174.222 56.3068 173.915 56.75C173.608 57.1932 173.197 57.5417 172.682 57.7955C172.17 58.0492 171.57 58.1761 170.881 58.1761ZM179.959 58.1761C179.141 58.1761 178.427 57.9886 177.817 57.6136C177.207 57.2386 176.733 56.714 176.396 56.0398C176.059 55.3655 175.891 54.5777 175.891 53.6761C175.891 52.7708 176.059 51.9792 176.396 51.3011C176.733 50.6231 177.207 50.0966 177.817 49.7216C178.427 49.3466 179.141 49.1591 179.959 49.1591C180.777 49.1591 181.491 49.3466 182.101 49.7216C182.711 50.0966 183.184 50.6231 183.521 51.3011C183.858 51.9792 184.027 52.7708 184.027 53.6761C184.027 54.5777 183.858 55.3655 183.521 56.0398C183.184 56.714 182.711 57.2386 182.101 57.6136C181.491 57.9886 180.777 58.1761 179.959 58.1761ZM179.964 56.75C180.495 56.75 180.934 56.6098 181.283 56.3295C181.631 56.0492 181.889 55.6761 182.055 55.2102C182.226 54.7443 182.311 54.2311 182.311 53.6705C182.311 53.1136 182.226 52.6023 182.055 52.1364C181.889 51.6667 181.631 51.2898 181.283 51.0057C180.934 50.7216 180.495 50.5795 179.964 50.5795C179.43 50.5795 178.987 50.7216 178.635 51.0057C178.286 51.2898 178.027 51.6667 177.857 52.1364C177.69 52.6023 177.607 53.1136 177.607 53.6705C177.607 54.2311 177.69 54.7443 177.857 55.2102C178.027 55.6761 178.286 56.0492 178.635 56.3295C178.987 56.6098 179.43 56.75 179.964 56.75ZM184.872 50.7386V49.2727H192.236V50.7386H189.389V58H187.73V50.7386H184.872ZM194.033 61.2727V49.2727H195.692V50.6875H195.834C195.932 50.5057 196.074 50.2955 196.26 50.0568C196.446 49.8182 196.703 49.6098 197.033 49.4318C197.362 49.25 197.798 49.1591 198.339 49.1591C199.044 49.1591 199.673 49.3371 200.226 49.6932C200.779 50.0492 201.213 50.5625 201.527 51.233C201.845 51.9034 202.004 52.7102 202.004 53.6534C202.004 54.5966 201.847 55.4053 201.533 56.0795C201.218 56.75 200.786 57.267 200.237 57.6307C199.688 57.9905 199.061 58.1705 198.357 58.1705C197.826 58.1705 197.393 58.0814 197.055 57.9034C196.722 57.7254 196.461 57.517 196.271 57.2784C196.082 57.0398 195.936 56.8277 195.834 56.642H195.732V61.2727H194.033ZM195.697 53.6364C195.697 54.25 195.786 54.7879 195.964 55.25C196.143 55.7121 196.4 56.0739 196.737 56.3352C197.074 56.5928 197.487 56.7216 197.976 56.7216C198.483 56.7216 198.908 56.5871 199.249 56.3182C199.589 56.0455 199.847 55.6761 200.021 55.2102C200.199 54.7443 200.288 54.2197 200.288 53.6364C200.288 53.0606 200.201 52.5436 200.027 52.0852C199.857 51.6269 199.599 51.2652 199.254 51C198.913 50.7348 198.487 50.6023 197.976 50.6023C197.483 50.6023 197.067 50.7292 196.726 50.983C196.389 51.2367 196.133 51.5909 195.959 52.0455C195.785 52.5 195.697 53.0303 195.697 53.6364ZM204.685 61.2727C204.431 61.2727 204.2 61.2519 203.991 61.2102C203.783 61.1723 203.628 61.1307 203.526 61.0852L203.935 59.6932C204.245 59.7765 204.522 59.8125 204.764 59.8011C205.007 59.7898 205.221 59.6989 205.406 59.5284C205.596 59.358 205.762 59.0795 205.906 58.6932L206.116 58.1136L202.923 49.2727H204.741L206.952 56.0455H207.043L209.253 49.2727H211.077L207.48 59.1648C207.313 59.6193 207.101 60.0038 206.844 60.3182C206.586 60.6364 206.279 60.875 205.923 61.0341C205.567 61.1932 205.154 61.2727 204.685 61.2727ZM211.102 60.517V56.5284H211.812C211.994 56.3617 212.148 56.1629 212.273 55.9318C212.402 55.7008 212.509 55.4261 212.597 55.108C212.688 54.7898 212.763 54.4186 212.824 53.9943C212.884 53.5663 212.938 53.0777 212.983 52.5284L213.256 49.2727H219.188V56.5284H220.528V60.517H218.869V58H212.784V60.517H211.102ZM213.631 56.5284H217.528V50.7273H214.778L214.597 52.5284C214.509 53.4451 214.4 54.2405 214.267 54.9148C214.134 55.5852 213.922 56.1231 213.631 56.5284ZM228.104 52.9034V54.375H223.376V52.9034H228.104ZM223.854 49.2727V58H222.189V49.2727H223.854ZM229.291 49.2727V58H227.632V49.2727H229.291ZM233.229 55.6193L237.075 49.2727H238.905V58H237.24V51.6477L233.411 58H231.564V49.2727H233.229V55.6193ZM241.189 58V49.2727H242.888V52.9318H243.706L246.587 49.2727H248.689L245.308 53.517L248.729 58H246.621L243.99 54.5114H242.888V58H241.189ZM252.588 58.1932C252.035 58.1932 251.535 58.0909 251.088 57.8864C250.641 57.678 250.287 57.3769 250.026 56.983C249.768 56.589 249.639 56.1061 249.639 55.5341C249.639 55.0417 249.734 54.6364 249.923 54.3182C250.113 54 250.368 53.7481 250.69 53.5625C251.012 53.3769 251.372 53.2367 251.77 53.142C252.168 53.0473 252.573 52.9754 252.986 52.9261C253.509 52.8655 253.933 52.8163 254.259 52.7784C254.584 52.7367 254.821 52.6705 254.969 52.5795C255.116 52.4886 255.19 52.3409 255.19 52.1364V52.0966C255.19 51.6004 255.05 51.2159 254.77 50.9432C254.493 50.6705 254.08 50.5341 253.531 50.5341C252.959 50.5341 252.509 50.661 252.179 50.9148C251.853 51.1648 251.628 51.4432 251.503 51.75L249.906 51.3864C250.096 50.8561 250.372 50.428 250.736 50.1023C251.103 49.7727 251.526 49.5341 252.003 49.3864C252.48 49.2348 252.982 49.1591 253.509 49.1591C253.857 49.1591 254.226 49.2008 254.616 49.2841C255.01 49.3636 255.378 49.5114 255.719 49.7273C256.063 49.9432 256.346 50.2519 256.565 50.6534C256.785 51.0511 256.895 51.5682 256.895 52.2045V58H255.236V56.8068H255.168C255.058 57.0265 254.893 57.2424 254.673 57.4545C254.454 57.6667 254.171 57.8428 253.827 57.983C253.482 58.1231 253.069 58.1932 252.588 58.1932ZM252.957 56.8295C253.427 56.8295 253.829 56.7367 254.162 56.5511C254.499 56.3655 254.755 56.1231 254.929 55.8239C255.107 55.5208 255.196 55.197 255.196 54.8523V53.7273C255.135 53.7879 255.018 53.8447 254.844 53.8977C254.673 53.947 254.478 53.9905 254.259 54.0284C254.039 54.0625 253.825 54.0947 253.616 54.125C253.408 54.1515 253.234 54.1742 253.094 54.1932C252.764 54.2348 252.463 54.3049 252.19 54.4034C251.921 54.5019 251.705 54.6439 251.543 54.8295C251.384 55.0114 251.304 55.2538 251.304 55.5568C251.304 55.9773 251.459 56.2955 251.77 56.5114C252.08 56.7235 252.476 56.8295 252.957 56.8295ZM1.14205 81V72.2727H4.76136C5.74621 72.2727 6.52652 72.483 7.10227 72.9034C7.67803 73.3201 7.96591 73.8864 7.96591 74.6023C7.96591 75.1136 7.80303 75.5189 7.47727 75.8182C7.15152 76.1174 6.7197 76.3182 6.18182 76.4205C6.57197 76.4659 6.92992 76.5833 7.25568 76.7727C7.58144 76.9583 7.8428 77.2083 8.03977 77.5227C8.24053 77.8371 8.34091 78.2121 8.34091 78.6477C8.34091 79.1098 8.22159 79.5189 7.98295 79.875C7.74432 80.2273 7.39773 80.5038 6.94318 80.7045C6.49242 80.9015 5.94886 81 5.3125 81H1.14205ZM2.73864 79.5795H5.3125C5.73295 79.5795 6.0625 79.4792 6.30114 79.2784C6.53977 79.0777 6.65909 78.8049 6.65909 78.4602C6.65909 78.0549 6.53977 77.7367 6.30114 77.5057C6.0625 77.2708 5.73295 77.1534 5.3125 77.1534H2.73864V79.5795ZM2.73864 75.9091H4.77841C5.09659 75.9091 5.36932 75.8636 5.59659 75.7727C5.82765 75.6818 6.00379 75.553 6.125 75.3864C6.25 75.2159 6.3125 75.0152 6.3125 74.7841C6.3125 74.447 6.17424 74.1837 5.89773 73.9943C5.62121 73.8049 5.24242 73.7102 4.76136 73.7102H2.73864V75.9091ZM18.1151 81.1761C17.2704 81.1761 16.5431 80.9848 15.9332 80.6023C15.3272 80.2159 14.8613 79.6837 14.5355 79.0057C14.2098 78.3277 14.0469 77.5511 14.0469 76.6761C14.0469 75.7898 14.2135 75.0076 14.5469 74.3295C14.8802 73.6477 15.3499 73.1155 15.956 72.733C16.562 72.3504 17.276 72.1591 18.098 72.1591C18.7609 72.1591 19.3518 72.2822 19.8707 72.5284C20.3897 72.7708 20.8082 73.1117 21.1264 73.5511C21.4484 73.9905 21.6397 74.5038 21.7003 75.0909H20.0469C19.956 74.6818 19.7476 74.3295 19.4219 74.0341C19.0999 73.7386 18.6681 73.5909 18.1264 73.5909C17.6529 73.5909 17.2382 73.7159 16.8821 73.9659C16.5298 74.2121 16.2552 74.5644 16.0582 75.0227C15.8613 75.4773 15.7628 76.0152 15.7628 76.6364C15.7628 77.2727 15.8594 77.822 16.0526 78.2841C16.2457 78.7462 16.5185 79.1042 16.8707 79.358C17.2268 79.6117 17.6454 79.7386 18.1264 79.7386C18.4484 79.7386 18.7401 79.6799 19.0014 79.5625C19.2666 79.4413 19.4882 79.2689 19.6662 79.0455C19.848 78.822 19.9749 78.553 20.0469 78.2386H21.7003C21.6397 78.803 21.456 79.3068 21.1491 79.75C20.8423 80.1932 20.4313 80.5417 19.9162 80.7955C19.4048 81.0492 18.8045 81.1761 18.1151 81.1761ZM23.517 81V72.2727H27.1364C28.1212 72.2727 28.9015 72.483 29.4773 72.9034C30.053 73.3201 30.3409 73.8864 30.3409 74.6023C30.3409 75.1136 30.178 75.5189 29.8523 75.8182C29.5265 76.1174 29.0947 76.3182 28.5568 76.4205C28.947 76.4659 29.3049 76.5833 29.6307 76.7727C29.9564 76.9583 30.2178 77.2083 30.4148 77.5227C30.6155 77.8371 30.7159 78.2121 30.7159 78.6477C30.7159 79.1098 30.5966 79.5189 30.358 79.875C30.1193 80.2273 29.7727 80.5038 29.3182 80.7045C28.8674 80.9015 28.3239 81 27.6875 81H23.517ZM25.1136 79.5795H27.6875C28.108 79.5795 28.4375 79.4792 28.6761 79.2784C28.9148 79.0777 29.0341 78.8049 29.0341 78.4602C29.0341 78.0549 28.9148 77.7367 28.6761 77.5057C28.4375 77.2708 28.108 77.1534 27.6875 77.1534H25.1136V79.5795ZM25.1136 75.9091H27.1534C27.4716 75.9091 27.7443 75.8636 27.9716 75.7727C28.2027 75.6818 28.3788 75.553 28.5 75.3864C28.625 75.2159 28.6875 75.0152 28.6875 74.7841C28.6875 74.447 28.5492 74.1837 28.2727 73.9943C27.9962 73.8049 27.6174 73.7102 27.1364 73.7102H25.1136V75.9091ZM36.2557 81.1761C35.4375 81.1761 34.7235 80.9886 34.1136 80.6136C33.5038 80.2386 33.0303 79.714 32.6932 79.0398C32.3561 78.3655 32.1875 77.5777 32.1875 76.6761C32.1875 75.7708 32.3561 74.9792 32.6932 74.3011C33.0303 73.6231 33.5038 73.0966 34.1136 72.7216C34.7235 72.3466 35.4375 72.1591 36.2557 72.1591C37.0739 72.1591 37.7879 72.3466 38.3977 72.7216C39.0076 73.0966 39.4811 73.6231 39.8182 74.3011C40.1553 74.9792 40.3239 75.7708 40.3239 76.6761C40.3239 77.5777 40.1553 78.3655 39.8182 79.0398C39.4811 79.714 39.0076 80.2386 38.3977 80.6136C37.7879 80.9886 37.0739 81.1761 36.2557 81.1761ZM36.2614 79.75C36.7917 79.75 37.2311 79.6098 37.5795 79.3295C37.928 79.0492 38.1856 78.6761 38.3523 78.2102C38.5227 77.7443 38.608 77.2311 38.608 76.6705C38.608 76.1136 38.5227 75.6023 38.3523 75.1364C38.1856 74.6667 37.928 74.2898 37.5795 74.0057C37.2311 73.7216 36.7917 73.5795 36.2614 73.5795C35.7273 73.5795 35.2841 73.7216 34.9318 74.0057C34.5833 74.2898 34.3239 74.6667 34.1534 75.1364C33.9867 75.6023 33.9034 76.1136 33.9034 76.6705C33.9034 77.2311 33.9867 77.7443 34.1534 78.2102C34.3239 78.6761 34.5833 79.0492 34.9318 79.3295C35.2841 79.6098 35.7273 79.75 36.2614 79.75ZM43.8849 78.6193L47.7315 72.2727H49.5611V81H47.8963V74.6477L44.0668 81H42.2202V72.2727H43.8849V78.6193ZM47.0043 69.3182H48.402C48.402 69.9583 48.1747 70.4792 47.7202 70.8807C47.2694 71.2784 46.6596 71.4773 45.8906 71.4773C45.1255 71.4773 44.5175 71.2784 44.0668 70.8807C43.616 70.4792 43.3906 69.9583 43.3906 69.3182H44.7827C44.7827 69.6023 44.866 69.8542 45.0327 70.0739C45.1993 70.2898 45.4853 70.3977 45.8906 70.3977C46.2884 70.3977 46.5724 70.2898 46.7429 70.0739C46.9171 69.858 47.0043 69.6061 47.0043 69.3182ZM56.0795 81V72.2727H63.1989V81H61.5341V73.7386H57.733V81H56.0795ZM65.4702 84.2727V72.2727H67.1293V73.6875H67.2713C67.3698 73.5057 67.5118 73.2955 67.6974 73.0568C67.883 72.8182 68.1406 72.6098 68.4702 72.4318C68.7997 72.25 69.2353 72.1591 69.777 72.1591C70.4815 72.1591 71.1103 72.3371 71.6634 72.6932C72.2164 73.0492 72.6501 73.5625 72.9645 74.233C73.2827 74.9034 73.4418 75.7102 73.4418 76.6534C73.4418 77.5966 73.2846 78.4053 72.9702 79.0795C72.6558 79.75 72.224 80.267 71.6747 80.6307C71.1255 80.9905 70.4986 81.1705 69.794 81.1705C69.2637 81.1705 68.83 81.0814 68.4929 80.9034C68.1596 80.7254 67.8982 80.517 67.7088 80.2784C67.5194 80.0398 67.3736 79.8277 67.2713 79.642H67.169V84.2727H65.4702ZM67.1349 76.6364C67.1349 77.25 67.224 77.7879 67.402 78.25C67.58 78.7121 67.8376 79.0739 68.1747 79.3352C68.5118 79.5928 68.9247 79.7216 69.4134 79.7216C69.9209 79.7216 70.3452 79.5871 70.6861 79.3182C71.027 79.0455 71.2846 78.6761 71.4588 78.2102C71.6368 77.7443 71.7259 77.2197 71.7259 76.6364C71.7259 76.0606 71.6387 75.5436 71.4645 75.0852C71.294 74.6269 71.0365 74.2652 70.6918 74C70.3509 73.7348 69.9247 73.6023 69.4134 73.6023C68.9209 73.6023 68.5043 73.7292 68.1634 73.983C67.8262 74.2367 67.5705 74.5909 67.3963 75.0455C67.2221 75.5 67.1349 76.0303 67.1349 76.6364ZM79.0213 81.1761C78.2031 81.1761 77.4891 80.9886 76.8793 80.6136C76.2694 80.2386 75.7959 79.714 75.4588 79.0398C75.1217 78.3655 74.9531 77.5777 74.9531 76.6761C74.9531 75.7708 75.1217 74.9792 75.4588 74.3011C75.7959 73.6231 76.2694 73.0966 76.8793 72.7216C77.4891 72.3466 78.2031 72.1591 79.0213 72.1591C79.8395 72.1591 80.5535 72.3466 81.1634 72.7216C81.7732 73.0966 82.2467 73.6231 82.5838 74.3011C82.9209 74.9792 83.0895 75.7708 83.0895 76.6761C83.0895 77.5777 82.9209 78.3655 82.5838 79.0398C82.2467 79.714 81.7732 80.2386 81.1634 80.6136C80.5535 80.9886 79.8395 81.1761 79.0213 81.1761ZM79.027 79.75C79.5573 79.75 79.9967 79.6098 80.3452 79.3295C80.6937 79.0492 80.9512 78.6761 81.1179 78.2102C81.2884 77.7443 81.3736 77.2311 81.3736 76.6705C81.3736 76.1136 81.2884 75.6023 81.1179 75.1364C80.9512 74.6667 80.6937 74.2898 80.3452 74.0057C79.9967 73.7216 79.5573 73.5795 79.027 73.5795C78.4929 73.5795 78.0497 73.7216 77.6974 74.0057C77.349 74.2898 77.0895 74.6667 76.919 75.1364C76.7524 75.6023 76.669 76.1136 76.669 76.6705C76.669 77.2311 76.7524 77.7443 76.919 78.2102C77.0895 78.6761 77.349 79.0492 77.6974 79.3295C78.0497 79.6098 78.4929 79.75 79.027 79.75ZM88.7472 81.1761C87.8873 81.1761 87.1468 80.9924 86.5256 80.625C85.9081 80.2538 85.4309 79.733 85.0938 79.0625C84.7604 78.3883 84.5938 77.5985 84.5938 76.6932C84.5938 75.7992 84.7604 75.0114 85.0938 74.3295C85.4309 73.6477 85.9006 73.1155 86.5028 72.733C87.1089 72.3504 87.8172 72.1591 88.6278 72.1591C89.1203 72.1591 89.5975 72.2405 90.0597 72.4034C90.5218 72.5663 90.9366 72.822 91.304 73.1705C91.6714 73.5189 91.9612 73.9716 92.1733 74.5284C92.3854 75.0814 92.4915 75.7538 92.4915 76.5455V77.1477H85.554V75.875H90.8267C90.8267 75.428 90.7358 75.0322 90.554 74.6875C90.3722 74.339 90.1165 74.0644 89.7869 73.8636C89.4612 73.6629 89.0786 73.5625 88.6392 73.5625C88.1619 73.5625 87.7453 73.6799 87.3892 73.9148C87.0369 74.1458 86.7642 74.4489 86.571 74.8239C86.3816 75.1951 86.2869 75.5985 86.2869 76.0341V77.0284C86.2869 77.6117 86.3892 78.108 86.5938 78.517C86.8021 78.9261 87.0919 79.2386 87.4631 79.4545C87.8343 79.6667 88.268 79.7727 88.7642 79.7727C89.0862 79.7727 89.3797 79.7273 89.6449 79.6364C89.91 79.5417 90.1392 79.4015 90.3324 79.2159C90.5256 79.0303 90.6733 78.8011 90.7756 78.5284L92.3835 78.8182C92.2547 79.2917 92.0237 79.7064 91.6903 80.0625C91.3608 80.4148 90.946 80.6894 90.446 80.8864C89.9498 81.0795 89.3835 81.1761 88.7472 81.1761ZM94.3764 81V72.2727H96.0753V75.9318H96.8935L99.7741 72.2727H101.876L98.4957 76.517L101.916 81H99.8082L97.1776 77.5114H96.0753V81H94.3764ZM102.747 73.7386V72.2727H110.111V73.7386H107.264V81H105.605V73.7386H102.747Z" fill="#343434"/>
</svg>
